<?xml version="1.0" encoding="utf-8" ?>
<svg baseProfile="full" height="200mm" version="1.1" viewBox="0,0,200,200" width="200mm" xmlns="http://www.w3.org/2000/svg" xmlns:ev="http://www.w3.org/2001/xml-events" xmlns:xlink="http://www.w3.org/1999/xlink"><defs /><rect fill="#1a1a1a" height="200" width="200" x="0" y="0" /><text alignment-baseline="middle" fill="#e1ed5e" style="dominant-baseline: central; font-size:9.0px; font-family:Arial;" text-anchor="middle" x="100.0" y="100.0">2025</text><line stroke="#e1ed5e" stroke-width="0.3" x1="100.0" x2="100.0" y1="15.0" y2="10.0" /><path d="M 100.0 14.0 a86.0,86.0 0 0,1 42.46469731375804,11.215312516191453" fill="none" id="id121" stroke="none" /><text fill="#e1ed5e" style="font-size:6.75px; font-family:Arial;" text-anchor="middle"><textPath startOffset="22.20632615414155" xlink:href="#id121">January</textPath></text><path d="M 100.0 79.0 l 0.0 -31.290183315621675 a52.290183315621675,52.290183315621675 0 0,0 0.9000895488656805,0.007747354915499073 l -0.5386090695931521 31.285547337314735" fill="#ffe815" stroke="none" /><path d="M 101.08401301168833 79.027996857942 l 3.23448162832679 -62.57633270153175 a83.65986981934111,83.65986981934111 0 0,0 1.4375074295217063,0.0867143738112584 l -4.311151106688109 62.51138505834019" fill="#4cd6ff" stroke="none" /><path d="M 102.16513564639614 79.11191278185805 l 3.1694321889204344 -30.57701077729337 a51.74083421891605,51.74083421891605 0 0,0 0.8850966876008581,0.09945092570867889 l -3.695295580031018 30.51792389811409" fill="#ffde14" stroke="none" /><path d="M 103.2404852339499 79.25152402106235 l 4.831671959148606 -30.936672240380666 a52.31170297555792,52.31170297555792 0 0,0 0.8884788870723623,0.14660662914780664 l -5.363480052359844 30.848919348293236" fill="#ffe815" stroke="none" /><path d="M 103.95276090670814 79.375362276772 l 5.872320797081485 -30.640479374515902 a52.19812699256111,52.19812699256111 0 0,0 0.8809890270983045,0.17671811092145628 l -6.398876233646915 30.534857307517235" fill="#ffe615" stroke="none" /><path d="M 104.307194497241 79.44645832069477 l 6.2647463913444135 -29.8948018593667 a51.544168437832084,51.544168437832084 0 0,0 0.8668189576798325,0.18945305025111883 l -6.778408073177774 29.782535311019714" fill="#ffdb14" stroke="none" /><path d="M 104.66035177308747 79.52364482259891 l 6.997956488174921 -30.747173077223945 a52.53347502656747,52.53347502656747 0 0,0 0.8800015312329644,0.20826793073368244 l -7.526181706370409 30.622159234349397" fill="#ffec16" stroke="none" /><path d="M 105.36241919743992 79.69619591428918 l 7.665381639698599 -29.023543539629944 a51.01873007438895,51.01873007438895 0 0,0 0.847158993622151,0.23156055457331506 l -8.163838522544461 28.887296444230333" fill="#ffd213" stroke="none" /><path d="M 105.71112130821622 79.79150937346287 l 8.426873504612185 -29.818031352963555 a51.98591923485654,51.98591923485654 0 0,0 0.8590296435778604,0.25077430910420395 l -8.938893365913472 29.668558714940648" fill="#ffe315" stroke="none" /><path d="M 106.40334571778207 80.00007090966166 l 9.497842492661343 -29.665144556684105 a52.14851222104144,52.14851222104144 0 0,0 0.8525466685707024,0.2810712325581613 l -10.007071983474463 29.49725959986671" fill="#ffe515" stroke="none" /><path d="M 106.74666289553966 80.11325718540242 l 9.616644844793194 -28.34642040499205 a50.93324920297556,50.93324920297556 0 0,0 0.827830216405023,0.28881370763131775 l -10.103157065261492 28.176685844188523" fill="#ffd013" stroke="none" /><path d="M 107.08798089147638 80.2323363322302 l 10.181843660477705 -28.39613482030901 a51.1663788522848,51.1663788522848 0 0,0 0.8265019063291086,0.30440762723752557 l -10.669127892579391 28.216663925265156" fill="#ffd413" stroke="none" /><path d="M 107.4271985657038 80.35727306442388 l 10.61733087814004 -28.07967625734304 a51.019925611052074,51.019925611052074 0 0,0 0.8187892310185333,0.3176775009812672 l -11.099103274158239 27.892756052471224" fill="#ffd213" stroke="none" /><path d="M 107.76421540070413 80.48803036053334 l 11.062636686339916 -27.801113186110054 a50.92129383634431,50.92129383634431 0 0,0 0.8116275442120887,0.3310832540380961 l -11.539548100140392 27.606569045888378" fill="#ffd013" stroke="none" /><path d="M 108.09893153111575 80.62456947434976 l 12.07900554803428 -28.89713685264852 a52.320071732199786,52.320071732199786 0 0,0 0.8279433157231326,0.35448211919419187 l -12.574632621547728 28.684935205491538" fill="#ffe815" stroke="none" /><line stroke="#e1ed5e" stroke-width="0.3" x1="143.23703022742887" x2="145.7803849466894" y1="26.81831364943548" y2="22.513508569990506" /><path d="M 143.74570117128098 25.957352633546492 a86.0,86.0 0 0,1 28.547481713284135,27.462654790039103" fill="none" id="id122" stroke="none" /><text fill="#e1ed5e" style="font-size:6.75px; font-family:Arial;" text-anchor="middle"><textPath startOffset="19.985693538727396" xlink:href="#id122">February</textPath></text><path d="M 111.60114157652 82.49532879139004 l 20.09406398368945 -30.31942856306098 a57.37360520722635,57.37360520722635 0 0,0 0.8185172754789238,0.5526665181857562 l -20.612985953574913 29.969050132576555" fill="#c0ff1e" stroke="none" /><path d="M 111.90073688211348 82.69761687909136 l 16.954755985742157 -24.650379778393347 a50.9183049946865,50.9183049946865 0 0,0 0.7178725968623298,0.5029156303174659 l -17.376559722188137 24.354879305311947" fill="#ffd013" stroke="none" /><path d="M 112.19680574252982 82.90503203632743 l 17.5668165599056 -24.62154211968379 a51.24588204038257,51.24588204038257 0 0,0 0.7136713438233878,0.5185125823064242 l -17.988033220082777 24.315510302560693" fill="#ffd614" stroke="none" /><path d="M 112.48926042617603 83.11751280151076 l 18.13379181963679 -24.512540999901496 a51.49096705632306,51.49096705632306 0 0,0 0.7080102278196989,0.533258625002438 l -18.553048201214875 24.19676578539321" fill="#ffda14" stroke="none" /><path d="M 112.77801427241765 83.33499621200491 l 18.341722115014555 -23.92115566695466 a51.14366365568544,51.14366365568544 0 0,0 0.6940132929402947,0.5416883833963432 l -18.750767963114278 23.601888894335094" fill="#ffd413" stroke="none" /><path d="M 113.06298171725822 83.55741782278167 l 24.84410753539805 -31.271672012733355 a60.93929330499468,60.93929330499468 0 0,0 0.8157061067578887,0.659577609774197 l -25.378717040720428 30.839388305695028" fill="#88ff25" stroke="none" /><path d="M 113.34407831869373 83.78471172551755 l 19.136405012594597 -23.253934547264283 a51.11556854410202,51.11556854410202 0 0,0 0.6745854555260713,0.5649459189639511 l -19.533848005079786 22.921087470906514" fill="#ffd313" stroke="none" /><path d="M 113.6212207817346 84.01681056812373 l 19.50244185802914 -22.884235385056105 a51.06714930924548,51.06714930924548 0 0,0 0.6641311981803121,0.5759280306044658 l -19.893466854856214 22.545142361031967" fill="#ffd213" stroke="none" /><path d="M 113.89432698308785 84.25364557470407 l 19.931039755932005 -22.587723496328852 a51.12393730074388,51.12393730074388 0 0,0 0.6548465430824583,0.5879276920831398 l -20.316897286610455 22.241296795476412" fill="#ffd313" stroke="none" /><path d="M 114.16331599549186 84.49514656593476 l 20.339071143632395 -22.26557094167936 a51.156814558979804,51.156814558979804 0 0,0 0.6450438659708025,0.5994979739997615 l -20.719322893398044 21.912168381604957" fill="#ffd413" stroke="none" /><path d="M 114.94478906791727 85.2469230424477 l 22.262335893680152 -21.976754118224154 a52.28241232731136,52.28241232731136 0 0,0 0.6267310267901607,0.6459014143198402 l -22.637331184173423 21.5902885083542" fill="#ffe815" stroke="none" /><path d="M 115.19652480421416 85.50635884689758 l 21.766132204487473 -20.75938502567008 a51.07850690754516,51.07850690754516 0 0,0 0.6013464786906,0.6414744957964377 l -22.120246005148537 20.38164111299559" fill="#ffd313" stroke="none" /><path d="M 115.4437574822437 85.77008943001954 l 22.106178516930317 -20.368679299815106 a51.05937832093518,51.05937832093518 0 0,0 0.5899944217031736,0.6514865764211522 l -22.453516579249523 19.985139936124405" fill="#ffd213" stroke="none" /><path d="M 115.68641384162765 86.03803664274999 l 23.002731577310158 -20.473978223549 a51.79463336875665,51.79463336875665 0 0,0 0.5870259126079223,0.671072095800495 l -23.35174935349593 20.074990571545555" fill="#ffdf14" stroke="none" /><path d="M 115.9244219780498 86.31012108654704 l 23.193550725412024 -19.93899065483095 a51.58601222104144,51.58601222104144 0 0,0 0.5730699592234682,0.6783340761506728 l -23.533331298122608 19.53679762905117" fill="#ffdc14" stroke="none" /><path d="M 116.38621287248628 86.86637796730983 l 23.47013414636115 -18.811416239588507 a51.07850690754516,51.07850690754516 0 0,0 0.5439761732964522,0.690794498441195 l -23.79046440025157 18.404629347194273" fill="#ffd313" stroke="none" /><path d="M 117.04232023915458 87.72973835380427 l 21.629219205905937 -15.572772670334082 a47.65209883103082,47.65209883103082 0 0,0 0.4735424602806798,0.669792227547173 l -21.894074285990502 15.198153942455116" fill="#ff940d" stroke="none" /><path d="M 117.2510076193507 88.02491185347247 l 24.80110608460584 -17.216120823075357 a51.19088735387885,51.19088735387885 0 0,0 0.49624820218845556,0.7281830028996497 l -25.09377875246303 16.7866597969053" fill="#ffd513" stroke="none" /><path d="M 117.65298651832404 88.62581576622439 l 25.35338834395512 -16.33571235525889 a51.16040116896918,51.16040116896918 0 0,0 0.47060846051576166,0.7443895676696861 l -25.63082440071684 15.896875139875" fill="#ffd413" stroke="none" /><line stroke="#e1ed5e" stroke-width="0.3" x1="172.23445277983987" x2="176.4835382374775" y1="55.19839476539836" y2="52.563006222186495" /><path d="M 173.08426987136738 54.67131705675599 a86.0,86.0 0 0,1 12.851231095245387,41.99856678651699" fill="none" id="id123" stroke="none" /><text fill="#e1ed5e" style="font-size:6.75px; font-family:Arial;" text-anchor="middle"><textPath startOffset="22.20632615414155" xlink:href="#id123">March</textPath></text><path d="M 118.03404312379186 89.2402003453031 l 32.18140361973902 -19.200655847301938 a58.474096705632306,58.474096705632306 0 0,0 0.508280030842842,0.8688153341031689 l -32.50714332505219 18.643861100844873" fill="#afff20" stroke="none" /><path d="M 118.21658344932153 89.55222093294921 l 17.10552949444603 -9.810554952858043 a40.719181721572795,40.719181721572795 0 0,0 0.34348056641911684,0.6110136010680626 l -17.271867702157582 9.514657841855186" fill="#ff0c01" stroke="none" /><path d="M 118.3937258080291 89.86733742301442 l 26.89003823958437 -14.8130774051776 a51.70018597236982,51.70018597236982 0 0,0 0.42269062858833506,0.7831815391933 l -27.14103696739117 14.348014882651842" fill="#ffde14" stroke="none" /><path d="M 118.56541770881063 90.18545643968196 l 26.45825687934511 -13.987065561642725 a50.9278692879915,50.9278692879915 0 0,0 0.4030348316628004,0.7785350113621382 l -26.695101144168028 13.529557828020241" fill="#ffd013" stroke="none" /><path d="M 118.73160827565052 90.50648371742162 l 26.983028172847185 -13.675484429448975 a51.25066418703507,51.25066418703507 0 0,0 0.3920431443397402,0.7903350561919795 l -27.214431330140336 13.208989784758044" fill="#ffd614" stroke="none" /><path d="M 118.89224826269711 90.83032412892265 l 26.965981200224416 -13.088400264136808 a50.974495217853345,50.974495217853345 0 0,0 0.3763418003133688,0.7926718105850008 l -27.18728119437954 12.622286037911268" fill="#ffd113" stroke="none" /><path d="M 119.34039704204932 91.81776055985345 l 27.725113920448784 -11.729517243582631 a51.104210945802336,51.104210945802336 0 0,0 0.3357748961577968,0.8131055444719626 l -27.92291050349278 11.250537128657365" fill="#ffd313" stroke="none" /><path d="M 119.47837535516314 92.15188598940014 l 17.746997069077203 -7.150517114713072 a40.13336875664187,40.13336875664187 0 0,0 0.25266143879068076,0.6429958026217426 l -17.867452057749585 6.843972307195545" fill="#ff0000" stroke="none" /><path d="M 119.61058180528143 92.48833698450437 l 28.23133342816256 -10.813767041492984 a51.231535600425076,51.231535600425076 0 0,0 0.3083538582813982,0.8262350363010476 l -28.413291874945585 10.326208868162603" fill="#ffd513" stroke="none" /><path d="M 119.7369772167798 92.82701384747503 l 28.446439030017796 -10.33825549930156 a51.26680393198725,51.26680393198725 0 0,0 0.29428834622517164,0.8319927840734582 l -28.620180457052776 9.847065088801488" fill="#ffd614" stroke="none" /><path d="M 119.85752413597 93.16781622104841 l 40.833484806697065 -14.049177058736783 a64.18278427205101,64.18278427205101 0 0,0 0.35044627323314487,1.0477897513235122 l -41.06926837370198 13.344214204490957" fill="#58ff2a" stroke="none" /><path d="M 120.08093135843002 93.85539295169968 l 60.24279407529006 -18.433821144900946 a84.0,84.0 0 0,0 0.41117641155319085,1.3862824530138804 l -60.551176383954946 17.394109305140535" fill="#4dd2ff" stroke="none" /><path d="M 120.18372546131832 94.20196356495316 l 28.933479227037832 -8.311516477596758 a51.10361317747078,51.10361317747078 0 0,0 0.2355955155923004,0.8475624201982558 l -29.072261513196494 7.812242753979549" fill="#ffd313" stroke="none" /><path d="M 120.28053869075195 94.5502522615342 l 29.26680782236939 -7.864520867722422 a51.30506110520722,51.30506110520722 0 0,0 0.2218422734271942,0.8548487746736502 l -29.397846427666888 7.3595756674999215" fill="#ffd714" stroke="none" /><path d="M 120.37134235888165 94.90015583598534 l 41.91441575408047 -10.493024210470624 a64.20789054197661,64.20789054197661 0 0,0 0.2591772896382464,1.0744571895450914 l -42.088825843979535 9.769981789266128" fill="#58ff2a" stroke="none" /><path d="M 120.45610955862082 95.25157060432595 l 33.89314470961674 -7.867537284632598 a55.7943012752391,55.7943012752391 0 0,0 0.2091106992219376,0.9374022621243163 l -34.023549795840715 7.282956852958318" fill="#daff1b" stroke="none" /><line stroke="#e1ed5e" stroke-width="0.3" x1="184.98032266829074" x2="189.97916517819016" y1="98.17113171792111" y2="98.06355123074" /><path d="M 185.9800911702706 98.14961562048488 a86.0,86.0 0 0,1 -9.607161424134198,41.387399972396054" fill="none" id="id124" stroke="none" /><text fill="#e1ed5e" style="font-size:6.75px; font-family:Arial;" text-anchor="middle"><textPath startOffset="21.466115282336823" xlink:href="#id124">April</textPath></text><line stroke="#e1ed5e" stroke-width="0.3" x1="174.80103733775053" x2="179.2010983576182" y1="140.37084112569926" y2="142.7455964860345" /><path d="M 175.68104954172406 140.8457921977663 a86.0,86.0 0 0,1 -30.038265399797805,32.042727171017184" fill="none" id="id125" stroke="none" /><text fill="#e1ed5e" style="font-size:6.75px; font-family:Arial;" text-anchor="middle"><textPath startOffset="22.206326154141568" xlink:href="#id125">May</textPath></text><line stroke="#e1ed5e" stroke-width="0.3" x1="143.8653032363475" x2="146.44561519142675" y1="172.8068346515853" y2="177.08958963109032" /><path d="M 144.38136562736335 173.6633856474863 a86.0,86.0 0 0,1 -40.68145358897372,12.25698825130547" fill="none" id="id126" stroke="none" /><text fill="#e1ed5e" style="font-size:6.75px; font-family:Arial;" text-anchor="middle"><textPath startOffset="21.466115282336833" xlink:href="#id126">June</textPath></text><line stroke="#e1ed5e" stroke-width="0.3" x1="102.19456741930631" x2="102.32365962044197" y1="184.97166512339345" y2="189.96999836594603" /><path d="M 102.22038585953345 185.97133177190398 a86.0,86.0 0 0,1 -42.740103519485714,-10.115201625700543" fill="none" id="id127" stroke="none" /><text fill="#e1ed5e" style="font-size:6.75px; font-family:Arial;" text-anchor="middle"><textPath startOffset="22.20632615414155" xlink:href="#id127">July</textPath></text><line stroke="#e1ed5e" stroke-width="0.3" x1="58.666819895761336" x2="56.23545636021788" y1="174.27360380694188" y2="178.64263932499728" /><path d="M 58.180547188652646 175.14741091055294 a86.0,86.0 0 0,1 -31.652253787137756,-30.449443065178592" fill="none" id="id128" stroke="none" /><text fill="#e1ed5e" style="font-size:6.75px; font-family:Arial;" text-anchor="middle"><textPath startOffset="22.20632615414155" xlink:href="#id128">August</textPath></text><line stroke="#e1ed5e" stroke-width="0.3" x1="26.63291911575756" x2="22.317208475507996" y1="142.92168965132927" y2="145.44649492493687" /><path d="M 25.769776987707644 143.4266507060508 a86.0,86.0 0 0,1 -11.730757126820373,-40.83630448921669" fill="none" id="id129" stroke="none" /><text fill="#e1ed5e" style="font-size:6.75px; font-family:Arial;" text-anchor="middle"><textPath startOffset="21.46611528233685" xlink:href="#id129">September</textPath></text><line stroke="#e1ed5e" stroke-width="0.3" x1="15.007084014347285" x2="10.007500721073583" y1="101.09737516637583" y2="101.16192664675087" /><path d="M 14.007167355692545 101.11028546245083 a86.0,86.0 0 0,1 10.666146001902534,-42.60595125391555" fill="none" id="id130" stroke="none" /><text fill="#e1ed5e" style="font-size:6.75px; font-family:Arial;" text-anchor="middle"><textPath startOffset="22.20632615414155" xlink:href="#id130">October</textPath></text><line stroke="#e1ed5e" stroke-width="0.3" x1="26.266209847984243" x2="21.928928074336255" y1="57.711370442889674" y2="55.22380399835377" /><path d="M 25.398753493254645 57.213857153982495 a86.0,86.0 0 0,1 29.58750427330803,-30.492523968695096" fill="none" id="id131" stroke="none" /><text fill="#e1ed5e" style="font-size:6.75px; font-family:Arial;" text-anchor="middle"><textPath startOffset="21.46611528233685" xlink:href="#id131">November</textPath></text><line stroke="#e1ed5e" stroke-width="0.3" x1="56.762969772571076" x2="54.21961505331055" y1="26.818313649435495" y2="22.513508569990535" /><path d="M 56.25429882871897 25.957352633546506 a86.0,86.0 0 0,1 42.265352541879196,-11.944610805530505" fill="none" id="id132" stroke="none" /><text fill="#e1ed5e" style="font-size:6.75px; font-family:Arial;" text-anchor="middle"><textPath startOffset="22.20632615414155" xlink:href="#id132">December</textPath></text></svg>