<?xml version="1.0" encoding="utf-8" ?>
<svg baseProfile="full" height="200mm" version="1.1" viewBox="0,0,200,200" width="200mm" xmlns="http://www.w3.org/2000/svg" xmlns:ev="http://www.w3.org/2001/xml-events" xmlns:xlink="http://www.w3.org/1999/xlink"><defs /><rect fill="#1a1a1a" height="200" width="200" x="0" y="0" /><text alignment-baseline="middle" fill="#e1ed5e" style="dominant-baseline: central; font-size:9.0px; font-family:Arial;" text-anchor="middle" x="100.0" y="100.0">2025</text><line stroke="#e1ed5e" stroke-width="0.3" x1="100.0" x2="100.0" y1="15.0" y2="10.0" /><path d="M 100.0 14.0 a86.0,86.0 0 0,1 42.46469731375804,11.215312516191453" fill="none" id="id121" stroke="none" /><text fill="#e1ed5e" style="font-size:6.75px; font-family:Arial;" text-anchor="middle"><textPath startOffset="22.20632615414155" xlink:href="#id121">January</textPath></text><path d="M 100.0 79.0 l 0.0 -31.460032626427406 a52.460032626427406,52.460032626427406 0 0,0 0.9030132255454025,0.00777251992371911 l -0.5415327462728742 31.455371483112245" fill="#ffe215" stroke="none" /><path d="M 101.08401301168833 79.027996857942 l 3.2520390350649873 -62.916009426173986 a84.0,84.0 0 0,0 1.4433518046415523,0.08706692247878367 l -4.334552888546152 62.8507092343149" fill="#4dd2ff" stroke="none" /><path d="M 102.16513564639614 79.11191278185805 l 3.186636494421095 -30.742988846345774 a51.90770155404826,51.90770155404826 0 0,0 0.8879511782140054,0.09977166098865571 l -3.715354376144826 30.68358123188652" fill="#ffd814" stroke="none" /><path d="M 103.2404852339499 79.25152402106235 l 4.8578992312621265 -31.104602623071266 a52.48166909933889,52.48166909933889 0 0,0 0.8913656467056221,0.14708296922200553 l -5.392594084106624 31.016373390909635" fill="#ffe215" stroke="none" /><path d="M 103.95276090670814 79.375362276772 l 5.90419691714616 -30.806801963681444 a52.367476603417195,52.367476603417195 0 0,0 0.8838472742712126,0.1772914484153483 l -6.4336106008844975 30.700606559188888" fill="#ffe015" stroke="none" /><path d="M 104.307194497241 79.44645832069477 l 6.298752675238934 -30.05707676332844 a51.709968232162794,51.709968232162794 0 0,0 0.869607214998963,0.1900624553054432 l -6.815202614391424 29.944200809927125" fill="#ffd513" stroke="none" /><path d="M 104.66035177308747 79.52364482259891 l 7.035942781657953 -30.914074820934218 a52.70464497295441,52.70464497295441 0 0,0 0.8828688423111939,0.2089465306267939 l -7.56703531093167 30.788382378166553" fill="#ffe615" stroke="none" /><path d="M 105.36241919743992 79.69619591428918 l 7.70699084906094 -29.1810890809143 a51.18167768524084,51.18167768524084 0 0,0 0.8498647162816751,0.23230013078542863 l -8.208153454566325 29.044102409302578" fill="#ffcb12" stroke="none" /><path d="M 105.71112130821622 79.79150937346287 l 8.472616242600262 -29.979889531415193 a52.15411693998455,52.15411693998455 0 0,0 0.8618089887700456,0.2515856761804661 l -8.987415449093735 29.829605526316023" fill="#ffdd14" stroke="none" /><path d="M 106.40334571778207 80.00007090966166 l 9.549398662379101 -29.826172835332432 a52.3175925130935,52.3175925130935 0 0,0 0.8553108670793567,0.28198254534666284 l -10.061392351700874 29.657376565726533" fill="#ffe014" stroke="none" /><path d="M 106.74666289553966 80.11325718540242 l 9.668845897202374 -28.500290387824446 a51.09573280673135,51.09573280673135 0 0,0 0.8304711010719993,0.2897350604364961 l -10.157999002337647 28.32963447421574" fill="#ffc912" stroke="none" /><path d="M 107.08798089147638 80.2323363322302 l 10.237112723973425 -28.550274662831697 a51.33012792993904,51.33012792993904 0 0,0 0.829146981628097,0.3053818307928517 l -10.727042031374099 28.36982956423252" fill="#ffce13" stroke="none" /><path d="M 107.4271985657038 80.35727306442388 l 10.674963852484042 -28.23209830012399 a51.18287971151369,51.18287971151369 0 0,0 0.821404386979862,0.3186921408653771 l -11.159351404463573 28.044163455368068" fill="#ffcb12" stroke="none" /><path d="M 107.76421540070413 80.48803036053334 l 11.122686868785827 -27.952023133382095 a51.08371254400275,51.08371254400275 0 0,0 0.8142163137994167,0.33213927815290045 l -11.602187052173631 27.756422969045616" fill="#ffc912" stroke="none" /><path d="M 108.09893153111575 80.62456947434976 l 12.144572781912643 -29.053996233406153 a52.49008328324891,52.49008328324891 0 0,0 0.8306336776172699,0.35563399175300364 l -12.642890217320229 28.840642713690357" fill="#ffe315" stroke="none" /><line stroke="#e1ed5e" stroke-width="0.3" x1="143.23703022742887" x2="145.7803849466894" y1="26.81831364943548" y2="22.513508569990506" /><path d="M 143.74570117128098 25.957352633546492 a86.0,86.0 0 0,1 28.547481713284135,27.462654790039103" fill="none" id="id122" stroke="none" /><text fill="#e1ed5e" style="font-size:6.75px; font-family:Arial;" text-anchor="middle"><textPath startOffset="19.985693538727396" xlink:href="#id122">February</textPath></text><path d="M 111.60114157652 82.49532879139004 l 20.203138541818095 -30.484008424850686 a57.57104833862797,57.57104833862797 0 0,0 0.8213340866831903,0.5545684416848513 l -20.72487732290783 30.13172807086716" fill="#c4ff1e" stroke="none" /><path d="M 111.90073688211348 82.69761687909136 l 17.046789758443644 -24.78418692085165 a51.080707478320605,51.080707478320605 0 0,0 0.7201622310651077,0.5045196653973942 l -17.470883129092403 24.48708241269032" fill="#ffc912" stroke="none" /><path d="M 112.19680574252982 82.90503203632743 l 17.662172718597745 -24.75519272562047 a51.41006267708423,51.41006267708423 0 0,0 0.7159577912599315,0.520173783607122 l -18.085675826211464 24.447499707196673" fill="#ffcf13" stroke="none" /><path d="M 112.48926042617603 83.11751280151076 l 18.232225632305518 -24.645599926176693 a51.65647806302053,51.65647806302053 0 0,0 0.710286034475852,0.5349727153934326 l -18.653757820539756 24.328110621277414" fill="#ffd413" stroke="none" /><path d="M 112.77801427241765 83.33499621200491 l 18.441284614498862 -24.05100443654242 a51.3072894307547,51.3072894307547 0 0,0 0.6962336747989397,0.543421426656129 l -18.85255084445723 23.730004620663067" fill="#ffcd13" stroke="none" /><path d="M 113.06298171725822 83.55741782278167 l 24.978966270481397 -31.441420840521587 a61.156091697432814,61.156091697432814 0 0,0 0.8186080730107954,0.6619241313324887 l -25.516477742056683 31.00679061192497" fill="#8bff24" stroke="none" /><path d="M 113.34407831869373 83.78471172551755 l 19.240281208202113 -23.38016150849792 a51.279041813342495,51.279041813342495 0 0,0 0.6767428547869594,0.5667526788014636 l -19.63988159994819 23.045507672302637" fill="#ffcd13" stroke="none" /><path d="M 113.6212207817346 84.01681056812373 l 19.608304974112624 -23.008455546033154 a51.230359749291665,51.230359749291665 0 0,0 0.6662537592899408,0.5777686946826714 l -20.001452532049328 22.66752185793081" fill="#ffcc13" stroke="none" /><path d="M 113.89432698308785 84.25364557470407 l 20.039229386271966 -22.710334132061575 a51.28745599725251,51.28745599725251 0 0,0 0.6569410541626224,0.5898081648113106 l -20.42718142803058 22.362026958480968" fill="#ffcd13" stroke="none" /><path d="M 114.16331599549186 84.49514656593476 l 20.449475649139075 -22.386432869556025 a51.320511719756155,51.320511719756155 0 0,0 0.6471079477621713,0.6014163130730787 l -20.831791480696094 22.031111970408304" fill="#ffce13" stroke="none" /><path d="M 114.94478906791727 85.2469230424477 l 22.38318026107571 -22.096048291194496 a52.45221945565382,52.45221945565382 0 0,0 0.6287665754797678,0.6479992261742615 l -22.76021110025859 21.70748486947012" fill="#ffe215" stroke="none" /><path d="M 115.19652480421416 85.50635884689758 l 21.884283080004813 -20.872071078154814 a51.24177899888384,51.24177899888384 0 0,0 0.6032686785186544,0.643524964551499 l -22.24031908049393 20.49227669672526" fill="#ffcc13" stroke="none" /><path d="M 115.4437574822437 85.77008943001954 l 22.22617523116415 -20.479244524256256 a51.22254657851808,51.22254657851808 0 0,0 0.5918798414818446,0.6535685040318865 l -22.57539871326203 20.093623232954823" fill="#ffcc13" stroke="none" /><path d="M 115.68641384162765 86.03803664274999 l 23.127594959082185 -20.585115031398413 a51.961792736326956,51.961792736326956 0 0,0 0.5889204502060611,0.6732378797791061 l -23.478507272866093 20.18396159541636" fill="#ffd914" stroke="none" /><path d="M 115.9244219780498 86.31012108654704 l 23.319449911304044 -20.047223444224485 a51.752039151712886,51.752039151712886 0 0,0 0.5749143554520852,0.6805172595328379 l -23.66107488024325 19.642847235062543" fill="#ffd513" stroke="none" /><path d="M 116.38621287248628 86.86637796730983 l 23.597534681828368 -18.913528331785127 a51.24177899888384,51.24177899888384 0 0,0 0.5457149893431562,0.6930026182409749 l -23.91960375176549 18.504533319591115" fill="#ffcc13" stroke="none" /><path d="M 117.04232023915458 87.72973835380427 l 21.746626890556833 -15.657304763953043 a47.79677170086718,47.79677170086718 0 0,0 0.47498014609932765,0.6718257321803465 l -22.012919656460046 15.280652531440904" fill="#ff8c0c" stroke="none" /><path d="M 117.2510076193507 88.02491185347247 l 24.93573139929958 -17.309573335866737 a51.35476946853268,51.35476946853268 0 0,0 0.49783688738169324,0.7305142023872696 l -25.229992752350007 16.87778111020906" fill="#ffce13" stroke="none" /><path d="M 117.65298651832404 88.62581576622439 l 25.491011556110003 -16.4243858365573 a51.32411779857475,51.32411779857475 0 0,0 0.4721144383669721,0.7467716629689377 l -25.76995359072293 15.983166525874156" fill="#ffce13" stroke="none" /><line stroke="#e1ed5e" stroke-width="0.3" x1="172.23445277983987" x2="176.4835382374775" y1="55.19839476539836" y2="52.563006222186495" /><path d="M 173.08426987136738 54.67131705675599 a86.0,86.0 0 0,1 12.851231095245387,41.99856678651699" fill="none" id="id123" stroke="none" /><text fill="#e1ed5e" style="font-size:6.75px; font-family:Arial;" text-anchor="middle"><textPath startOffset="22.20632615414155" xlink:href="#id123">March</textPath></text><path d="M 118.03404312379186 89.2402003453031 l 32.35609065082601 -19.304880809162547 a58.67751352279557,58.67751352279557 0 0,0 0.5100482104629941,0.8718377262378537 l -32.68359853575934 18.7450636705708" fill="#b2ff20" stroke="none" /><path d="M 118.21658344932153 89.55222093294921 l 17.198381695607424 -9.863808587729936 a40.82622134455225,40.82622134455225 0 0,0 0.3443834831472002,0.6126197891771669 l -17.365622820047054 9.566305288617976" fill="#ff0000" stroke="none" /><path d="M 118.3937258080291 89.86733742301442 l 27.036002691644732 -14.893485722470047 a51.86683266077102,51.86683266077102 0 0,0 0.42405309938312313,0.78570599065259 l -27.28836389024632 14.425898748484997" fill="#ffd714" stroke="none" /><path d="M 118.56541770881063 90.18545643968196 l 26.601877536685087 -14.06299012308988 a51.09032368850349,51.09032368850349 0 0,0 0.40432046922978715,0.7810184539313377 l -26.84000743907499 13.602998946898197" fill="#ffc912" stroke="none" /><path d="M 118.73160827565052 90.50648371742162 l 27.129497392678243 -13.749717666814407 a51.414870782175676,51.414870782175676 0 0,0 0.39329924649766174,0.7928672814939567 l -27.36215665212931 13.280690796821501" fill="#ffcf13" stroke="none" /><line stroke="#e1ed5e" stroke-width="0.3" x1="184.98032266829074" x2="189.97916517819016" y1="98.17113171792111" y2="98.06355123074" /><path d="M 185.9800911702706 98.14961562048488 a86.0,86.0 0 0,1 -9.607161424134198,41.387399972396054" fill="none" id="id124" stroke="none" /><text fill="#e1ed5e" style="font-size:6.75px; font-family:Arial;" text-anchor="middle"><textPath startOffset="21.466115282336823" xlink:href="#id124">April</textPath></text><line stroke="#e1ed5e" stroke-width="0.3" x1="174.80103733775053" x2="179.2010983576182" y1="140.37084112569926" y2="142.7455964860345" /><path d="M 175.68104954172406 140.8457921977663 a86.0,86.0 0 0,1 -30.038265399797805,32.042727171017184" fill="none" id="id125" stroke="none" /><text fill="#e1ed5e" style="font-size:6.75px; font-family:Arial;" text-anchor="middle"><textPath startOffset="22.206326154141568" xlink:href="#id125">May</textPath></text><line stroke="#e1ed5e" stroke-width="0.3" x1="143.8653032363475" x2="146.44561519142675" y1="172.8068346515853" y2="177.08958963109032" /><path d="M 144.38136562736335 173.6633856474863 a86.0,86.0 0 0,1 -40.68145358897372,12.25698825130547" fill="none" id="id126" stroke="none" /><text fill="#e1ed5e" style="font-size:6.75px; font-family:Arial;" text-anchor="middle"><textPath startOffset="21.466115282336833" xlink:href="#id126">June</textPath></text><line stroke="#e1ed5e" stroke-width="0.3" x1="102.19456741930631" x2="102.32365962044197" y1="184.97166512339345" y2="189.96999836594603" /><path d="M 102.22038585953345 185.97133177190398 a86.0,86.0 0 0,1 -42.740103519485714,-10.115201625700543" fill="none" id="id127" stroke="none" /><text fill="#e1ed5e" style="font-size:6.75px; font-family:Arial;" text-anchor="middle"><textPath startOffset="22.20632615414155" xlink:href="#id127">July</textPath></text><line stroke="#e1ed5e" stroke-width="0.3" x1="58.666819895761336" x2="56.23545636021788" y1="174.27360380694188" y2="178.64263932499728" /><path d="M 58.180547188652646 175.14741091055294 a86.0,86.0 0 0,1 -31.652253787137756,-30.449443065178592" fill="none" id="id128" stroke="none" /><text fill="#e1ed5e" style="font-size:6.75px; font-family:Arial;" text-anchor="middle"><textPath startOffset="22.20632615414155" xlink:href="#id128">August</textPath></text><line stroke="#e1ed5e" stroke-width="0.3" x1="26.63291911575756" x2="22.317208475507996" y1="142.92168965132927" y2="145.44649492493687" /><path d="M 25.769776987707644 143.4266507060508 a86.0,86.0 0 0,1 -11.730757126820373,-40.83630448921669" fill="none" id="id129" stroke="none" /><text fill="#e1ed5e" style="font-size:6.75px; font-family:Arial;" text-anchor="middle"><textPath startOffset="21.46611528233685" xlink:href="#id129">September</textPath></text><line stroke="#e1ed5e" stroke-width="0.3" x1="15.007084014347285" x2="10.007500721073583" y1="101.09737516637583" y2="101.16192664675087" /><path d="M 14.007167355692545 101.11028546245083 a86.0,86.0 0 0,1 10.666146001902534,-42.60595125391555" fill="none" id="id130" stroke="none" /><text fill="#e1ed5e" style="font-size:6.75px; font-family:Arial;" text-anchor="middle"><textPath startOffset="22.20632615414155" xlink:href="#id130">October</textPath></text><line stroke="#e1ed5e" stroke-width="0.3" x1="26.266209847984243" x2="21.928928074336255" y1="57.711370442889674" y2="55.22380399835377" /><path d="M 25.398753493254645 57.213857153982495 a86.0,86.0 0 0,1 29.58750427330803,-30.492523968695096" fill="none" id="id131" stroke="none" /><text fill="#e1ed5e" style="font-size:6.75px; font-family:Arial;" text-anchor="middle"><textPath startOffset="21.46611528233685" xlink:href="#id131">November</textPath></text><line stroke="#e1ed5e" stroke-width="0.3" x1="56.762969772571076" x2="54.21961505331055" y1="26.818313649435495" y2="22.513508569990535" /><path d="M 56.25429882871897 25.957352633546506 a86.0,86.0 0 0,1 42.265352541879196,-11.944610805530505" fill="none" id="id132" stroke="none" /><text fill="#e1ed5e" style="font-size:6.75px; font-family:Arial;" text-anchor="middle"><textPath startOffset="22.20632615414155" xlink:href="#id132">December</textPath></text></svg>