<?xml version="1.0" encoding="utf-8" ?>
<svg baseProfile="full" height="200mm" version="1.1" viewBox="0,0,200,200" width="200mm" xmlns="http://www.w3.org/2000/svg" xmlns:ev="http://www.w3.org/2001/xml-events" xmlns:xlink="http://www.w3.org/1999/xlink"><defs /><rect fill="#1a1a1a" height="200" width="200" x="0" y="0" /><text alignment-baseline="middle" fill="#e1ed5e" style="dominant-baseline: central; font-size:9.0px; font-family:Arial;" text-anchor="middle" x="100.0" y="100.0">2024</text><line stroke="#e1ed5e" stroke-width="0.3" x1="100.0" x2="100.0" y1="15.0" y2="10.0" /><path d="M 100.0 14.0 a86.0,86.0 0 0,1 42.35913384403234,11.155469271406648" fill="none" id="id109" stroke="none" /><text fill="#e1ed5e" style="font-size:6.75px; font-family:Arial;" text-anchor="middle"><textPath startOffset="22.145653131862478" xlink:href="#id109">January</textPath></text><path d="M 100.36049292484886 79.00309439819443 l 0.09785540288992456 -5.6995866367359715 a26.70042660767894,26.70042660767894 0 0,0 0.4582132503828005,0.011801947935564397 l -0.1956819673434664 5.6970669714503615" fill="#ff0000" stroke="none" /><path d="M 102.15924093988457 79.11130261209362 l 1.4839592892270363 -14.355959983925333 a35.43245378416812,35.43245378416812 0 0,0 0.6044845766217348,0.06773375764463484 l -1.7301797674495678 14.328370465773727" fill="#ff840c" stroke="none" /><path d="M 102.51750503828377 79.15144685158666 l 0.7290846805320952 -6.037867047181644 a27.08172697108548,27.08172697108548 0 0,0 0.4610627625553035,0.05969380541086683 l -0.8326252649781903 6.02446164557038" fill="#ff0601" stroke="none" /><path d="M 103.23170211078529 79.25015418208739 l 2.214635909542471 -14.219551211869701 a35.390978037604675,35.390978037604675 0 0,0 0.5994936703300322,0.09864645531871047 l -2.458407082925574 14.179438758055323" fill="#ff840c" stroke="none" /><path d="M 104.64783097203109 79.52079915486377 l 3.1872292207082586 -14.04352002969848 a35.40065571180281,35.40065571180281 0 0,0 0.5914738964664805,0.13958622906616555 l -3.427835270914624 13.986737656986087" fill="#ff840c" stroke="none" /><path d="M 104.9986988182912 79.60360301121754 l 3.1260625569278813 -12.75540200372902 a34.13288039184705,34.13288039184705 0 0,0 0.5678975112324802,0.144357326609354 l -3.3445653613857558 12.6998594452844" fill="#ff710a" stroke="none" /><path d="M 105.3480935250658 79.69241777938227 l 1.489196316796909 -5.6547209775323095 a26.8475272554906,26.8475272554906 0 0,0 0.44466996754154253,0.12119677701296129 l -1.5860476852731442 5.628323706375206" fill="#ff0200" stroke="none" /><path d="M 105.69591212413111 79.78721728523813 l 5.359923206501845 -19.020476576849966 a40.761257702638645,40.761257702638645 0 0,0 0.6718619636429319,0.19556922579528505 l -5.685645182526382 18.925663656752164" fill="#ffcf13" stroke="none" /><path d="M 107.06938296918511 80.22567764915836 l 4.850683168617668 -13.568224131603987 a35.40922736609259,35.40922736609259 0 0,0 0.5706126986776846,0.20953688676387888 l -5.082885018949478 13.482956395831385" fill="#ff840c" stroke="none" /><path d="M 107.40779381753099 80.34994680014964 l 2.2024989755315127 -5.842390205217006 a27.24375888765998,27.24375888765998 0 0,0 0.43619559104618144,0.16872982516520818 l -2.30246682907122 5.80372049191376" fill="#ff0901" stroke="none" /><path d="M 108.4095320186766 80.7573450057729 l 2.6018747481811584 -5.953598607657192 a27.49731395165113,27.49731395165113 0 0,0 0.4309046418552017,0.19273816541605832 l -2.703692792891992 5.90805669133128" fill="#ff0d01" stroke="none" /><line stroke="#e1ed5e" stroke-width="0.3" x1="143.13028292997686" x2="145.6673583964461" y1="26.7553504044142" y2="22.446841604673864" /><path d="M 143.63769802327073 25.89364864446614 a86.0,86.0 0 0,1 29.32050498858742,28.57503671076993" fill="none" id="id110" stroke="none" /><text fill="#e1ed5e" style="font-size:6.75px; font-family:Arial;" text-anchor="middle"><textPath startOffset="20.669276256404974" xlink:href="#id110">February</textPath></text><path d="M 113.59037401385872 83.9905735841838 l 40.77112204157618 -48.028279247448594 a84.0,84.0 0 0,0 1.091282080948559,0.94262347014112 l -41.5895836022876 47.32131164484275" fill="#4dd2ff" stroke="none" /><path d="M 114.13192950727249 84.46653392183569 l 9.700583043696174 -10.662640057051401 a35.415033970611475,35.415033970611475 0 0,0 0.4461792207870657,0.41297682569151645 l -9.882192035797203 10.49454548522751" fill="#ff840c" stroke="none" /><path d="M 114.39649973595853 84.71141617570332 l 12.19289583025307 -12.94843283997255 a38.78562964133354,38.78562964133354 0 0,0 0.4808079308893823,0.4606031214766151 l -12.413376247007765 12.737217588190354" fill="#ffb410" stroke="none" /><path d="M 114.65682725009322 84.96080404539774 l 19.8685810384223 -20.386914471877088 a49.4672934112814,49.4672934112814 0 0,0 0.6030488953614243,0.5978946622698738 l -20.215621853913685 20.042839799378555" fill="#bdff1f" stroke="none" /><path d="M 115.41159269507618 85.73525988315684 l 16.17904731630094 -14.97508465681657 a43.04574182335282,43.04574182335282 0 0,0 0.4972855207291593,0.5466038988825614 l -16.433730537871977 14.695143182376336" fill="#ffee16" stroke="none" /><line stroke="#e1ed5e" stroke-width="0.3" x1="172.87174338648825" x2="177.1583165268699" y1="56.24261187166439" y2="53.66864786411523" /><path d="M 173.72905801456457 55.72781907015455 a86.0,86.0 0 0,1 12.242430191666344,42.057860355516425" fill="none" id="id111" stroke="none" /><text fill="#e1ed5e" style="font-size:6.75px; font-family:Arial;" text-anchor="middle"><textPath startOffset="22.145653131862474" xlink:href="#id111">March</textPath></text><path d="M 118.18653347947321 89.5 l 9.358828250622157 -5.403322009796178 a31.806644019592355,31.806644019592355 0 0,0 0.2689427975486662,0.475196153667356 l -9.4502044131922 5.241869086029705" fill="#ff4f07" stroke="none" /><line stroke="#e1ed5e" stroke-width="0.3" x1="184.99686870605535" x2="189.99668451229388" y1="99.2704041080226" y2="99.22748670261217" /><path d="M 185.99683186730306 99.26182062694052 a86.0,86.0 0 0,1 -10.086455211305974,41.156179273409016" fill="none" id="id112" stroke="none" /><text fill="#e1ed5e" style="font-size:6.75px; font-family:Arial;" text-anchor="middle"><textPath startOffset="21.40746469413373" xlink:href="#id112">April</textPath></text><line stroke="#e1ed5e" stroke-width="0.3" x1="174.33088141563837" x2="178.70328620479359" y1="141.23008692659167" y2="143.65538615756765" /><path d="M 175.20536237346943 141.71514677278685 a86.0,86.0 0 0,1 -30.301960400862466,31.631185727798858" fill="none" id="id113" stroke="none" /><text fill="#e1ed5e" style="font-size:6.75px; font-family:Arial;" text-anchor="middle"><textPath startOffset="22.145653131862474" xlink:href="#id113">May</textPath></text><line stroke="#e1ed5e" stroke-width="0.3" x1="143.1302829299769" x2="145.66735839644613" y1="173.24464959558577" y2="177.55315839532614" /><path d="M 143.63769802327073 174.10635135553383 a86.0,86.0 0 0,1 -40.68552437913181,11.842963189579606" fill="none" id="id114" stroke="none" /><text fill="#e1ed5e" style="font-size:6.75px; font-family:Arial;" text-anchor="middle"><textPath startOffset="21.407464694133747" xlink:href="#id114">June</textPath></text><line stroke="#e1ed5e" stroke-width="0.3" x1="101.45913802915013" x2="101.54496967792366" y1="184.9874750549273" y2="189.98673829345242" /><path d="M 101.47630435890484 185.9873277026323 a86.0,86.0 0 0,1 -42.54439059252881,-10.42667462771756" fill="none" id="id115" stroke="none" /><text fill="#e1ed5e" style="font-size:6.75px; font-family:Arial;" text-anchor="middle"><textPath startOffset="22.145653131862474" xlink:href="#id115">July</textPath></text><line stroke="#e1ed5e" stroke-width="0.3" x1="58.13341422392154" x2="55.67067388415222" y1="173.97424548756322" y2="178.32567169271397" /><path d="M 57.64086615596768 174.84453072859336 a86.0,86.0 0 0,1 -31.369924170532247,-30.572349798747897" fill="none" id="id116" stroke="none" /><text fill="#e1ed5e" style="font-size:6.75px; font-family:Arial;" text-anchor="middle"><textPath startOffset="22.145653131862474" xlink:href="#id116">August</textPath></text><line stroke="#e1ed5e" stroke-width="0.3" x1="26.387840678322732" x2="22.057713659400548" y1="142.50000000000003" y2="145.00000000000006" /><path d="M 25.521815274538298 143.00000000000003 a86.0,86.0 0 0,1 -11.493303480769221,-40.785679425670985" fill="none" id="id117" stroke="none" /><text fill="#e1ed5e" style="font-size:6.75px; font-family:Arial;" text-anchor="middle"><textPath startOffset="21.40746469413373" xlink:href="#id117">September</textPath></text><line stroke="#e1ed5e" stroke-width="0.3" x1="15.003131293944662" x2="10.003315487706104" y1="100.72959589197737" y2="100.7725132973878" /><path d="M 14.003168132696942 100.73817937305945 a86.0,86.0 0 0,1 10.791469493833604,-42.45332614584628" fill="none" id="id118" stroke="none" /><text fill="#e1ed5e" style="font-size:6.75px; font-family:Arial;" text-anchor="middle"><textPath startOffset="22.145653131862435" xlink:href="#id118">October</textPath></text><line stroke="#e1ed5e" stroke-width="0.3" x1="26.387840678322718" x2="22.05771365940052" y1="57.49999999999999" y2="54.99999999999999" /><path d="M 25.521815274538284 56.99999999999999 a86.0,86.0 0 0,1 29.574782752854787,-30.34633250058573" fill="none" id="id119" stroke="none" /><text fill="#e1ed5e" style="font-size:6.75px; font-family:Arial;" text-anchor="middle"><textPath startOffset="21.40746469413373" xlink:href="#id119">November</textPath></text><line stroke="#e1ed5e" stroke-width="0.3" x1="56.869717070023135" x2="54.33264160355391" y1="26.7553504044142" y2="22.446841604673864" /><path d="M 56.362301976729285 25.89364864446614 a86.0,86.0 0 0,1 42.16139366436587,-11.88097634709845" fill="none" id="id120" stroke="none" /><text fill="#e1ed5e" style="font-size:6.75px; font-family:Arial;" text-anchor="middle"><textPath startOffset="22.145653131862474" xlink:href="#id120">December</textPath></text></svg>