<?xml version="1.0" encoding="utf-8" ?>
<svg baseProfile="full" height="200mm" version="1.1" viewBox="0,0,200,200" width="200mm" xmlns="http://www.w3.org/2000/svg" xmlns:ev="http://www.w3.org/2001/xml-events" xmlns:xlink="http://www.w3.org/1999/xlink"><defs /><rect fill="#1a1a1a" height="200" width="200" x="0" y="0" /><text alignment-baseline="middle" fill="#e1ed5e" style="dominant-baseline: central; font-size:9.0px; font-family:Arial;" text-anchor="middle" x="100.0" y="100.0">2025</text><line stroke="#e1ed5e" stroke-width="0.3" x1="100.0" x2="100.0" y1="15.0" y2="10.0" /><path d="M 100.0 14.0 a86.0,86.0 0 0,1 42.46469731375804,11.215312516191453" fill="none" id="id121" stroke="none" /><text fill="#e1ed5e" style="font-size:6.75px; font-family:Arial;" text-anchor="middle"><textPath startOffset="22.20632615414155" xlink:href="#id121">January</textPath></text><path d="M 100.0 79.0 l 0.0 -2.2972951321016026 a23.297295132101603,23.297295132101603 0 0,0 0.40102463857645854,0.0034517456722244445 l -0.039544159303930175 2.296954763037937" fill="#ff1902" stroke="none" /><path d="M 101.08401301168833 79.027996857942 l 0.23747252691605292 -4.594294096967742 a25.600427311725785,25.600427311725785 0 0,0 0.4398859876187416,0.02653512404968768 l -0.3165205633744064 4.58952570353775" fill="#ff3a05" stroke="none" /><path d="M 102.16513564639614 79.11191278185805 l 0.23269665970598297 -2.2449346909969896 a23.256962450347828,23.256962450347828 0 0,0 0.3978416803518566,0.04470214830849187 l -0.2713050435675648 2.240596589217897" fill="#ff1902" stroke="none" /><path d="M 103.2404852339499 79.25152402106235 l 0.3547367031922217 -2.271340689326261 a23.29887508481448,23.29887508481448 0 0,0 0.3957156320272363,0.06529646990686673 l -0.3937815413583332 2.2648979564797695" fill="#ff1902" stroke="none" /><path d="M 103.95276090670814 79.375362276772 l 0.43114013891184694 -2.249594494295993 a23.290536445496507,23.290536445496507 0 0,0 0.3930927837054335,0.0788507143864 l -0.4697993320844058 2.2418398238323847" fill="#ff1902" stroke="none" /><path d="M 104.307194497241 79.44645832069477 l 0.4599516482059532 -2.1948475690897564 a23.242523438055127,23.242523438055127 0 0,0 0.39086982196101555,0.0854290037908674 l -0.4976641943204967 2.1866050672030184" fill="#ff1802" stroke="none" /><path d="M 104.66035177308747 79.52364482259891 l 0.5137832275631607 -2.2574278432215897 a23.315157375272207,23.315157375272207 0 0,0 0.3905580999696088,0.09243248383668508 l -0.552565014495293 2.248249447244036" fill="#ff1902" stroke="none" /><path d="M 105.36241919743992 79.69619591428918 l 0.5627849395752482 -2.1308806221228767 a23.20394625931566,23.20394625931566 0 0,0 0.38529833518871187,0.10531658973600762 l -0.599381163987671 2.120877491560575" fill="#ff1802" stroke="none" /><path d="M 105.71112130821622 79.79150937346287 l 0.6186929391147579 -2.1892111524261013 a23.274956356244505,23.274956356244505 0 0,0 0.3846017875084353,0.11227580824913393 l -0.6562849443466203 2.178237015258264" fill="#ff1902" stroke="none" /><path d="M 106.40334571778207 80.00007090966166 l 0.6973224510629598 -2.1779863510463007 a23.286893776741813,23.286893776741813 0 0,0 0.3807043166748386,0.125512227626675 l -0.7347095899802158 2.1656603991603895" fill="#ff1902" stroke="none" /><path d="M 106.74666289553966 80.11325718540242 l 0.7060448053707552 -2.08116689352799 a23.1976703360395,23.1976703360395 0 0,0 0.37703725473799277,0.1315408948575226 l -0.7417640641720217 2.06870514549826" fill="#ff1802" stroke="none" /><path d="M 107.08798089147638 80.2323363322302 l 0.7475411582314752 -2.084816878034345 a23.214786490429027,23.214786490429027 0 0,0 0.37499361337950227,0.1381133125089563 l -0.7833170973835538 2.071640297719064" fill="#ff1802" stroke="none" /><path d="M 107.4271985657038 80.35727306442388 l 0.7795142104548106 -2.0615827950351977 a23.204034034466375,23.204034034466375 0 0,0 0.3723881004540888,0.14448079757993093 l -0.8148854759085665 2.04785929356472" fill="#ff1802" stroke="none" /><path d="M 107.76421540070413 80.48803036053334 l 0.8122081341418422 -2.0411309625524114 a23.196792584532346,23.196792584532346 0 0,0 0.36973050723121215,0.15082235727977933 l -0.8472225109614419 2.026847719089053" fill="#ff1802" stroke="none" /><path d="M 108.09893153111575 80.62456947434976 l 0.8868289573833728 -2.1215999648720585 a23.29948951086949,23.29948951086949 0 0,0 0.36870470474552924,0.15786011265869118 l -0.9232174199192174 2.106020324250576" fill="#ff1902" stroke="none" /><line stroke="#e1ed5e" stroke-width="0.3" x1="143.23703022742887" x2="145.7803849466894" y1="26.81831364943548" y2="22.513508569990506" /><path d="M 143.74570117128098 25.957352633546492 a86.0,86.0 0 0,1 28.547481713284135,27.462654790039103" fill="none" id="id122" stroke="none" /><text fill="#e1ed5e" style="font-size:6.75px; font-family:Arial;" text-anchor="middle"><textPath startOffset="19.985693538727396" xlink:href="#id122">February</textPath></text><path d="M 111.60114157652 82.49532879139004 l 1.4752868306406315 -2.2260232528343167 a23.670515072943935,23.670515072943935 0 0,0 0.33769405699205696,0.2280125347148254 l -1.5133855820392303 2.2002988058208213" fill="#ff1f03" stroke="none" /><path d="M 111.90073688211348 82.69761687909136 l 1.2448018600316124 -1.8098071493587775 a23.19657314665556,23.19657314665556 0 0,0 0.3270372846235617,0.2291105174548301 l -1.275770284238825 1.7881117891400118" fill="#ff1802" stroke="none" /><path d="M 112.19680574252982 82.90503203632743 l 1.28973875808024 -1.807689916221903 a23.220623537951607,23.220623537951607 0 0,0 0.3233800052790193,0.2349493265418042 l -1.320664079713048 1.785221354863424" fill="#ff1802" stroke="none" /><path d="M 112.48926042617603 83.11751280151076 l 1.3313655357524627 -1.7996871589563512 a23.238617443848284,23.238617443848284 0 0,0 0.3195352461070822,0.24066732270747776 l -1.3621469356179279 1.7765032467430262" fill="#ff1802" stroke="none" /><path d="M 112.77801427241765 83.33499621200491 l 1.346631577838873 -1.7562682172112332 a23.21311876256543,23.21311876256543 0 0,0 0.31499919716899794,0.2458618698248763 l -1.3766633301673015 1.7328279581631327" fill="#ff1802" stroke="none" /><path d="M 113.06298171725822 83.55741782278167 l 1.824030454752377 -2.2959360500666626 a23.932304459952935,23.932304459952935 0 0,0 0.32034711658155435,0.25903175629360853 l -1.8632809698984225 2.264198196508924" fill="#ff2203" stroke="none" /><path d="M 113.34407831869373 83.78471172551755 l 1.4049764310396406 -1.7072814850199007 a23.211056046523616,23.211056046523616 0 0,0 0.3063223448815965,0.25653615447930106 l -1.4341563128803545 1.6828441731467803" fill="#ff1802" stroke="none" /><path d="M 113.6212207817346 84.01681056812373 l 1.4318505038024791 -1.6801385284857056 a23.207501152919637,23.207501152919637 0 0,0 0.30181488013212965,0.2617308899173671 l -1.460559182581373 1.655242645148667" fill="#ff1802" stroke="none" /><path d="M 113.89432698308785 84.25364557470407 l 1.4633177488022777 -1.6583689111040378 a23.211670472578625,23.211670472578625 0 0,0 0.29731830079363064,0.2669353060594366 l -1.4916470371918984 1.6329345962753037" fill="#ff1802" stroke="none" /><path d="M 114.16331599549186 84.49514656593476 l 1.493275020424933 -1.6347167807177994 a23.2140842892233,23.2140842892233 0 0,0 0.2927098335575351,0.27204188962164727 l -1.521192737777315 1.6087703050215116" fill="#ff1802" stroke="none" /><path d="M 114.94478906791727 85.2469230424477 l 1.6344792666084802 -1.6135121276194142 a23.296724593621953,23.296724593621953 0 0,0 0.27926752947053857,0.2878097374282737 l -1.6620110597821278 1.5851381946410261" fill="#ff1902" stroke="none" /><path d="M 115.19652480421416 85.50635884689758 l 1.5980484695046444 -1.5241340609559562 a23.208335016851436,23.208335016851436 0 0,0 0.2732313723248982,0.2914641774896995 l -1.6240471638000056 1.4964004665882018" fill="#ff1802" stroke="none" /><path d="M 115.4437574822437 85.77008943001954 l 1.6230143423595342 -1.4954488227444311 a23.206930614439987,23.206930614439987 0 0,0 0.2681575854941083,0.29610630353181744 l -1.6485155684696782 1.4672897319430647" fill="#ff1802" stroke="none" /><path d="M 115.68641384162765 86.03803664274999 l 1.6888384048300529 -1.5031797683406716 a23.260912332130026,23.260912332130026 0 0,0 0.2636326855071103,0.3013777330523615 l -1.7144629539150114 1.4738864790853623" fill="#ff1902" stroke="none" /><path d="M 115.9244219780498 86.31012108654704 l 1.702848162958484 -1.4639014961441226 a23.245595568330167,23.245595568330167 0 0,0 0.25823574901249197,0.3056696750826513 l -1.727794525458093 1.4343728714323647" fill="#ff1802" stroke="none" /><path d="M 116.38621287248628 86.86637796730983 l 1.7231546514234863 -1.38111606823244 a23.208335016851436,23.208335016851436 0 0,0 0.24716425822509705,0.3138735080224689 l -1.7466729902425475 1.3512501662569327" fill="#ff1802" stroke="none" /><path d="M 117.04232023915458 87.72973835380427 l 1.587996448971874 -1.143337975620696 a22.956771434900794,22.956771434900794 0 0,0 0.22813278516716679,0.3226776459772757 l -1.6074418539429238 1.115833829311627" fill="#ff1402" stroke="none" /><path d="M 117.2510076193507 88.02491185347247 l 1.8208733296380324 -1.2639910147403455 a23.216585881018695,23.216585881018695 0 0,0 0.22506327981314864,0.33025259177572747 l -1.8423610751199144 1.2324603996942116" fill="#ff1802" stroke="none" /><path d="M 117.65298651832404 88.62581576622439 l 1.8614213613689836 -1.1993522727114332 a23.214347614675447,23.214347614675447 0 0,0 0.21354149191946767,0.33777135811639 l -1.8817904495344069 1.167133266880837" fill="#ff1802" stroke="none" /><line stroke="#e1ed5e" stroke-width="0.3" x1="172.23445277983987" x2="176.4835382374775" y1="55.19839476539836" y2="52.563006222186495" /><path d="M 173.08426987136738 54.67131705675599 a86.0,86.0 0 0,1 12.851231095245387,41.99856678651699" fill="none" id="id123" stroke="none" /><text fill="#e1ed5e" style="font-size:6.75px; font-family:Arial;" text-anchor="middle"><textPath startOffset="22.20632615414155" xlink:href="#id123">March</textPath></text><path d="M 118.03404312379186 89.2402003453031 l 2.3627276687418304 -1.4096936654616246 a23.75131209917756,23.75131209917756 0 0,0 0.20645582106384408,0.35289992183578184 l -2.386643164276002 1.3688143312719474" fill="#ff2003" stroke="none" /><path d="M 118.21658344932153 89.55222093294921 l 1.2558715058723366 -0.7202814988036214 a22.44776333590157,22.44776333590157 0 0,0 0.18935474976337366,0.3368409710582726 l -1.2680838969281432 0.6985570178105548" fill="#ff0d01" stroke="none" /><path d="M 118.3937258080291 89.86733742301442 l 1.9742407171830827 -1.087561880705543 a23.2539780952235,23.2539780952235 0 0,0 0.19011998570957644,0.35226345929814495 l -1.9926688021111238 1.0534174380749393" fill="#ff1902" stroke="none" /><path d="M 118.56541770881063 90.18545643968196 l 1.942539745443662 -1.026916886457026 a23.197275347861282,23.197275347861282 0 0,0 0.18357944472390123,0.35461705504291047 l -1.9599286233276794 0.9933271091537706" fill="#ff1802" stroke="none" /><path d="M 118.73160827565052 90.50648371742162 l 1.981067948550325 -1.0040408997290722 a23.22097463855447,23.22097463855447 0 0,0 0.17762938405460135,0.35808999916213946 l -1.9980573455583346 0.9697913120679829" fill="#ff1802" stroke="none" /><path d="M 118.89224826269711 90.83032412892265 l 1.9798163762335894 -0.9609377455704242 a23.200698578739186,23.200698578739186 0 0,0 0.17128943865622492,0.36077924206309603 l -1.9960640087315706 0.9267160878667877" fill="#ff1802" stroke="none" /><path d="M 119.34039704204932 91.81776055985345 l 2.03555116964146 -0.8611698625661705 a23.21022218259182,23.21022218259182 0 0,0 0.1525003477976467,0.369291688411084 l -2.050073204325304 0.8260036037017833" fill="#ff1802" stroke="none" /><path d="M 119.47837535516314 92.15188598940014 l 1.302967437581546 -0.5249840818745982 a22.40475351205097,22.40475351205097 0 0,0 0.14105013940970304,0.3589572197235342 l -1.3118111268729495 0.5024778572552796" fill="#ff0c01" stroke="none" /><path d="M 119.61058180528143 92.48833698450437 l 2.072717318497644 -0.7939363644347829 a23.21957023614302,23.21957023614302 0 0,0 0.13975462546727196,0.3744729146239991 l -2.0860765324665413 0.7581403127814506" fill="#ff1802" stroke="none" /><path d="M 119.7369772167798 92.82701384747503 l 2.0885101646770754 -0.7590247648408903 a23.22215960308913,23.22215960308913 0 0,0 0.1333028474807281,0.37686510058251244 l -2.101266092967613 0.7229620378317634" fill="#ff1802" stroke="none" /><path d="M 119.85752413597 93.16781622104841 l 2.9979551390591177 -1.0314770527712473 a24.170438443844105,24.170438443844105 0 0,0 0.13197370869971484,0.3945845910814423 l -3.0152661415306024 0.979719358767491" fill="#ff2603" stroke="none" /><path d="M 120.08093135843002 93.85539295169968 l 4.422967937815466 -1.353393399938001 a25.625399342104348,25.625399342104348 0 0,0 0.12543523507266624,0.4229052554694368 l -4.4456090699998345 1.2770587577220343" fill="#ff3a05" stroke="none" /><path d="M 120.18372546131832 94.20196356495316 l 2.1242681870084223 -0.6102235372597696 a23.210178295016462,23.210178295016462 0 0,0 0.1070024912605261,0.3849448926564294 l -2.1344574488353114 0.5735673411843883" fill="#ff1802" stroke="none" /><path d="M 120.28053869075195 94.5502522615342 l 2.1487408515409787 -0.5774055499607806 a23.224968407912023,23.224968407912023 0 0,0 0.10042439636355942,0.38697616487825914 l -2.1583615797748408 0.5403329595336711" fill="#ff1802" stroke="none" /><path d="M 120.37134235888165 94.90015583598534 l 3.077316048470031 -0.7703877345999337 a24.17228172200913,24.17228172200913 0 0,0 0.09757222061339484,0.40449984674301953 l -3.090121069344245 0.717302656197508" fill="#ff2603" stroke="none" /><path d="M 120.45610955862082 95.25157060432595 l 2.488402051455692 -0.577627012386048 a23.55456409884875,23.55456409884875 0 0,0 0.08827982887141377,0.39574116289564387 l -2.4979762673291437 0.5347076799404402" fill="#ff1d02" stroke="none" /><path d="M 120.6074358757038 95.95851677861258 l 2.421020492890954 -0.4748050053228541 a23.467140048736105,23.467140048736105 0 0,0 0.0743285634403634,0.39706615802724765 l -2.4288347802411767 0.43306076983304365" fill="#ff1c02" stroke="none" /><path d="M 120.67395015179393 96.31383870115 l 62.02185045538181 -11.058483896549978 a84.0,84.0 0 0,0 0.2415525539191079,1.4256568467366484 l -62.20301487082114 9.98924126149749" fill="#4dd2ff" stroke="none" /><path d="M 120.73433829027371 96.67025291283417 l 2.3964102271990253 -0.3848417953812127 a23.427114580009835,23.427114580009835 0 0,0 0.060513471413704036,0.39870816880894805 l -2.402679592052029 0.3435345141801825" fill="#ff1b02" stroke="none" /><path d="M 120.78858239683441 97.02765380044208 l 2.3537162464786854 -0.3365337475403788 a23.377653282581647,23.377653282581647 0 0,0 0.05352814773643975,0.3988468750819426 l -2.3591603932729615 0.29596853039377186" fill="#ff1a02" stroke="none" /><path d="M 120.83666639777658 97.38593545837742 l 2.3437885751463856 -0.2940400585385407 a23.36216096848036,23.36216096848036 0 0,0 0.046623805679159296,0.3994442943807427 l -2.3485027338291338 0.25365202583294527" fill="#ff1a02" stroke="none" /><path d="M 120.87857604477298 97.74499172005257 l 2.2135433492587193 -0.2390756232559561 a23.22641669789883,23.22641669789883 0 0,0 0.03951020783577263,0.3978624009661575 l -2.2173306827767205 0.20093769158536365" fill="#ff1802" stroke="none" /><path d="M 120.96714384426684 98.82574320788733 l 62.70065328816195 -3.5115258683007413 a83.79890712971078,83.79890712971078 0 0,0 0.06826175880788944,1.4408978400794896 l -62.75180865520334 2.431716921598252" fill="#4dd4ff" stroke="none" /><path d="M 120.98425023603335 99.18683210126433 l 2.2111958204072435 -0.08568680980967655 a23.212855437113284,23.212855437113284 0 0,0 0.012035650597915724,0.39940464918747387 l -2.2123431654608043 0.047612013197203595" fill="#ff1802" stroke="none" /><line stroke="#e1ed5e" stroke-width="0.3" x1="184.98032266829074" x2="189.97916517819016" y1="98.17113171792111" y2="98.06355123074" /><path d="M 185.9800911702706 98.14961562048488 a86.0,86.0 0 0,1 -9.607161424134198,41.387399972396054" fill="none" id="id124" stroke="none" /><text fill="#e1ed5e" style="font-size:6.75px; font-family:Arial;" text-anchor="middle"><textPath startOffset="21.466115282336823" xlink:href="#id124">April</textPath></text><path d="M 120.99513854157772 99.54816195383933 l 2.508954494044431 -0.053995409187229504 a23.509535446531697,23.509535446531697 0 0,0 0.005224706409275113,0.4046592692268351 l -2.5095122075714213 0.010799881899931668" fill="#ff1c02" stroke="none" /><path d="M 120.99980553446 99.90962569577887 l 2.274715853703753 -0.00978941744207618 a23.274736918367715,23.274736918367715 0 0,0 -0.001724217681428997,0.40064746634727183 l -2.274547338732821 -0.02936752710888037" fill="#ff1902" stroke="none" /><path d="M 120.9904718944345 100.63252640178507 l 2.2862948454965184 0.0688951567794482 a23.287332652495394,23.287332652495394 0 0,0 -0.01552252327235564,0.4005673528778577 l -2.2847701893729595 -0.1082397566713121" fill="#ff1902" stroke="none" /><path d="M 120.9764740272857 100.99374915477107 l 2.9864477604828137 0.1414813535338358 a23.98979718367159,23.98979718367159 0 0,0 -0.023091492502384542,0.41231411061732776 l -2.9835699170928995 -0.19286718048658688" fill="#ff2303" stroke="none" /><path d="M 120.92983693683757 101.71520430193887 l 2.4866288490914132 0.20377972901356647 a23.494964771512922,23.494964771512922 0 0,0 -0.036501557672690546,0.40279164729239686 l -2.4827526951416474 -0.24655276485453387" fill="#ff1c02" stroke="none" /><path d="M 120.89721153311464 102.0752229133903 l 2.4330530950242975 0.24161728584163195 a23.4450207107558,23.4450207107558 0 0,0 -0.04333722596436728,0.401248889377756 l -2.4285335675588784 -0.28346249710417937" fill="#ff1b02" stroke="none" /><path d="M 120.8583938346157 102.4346265915055 l 2.291612242583518 0.26748081120006323 a23.307169836557097,23.307169836557097 0 0,0 -0.04994226030345023,0.3980889532467329 l -2.2866684730332194 -0.306887518734191" fill="#ff1902" stroke="none" /><path d="M 120.81339534386255 102.79330883721812 l 2.380536279097623 0.319485260134769 a23.40187922417913,23.40187922417913 0 0,0 -0.05701806469047649,0.3987842116447661 l -2.3746841633905453 -0.36041494375994443" fill="#ff1b02" stroke="none" /><path d="M 120.64145759157962 103.86396538481128 l 2.2477623381910687 0.4207685348536523 a23.2868060015911,23.2868060015911 0 0,0 -0.0771459359196857,0.3933654652141066 l -2.240186469295719 -0.4593977271357038" fill="#ff1902" stroke="none" /><path d="M 120.5718875245553 104.21870165774334 l 2.536837270319412 0.5202322628367051 a23.5896302715596,23.5896302715596 0 0,0 -0.08499676431583494,0.39707658600372964 l -2.527506467279134 -0.5638226682566038" fill="#ff1d03" stroke="none" /><path d="M 120.49622156327973 104.57218783832717 l 2.389150268090719 0.5329589049364527 a23.447873403154055,23.447873403154055 0 0,0 -0.09126742390980261,0.3931776735130244 l -2.3796222782503635 -0.574005235798042" fill="#ff1b02" stroke="none" /><path d="M 120.41448212921028 104.9243191809786 l 2.2218938007207516 0.5359584530107254 a23.28562103705644,23.28562103705644 0 0,0 -0.09734352698411747,0.38883900190657295 l -2.2123389594415737 -0.5741252943146944" fill="#ff1902" stroke="none" /><path d="M 120.23288151984713 105.62410040840565 l 2.2146447327288312 0.6156011111712263 a23.298611759362334,23.298611759362334 0 0,0 -0.11073204780554623,0.38547278509102295 l -2.2037200480371855 -0.6536313717668312" fill="#ff1902" stroke="none" /><path d="M 119.9155931802556 106.66101706037122 l 2.1722567625265308 0.7265382067073473 a23.290536445496507,23.290536445496507 0 0,0 -0.130437173249583,0.37911148175067644 l -2.159428758333717 -0.7638223915473241" fill="#ff1902" stroke="none" /><path d="M 119.79798401119884 107.00284435728193 l 2.08578036704338 0.737771849174995 a23.212416561359706,23.212416561359706 0 0,0 -0.13648429946516208,0.37554617445396793 l -2.072771806572991 -0.7735658206350942" fill="#ff1802" stroke="none" /><path d="M 119.67450827220406 107.3425965602758 l 2.234404505222857 0.8338877194452059 a23.384938620091035,23.384938620091035 0 0,0 -0.14399077785392844,0.37591448424743784 l -2.219719447775422 -0.8722257705257876" fill="#ff1a02" stroke="none" /><path d="M 119.54520255179757 107.68017299344265 l 2.0887224239445787 0.820751256410073 a23.24419116591872,23.24419116591872 0 0,0 -0.14953473620081106,0.37113295199595414 l -2.074285073486375 -0.8565835762488406" fill="#ff1802" stroke="none" /><path d="M 119.41010516605496 108.01547362559984 l 3.295287923040298 1.3608011502214639 a24.5652071841871,24.5652071841871 0 0,0 -0.1647612061285903,0.389446821614498 l -3.271375735719399 -1.4173224975021252" fill="#ff2b04" stroke="none" /><path d="M 119.12269723197855 108.67885076344098 l 2.079099066371495 0.9436007013316465 a23.28320722041176,23.28320722041176 0 0,0 -0.168775959063085,0.36352840080769777 l -2.062548490468579 -0.9792491694181749" fill="#ff1902" stroke="none" /><path d="M 118.64920377521936 109.65438752849418 l 2.1865966217736674 1.1319652790297694 a23.46222464029604,23.46222464029604 0 0,0 -0.18875638116391077,0.3570559384626065 l -2.1667877323848637 -1.1694362325785104" fill="#ff1c02" stroke="none" /><line stroke="#e1ed5e" stroke-width="0.3" x1="174.80103733775053" x2="179.2010983576182" y1="140.37084112569926" y2="142.7455964860345" /><path d="M 175.68104954172406 140.8457921977663 a86.0,86.0 0 0,1 -30.038265399797805,32.042727171017184" fill="none" id="id125" stroke="none" /><text fill="#e1ed5e" style="font-size:6.75px; font-family:Arial;" text-anchor="middle"><textPath startOffset="22.206326154141568" xlink:href="#id125">May</textPath></text><path d="M 117.94076556474637 110.91462005526583 l 1.9554312891206536 1.1896253528260359 a23.288868717632912,23.288868717632912 0 0,0 -0.21130252346855685,0.3406869480194928 l -1.9346641259841337 -1.2231086322108022" fill="#ff1902" stroke="none" /><path d="M 117.55443506779139 111.5257021239791 l 1.894099827058574 1.243607687484762 a23.26587162814545,23.26587162814545 0 0,0 -0.22268418796047842,0.33288264681353097 l -1.8724125336873745 -1.2760272485040998" fill="#ff1902" stroke="none" /><path d="M 117.35343817320211 111.8261652097733 l 1.854605592742547 1.2638920264580498 a23.244322828644794,23.244322828644794 0 0,0 -0.2281696962632041,0.3286954651672288 l -1.8325749893172067 -1.2956287538122984" fill="#ff1802" stroke="none" /><path d="M 117.14729908036423 112.12312394758627 l 2.9679630253478884 2.0983470026103546 a24.634812878704494,24.634812878704494 0 0,0 -0.24777953766800653,0.3441441064100751 l -2.931403695304279 -2.149124714471561" fill="#ff2c04" stroke="none" /><path d="M 116.71984013943494 112.70617746262583 l 1.822392992962849 1.3849204646770237 a23.28891260520827,23.28891260520827 0 0,0 -0.24530231917506015,0.3170863146191573 l -1.7982838565697206 -1.4160847734094335" fill="#ff1902" stroke="none" /><path d="M 116.27256486870786 113.27417163493432 l 3.5140240891591756 2.866527757925393 a25.53490316171666,25.53490316171666 0 0,0 -0.2807672039224468,0.3382021840534038 l -3.4641608853431856 -2.9265911990925675" fill="#ff3905" stroke="none" /><path d="M 116.0416608686014 113.55231037782055 l 1.937154207654116 1.6365459466366654 a23.535911879321706,23.535911879321706 0 0,0 -0.26411494897353566,0.30722535420182473 l -1.9086967491098017 -1.669648400000018" fill="#ff1d02" stroke="none" /><path d="M 115.80600337817218 113.82643327865902 l 1.6577141264983277 1.4500992576511886 a23.202454081753498,23.202454081753498 0 0,0 -0.265547833570964,0.2983458060702338 l -1.6325074432790254 -1.478419233462289" fill="#ff1802" stroke="none" /><path d="M 115.56566222782051 114.09645910891815 l 1.6782777679381513 1.5198694140274378 a23.264203900281856,23.264203900281856 0 0,0 -0.2713643004997131,0.2945123530921821 l -1.6518670594427163 -1.5485330219209548" fill="#ff1902" stroke="none" /><path d="M 115.32070863581623 114.36230785411682 l 0.4995848448079074 0.4683328631162936 a21.684777838307028,21.684777838307028 0 0,0 -0.25762904787905827,0.27012302671383254 l -0.4914492455498846 -0.47686300641263324" fill="#ff0200" stroke="none" /><path d="M 115.07121518719521 114.62390073753431 l 1.6641492590289109 1.6147572225733142 a23.3188000440269,23.3188000440269 0 0,0 -0.28200132779219145,0.2856658562042865 l -1.636107306181184 -1.6431635727582654" fill="#ff1a02" stroke="none" /><path d="M 114.81725581225074 114.88116024355365 l 1.5877378614522168 1.5945855184259405 a23.25024765131809,23.25024765131809 0 0,0 -0.28603345657107654,0.27994393931716627 l -1.5600544525053461 -1.6216795606656789" fill="#ff1902" stroke="none" /><path d="M 114.29624159901734 115.38237550388516 l 1.5323868056644232 1.6488074224731533 a23.250949852523814,23.250949852523814 0 0,0 -0.29550899956961707,0.2699404646560918 l -1.5037782566279423 -1.674940653715828" fill="#ff1902" stroke="none" /><path d="M 114.0293411484842 115.62618273729858 l 1.4773612040587418 1.645516770836499 a23.21140714712648,23.21140714712648 0 0,0 -0.2996014003346341,0.26436340173780726 l -1.4488174508175198 -1.6707033143465952" fill="#ff1802" stroke="none" /><path d="M 113.75828350139079 115.86535959552629 l 1.548619891315011 1.7857904621614917 a23.36374092119324,23.36374092119324 0 0,0 -0.30610341541570674,0.26086797138904166 l -1.517650999322257 -1.81218282377348" fill="#ff1a02" stroke="none" /><path d="M 113.48314897796784 116.09983520530334 l 1.4229158081801738 1.699062293248842 a23.216190892840473,23.216190892840473 0 0,0 -0.3085872561714511,0.25394630331566564 l -1.3934584234640315 -1.7233037154216861" fill="#ff1802" stroke="none" /><path d="M 113.20401910651253 116.32954008644616 l 2.589696272389035 3.202702809695212 a25.118717284599086,25.118717284599086 0 0,0 -0.3385554628550922,0.2689689352856946 l -2.5341833168165917 -3.2468056589860326" fill="#ff3304" stroke="none" /><path d="M 112.63410532772338 116.77436683061366 l 1.3407860512922993 1.7801685582274462 a23.228611076666716,23.228611076666716 0 0,0 -0.3214563569133887,0.23780572790840696 l -1.3099447239603463 -1.8029842348756222" fill="#ff1802" stroke="none" /><path d="M 112.34349029814194 116.9893568818739 l 1.3491811541522285 1.8569885480155583 a23.295364078785862,23.295364078785862 0 0,0 -0.32643757315225824,0.2329045409890069 l -1.3170162531510858 -1.8799373508487844" fill="#ff1902" stroke="none" /><path d="M 112.04921762599082 117.19931262002967 l 0.5082628640676377 0.7255053534259741 a21.885826821020895,21.885826821020895 0 0,0 -0.3104068020465201,0.21350062888793295 l -0.4956991773982343 -0.7341467716790012" fill="#ff0500" stroke="none" /><path d="M 111.7513745106137 117.40417183066458 l 2.5299715843666504 3.746971057832141 a25.521122463054326,25.521122463054326 0 0,0 -0.3661980911749578,0.24269612665917878 l -2.4650987944517286 -3.789965205582638" fill="#ff3905" stroke="none" /><path d="M 111.45004920935366 117.60387380957326 l 0.7649473204379743 1.1760679673726424 a22.402954121461303,22.402954121461303 0 0,0 -0.32507560993890383,0.20747863468316224 l -0.74458990845214 -1.1890610308796135" fill="#ff0c01" stroke="none" /><path d="M 111.1453310114006 117.79835938074945 l 2.388291871715839 3.8139447805937756 a25.500012539307246,25.500012539307246 0 0,0 -0.37402544114731323,0.22975697468847175 l -2.3222872306362166 -3.8544902221106256" fill="#ff3805" stroke="none" /><line stroke="#e1ed5e" stroke-width="0.3" x1="143.8653032363475" x2="146.44561519142675" y1="172.8068346515853" y2="177.08958963109032" /><path d="M 144.38136562736335 173.6633856474863 a86.0,86.0 0 0,1 -40.68145358897372,12.25698825130547" fill="none" id="id126" stroke="none" /><text fill="#e1ed5e" style="font-size:6.75px; font-family:Arial;" text-anchor="middle"><textPath startOffset="21.466115282336833" xlink:href="#id126">June</textPath></text><path d="M 110.8373102113329 117.98757091392108 l 0.9524016222312729 1.580778937240688 a22.84551643136889,22.84551643136889 0 0,0 -0.3385837483995723,0.2000412465755579 l -0.9250500028033185 -1.5969387561099955" fill="#ff1302" stroke="none" /><path d="M 110.5260780823613 118.17145234162733 l 1.1504444602174777 1.9860432838287898 a23.29518852848443,23.29518852848443 0 0,0 -0.34870815422534374,0.19800559069294088 l -1.1160875390709348 -2.0055520403163594" fill="#ff1902" stroke="none" /><path d="M 110.21172684928248 118.3499491758327 l 1.1198222718345232 2.0122631634602355 a23.302868854172036,23.302868854172036 0 0,0 -0.3521809043967031,0.1920371093347884 l -1.0850185555691714 -2.0312409245547944" fill="#ff1902" stroke="none" /><path d="M 109.89434966115114 118.52300852407294 l 1.0818961702609897 2.02539557123097 a23.296241830293017,23.296241830293017 0 0,0 -0.35533324738979316,0.1858935609479331 l -1.0468720203447008 -2.0437185511236198" fill="#ff1902" stroke="none" /><path d="M 109.57404056367764 118.69057910512821 l 1.0314653680317598 2.013641463828554 a23.262448397267548,23.262448397267548 0 0,0 -0.3579604427289733,0.17948879712120028 l -0.996651017620026 -2.0310981018590564" fill="#ff1902" stroke="none" /><path d="M 109.2508944713604 118.85261126421891 l 0.9683470644514017 1.9734168227156506 a23.198196986943795,23.198196986943795 0 0,0 -0.3599999296800073,0.1728218434061023 l -0.9342344667711617 -1.9897929426213128" fill="#ff1802" stroke="none" /><path d="M 108.92500713936063 119.00905698771935 l 1.0364487115433771 2.20749544677538 a23.438700899904283,23.438700899904283 0 0,0 -0.3666839706311211,0.16832662620371108 l -0.9982967451448365 -2.2250091433131653" fill="#ff1b02" stroke="none" /><path d="M 108.2653958097858 119.30500536409082 l 0.9050739864746925 2.113928790089703 a23.299533398444847,23.299533398444847 0 0,0 -0.37005044613207,0.15468111649518507 l -0.8685520808451614 -2.1291949496048614" fill="#ff1902" stroke="none" /><path d="M 107.93186726928326 119.44442032107085 l 0.8954560434990229 2.1951481407493905 a23.370762933250482,23.370762933250482 0 0,0 -0.37379746219527665,0.14874172450793352 l -0.85753750526188 -2.210236709663393" fill="#ff1a02" stroke="none" /><path d="M 107.59598834532513 119.57807347666477 l 0.799467711406978 2.0605662995493836 a23.21022218259182,23.21022218259182 0 0,0 -0.3737174906049879,0.14130797721229796 l -0.7638800000417154 -2.074022526868313" fill="#ff1802" stroke="none" /><path d="M 107.2578585660854 119.70592522655815 l 0.7866624658399047 2.1358795558263575 a23.276141320779164,23.276141320779164 0 0,0 -0.37716264740376754,0.13523710655474552 l -0.7497802578064025 -2.149104203421063" fill="#ff1902" stroke="none" /><path d="M 106.91757812671514 119.82793768551818 l 1.5079021697545685 4.322118190799358 a25.57760577253975,25.57760577253975 0 0,0 -0.4169518388066599,0.14145270174857585 l -1.4332805980106815 -4.347433879446057" fill="#ff3905" stroke="none" /><path d="M 106.57524785965236 119.94407469862006 l 0.9216292573365913 2.795490473529696 a23.943495791669164,23.943495791669164 0 0,0 -0.3925349773798376,0.1256773039109994 l -0.8733729348658134 -2.810940624100402" fill="#ff2203" stroke="none" /><path d="M 106.2309692047433 120.05430185196036 l 0.6944766134775932 2.235164896209852 a23.340568281404348,23.340568281404348 0 0,0 -0.3847026091895365,0.11590774038518388 l -0.6558990298478108 -2.246788005700761" fill="#ff1a02" stroke="none" /><path d="M 105.88484417918355 120.15858648285463 l 0.6216596025148091 2.1295005404765774 a23.218385271608362,23.218385271608362 0 0,0 -0.38461678871102983,0.10869654632299884 l -0.5849116456991735 -2.1398858801380953" fill="#ff1802" stroke="none" /><path d="M 105.53697534728816 120.25689768951611 l 0.5872028302570781 2.1482681264488006 a23.227075011529195,23.227075011529195 0 0,0 -0.38657546200303344,0.10209809304470008 l -0.5501369254425472 -2.1580575687970844" fill="#ff1802" stroke="none" /><path d="M 105.18746579009965 120.34920634021253 l 0.5529556386283797 2.169114716651795 a23.23848578112221,23.23848578112221 0 0,0 -0.3884663857621212,0.09547558628012054 l -0.5155359681230474 -2.178311561245945" fill="#ff1802" stroke="none" /><path d="M 104.83641907484287 120.43548508189849 l 0.5109875672671434 2.1590930492851435 a23.21873637221122,23.21873637221122 0 0,0 -0.38972079656016817,0.08869918447511477 l -0.47374662131411327 -2.167568967337943" fill="#ff1802" stroke="none" /><path d="M 104.48393922423573 120.51570834832081 l 0.9767211273454406 4.468866499785711 a25.57435809196328,25.57435809196328 0 0,0 -0.4308774410190137,0.09029455710842205 l -0.8996522248970489 -4.485017037620674" fill="#ff3905" stroke="none" /><path d="M 104.13013068566511 120.58985236759428 l 0.437884437356707 2.182975940818146 a23.22646058547419,23.22646058547419 0 0,0 -0.3926736050817709,0.07525683098497823 l -0.40024321770323174 -2.1901899701515926" fill="#ff1802" stroke="none" /><path d="M 103.41894727170886 120.7198165907248 l 0.362447671321149 2.1965384888068002 a23.2262411475974,23.2262411475974 0 0,0 -0.39502763624294995,0.061695192627489695 l -0.32458417146968194 -2.202451988781396" fill="#ff1802" stroke="none" /><path d="M 103.06178313531738 120.77559828337769 l 0.3362427363164619 2.2815606810409803 a23.306204309899226,23.306204309899226 0 0,0 -0.39739454339681807,0.05507526264747274 l -0.29691960173281334 -2.2870105091810555" fill="#ff1902" stroke="none" /><path d="M 102.70371172650421 120.8252237178851 l 0.32363490730091776 2.4927840055540496 a23.513704766190685,23.513704766190685 0 0,0 -0.4018297058596139,0.04865598134871486 l -0.2806777783899235 -2.4979855156281157" fill="#ff1c02" stroke="none" /><path d="M 102.34483914955558 120.86867818915974 l 0.2509026861785753 2.2329921502926093 a23.247043858316975,23.247043858316975 0 0,0 -0.39804186651098605,0.04125866695886459 l -0.21242822306198664 -2.2369801857072322" fill="#ff1802" stroke="none" /><path d="M 101.98527174616119 120.90594882070398 l 0.3023948947197233 3.1843762471696464 a24.1987020423745,24.1987020423745 0 0,0 -0.4150142878019303,0.03580917904060107 l -0.2475362891762513 -3.189109678488911" fill="#ff2603" stroke="none" /><path d="M 101.26447882468166 120.96189622390904 l 0.2731987978703513 4.528952749285254 a25.537185315635263,25.537185315635263 0 0,0 -0.4390108856228767,0.022691848225676867 l -0.19519984383399494 -4.532984404273132" fill="#ff3905" stroke="none" /><path d="M 100.90346689309514 120.98055641714683 l 0.0964689251626634 2.240227884768362 a23.242304000178336,23.242304000178336 0 0,0 -0.3998557816883453,0.013771841605534562 l -0.057892791799665784 -2.2415565247999902" fill="#ff1802" stroke="none" /><line stroke="#e1ed5e" stroke-width="0.3" x1="102.19456741930631" x2="102.32365962044197" y1="184.97166512339345" y2="189.96999836594603" /><path d="M 102.22038585953345 185.97133177190398 a86.0,86.0 0 0,1 -42.740103519485714,-10.115201625700543" fill="none" id="id127" stroke="none" /><text fill="#e1ed5e" style="font-size:6.75px; font-family:Arial;" text-anchor="middle"><textPath startOffset="22.20632615414155" xlink:href="#id127">July</textPath></text><path d="M 100.54218724476979 120.99299961872073 l 0.057789678904226746 2.2375640867713975 a23.23831023082078,23.23831023082078 0 0,0 -0.3999648598189643,0.006885757781200897 l -0.01926512919259453 -2.2382273218317583" fill="#ff1802" stroke="none" /><path d="M 100.18074693466247 120.99922214144158 l 0.01931536864246053 2.2440641531449423 a23.244147278343362,23.244147278343362 0 0,0 -0.4001246066098304,0.0 l 0.019315368642458985 -2.2440641531449423" fill="#ff1802" stroke="none" /><path d="M 99.81925306533755 120.99922214144158 l -0.019362208430303954 2.2495060109106157 a23.249589337687723,23.249589337687723 0 0,0 -0.40015898952771295,-0.0068890999001890085 l 0.05808088785068483 -2.248839433731267" fill="#ff1902" stroke="none" /><path d="M 99.09653310690486 120.98055641714683 l -0.24693303260193789 5.7343467274307365 a26.739660992862348,26.739660992862348 0 0,0 -0.4596826983334153,-0.023760344820953513 l 0.34560379934884206 -5.729246575847581" fill="#ff4a06" stroke="none" /><path d="M 98.37488393609728 120.93702456842531 l -0.17489951544521842 2.253300876915968 a23.260078468198227,23.260078468198227 0 0,0 -0.39891663952853373,-0.034420206212201016 l 0.21366047271529384 -2.249956418425104" fill="#ff1902" stroke="none" /><path d="M 98.01472825383883 120.90594882070398 l -0.21600880033742428 2.274685535321788 a23.284918835850714,23.284918835850714 0 0,0 -0.39869037162173104,-0.04132588716516708 l 0.2551317685647487 -2.2706302797008604" fill="#ff1902" stroke="none" /><path d="M 97.65516085044442 120.86867818915974 l -0.2684266706663597 2.3889526957896092 a23.4039858277963,23.4039858277963 0 0,0 -0.3999547002328582,-0.04842894427934871 l 0.3095087939506072 -2.3839782227849122" fill="#ff1b02" stroke="none" /><path d="M 97.2962882734958 120.8252237178851 l -0.28785063696191343 2.2171571966432686 a23.23576475145003,23.23576475145003 0 0,0 -0.39619347711443265,-0.05490880580487252 l 0.3259727052631771 -2.211873825345791" fill="#ff1802" stroke="none" /><path d="M 96.93821686468263 120.77559828337769 l -0.3239186990525206 2.197936454206754 a23.221676839760192,23.221676839760192 0 0,0 -0.3949500073350023,-0.061683068588587395 l 0.36170456999604 -2.192035078271061" fill="#ff1802" stroke="none" /><path d="M 96.58105272829116 120.7198165907248 l -0.37317976930491076 2.261578129428728 a23.292160285784746,23.292160285784746 0 0,0 -0.39502508773429085,-0.06868017496249326 l 0.41205382851125155 -2.254819375945228" fill="#ff1902" stroke="none" /><path d="M 95.86986931433489 120.58985236759428 l -0.44017178386869155 2.1943790005708963 a23.238090792943993,23.238090792943993 0 0,0 -0.39151594964870173,-0.08204597388716312 l 0.47787919494678005 -2.186477045957192" fill="#ff1802" stroke="none" /><path d="M 95.51606077576429 120.51570834832081 l -0.4786850936597265 2.190164335665253 a23.24186512442476,23.24186512442476 0 0,0 -0.39010900699468926,-0.08878753990610468 l 0.5163142500472785 -2.1816000621814617" fill="#ff1802" stroke="none" /><path d="M 95.16358092515715 120.4354850818985 l -0.5160211308810095 2.180361535855101 a23.240592384739386,23.240592384739386 0 0,0 -0.38850160082308177,-0.0954842412853263 l 0.5534760164473019 -2.171156036255745" fill="#ff1802" stroke="none" /><path d="M 93.08242187328487 119.8279376855182 l -0.7427252712878901 2.1288824104035076 a23.25472418400458,23.25472418400458 0 0,0 -0.3768156077508381,-0.1351126704822838 l 0.7792604396684548 -2.115782198881266" fill="#ff1902" stroke="none" /><path d="M 92.7421414339146 119.70592522655815 l -0.7600728103510712 2.063685566636307 a23.199206401177022,23.199206401177022 0 0,0 -0.37354012090317223,-0.1412409111679942 l 0.7954831520145264 -2.0502964053616797" fill="#ff1802" stroke="none" /><path d="M 92.40401165467489 119.57807347666478 l -0.8025315359597365 2.068463070777378 a23.218692484635866,23.218692484635866 0 0,0 -0.3713652117835472,-0.14777388187317764 l 0.8380178237851418 -2.0543423444981337" fill="#ff1802" stroke="none" /><path d="M 92.06813273071674 119.44442032107085 l -0.8410182040934272 2.0616975679098135 a23.226636135775617,23.226636135775617 0 0,0 -0.36889266910232116,-0.1541971656028521 l 0.8763823326932106 -2.0469153592869884" fill="#ff1802" stroke="none" /><path d="M 91.40352486487194 119.15986991738527 l -0.9608743160027792 2.1416018323998283 a23.34728308043408,23.34728308043408 0 0,0 -0.3652537954190679,-0.16767010290952195 l 0.9975961071892665 -2.124744659156232" fill="#ff1a02" stroke="none" /><path d="M 91.07499286063937 119.00905698771935 l -0.9484101649512502 2.019985260715672 a23.231551544215687,23.231551544215687 0 0,0 -0.36051754052187174,-0.17307032806535866 l 0.983040373473364 -2.003360656150751" fill="#ff1802" stroke="none" /><path d="M 90.7491055286396 118.85261126421891 l -0.9754617193462456 1.9879159420631713 a23.214347614675447,23.214347614675447 0 0,0 -0.3572202722560191,-0.17911766028037407 l 1.0095358992850252 -1.9708304408734953" fill="#ff1802" stroke="none" /><path d="M 90.42595943632237 118.69057910512821 l -1.0098760461542717 1.9714944804631263 a23.215093703456528,23.215093703456528 0 0,0 -0.3540955100912855,-0.1852460352924313 l 1.0436624587720529 -1.9538190262259783" fill="#ff1802" stroke="none" /><path d="M 90.10565033884886 118.52300852407294 l -1.052140458615463 1.9696905153833872 a23.23308760935321,23.23308760935321 0 0,0 -0.35112628652695477,-0.19146204758490126 l 1.0858895570110583 -1.9512878160387201" fill="#ff1802" stroke="none" /><line stroke="#e1ed5e" stroke-width="0.3" x1="58.666819895761336" x2="56.23545636021788" y1="174.27360380694188" y2="178.64263932499728" /><path d="M 58.180547188652646 175.14741091055294 a86.0,86.0 0 0,1 -31.652253787137756,-30.449443065178592" fill="none" id="id128" stroke="none" /><text fill="#e1ed5e" style="font-size:6.75px; font-family:Arial;" text-anchor="middle"><textPath startOffset="22.20632615414155" xlink:href="#id128">August</textPath></text><path d="M 89.7882731507175 118.34994917583269 l -1.0773743663100745 1.935986455270678 a23.215576466785464,23.215576466785464 0 0,0 -0.3475164328080483,-0.197328900170182 l 1.1105395660393302 -1.917154389305863" fill="#ff1802" stroke="none" /><path d="M 88.54995079064634 117.60387380957326 l -1.2196275855752086 1.8751159683751633 a23.236861940833975,23.236861940833975 0 0,0 -0.3334216392695102,-0.22097368158154154 l 1.2517239235846807 -1.8538442657023033" fill="#ff1802" stroke="none" /><path d="M 88.24862548938628 117.40417183066458 l -1.2417284041038508 1.8390405728726693 a23.21899969766337,23.21899969766337 0 0,0 -0.32931520028058225,-0.22650599760929874 l 1.2732004890073232 -1.8173937858982694" fill="#ff1802" stroke="none" /><path d="M 87.95078237400918 117.19931262002967 l -1.2594765858703392 1.7978039911292845 a23.195080969093393,23.195080969093393 0 0,0 -0.3250323075017401,-0.2319019212594812 l 1.2902362212209662 -1.775857808025584" fill="#ff1802" stroke="none" /><path d="M 87.65650970185807 116.9893568818739 l -1.311724680359583 1.8054341346827596 a23.2316393193664,23.2316393193664 0 0,0 -0.32149826419156724,-0.23783672991094448 l 1.3426079149697145 -1.7825874560320485" fill="#ff1802" stroke="none" /><path d="M 86.79598089348748 116.32954008644616 l -1.414816857029612 1.7497178999422789 a23.250159876167373,23.250159876167373 0 0,0 -0.30903876845476347,-0.2543178671860273 l 1.4447257540290643 -1.7251049138990708" fill="#ff1902" stroke="none" /><path d="M 86.51685102203217 116.09983520530335 l -1.4221831743402895 1.698187476534495 a23.215049815881173,23.215049815881173 0 0,0 -0.304155317492017,-0.25920776007539503 l 1.451203968409363 -1.6734553262361485" fill="#ff1802" stroke="none" /><path d="M 85.70375840098266 115.38237550388516 l -1.740752450982204 1.87300331173455 a23.557021803068785,23.557021803068785 0 0,0 -0.2946469274352569,-0.27860706082396225 l 1.772735212808278 -1.842761614164657" fill="#ff1d02" stroke="none" /><path d="M 85.18274418774928 114.88116024355367 l -7.042801723743941 7.073176190152429 a30.981526813915288,30.981526813915288 0 0,0 -0.374669008785103,-0.379537727803459 l 7.163511357584578 -6.950897968368306" fill="#ff830c" stroke="none" /><path d="M 84.9287848128048 114.62390073753433 l -1.6367152852498965 1.5881374905611767 a23.280573965890298,23.280573965890298 0 0,0 -0.27658812783939196,-0.2900015462548392 l 1.663809964468246 -1.5597288277238373" fill="#ff1902" stroke="none" /><path d="M 84.67929136418377 114.36230785411682 l -1.6091223457454427 1.508462242438788 a23.205613987179255,23.205613987179255 0 0,0 -0.2706808809916244,-0.29377063619314203 l 1.6348496347327959 -1.4805403514443016" fill="#ff1802" stroke="none" /><path d="M 84.43433777217949 114.09645910891817 l -1.6395990785140562 1.4848415073522707 a23.212021573181488,23.212021573181488 0 0,0 -0.2656573317564775,-0.29846882844244305 l 1.6649152599188721 -1.4563985091689635" fill="#ff1802" stroke="none" /><path d="M 84.19399662182784 113.82643327865904 l -1.6891612779495155 1.4776079156554136 a23.24423505349408,23.24423505349408 0 0,0 -0.26084181426920716,-0.303417959077859 l 1.7143456017895013 -1.4483128574160242" fill="#ff1802" stroke="none" /><path d="M 83.50135304334701 112.99209946851258 l -0.5603043423180939 0.44121980227601454 a21.71317309956349,21.71317309956349 0 0,0 -0.22870504124702223,-0.29563209556158837 l 0.5678162007831846 -0.43150971260117343" fill="#ff0200" stroke="none" /><path d="M 83.28015986056508 112.70617746262583 l -1.7600904522861462 1.3375738912882322 a23.210661058345398,23.210661058345398 0 0,0 -0.23900209268696787,-0.320182360317977 l 1.7828538116681991 -1.3070786514609471" fill="#ff1802" stroke="none" /><path d="M 83.06392112726016 112.41649034213515 l -1.7868887789019283 1.3100368410197518 a23.21566424193618,23.21566424193618 0 0,0 -0.233505591491426,-0.3243188436054168 l 1.8091741627689617 -1.2790843919631967" fill="#ff1802" stroke="none" /><path d="M 82.85270091963577 112.12312394758628 l -1.8118618534138589 1.280984586662557 a23.218955810088012,23.218955810088012 0 0,0 -0.22792068987304973,-0.3283367528904413 l 1.8336434504490424 -1.2496065715851032" fill="#ff1802" stroke="none" /><path d="M 82.6465618267979 111.8261652097733 l -1.840824253518444 1.2545002049152827 a23.227645550008848,23.227645550008848 0 0,0 -0.22231831543676409,-0.3323357170328139 l 1.8621456743659386 -1.222627573676648" fill="#ff1802" stroke="none" /><path d="M 82.44556493220864 111.52570212397912 l -1.851286398594387 1.2154977072160242 a23.21465482770295,23.21465482770295 0 0,0 -0.21644364350689646,-0.33592534130562857 l 1.8719349054783292 -1.1834507659889473" fill="#ff1802" stroke="none" /><path d="M 82.24976979558568 111.22182372390057 l -17.020392478825112 10.760415043038623 a41.13654121321977,41.13654121321977 0 0,0 -0.3732364620416577,-0.6017760178878628 l 17.203093580534727 -10.465842693785497" fill="#faff18" stroke="none" /><line stroke="#e1ed5e" stroke-width="0.3" x1="26.63291911575756" x2="22.317208475507996" y1="142.92168965132927" y2="145.44649492493687" /><path d="M 25.769776987707644 143.4266507060508 a86.0,86.0 0 0,1 -11.730757126820373,-40.83630448921669" fill="none" id="id129" stroke="none" /><text fill="#e1ed5e" style="font-size:6.75px; font-family:Arial;" text-anchor="middle"><textPath startOffset="21.46611528233685" xlink:href="#id129">September</textPath></text><path d="M 81.87401531095188 110.60418214915194 l -1.9236838697400933 1.1254061228703742 a23.228698851817434,23.228698851817434 0 0,0 -0.1989350057369968,-0.34685995078399423 l 1.9427708716294674 -1.0921263262280732" fill="#ff1802" stroke="none" /><path d="M 81.69416730710424 110.29060199501025 l -1.994723981858934 1.121331705122518 a23.288298179153262,23.288298179153262 0 0,0 -0.1934299326748391,-0.3511315133267729 l 2.0137303239852895 -1.0868296733979226" fill="#ff1902" stroke="none" /><path d="M 81.35079622478065 109.6543875284942 l -1.964440930560898 1.0169589141211255 a23.212065460756843,23.212065460756843 0 0,0 -0.1806355530764351,-0.35641108311917236 l 1.9816551534235998 -0.9829936192992682" fill="#ff1802" stroke="none" /><path d="M 81.18737489456691 109.33194174019688 l -2.146586672750069 1.0648073651667849 a23.39617383938262,23.39617383938262 0 0,0 -0.17585761182011686,-0.36231876765349114 l 2.164597541184905 -1.027699641548009" fill="#ff1b02" stroke="none" /><path d="M 80.58989483394504 108.01547362559985 l -2.0356673089423425 0.8406362297231957 a23.20241019417814,23.20241019417814 0 0,0 -0.14926595048386676,-0.3704658478894508 l 2.049835873683597 -0.8054710139909396" fill="#ff1802" stroke="none" /><path d="M 80.45479744820244 107.68017299344265 l -2.059312427948878 0.809194770546863 a23.212592111661138,23.212592111661138 0 0,0 -0.14292956883335103,-0.37314400236244494 l 2.072936276375738 -0.7736272013512602" fill="#ff1802" stroke="none" /><path d="M 80.32549172779594 107.34259656027581 l -12.94056631505554 4.829465438136889 a34.812385491742866,34.812385491742866 0 0,0 -0.20468976308399786,-0.5632183172519964 l 13.021780339144762 -4.605999323878776" fill="#ffb510" stroke="none" /><path d="M 80.0844068197444 106.66101706037122 l -2.411412696643091 0.8065268740204935 a23.542714453502157,23.542714453502157 0 0,0 -0.12523350650323514,-0.3854291012677385 l 2.4249384541625756 -0.7648988727749515" fill="#ff1d02" stroke="none" /><path d="M 79.97269907076064 106.31721596034903 l -2.313897811414536 0.7298732982807268 a23.42628071607804,23.42628071607804 0 0,0 -0.11799396759604637,-0.3856111131891561 l 2.3261185515167124 -0.6899352125395228" fill="#ff1b02" stroke="none" /><path d="M 79.86692584326677 105.97154293290107 l -2.134168749910112 0.6330022040812833 a23.226065597295968,23.226065597295968 0 0,0 -0.1103872553703088,-0.38427251739144597 l 2.144748642166525 -0.5961722111852413" fill="#ff1802" stroke="none" /><path d="M 79.76711848015287 105.62410040840567 l -2.1535437945179834 0.5986169850491768 a23.23519421297038,23.23519421297038 0 0,0 -0.10379706027101006,-0.38626747472262896 l 2.163528931130768 -0.561458577151009" fill="#ff1802" stroke="none" /><path d="M 79.67330655649465 105.27499134158121 l -2.1470465194818624 0.5571812174821575 a23.21816583373157,23.21816583373157 0 0,0 -0.09706153633441292,-0.3877125894354432 l 2.156319370111334 -0.5201407886493226" fill="#ff1802" stroke="none" /><path d="M 79.58551787078972 104.9243191809786 l -6.7862069496388955 1.6369481643808825 a27.98084551155497,27.98084551155497 0 0,0 -0.10891135604281281,-0.4691872713574272 l 6.813378871612263 -1.519892235674881" fill="#ff5b08" stroke="none" /><path d="M 79.50377843672027 104.57218783832718 l -3.356144446628941 0.7486708111136703 a24.438635416855337,24.438635416855337 0 0,0 -0.08805584957520413,-0.41136761391357435 l 3.3685343349285857 -0.6907893777839322" fill="#ff2904" stroke="none" /><path d="M 79.35854240842038 103.8639653848113 l -4.5425453831842 0.8503390829685539 a25.62144946032215,25.62144946032215 0 0,0 -0.07741772003257685,-0.4341996877126322 l 4.556509545555966 -0.7720206445227081" fill="#ff3a05" stroke="none" /><path d="M 79.29508885075956 103.50808413554451 l -2.18591472823736 0.37036492088805156 a23.217068644347627,23.217068644347627 0 0,0 -0.06336960207464246,-0.3946025726098138 l 2.191966084673293 -0.33268311858502403" fill="#ff1802" stroke="none" /><path d="M 79.23777060512086 103.15116336523772 l -2.321704164788369 0.3523739657170636 a23.348292494667312,23.348292494667312 0 0,0 -0.05688750203007961,-0.3978710567020346 l 2.3274257178350477 -0.3123574370346284" fill="#ff1a02" stroke="none" /><path d="M 79.18660465613746 102.79330883721812 l -2.624296791231503 0.35219969146416724 a23.64782519648398,23.64782519648398 0 0,0 -0.05067221159219697,-0.4039073832235084 l 2.6299705120705483 -0.30697455395325024" fill="#ff1e03" stroke="none" /><path d="M 79.1416061653843 102.43462659150553 l -2.1951003630879886 0.2562157833134964 a23.21000274471503,23.21000274471503 0 0,0 -0.04290280422400506,-0.39722668359594693 l 2.1991854688130457 -0.21839277783276745" fill="#ff1802" stroke="none" /><path d="M 79.10278846688536 102.07522291339032 l -2.4574224947303454 0.24403731860894418 a23.469509977805426,23.469509977805426 0 0,0 -0.03646201134310051,-0.40235525684071816 l 2.461259102350521 -0.20170067321965984" fill="#ff1c02" stroke="none" /><path d="M 79.0235259727143 100.99374915477108 l -4.845897707764817 0.2295717929016272 a25.851332580046062,25.851332580046062 0 0,0 -0.017231596146424173,-0.44467092966290456 l 4.849131436762442 -0.14612361622472583" fill="#ff3d05" stroke="none" /><line stroke="#e1ed5e" stroke-width="0.3" x1="15.007084014347285" x2="10.007500721073583" y1="101.09737516637583" y2="101.16192664675087" /><path d="M 14.007167355692545 101.11028546245083 a86.0,86.0 0 0,1 10.666146001902534,-42.60595125391555" fill="none" id="id130" stroke="none" /><text fill="#e1ed5e" style="font-size:6.75px; font-family:Arial;" text-anchor="middle"><textPath startOffset="22.20632615414155" xlink:href="#id130">October</textPath></text><path d="M 79.00175016825051 100.2711162175752 l -4.438814392264983 0.05731118441736322 a25.4391843598614,25.4391843598614 0 0,0 -0.0018845622886413777,-0.437905906110438 l 4.439143251843127 0.01910419989675015" fill="#ff3805" stroke="none" /><path d="M 79.00486145842228 99.54816195383935 l -2.2533685489261446 -0.048494923737242145 a23.253890320072784,23.253890320072784 0 0,0 0.01205692680475572,-0.40011070291177375 l 2.252199927665744 0.0872757740740103" fill="#ff1902" stroke="none" /><path d="M 79.01574976396665 99.18683210126434 l -2.2875029291022044 -0.08864381282565718 a23.289219818235775,23.289219818235775 0 0,0 0.018971167530804994,-0.40045136246572577 l 2.2856381533379007 0.12800628191439206" fill="#ff1902" stroke="none" /><path d="M 79.08570108090925 98.10471618934814 l -2.2790470424077207 -0.20653051674835338 a23.288385954303976,23.288385954303976 0 0,0 0.039615623071873905,-0.3989239180077332 l 2.275154293653618 0.24572996546051687" fill="#ff1902" stroke="none" /><path d="M 79.12142395522702 97.74499172005258 l -9.22335909145786 -0.99617670647481 a30.27699956669727,30.27699956669727 0 0,0 0.06042373161670352,-0.517673632340862 l 9.204845006837568 1.1547940771405338" fill="#ff7a0b" stroke="none" /><path d="M 79.16333360222342 97.38593545837743 l -2.294102330153687 -0.2878066693407524 a23.312085244997164,23.312085244997164 0 0,0 0.053378015661157185,-0.39772821673845593 l 2.288808315434696 0.32725322814386776" fill="#ff1902" stroke="none" /><path d="M 79.21141760316559 97.0276538004421 l -2.2060441864930636 -0.31541963413426166 a23.228479413940644,23.228479413940644 0 0,0 0.060000386312989096,-0.3953275790630668 l 2.200287906740772 0.3533463255894206" fill="#ff1802" stroke="none" /><path d="M 79.26566170972629 96.67025291283419 l -2.2255073478602396 -0.3573963396015334 a23.254021982798857,23.254021982798857 0 0,0 0.06686986189090645,-0.3946697101659839 l 2.21902562444911 0.39565183808334525" fill="#ff1902" stroke="none" /><path d="M 79.32604984820605 96.31383870115002 l -2.255923692621768 -0.4022307564758991 a23.29150197215438,23.29150197215438 0 0,0 0.0737722567966609,-0.39409434569191304 l 2.2486657119152453 0.4410031796303849" fill="#ff1902" stroke="none" /><path d="M 79.46518482838121 95.60439243477599 l -2.2445608729851894 -0.48046250581965827 a23.295407966361218,23.295407966361218 0 0,0 0.08730854114428936,-0.3913870704653346 l 2.2359579448388627 0.5190277458349521" fill="#ff1902" stroke="none" /><path d="M 79.54389044137918 95.25157060432595 l -2.151781408695166 -0.4994880412051292 a23.208993330481803,23.208993330481803 0 0,0 0.0936838749233509,-0.3883801435547556 l 2.1428647335110003 0.5364534164192816" fill="#ff1802" stroke="none" /><path d="M 79.62865764111835 94.90015583598534 l -2.2701602563925656 -0.5683210920017749 a23.340217180801485,23.340217180801485 0 0,0 0.10092273023621184,-0.3888964485727743 l 2.2600411942860466 0.607313966123413" fill="#ff1a02" stroke="none" /><path d="M 79.71946130924805 94.55025226153421 l -2.2377472185496012 -0.6013231714160463 a23.317132316163306,23.317132316163306 0 0,0 0.10749556574567819,-0.38671874392402716 l 2.227064882237562 0.639753218759016" fill="#ff1902" stroke="none" /><path d="M 79.81627453868168 94.20196356495316 l -2.1223278308407805 -0.6096661448309776 a23.208159466550004,23.208159466550004 0 0,0 0.11360294914535493,-0.3830126694669689 l 2.1115189845837183 0.6461082010444857" fill="#ff1802" stroke="none" /><path d="M 79.91906864156998 93.8553929516997 l -2.197550982007827 -0.6724333155681012 a23.298128996033398,23.298128996033398 0 0,0 0.12064494127522069,-0.38247743304564 l 2.1856505569644025 0.7101609150401558" fill="#ff1902" stroke="none" /><path d="M 80.02781315780177 93.51064311812611 l -2.1454136167590394 -0.6970871406512874 a23.255821373388525,23.255821373388525 0 0,0 0.12697978163014215,-0.3796533847824537 l 2.1330965413571246 0.7339136283560633" fill="#ff1902" stroke="none" /><path d="M 80.14247586403 93.16781622104843 l -2.163972491294279 -0.7445368139493886 a23.288473729454694,23.288473729454694 0 0,0 0.13368351241559276,-0.37794129161427015 l 2.1508358980688764 0.7816757319902699" fill="#ff1902" stroke="none" /><path d="M 80.2630227832202 92.82701384747504 l -2.1781833244347024 -0.7916145746243127 a23.317571191916883,23.317571191916883 0 0,0 0.14034447647356801,-0.3760534220654005 l 2.1642342594595068 0.8289911337190546" fill="#ff1902" stroke="none" /><path d="M 80.38941819471856 92.48833698450439 l -2.149807943642859 -0.8234652587579872 a23.302122765390955,23.302122765390955 0 0,0 0.14669956814444615,-0.37333439964080345 l 2.135314825616722 0.860348663294554" fill="#ff1902" stroke="none" /><path d="M 80.52162464483688 92.15188598940014 l -3.3452654987995607 -1.3478549700165827 a24.60659316774946,24.60659316774946 0 0,0 0.16167505794112538,-0.3915089767549954 l 3.3215687539722354 1.4052385172248893" fill="#ff2c04" stroke="none" /><path d="M 80.65960295795068 91.81776055985345 l -2.131506342825645 -0.9017651099546661 a23.314411286491126,23.314411286491126 0 0,0 0.15954749982940153,-0.36825762700899767 l 2.1156681331535627 0.938321881550263" fill="#ff1902" stroke="none" /><path d="M 80.95270993114464 91.15688171328213 l -2.0865046881316616 -0.9687051384338207 a23.300411149952,23.300411149952 0 0,0 0.1720256109008738,-0.36232980855765407 l 2.0695208833890364 1.004477362632007" fill="#ff1902" stroke="none" /><path d="M 81.10775173730289 90.83032412892265 l -2.0829054907506985 -1.0109738107763189 a23.31528903799828,23.31528903799828 0 0,0 0.1783508442405467,-0.35954441887290545 l 2.065194633556739 1.0466778181481857" fill="#ff1902" stroke="none" /><path d="M 81.26839172434947 90.50648371742162 l -2.077447612806163 -1.0528878486112778 a23.32902584908526,23.32902584908526 0 0,0 0.18462209665151577,-0.3566311266976241 l 2.059016082994533 1.0884916975692376" fill="#ff1a02" stroke="none" /><path d="M 81.43458229118936 90.18545643968196 l -2.0238636640001664 -1.0699084934161183 a23.289263705811134,23.289263705811134 0 0,0 0.19040847397395097,-0.35279798423825576 l 2.0051470908077436 1.1045874609868467" fill="#ff1902" stroke="none" /><path d="M 81.6062741919709 89.86733742301443 l -1.9614399430325744 -1.0805102411114196 a23.23936353262937,23.23936353262937 0 0,0 0.19603217481107796,-0.34871936513103485 l 1.9425501269290657 1.114113116177239" fill="#ff1802" stroke="none" /><line stroke="#e1ed5e" stroke-width="0.3" x1="26.266209847984243" x2="21.928928074336255" y1="57.711370442889674" y2="55.22380399835377" /><path d="M 25.398753493254645 57.213857153982495 a86.0,86.0 0 0,1 29.58750427330803,-30.492523968695096" fill="none" id="id131" stroke="none" /><text fill="#e1ed5e" style="font-size:6.75px; font-family:Arial;" text-anchor="middle"><textPath startOffset="21.46611528233685" xlink:href="#id131">November</textPath></text><path d="M 81.78341655067845 89.55222093294921 l -1.9356212857119919 -1.1101392095208096 a23.231375993914256,23.231375993914256 0 0,0 0.2019363303062565,-0.34517464711661033 l 1.9162252809354106 1.1432932689913118" fill="#ff1802" stroke="none" /><path d="M 81.96595687620814 89.24020034530311 l -1.7143626330843778 -1.0228542951164918 a22.99631414029813,22.99631414029813 0 0,0 0.20574495831472836,-0.3381906144751387 l 1.6965018764834325 1.052212682798705" fill="#ff1502" stroke="none" /><path d="M 82.15384107792192 88.93136811851018 l -2.077745796315773 -1.288669649482997 a23.444932935605085,23.444932935605085 0 0,0 0.21566257385823967,-0.3411264003645998 l 2.055255626211571 1.3242436975618121" fill="#ff1b02" stroke="none" /><path d="M 82.34701348167596 88.62581576622439 l -3.882883271060607 -2.501821979949121 a25.61907953125283,25.61907953125283 0 0,0 0.24204340847779032,-0.3686487167554335 l 3.8392432272248964 2.5682887606822216" fill="#ff3a05" stroke="none" /><path d="M 82.54541684631803 88.32363383020206 l -1.8889435622091322 -1.2636220820766897 a23.272630314750543,23.272630314750543 0 0,0 0.22560657864853395,-0.33104981577710135 l 1.8669125178918577 1.2959499211242067" fill="#ff1902" stroke="none" /><path d="M 83.17141714833178 87.43820079747576 l -1.830447158170662 -1.3663485425031858 a23.284172747069633,23.284172747069633 0 0,0 0.24251470436963019,-0.31912092369632095 l 1.806656513576923 1.3976542420805333" fill="#ff1902" stroke="none" /><path d="M 83.39014120810768 87.1503855733568 l -1.7803095840567906 -1.3772718962760706 a23.2508620773731,23.2508620773731 0 0,0 0.24761716315604188,-0.3144486512915525 l 1.7563383403067776 1.4077129415206706" fill="#ff1902" stroke="none" /><path d="M 83.6137871275137 86.86637796730984 l -1.8195893964135228 -1.4584089425148543 a23.33192242905887,23.33192242905887 0 0,0 0.2538752122760281,-0.3112209917074113 l 1.7942156920611023 1.4895141038303479" fill="#ff1a02" stroke="none" /><path d="M 84.07557802195018 86.31012108654704 l -1.7185231387192963 -1.4773769315748473 a23.26626661632367,23.26626661632367 0 0,0 0.2636933694691537,-0.3014471053112599 l 1.692837905672299 1.5067395930890504" fill="#ff1902" stroke="none" /><path d="M 84.31358615837235 86.03803664274999 l -1.672086397203912 -1.4882693548454047 a23.23848578112221,23.23848578112221 0 0,0 0.2685222074877581,-0.2965089282441786 l 1.646220549100109 1.5168310703591392" fill="#ff1802" stroke="none" /><path d="M 84.5562425177563 85.77008943001954 l -1.6508036942421973 -1.5210539899158693 a23.244717816823012,23.244717816823012 0 0,0 0.2736597064711529,-0.29192109449218623 l 1.6243766658005887 1.5492445012861056" fill="#ff1802" stroke="none" /><path d="M 85.05521093208273 85.24692304244772 l -1.67695598835784 -1.6554439569697592 a23.356411696108495,23.356411696108495 0 0,0 0.28490840538554474,-0.2836849181492262 l 1.648211782804982 1.6840647257690946" fill="#ff1a02" stroke="none" /><path d="M 85.31137513191541 84.99185889309783 l -1.5855581239972454 -1.6200481850312798 a23.26683715480332,23.26683715480332 0 0,0 0.28863814033177215,-0.27766966231146295 l 1.5574367400530456 1.6471009341050564" fill="#ff1902" stroke="none" /><path d="M 85.57189188830299 84.74124197986013 l -1.5238462088257898 -1.6115765407614053 a23.217946395854785,23.217946395854785 0 0,0 0.29275853143314196,-0.2720871489897395 l 1.4958797935977917 1.6375682758257921" fill="#ff1802" stroke="none" /><path d="M 86.10567301691215 84.25364557470407 l -1.4941265778588957 -1.6932843656161098 a23.2582351900332,23.2582351900332 0 0,0 0.30247467918713833,-0.2623030611561014 l 1.4647581000249836 1.7187524201918918" fill="#ff1902" stroke="none" /><path d="M 86.65592168130627 83.78471172551755 l -1.4247487273795993 -1.731308133945647 a23.242172337452264,23.242172337452264 0 0,0 0.3111093168588577,-0.2515620980304335 l 1.3947360119562413 1.755576329240215" fill="#ff1802" stroke="none" /><path d="M 87.22198572758235 83.33499621200491 l -1.4089600547000007 -1.837556614676304 a23.31555236345043,23.31555236345043 0 0,0 0.3205931153425701,-0.24146408788371607 l 1.3771207855990406 1.8615372920658746" fill="#ff1902" stroke="none" /><path d="M 87.51073957382395 83.11751280151077 l -1.3359854326280172 -1.805932152430615 a23.246385544686607,23.246385544686607 0 0,0 0.3237387776375878,-0.23520998991817912 l 1.3047013386366477 1.8286613771654618" fill="#ff1802" stroke="none" /><path d="M 87.80319425747018 82.90503203632743 l -1.2863995791145009 -1.8030097435070709 a23.21487426557974,23.21487426557974 0 0,0 0.32729530326280026,-0.2292912760005012 l 1.2551731362680405 1.8248858622715145" fill="#ff1802" stroke="none" /><path d="M 88.09926311788651 82.69761687909137 l -1.2968820817080606 -1.8855261537695098 a23.288473729454694,23.288473729454694 0 0,0 0.3322436858943455,-0.22433241981972174 l 1.2642337014071756 1.907570485887897" fill="#ff1902" stroke="none" /><path d="M 88.39885842347998 82.49532879139004 l -2.4860628165961645 -3.751157756452499 a25.500188089608677,25.500188089608677 0 0,0 0.36797132570734353,-0.23933878602838485 l 2.421124465104534 3.7933954666404186" fill="#ff3805" stroke="none" /><line stroke="#e1ed5e" stroke-width="0.3" x1="56.762969772571076" x2="54.21961505331055" y1="26.818313649435495" y2="22.513508569990535" /><path d="M 56.25429882871897 25.957352633546506 a86.0,86.0 0 0,1 42.265352541879196,-11.944610805530505" fill="none" id="id132" stroke="none" /><text fill="#e1ed5e" style="font-size:6.75px; font-family:Arial;" text-anchor="middle"><textPath startOffset="22.20632615414155" xlink:href="#id132">December</textPath></text><path d="M 89.3179101791058 81.91981866633112 l -1.1555968448778347 -1.9559281801899204 a23.271796450818748,23.271796450818748 0 0,0 0.3466425700580033,-0.20079775080730533 l 1.1217575423545112 1.9755300883872728" fill="#ff1902" stroke="none" /><path d="M 89.63071344664047 81.73862282372117 l -1.0931523349534598 -1.9251533841783377 a23.21386485134651,23.21386485134651 0 0,0 0.3491762240989287,-0.19431619066597863 l 1.0598520217824856 1.9436849724045009" fill="#ff1802" stroke="none" /><path d="M 89.94658935756843 81.56283822128135 l -1.0962631619329308 -2.0104601301472855 a23.289922019441498,23.289922019441498 0 0,0 0.35362414294611505,-0.1888937703822011 l 1.0614939724585106 2.029032627031236" fill="#ff1902" stroke="none" /><path d="M 90.26544431104013 81.39251694778311 l -1.0345583874395354 -1.9775455887157074 a23.231814869667833,23.231814869667833 0 0,0 0.355932989933097,-0.18232270195606412 l 1.0003649099176748 1.9950608159842769" fill="#ff1802" stroke="none" /><path d="M 90.91171255644093 81.06846463323043 l -2.2817237099553136 -4.752989315146427 a26.272302202877633,26.272302202877633 0 0,0 0.40937474857632644,-0.1922069335726701 l 2.199570750079379 4.791561231359105" fill="#ff4306" stroke="none" /><path d="M 91.56875222667455 80.76684994638697 l -0.9182132449548713 -2.0946049263674373 a23.28702543946789,23.28702543946789 0 0,0 0.3685074660135936,-0.15777566532714754 l 0.8820220211509695 2.110100119657371" fill="#ff1902" stroke="none" /><path d="M 91.90106846888425 80.62456947434976 l -1.1274804339761186 -2.697321089035644 a23.92348305730603,23.92348305730603 0 0,0 0.3813131273766388,-0.1555471988593703 l 1.0808834370110993 2.716329174078591" fill="#ff2203" stroke="none" /><path d="M 92.23578459929587 80.48803036053334 l -0.20237458493691043 -0.5085802690031698 a21.5473658398619,21.5473658398619 0 0,0 0.3458011922830642,-0.13416549026197327 l 0.1935902276541699 0.5119884631556945" fill="#ff0000" stroke="none" /><path d="M 92.57280143429618 80.3572730644239 l -0.8114118946938531 -2.1459426644855633 a23.29422300182656,23.29422300182656 0 0,0 0.37627676902927243,-0.13858590956376238 l 0.7743527998920113 2.159591841855648" fill="#ff1902" stroke="none" /><path d="M 92.91201910852362 80.23233633223022 l -0.8381970957798085 -2.337647142446713 a23.483378451618478,23.483378451618478 0 0,0 0.38168093671094516,-0.13316098431680196 l 0.797834155005578 2.3517289799357246" fill="#ff1c02" stroke="none" /><path d="M 93.25333710446033 80.11325718540243 l -0.7224146110429583 -2.129419210320523 a23.248623811029855,23.248623811029855 0 0,0 0.380078662550033,-0.12530595929850313 l 0.6856531262505161 2.1415388938782605" fill="#ff1902" stroke="none" /><path d="M 94.28887869178378 79.79150937346287 l -0.8672992210196381 -3.06889089418633 a24.18909066337115,24.18909066337115 0 0,0 0.4016565224798222,-0.10978790025677389 l 0.8143448093160934 3.0833653352694" fill="#ff2603" stroke="none" /><path d="M 94.63758080256005 79.69619591428918 l -0.5792141625912473 -2.193086822928008 a23.268285444790127,23.268285444790127 0 0,0 0.38812731270715173,-0.09894229402416232 l 0.5413779611990962 2.2027321131210336" fill="#ff1902" stroke="none" /><path d="M 94.98787191387505 79.60689891045804 l -1.0496451775767708 -4.270744850621457 a25.397842263874395,25.397842263874395 0 0,0 0.4254456814615649,-0.10068924720328092 l 0.9759758091526719 4.288180009965609" fill="#ff3705" stroke="none" /><path d="M 95.33964822691252 79.52364482259891 l -0.8881246430808698 -3.9021851823598563 a25.00197633414746,25.00197633414746 0 0,0 0.4204585644259836,-0.09189595685346337 l 0.8208233545013652 3.916894637309188" fill="#ff3104" stroke="none" /><path d="M 95.692805502759 79.44645832069477 l -0.5050583611080814 -2.410092713984932 a23.46244407817283,23.46244407817283 0 0,0 0.3959942046334914,-0.07943271212941734 l 0.4634977470074536 2.4184293821915603" fill="#ff1c02" stroke="none" /><path d="M 96.40284397218896 79.31037775812273 l -0.5002764405561755 -2.877420520987748 a23.920586477332414,23.920586477332414 0 0,0 0.40627497945207564,-0.06703885270794457 l 0.45067225496521424 2.885605636635319" fill="#ff2203" stroke="none" /><path d="M 96.75951476605007 79.25152402106235 l -0.5162139936394351 -3.3052622905995377 a24.345330431644754,24.345330431644754 0 0,0 0.4146021592414551,-0.06110158088911891 l 0.45924285396933123 3.3136583556496255" fill="#ff2803" stroke="none" /><path d="M 97.11714578562143 79.19881850522333 l -0.30498304376230234 -2.2005995358653925 a23.221632952184834,23.221632952184834 0 0,0 0.3964101615883265,-0.051465416021981944 l 0.26705815366611807 2.2055232750515112" fill="#ff1802" stroke="none" /><path d="M 97.47563105711357 79.15227682838746 l -0.16130268166060668 -1.3321323983070277 a22.34186261656331,22.34186261656331 0 0,0 0.3821876646419541,-0.04294323724802179 l 0.13834831350893462 1.334711589025648" fill="#ff0b01" stroke="none" /><path d="M 97.83486435360386 79.11191278185805 l -0.33101332874677336 -3.1934420795938574 a24.210551687721093,24.210551687721093 0 0,0 0.41489377198542343,-0.039399162900711666 l 0.2759944296711136 3.1986667870097496" fill="#ff2603" stroke="none" /></svg>