<?xml version="1.0" encoding="utf-8" ?>
<svg baseProfile="full" height="200mm" version="1.1" viewBox="0,0,200,200" width="200mm" xmlns="http://www.w3.org/2000/svg" xmlns:ev="http://www.w3.org/2001/xml-events" xmlns:xlink="http://www.w3.org/1999/xlink"><defs /><rect fill="#1a1a1a" height="200" width="200" x="0" y="0" /><text alignment-baseline="middle" fill="#e1ed5e" style="dominant-baseline: central; font-size:9.0px; font-family:Arial;" text-anchor="middle" x="100.0" y="100.0">2024</text><line stroke="#e1ed5e" stroke-width="0.3" x1="100.0" x2="100.0" y1="15.0" y2="10.0" /><path d="M 100.0 14.0 a86.0,86.0 0 0,1 42.35913384403234,11.155469271406648" fill="none" id="id109" stroke="none" /><text fill="#e1ed5e" style="font-size:6.75px; font-family:Arial;" text-anchor="middle"><textPath startOffset="22.145653131862478" xlink:href="#id109">January</textPath></text><path d="M 100.36049292484886 79.00309439819443 l 0.024250528790247448 -1.4124717260850046 a22.41267988770852,22.41267988770852 0 0,0 0.384630067977363,0.009906706174317614 l -0.04849391083835178 1.4118473025606417" fill="#ff0801" stroke="none" /><path d="M 102.15924093988457 79.11130261209362 l 0.3677548342163198 -3.5576944207509564 a24.5766511165519,24.5766511165519 0 0,0 0.41928246447348766,0.04698147468378484 l -0.4287732002906042 3.5508571855602007" fill="#ff2703" stroke="none" /><path d="M 102.51750503828377 79.15144685158666 l 0.18068178673445917 -1.4963043872403354 a22.507173754857824,22.507173754857824 0 0,0 0.38318160875805607,0.049610530816794535 l -0.20634121738330694 1.492982260223144" fill="#ff0901" stroke="none" /><path d="M 103.23170211078529 79.25015418208739 l 0.5488311355141867 -3.52388959489276 a24.56637259583225,24.56637259583225 0 0,0 0.41613387622466996,0.06847467097525792 l -0.6092425147919271 3.513948925421834" fill="#ff2703" stroke="none" /><path d="M 104.64783097203109 79.52079915486377 l 0.7898592381745919 -3.480265542207327 a24.568770917333502,24.568770917333502 0 0,0 0.4104948446201408,0.09687566561083939 l -0.8494862365346177 3.46619373295026" fill="#ff2703" stroke="none" /><path d="M 104.9986988182912 79.60360301121754 l 0.7747009137775425 -3.1610440955474264 a24.254590800669572,24.254590800669572 0 0,0 0.4035440781303805,0.10257932661390083 l -0.8288502851333174 3.1472795370982576" fill="#ff2203" stroke="none" /><path d="M 105.3480935250658 79.69241777938227 l 0.3690526745410015 -1.4013531171162623 a22.449134374527542,22.449134374527542 0 0,0 0.37182030801795246,0.10134127836176027 l -0.39305438349364674 1.39481134461036" fill="#ff0801" stroke="none" /><path d="M 105.69591212413111 79.78721728523813 l 1.3282963249254747 -4.713655058474237 a25.897235458612368,25.897235458612368 0 0,0 0.4268604171902266,0.12425284631369865 l -1.4090167544973056 4.6901585178580225" fill="#ff3a05" stroke="none" /><path d="M 107.06938296918511 80.22567764915836 l 1.2020964439260733 -3.3624776989178504 a24.570895144948896,24.570895144948896 0 0,0 0.3959551176485574,0.14540020375040555 l -1.2596407132287553 3.341346646158723" fill="#ff2703" stroke="none" /><path d="M 107.40779381753099 80.34994680014964 l 0.5458233601745957 -1.4478613105793319 a22.54732850913592,22.54732850913592 0 0,0 0.3610017738781901,0.13964324133745795 l -0.5705973965463117 1.4382781811038359" fill="#ff0a01" stroke="none" /><path d="M 108.4095320186766 80.7573450057729 l 0.6447966757682383 -1.4754209801064888 a22.610164532468705,22.610164532468705 0 0,0 0.3543191479459245,0.15848244811859424 l -0.6700292265697944 1.464134781078042" fill="#ff0b01" stroke="none" /><line stroke="#e1ed5e" stroke-width="0.3" x1="143.13028292997686" x2="145.6673583964461" y1="26.7553504044142" y2="22.446841604673864" /><path d="M 143.63769802327073 25.89364864446614 a86.0,86.0 0 0,1 29.32050498858742,28.57503671076993" fill="none" id="id110" stroke="none" /><text fill="#e1ed5e" style="font-size:6.75px; font-family:Arial;" text-anchor="middle"><textPath startOffset="20.669276256404974" xlink:href="#id110">February</textPath></text><path d="M 113.59037401385872 83.9905735841838 l 10.103900650147308 -11.902369559976721 a36.61266183231763,36.61266183231763 0 0,0 0.47565168801711266,0.41085659937479263 l -10.30673181792728 11.727168828137208" fill="#ffc912" stroke="none" /><path d="M 114.13192950727249 84.46653392183569 l 2.4039987720244893 -2.6424157690550394 a24.572334137849648,24.572334137849648 0 0,0 0.3095765743905023,0.2865394555459527 l -2.4490051177289565 2.6007585673767117" fill="#ff2703" stroke="none" /><path d="M 114.39649973595853 84.71141617570332 l 3.0216437992764593 -3.2088810029994868 a25.407635254999768,25.407635254999768 0 0,0 0.31496697742737845,0.3017312395341538 l -3.07628326256915 3.1565376331597528" fill="#ff3304" stroke="none" /><path d="M 114.65682725009322 84.96080404539774 l 4.9238323308077065 -5.052285737361893 a28.054765481138098,28.054765481138098 0 0,0 0.3420117448585892,0.3390885851171348 l -5.009835995796259 4.967017142016099" fill="#ff5808" stroke="none" /><path d="M 115.41159269507618 85.73525988315684 l 4.009491976483693 -3.711125915193736 a26.46337637985062,26.46337637985062 0 0,0 0.30571790253516723,0.33603752878003856 l -4.072607579860737 3.6417508108560255" fill="#ff4206" stroke="none" /><line stroke="#e1ed5e" stroke-width="0.3" x1="172.87174338648825" x2="177.1583165268699" y1="56.24261187166439" y2="53.66864786411523" /><path d="M 173.72905801456457 55.72781907015455 a86.0,86.0 0 0,1 12.242430191666344,42.057860355516425" fill="none" id="id111" stroke="none" /><text fill="#e1ed5e" style="font-size:6.75px; font-family:Arial;" text-anchor="middle"><textPath startOffset="22.145653131862474" xlink:href="#id111">March</textPath></text><path d="M 118.18653347947321 89.5 l 2.31930508926515 -1.3390514176201036 a23.678102835240207,23.678102835240207 0 0,0 0.20021147824435334,0.35375449816445204 l -2.3419499325308792 1.2990401493565336" fill="#ff1a02" stroke="none" /><path d="M 118.36410011445183 89.81374322990088 l 3.1118937618963134 -1.7261150125728195 a24.558560920085316,24.558560920085316 0 0,0 0.20132716519750618,0.3704193080122154 l -3.141066276709161 1.6724408710860008" fill="#ff2703" stroke="none" /><path d="M 118.70294669586156 90.45014215332178 l 1.2959934740638104 -0.6617435021760845 a22.455164440016404,22.455164440016404 0 0,0 0.17234882634697912,0.34481310459570697 l -1.3071622136225265 0.639398541416627" fill="#ff0801" stroke="none" /><path d="M 118.8641267826498 90.77261029715802 l 3.1040486018344655 -1.5183457170162762 a24.455501619002973,24.455501619002973 0 0,0 0.1812277766148484,0.37869635153458986 l -3.129655636409226 1.4648368634165827" fill="#ff2503" stroke="none" /><path d="M 119.16976305983485 91.42560881287824 l 3.2142645569174677 -1.4376996525145576 a24.521147104665797,24.521147104665797 0 0,0 0.16857251504720994,0.385726903870344 l -3.2384709539816483 1.3823106788683643" fill="#ff2603" stroke="none" /><path d="M 119.31412917781788 91.75594674310238 l 3.2420002104605135 -1.3838171085966293 a24.5249844190678,24.5249844190678 0 0,0 0.16195150009857787,0.388624643863093 l -3.265277555095574 1.3279599552922585" fill="#ff2603" stroke="none" /><path d="M 119.4528033332814 92.08871423366111 l 3.48451997714954 -1.4171239396937099 a24.761664489505577,24.761664489505577 0 0,0 0.15675468987043503,0.39512421821582383 l -3.5083333419861 1.3570987042643208" fill="#ff2a04" stroke="none" /><path d="M 119.58574465831526 92.42381321644754 l 3.2036165434107993 -1.2392277005130043 a24.434944577563677,24.434944577563677 0 0,0 0.14797024728384833,0.3925086608433331 l -3.2244174745090883 1.1840507594755134" fill="#ff2503" stroke="none" /><path d="M 119.71291397450082 92.76114493625339 l 1.3042912769434394 -0.478953823210281 a22.389450430882114,22.389450430882114 0 0,0 0.1293895189095912,0.3619255127203189 l -1.3123209658969737 0.45649335410904524" fill="#ff0801" stroke="none" /><path d="M 119.83427380445688 93.10060997987247 l 1.4586521639979289 -0.5073949408151928 a22.544381999862953,22.544381999862953 0 0,0 0.1240097515536063,0.3666127953794309 l -1.4671473371239 0.48228047096160026" fill="#ff0a01" stroke="none" /><path d="M 119.94978838288452 93.4421083053983 l 25.359685336913554 -8.336232277598304 a47.69468877835702,47.69468877835702 0 0,0 0.24900098857763975,0.7799920502352243 l -25.49905104126845 7.8996711936716935" fill="#b1ff20" stroke="none" /><path d="M 120.16314734710363 94.1308016681162 l 3.3261551288714104 -0.9681952821102143 a24.46420409987894,24.46420409987894 0 0,0 0.11391175081339786,0.4042326176513053 l -3.3422853717593903 0.9109547405558959" fill="#ff2503" stroke="none" /><path d="M 120.35273937422433 94.82641323984039 l 4.1056219729340615 -1.0436330506100024 a25.236189529396025,25.236189529396025 0 0,0 0.1031228497533879,0.42077641775258096 l -4.122932349203741 0.9730008082493264" fill="#ff3004" stroke="none" /><path d="M 120.43855184770803 95.1765574152323 l 51.05550887349324 -12.0489610772012 a73.45800653257095,73.45800653257095 0 0,0 0.27910243109167376,1.2297768092445078 l -51.25482216614258 11.170749934017667" fill="#40ffc6" stroke="none" /><path d="M 120.592083275326 95.88100663000786 l 3.406656202708834 -0.6814266495131066 a24.474140003241267,24.474140003241267 0 0,0 0.07886932367737719,0.4126776284839657 l -3.417851818668368 0.6228464559958263" fill="#ff2603" stroke="none" /><path d="M 120.65975698304385 96.23510406497455 l 3.450345005583522 -0.6287677970567734 a24.507168316487075,24.507168316487075 0 0,0 0.07187040159616138,0.4145293775906628 l -3.4606302246719176 0.569445386545518" fill="#ff2603" stroke="none" /><path d="M 120.7213421655516 96.59031103205396 l 3.395585359755843 -0.5587422787760519 a24.44124873693839,24.44124873693839 0 0,0 0.0645697147715644,0.4145838880214614 l -3.4046765666656724 0.5003702088231492" fill="#ff2503" stroke="none" /><path d="M 120.77682067341334 96.94652285012252 l 62.330462020240034 -9.160431449632455 a84.0,84.0 0 0,0 0.19742193377914985,1.4284467671996575 l -62.478528470574396 8.089096374232712" fill="#4dd2ff" stroke="none" /><path d="M 120.9064616781168 98.02013634271609 l 3.4272168536640257 -0.3245609993059114 a24.442550682896215,24.442550682896215 0 0,0 0.03597289017310399,0.4180595120833314 l -3.4322833665348704 0.26568043984691797" fill="#ff2503" stroke="none" /><path d="M 120.96210409425399 98.7389718711861 l 2.684213990004741 -0.1614756481473461 a23.6890665906745,23.6890665906745 0 0,0 0.020934829675253605,0.406130102915226 l -2.6865904091365675 0.11537375185538948" fill="#ff1a02" stroke="none" /><path d="M 120.99303781780057 99.45929381324524 l 3.4616855886086317 -0.08916074131840862 a24.462833630449655,24.462833630449655 0 0,0 0.007209043772023368,0.41989065839196277 l -3.462706063979321 0.02972316695737945" fill="#ff2503" stroke="none" /><line stroke="#e1ed5e" stroke-width="0.3" x1="184.99686870605535" x2="189.99668451229388" y1="99.2704041080226" y2="99.22748670261217" /><path d="M 185.99683186730306 99.26182062694052 a86.0,86.0 0 0,1 -10.086455211305974,41.156179273409016" fill="none" id="id112" stroke="none" /><text fill="#e1ed5e" style="font-size:6.75px; font-family:Arial;" text-anchor="middle"><textPath startOffset="21.40746469413373" xlink:href="#id112">April</textPath></text><path d="M 120.99922638620191 99.81974689727618 l 3.443520198778684 -0.029558479379501422 a24.443647058439645,24.443647058439645 0 0,0 0.0,0.4196231642066562 l -3.443520198778684 -0.029558479379501006" fill="#ff2503" stroke="none" /><path d="M 120.99922638620191 100.18025310272382 l 0.8735050342061615 0.0074979901528182 a21.873537214227213,21.873537214227213 0 0,0 -0.006445994344253249,0.37544685464445204 l -0.8732476082632399 -0.022491760766341302" fill="#ff0000" stroke="none" /><path d="M 120.99303781780057 100.54070618675476 l 3.4592195614751615 0.0890972252070497 a24.46036678547694,24.46036678547694 0 0,0 -0.014414509292487325,0.4196627104414972 l -3.4571803651858284 -0.14846620021265766" fill="#ff2503" stroke="none" /><path d="M 120.98066250479742 100.90099992219065 l 3.4554688558662447 0.14839270063830334 a24.45865369869033,24.45865369869033 0 0,0 -0.02161493984189583,0.419324058455194 l -3.452412326567776 -0.20768855247022797" fill="#ff2503" stroke="none" /><path d="M 120.96210409425399 101.26102812881392 l 3.502207392814585 0.21068410000357846 a24.50853878591636,24.50853878591636 0 0,0 -0.028868769866471963,0.41974557803443535 l -3.4980746617830474 -0.2707731021923573" fill="#ff2603" stroke="none" /><path d="M 120.93736805541906 101.62068470465957 l 1.0478100677271713 0.0811071260560952 a22.05094448184835,22.05094448184835 0 0,0 -0.03245308619177027,0.37715405444608663 l -1.0462633588376602 -0.09908222787783916" fill="#ff0300" stroke="none" /><path d="M 120.9064616781168 101.97986365728391 l 1.6114515917365329 0.15260614115735255 a22.618661442930282,22.618661442930282 0 0,0 -0.03992474595031487,0.38623570025943926 l -1.608594453304552 -0.18024636369972322" fill="#ff0b01" stroke="none" /><path d="M 120.82617615685814 102.69636545807757 l 4.451136363690635 0.5762887171342865 a25.488287380913278,25.488287380913278 0 0,0 -0.05990413075546237,0.43343644893716016 l -4.440587716379962 -0.6526134742715318" fill="#ff3404" stroke="none" /><path d="M 120.77682067341334 103.0534771498775 l 6.884741431661343 1.0118199013621771 a27.958695574145118,27.958695574145118 0 0,0 -0.07386222439114261,0.47424846577577806 l -6.866357715131933 -1.1298565490694057" fill="#ff5608" stroke="none" /><path d="M 120.7213421655516 103.40968896794604 l 3.4106633274027094 0.561223352614503 a24.456529471074937,24.456529471074937 0 0,0 -0.07172189671346191,0.4136728408908945 l -3.400526613197013 -0.6196892264259855" fill="#ff2503" stroke="none" /><path d="M 120.65975698304385 103.76489593502545 l 3.507039549557883 0.6390994315635283 a24.564796555988572,24.564796555988572 0 0,0 -0.07916146963229485,0.4142062595692392 l -3.495551787643429 -0.699208256166082" fill="#ff2703" stroke="none" /><path d="M 120.592083275326 104.11899336999214 l 3.409948631780489 0.6820852275372911 a24.477497653343022,24.477497653343022 0 0,0 -0.08595365286898862,0.4113193445507027 l -3.397737268087136 -0.7405210233734029" fill="#ff2603" stroke="none" /><path d="M 120.51834098615036 104.47187691870673 l 6.769162475909867 1.4753074556773116 a27.928065582400563,27.928065582400563 0 0,0 -0.10611220434194266,0.4675499513462605 l -6.7428394100102595 -1.591291740962589" fill="#ff5608" stroke="none" /><path d="M 120.43855184770803 104.8234425847677 l 4.093454726739722 0.9660441696112233 a25.205902155008793,25.205902155008793 0 0,0 -0.10299908620521585,0.4202714202416419 l -4.076268114018211 -1.0361714144609648" fill="#ff3004" stroke="none" /><path d="M 120.35273937422433 105.17358676015961 l 3.3327255700773204 0.8471658073916909 a24.438713368494213,24.438713368494213 0 0,0 -0.10684433156313489,0.4057053299191468 l -3.3176917577094556 -0.9042516416836409" fill="#ff2503" stroke="none" /><path d="M 120.16314734710363 105.8691983318838 l 3.309838513858849 0.9634457532809525 a24.44721027895579,24.44721027895579 0 0,0 -0.12075021979897076,0.4019382098301797 l -3.2928119740562485 -1.0201215667018557" fill="#ff2503" stroke="none" /><path d="M 120.05942366710727 106.21446072829308 l 5.021919532023207 1.5558035081327277 a26.257394824628857,26.257394824628857 0 0,0 -0.1370827116450963,0.4294096417794835 l -4.994472104600856 -1.6417821836035948" fill="#ff3f05" stroke="none" /><path d="M 119.94978838288452 106.5578916946017 l 6.738996085769699 2.2152418668629754 a28.093755336401298,28.093755336401298 0 0,0 -0.1545351573396913,0.45685573357684106 l -6.699975506857643 -2.3305992749139772" fill="#ff5808" stroke="none" /><path d="M 119.83427380445688 106.89939002012753 l 3.380826681290435 1.1760270174063385 a24.5795291023534,24.5795291023534 0 0,0 -0.1420460701076932,0.3973281389936575 l -3.3601404411387987 -1.2338901127809176" fill="#ff2703" stroke="none" /><path d="M 119.71291397450082 107.23885506374661 l 5.072179531099178 1.8625745808267253 a26.40334981884787,26.40334981884787 0 0,0 -0.15989028292719032,0.4241279715727236 l -5.039458564357547 -1.9493708325936079" fill="#ff4106" stroke="none" /><path d="M 119.58574465831526 107.57618678355244 l 3.9453412003455597 1.526142731875793 a25.23022798737863,25.23022798737863 0 0,0 -0.15972094950232793,0.40260113019240207 l -3.9185615758771073 -1.593644879281759" fill="#ff3004" stroke="none" /><path d="M 119.4528033332814 107.91128576633889 l 4.571401272120603 1.8591491003497747 a25.93499189138921,25.93499189138921 0 0,0 -0.17126252845197593,0.41096772235039974 l -4.538812899132142 -1.937349332141452" fill="#ff3a05" stroke="none" /><path d="M 119.31412917781788 108.2440532568976 l 6.505302004668463 2.7767265966245716 a28.07312977149054,28.07312977149054 0 0,0 -0.19299089355923985,0.4416009325537285 l -6.456677229092258 -2.8879895989541446" fill="#ff5808" stroke="none" /><path d="M 118.8641267826498 109.22738970284198 l 13.059988417145636 6.388294779191325 a35.53869346405726,35.53869346405726 0 0,0 -0.2727680808037329,0.5457188817009602 l -12.948400423130172 -6.61154551705603" fill="#ffbb11" stroke="none" /><line stroke="#e1ed5e" stroke-width="0.3" x1="174.33088141563837" x2="178.70328620479359" y1="141.23008692659167" y2="143.65538615756765" /><path d="M 175.20536237346943 141.71514677278685 a86.0,86.0 0 0,1 -30.301960400862466,31.631185727798858" fill="none" id="id113" stroke="none" /><text fill="#e1ed5e" style="font-size:6.75px; font-family:Arial;" text-anchor="middle"><textPath startOffset="22.145653131862474" xlink:href="#id113">May</textPath></text><path d="M 118.36410011445183 110.18625677009912 l 1.669979343185095 0.9263093908455652 a22.90968062623927,22.90968062623927 0 0,0 -0.19371404272553472,0.3422741521749458 l -1.653831935438182 -0.9548403131196337" fill="#ff0f01" stroke="none" /><path d="M 117.62189284568427 111.42229804090321 l 1.190148080700982 0.7714396069491976 a22.418298812368594,22.418298812368594 0 0,0 -0.21209371880905414,0.32113692267466687 l -1.1767299229712012 -0.7917564079629255" fill="#ff0801" stroke="none" /><path d="M 117.423217284605 111.72311816256416 l 2.959903854461771 1.9915554095938661 a24.567537494847144,24.567537494847144 0 0,0 -0.23843410869639436,0.347882490277707 l -2.925280008950056 -2.042072634941617" fill="#ff2703" stroke="none" /><path d="M 117.21940702142032 112.02048342749411 l 5.7872931049277945 4.03998005107248 a28.05791756082546,28.05791756082546 0 0,0 -0.2790893021498816,0.3925740547846593 l -5.717088704247952 -4.1387313325666435" fill="#ff5808" stroke="none" /><path d="M 117.01052211995028 112.31430620078461 l 6.351685550419473 4.59813051048154 a28.841346410077083,28.841346410077083 0 0,0 -0.29376694045708085,0.3985512743045278 l -6.271816590378565 -4.706488094054945" fill="#ff6309" stroke="none" /><path d="M 116.79662413953412 112.60449989151573 l 2.7711352374413916 2.079511544078301 a24.46461524070773,24.46461524070773 0 0,0 -0.2549539366769826,0.3337428872414888 l -2.735029323410105 -2.1267753445606674" fill="#ff2503" stroke="none" /><path d="M 116.57777611688842 112.89097897827486 l 2.9818586741492163 2.3187113406293816 a24.777287840999442,24.777287840999442 0 0,0 -0.26397671655658284,0.3335259579302747 l -2.9416155269510718 -2.369557242474339" fill="#ff2a04" stroke="none" /><path d="M 116.1254893667686 113.45245675266167 l 3.977171588025701 3.3178979917402627 a26.179415114102454,26.179415114102454 0 0,0 -0.290847612872577,0.3426177566379754 l -3.9196294116460093 -3.3856825308277947" fill="#ff3e05" stroke="none" /><path d="M 115.89218393027572 113.72728997021213 l 19.829375427855773 17.128142212588443 a47.20262172977171,47.20262172977171 0 0,0 -0.5349381773254153,0.6086614485495256 l -19.532426186571772 -17.466015938949262" fill="#b6ff1f" stroke="none" /><path d="M 115.6541949942343 113.99807769240083 l 3.361012243161379 3.005437872864866 a25.50877589888111,25.50877589888111 0 0,0 -0.2946898896084667,0.3239158107500794 l -3.308924652711033 -3.0626912591726168" fill="#ff3405" stroke="none" /><path d="M 115.41159269507618 114.26474011684316 l 21.91149900310479 20.28095635758772 a50.85684141602122,50.85684141602122 0 0,0 -0.5985224605033241,0.6356101118991981 l -21.560120708865206 -20.654107929431415" fill="#8eff24" stroke="none" /><path d="M 115.16444852881244 114.52719865689866 l 2.578256275370072 2.469911189288056 a24.570415480648645,24.570415480648645 0 0,0 -0.29439242076855876,0.3020725582652885 l -2.5354770534507063 -2.513806439621082" fill="#ff2703" stroke="none" /><path d="M 114.91283532996324 114.78537596483092 l 2.536498932696892 2.514819584909098 a24.571854473549397,24.571854473549397 0 0,0 -0.29955206107711024,0.2969918024351962 l -2.492954951489817 -2.5579913975729562" fill="#ff2703" stroke="none" /><path d="M 114.65682725009322 115.03919595460226 l 30.630403660095133 31.42949254654054 a64.88661105751294,64.88661105751294 0 0,0 -0.8043700074869855,0.7705682715868352 l -30.086361166742837 -31.950672948432956" fill="#35ff68" stroke="none" /><path d="M 114.39649973595853 115.28858382429668 l 5.450778025923 5.788537372651138 a28.95098396442,28.95098396442 0 0,0 -0.36474135467391744,0.33759915261392887 l -5.350606899935116 -5.881254271397447" fill="#ff6409" stroke="none" /><path d="M 114.13192950727249 115.5334660781643 l 2.321825756626417 2.5520932305390094 a24.45022531170022,24.45022531170022 0 0,0 -0.3128871734905774,0.27978563989332955 l -2.277673556312462 -2.591574400315726" fill="#ff2503" stroke="none" /><path d="M 113.86319453409587 115.77377054828091 l 4.554985225304901 5.182737039292006 a27.899902435628725,27.899902435628725 0 0,0 -0.3624602808120858,0.3130845577437059 l -4.46534546472996 -5.26016572950043" fill="#ff5607" stroke="none" /><path d="M 113.59037401385872 116.0094264158162 l 2.818035913234104 3.3196392199392606 a25.354461041143452,25.354461041143452 0 0,0 -0.3342269314133728,0.27882399337777325 l -2.7606346476588364 -3.367525397228904" fill="#ff3204" stroke="none" /><path d="M 113.31354834802062 116.24036423190432 l 9.704990316652813 11.838510176964133 a36.30807500165871,36.30807500165871 0 0,0 -0.48540305174282833,0.39100633860486605 l -9.500336494554732 -12.003364809362404" fill="#ffc512" stroke="none" /><path d="M 113.03279911837588 116.46651593811092 l 2.218172648740482 2.8025886797001913 a24.574184271579185,24.574184271579185 0 0,0 -0.33302706963775064,0.25896386364653895 l -2.1697356344675005 -2.8402535949675234" fill="#ff2703" stroke="none" /><path d="M 112.7482090630111 116.68781488649013 l 5.015017793163376 6.564819275484748 a29.261189719739,29.261189719739 0 0,0 -0.40177983793341676,0.30150308071282533 l -4.901584966319193 -6.649941383461588" fill="#ff6809" stroke="none" /><path d="M 112.45986205192187 116.90419585922612 l 2.062357324166452 2.7979837974242914 a24.47592161349934,24.47592161349934 0 0,0 -0.3403539952257162,0.246390045191752 l -2.014022318566768 -2.8329746139891205" fill="#ff2603" stroke="none" /><path d="M 112.16784306229584 117.11559508785304 l 2.06801968388733 2.908928670587813 a24.569113534690825,24.569113534690825 0 0,0 -0.3458452650649457,0.24142685471219022 l -2.017779327648626 -2.944000341105125" fill="#ff2703" stroke="none" /><path d="M 111.8722381534696 117.32195027204791 l 3.9777207615027685 5.803613466657701 a28.03592152648541,28.03592152648541 0 0,0 -0.39931658072347215,0.2686780164435315 l -3.877507892682293 -5.871041157158354" fill="#ff5708" stroke="none" /><path d="M 111.5731344415666 117.5232005979908 l 1.9015003546999039 2.8791138926790727 a24.450362358643147,24.450362358643147 0 0,0 -0.3522183766672353,0.22830369637400166 l -1.851796345775659 -2.911331430756969" fill="#ff2503" stroke="none" /><line stroke="#e1ed5e" stroke-width="0.3" x1="143.1302829299769" x2="145.66735839644613" y1="173.24464959558577" y2="177.55315839532614" /><path d="M 143.63769802327073 174.10635135553383 a86.0,86.0 0 0,1 -40.68552437913181,11.842963189579606" fill="none" id="id114" stroke="none" /><text fill="#e1ed5e" style="font-size:6.75px; font-family:Arial;" text-anchor="middle"><textPath startOffset="21.407464694133747" xlink:href="#id114">June</textPath></text><path d="M 110.65571695917076 118.09573695890943 l 3.500593090437994 5.944772370311853 a27.898874583556758,27.898874583556758 0 0,0 -0.4147732753906908,0.23946946219947904 l -3.3980273471869045 -6.003988729787503" fill="#ff5607" stroke="none" /><path d="M 110.34350942703117 118.27599006163325 l 1.69113279093105 2.9880696003608787 a24.433437061191462,24.433437061191462 0 0,0 -0.36679919223156593,0.20345732880182515 l -1.63958941054339 -3.0166598445958477" fill="#ff2503" stroke="none" /><path d="M 110.02825361518725 118.45085714620011 l 1.7051651335851195 3.1373117890450155 a24.570758098005967,24.570758098005967 0 0,0 -0.37231857292326687,0.1982386691546221 l -1.651057744875299 -3.166120925922206" fill="#ff2703" stroke="none" /><path d="M 109.71004243097381 118.62028667847754 l 1.6227638556760349 3.111863662693487 a24.509566637988325,24.509566637988325 0 0,0 -0.3747311740502383,0.19134040753537726 l -1.569105459912214 -3.1392620219017005" fill="#ff2603" stroke="none" /><path d="M 109.3889696526874 118.78422872680471 l 1.59781178429548 3.19669390027259 a24.573773130750396,24.573773130750396 0 0,0 -0.37895069358822214,0.1853637736954182 l -1.5427008414451884 -3.2236514240652316" fill="#ff2703" stroke="none" /><path d="M 109.06512990194946 118.94263497670748 l 1.608900260150452 3.361982748355947 a24.727128659887555,24.727128659887555 0 0,0 -0.38446126576212497,0.17994728496401324 l -1.550950280516821 -3.389106264890494" fill="#ff2904" stroke="none" /><path d="M 108.73861861582097 119.09545874513695 l 1.4555699178103803 3.180682958962074 a24.49791764783939,24.49791764783939 0 0,0 -0.3839017312309785,0.17171436134673054 l -1.4007547837237748 -3.205201071218655" fill="#ff2603" stroke="none" /><path d="M 108.4095320186766 119.2426549942271 l 1.6769433334559778 3.8371745227792893 a25.18760638812782,25.18760638812782 0 0,0 -0.39768222946268417,0.16974689611051552 l -1.6108260288228624 -3.8653960685492086" fill="#ff3004" stroke="none" /><path d="M 108.07796709384702 119.3841803445677 l 1.6517609159606086 3.9636248958573805 a25.294023339311916,25.294023339311916 0 0,0 -0.40222982155752773,0.1635833667552089 l -1.58347663321264 -3.991395519191881" fill="#ff3104" stroke="none" /><path d="M 107.74402155503746 119.51999308798841 l 1.5138102312694937 3.815790676833115 a25.105104128484772,25.105104128484772 0 0,0 -0.40195392195165663,0.1554844119646128 l -1.4480840468243075 -3.841214976935768" fill="#ff2e04" stroke="none" /><path d="M 107.407793817531 119.65005319985036 l 1.2950523966199163 3.4352803435148513 a24.671282030644132,24.671282030644132 0 0,0 -0.39757283246526537,0.14599425103878677 l -1.235890412500524 -3.45700544356236" fill="#ff2803" stroke="none" /><path d="M 107.06938296918513 119.77432235084164 l 1.2060179283340307 3.3734467887400794 a24.58254413509783,24.58254413509783 0 0,0 -0.3985816374499673,0.13864738375299004 l -1.1479305188390416 -3.3936526050616598" fill="#ff2703" stroke="none" /><path d="M 106.72888874123015 119.89276391827305 l 1.121275309591679 3.314851215242125 a24.49935664074014,24.49935664074014 0 0,0 -0.3995463138910707,0.13133880937418316 l -1.064206258052874 -3.3336109460183274" fill="#ff2603" stroke="none" /><path d="M 106.38641147887787 120.00534299687104 l 1.0562665975155876 3.3087400724686886 a24.47324919811223,24.47324919811223 0 0,0 -0.401313933592236,0.1243280824720437 l -0.9993120310517274 -3.3263847427473765" fill="#ff2503" stroke="none" /><path d="M 106.0420521117495 120.11202640906438 l 2.021651592876009 6.729420646138095 a28.026533810894797,28.026533810894797 0 0,0 -0.4619573364899811,0.13446904801387255 l -1.9058342440044211 -6.763133388454486" fill="#ff5708" stroke="none" /><path d="M 105.69591212413111 120.21278271476187 l 0.9447765025596996 3.352678507687648 a24.483253624946023,24.483253624946023 0 0,0 -0.40551099887567965,0.11052382597088219 l -0.8870841027493247 -3.3684028278026723" fill="#ff2603" stroke="none" /><path d="M 104.9986988182912 120.39639698878246 l 0.8304351444996647 3.388458776246551 a24.48873550266317,24.48873550266317 0 0,0 -0.40915761349777074,0.09656008270705274 l -0.7721453772620148 -3.402215002599829" fill="#ff2603" stroke="none" /><path d="M 103.94208987418118 120.62667999033965 l 0.651427379253999 3.4085433152659563 a24.470234165367803,24.470234165367803 0 0,0 -0.41327343430134267,0.07531218659213597 l -0.5928192114015991 -3.4192236757894556" fill="#ff2503" stroke="none" /><path d="M 103.58742460773223 120.69131181640829 l 0.617342960940259 3.560670146195611 a24.613790838085563,24.613790838085563 0 0,0 -0.4169371017263433,0.06860684142589273 l -0.5561283561608434 -3.5707429861171747" fill="#ff2703" stroke="none" /><path d="M 103.2317021107853 120.74984581791261 l 0.5327181974389149 3.4204329738076424 a24.461668731434763,24.461668731434763 0 0,0 -0.41546967197353696,0.061059734296195184 l -0.47392341985769243 -3.42907378140272" fill="#ff2503" stroke="none" /><path d="M 101.08105385017728 120.97215588758144 l 0.18002258726120626 3.492390099446586 a24.497026842710355,24.497026842710355 0 0,0 -0.42015228621972683,0.0180431469742955 l -0.12004454044064984 -3.4949658148467124" fill="#ff2603" stroke="none" /><path d="M 100.72087961077811 120.9876233191556 l 0.2381531821317864 6.933570049852162 a27.937658868405567,27.937658868405567 0 0,0 -0.4794457282003226,0.01234882124735998 l -0.11909413986071996 -6.936636588449567" fill="#ff5608" stroke="none" /><line stroke="#e1ed5e" stroke-width="0.3" x1="101.45913802915013" x2="101.54496967792366" y1="184.9874750549273" y2="189.98673829345242" /><path d="M 101.47630435890484 185.9873277026323 a86.0,86.0 0 0,1 -42.54439059252881,-10.42667462771756" fill="none" id="id115" stroke="none" /><text fill="#e1ed5e" style="font-size:6.75px; font-family:Arial;" text-anchor="middle"><textPath startOffset="22.145653131862474" xlink:href="#id115">July</textPath></text><path d="M 99.63950707515114 120.99690560180557 l -0.05950295881134312 3.4657490426857764 a24.466259804022872,24.466259804022872 0 0,0 -0.41987210894552257,-0.010814416137529209 l 0.11898838182760957 -3.4642169091982" fill="#ff2503" stroke="none" /><path d="M 98.91894614982273 120.97215588758144 l -0.17919362406007538 3.476308434803993 a24.480923826916236,24.480923826916236 0 0,0 -0.41950470019672254,-0.02523636104176738 l 0.23884267638924425 -3.4727200959375337" fill="#ff2603" stroke="none" /><path d="M 97.48249496171623 120.84855314841334 l -0.4279763767710201 3.544258343752411 a24.57000433981986,24.57000433981986 0 0,0 -0.41830102227262095,-0.054157442011408534 l 0.4887552209344351 -3.536389305540606" fill="#ff2703" stroke="none" /><path d="M 96.05791012581884 120.62667999033965 l -0.6555049907545712 3.4298791016715677 a24.491956105821995,24.491956105821995 0 0,0 -0.41228535998236115,-0.08246861872139938 l 0.7142868362678906 -3.418121086287307" fill="#ff2603" stroke="none" /><path d="M 94.6519064749342 120.30758222061772 l -0.9098575915083573 3.45487747400263 a24.572676755206967,24.572676755206967 0 0,0 -0.4069920954419366,-0.11092750542615666 l 0.969031087884989 -3.4387494744323286" fill="#ff2703" stroke="none" /><path d="M 93.27111125876986 119.89276391827306 l -1.1069377052765808 3.2724646357098757 a24.454610813873938,24.454610813873938 0 0,0 -0.396507325190927,-0.13792583027239652 l 1.1629508025125297 -3.2529803728688886" fill="#ff2503" stroke="none" /><path d="M 92.59220618246901 119.65005319985036 l -1.6154737447654544 4.285236037817122 a25.57962916837522,25.57962916837522 0 0,0 -0.4095514686446358,-0.15842330623934864 l 1.6887974759036184 -4.256872843439733" fill="#ff3505" stroke="none" /><path d="M 91.92203290615298 119.3841803445677 l -1.3322421124295383 3.1968960841190404 a24.46338181822137,24.46338181822137 0 0,0 -0.38624758826836236,-0.1648661277304547 l 1.3869247758683318 -3.173555306729182" fill="#ff2503" stroke="none" /><path d="M 91.59046798132341 119.24265499422711 l -1.3848667389850808 3.1688461155849135 a24.458242557861546,24.458242557861546 0 0,0 -0.3832799912141973,-0.1714362649454369 l 1.439060133054913 -3.1446060997296215" fill="#ff2503" stroke="none" /><path d="M 90.93487009805054 118.94263497670748 l -1.506347362629832 3.147686635167426 a24.48955778432074,24.48955778432074 0 0,0 -0.3776520137407894,-0.1847285243043645 l 1.5601596256326906 -3.12136436076584" fill="#ff2603" stroke="none" /><path d="M 90.6110303473126 118.78422872680471 l -1.5698407339625862 3.1407330625430023 a24.511211201303468,24.511211201303468 0 0,0 -0.37475631807465076,-0.1913532462534005 l 1.623524273750819 -3.1133218646167657" fill="#ff2603" stroke="none" /><path d="M 89.97174638481275 118.45085714620012 l -1.4732940889375619 2.710695183073551 a24.08520077920976,24.08520077920976 0 0,0 -0.3615714059558592,-0.20055756387941304 l 1.5196096830495238 -2.685004703760989" fill="#ff2003" stroke="none" /><line stroke="#e1ed5e" stroke-width="0.3" x1="58.13341422392154" x2="55.67067388415222" y1="173.97424548756322" y2="178.32567169271397" /><path d="M 57.64086615596768 174.84453072859336 a86.0,86.0 0 0,1 -31.369924170532247,-30.572349798747897" fill="none" id="id116" stroke="none" /><text fill="#e1ed5e" style="font-size:6.75px; font-family:Arial;" text-anchor="middle"><textPath startOffset="22.145653131862474" xlink:href="#id116">August</textPath></text><path d="M 89.34428304082925 118.09573695890944 l -1.776391312890245 3.0167008055228286 a24.500864157112357,24.500864157112357 0 0,0 -0.36059116890474524,-0.21652463630149438 l 1.8279152383524175 -2.9857621686854157" fill="#ff2603" stroke="none" /><path d="M 88.1277618465304 117.32195027204791 l -1.978265160421317 2.886347990225288 a24.499219593797214,24.499219593797214 0 0,0 -0.344861408301825,-0.24074004628136267 l 2.0275216598969075 -2.8519631281387965" fill="#ff2603" stroke="none" /><path d="M 87.54013794807813 116.9041958592261 l -2.1188296327117198 2.8745993297868346 a24.57110071536329,24.57110071536329 0 0,0 -0.3373811166879779,-0.2531770797135318 l 2.167863738310464 -2.837803222809288" fill="#ff2703" stroke="none" /><path d="M 86.68645165197938 116.24036423190432 l -1.422565064790411 1.7352980732002727 a23.243869596570782,23.243869596570782 0 0,0 -0.30640474655832595,-0.2556137372413969 l 1.4521441455106294 -1.7106221520470057" fill="#ff1402" stroke="none" /><path d="M 86.13680546590413 115.77377054828092 l -2.2910181512383256 2.606758099707859 a24.470439735782197,24.470439735782197 0 0,0 -0.31314585552455937,-0.28001695496322704 l 2.335429033586256 -2.5670456148612497" fill="#ff2503" stroke="none" /><path d="M 85.86807049272751 115.53346607816431 l -2.4017392446650563 2.6399321526760895 a24.568976487747893,24.568976487747893 0 0,0 -0.3095342727592963,-0.2865003017876349 l 2.4467032887383198 -2.598314104756077" fill="#ff2703" stroke="none" /><path d="M 85.08716467003676 114.78537596483092 l -4.877332320207615 4.835645969670105 a27.868176068340745,27.868176068340745 0 0,0 -0.33390480603084155,-0.34261574639554865 l 4.959623927389266 -4.751207531206819" fill="#ff5507" stroke="none" /><path d="M 84.3458050057657 113.99807769240083 l -2.572541521943138 2.3003824919997746 a24.451047593357792,24.451047593357792 0 0,0 -0.27709899056385895,-0.31528778490156417 l 2.611651576465589 -2.25588242928691" fill="#ff2503" stroke="none" /><path d="M 83.8745106332314 113.45245675266167 l -2.6890343979844613 2.2432881336211232 a24.50189200918432,24.50189200918432 0 0,0 -0.2666659692081273,-0.3252891231538315 l 2.727147186431219 -2.196796728768797" fill="#ff2603" stroke="none" /><path d="M 83.64595745247003 113.17365903436017 l -2.7006254732591954 2.1754327140109835 a24.467835843866553,24.467835843866553 0 0,0 -0.260679821324981,-0.3293604385062184 l 2.737571725225738 -2.1287523315900843" fill="#ff2503" stroke="none" /><path d="M 83.20337586046588 112.60449989151573 l -2.760009261823808 2.071162404554795 a24.45070497600047,24.45070497600047 0 0,0 -0.24904554352943278,-0.3378781103792069 l 2.7951568249370715 -2.0234779849067084" fill="#ff2503" stroke="none" /><path d="M 82.78059297857968 112.02048342749411 l -2.8279073977768547 1.9740989900046406 a24.44878631879947,24.44878631879947 0 0,0 -0.2372815987704953,-0.34620094385264366 l 2.861378733362675 -1.925263311081946" fill="#ff2503" stroke="none" /><path d="M 82.18462484594161 111.11811171558189 l -2.9545573292542495 1.8438622915699265 a24.48270543717431,24.48270543717431 0 0,0 -0.21944902286085963,-0.35845348660888576 l 2.9857743165705135 -1.7928716888364837" fill="#ff2603" stroke="none" /><line stroke="#e1ed5e" stroke-width="0.3" x1="26.387840678322732" x2="22.057713659400548" y1="142.50000000000003" y2="145.00000000000006" /><path d="M 25.521815274538298 143.00000000000003 a86.0,86.0 0 0,1 -11.493303480769221,-40.785679425670985" fill="none" id="id117" stroke="none" /><text fill="#e1ed5e" style="font-size:6.75px; font-family:Arial;" text-anchor="middle"><textPath startOffset="21.40746469413373" xlink:href="#id117">September</textPath></text><path d="M 81.4637452351635 109.86951160357371 l -3.24491767463548 1.7277358910285134 a24.67621572058956,24.67621572058956 0 0,0 -0.19587266899313277,-0.3756116695738181 l 3.274098412603562 -1.6717779783501925" fill="#ff2803" stroke="none" /><path d="M 80.9802524753101 108.90220220490708 l -4.180735351215018 1.9567952420717587 a25.616015131722776,25.616015131722776 0 0,0 -0.18299048658411302,-0.39986723771114163 l 4.213710302654188 -1.8847390221459281" fill="#ff3605" stroke="none" /><path d="M 80.41425534168474 107.57618678355246 l -3.3323926233456187 1.2890410546570705 a24.57301937256429,24.57301937256429 0 0,0 -0.14880638429636278,-0.3947266136080812 l 3.354029691456417 -1.2316461608548444" fill="#ff2703" stroke="none" /><path d="M 80.28708602549918 107.23885506374661 l -3.0861215606446883 1.133266584306498 a24.287619113915376,24.287619113915376 0 0,0 -0.14035911074772592,-0.3926094134242309 l 3.1051208414363574 -1.0801222145013456" fill="#ff2303" stroke="none" /><path d="M 80.05021161711548 106.5578916946017 l -17.47329644946909 5.743819606707948 a39.39313873392553,39.39313873392553 0 0,0 -0.20566085531047415,-0.6442297000629101 l 17.569322020556818 -5.443020872953646" fill="#ffec16" stroke="none" /><path d="M 79.94057633289273 106.21446072829308 l -18.504271952721716 5.732670751872472 a40.37192800032195,40.37192800032195 0 0,0 -0.19940594955913796,-0.6637575528120918 l 18.599954222284484 -5.414175595469657" fill="#fff817" stroke="none" /><path d="M 79.83685265289637 105.86919833188381 l -3.4298445855641497 0.9983777717671383 a24.57219709090672,24.57219709090672 0 0,0 -0.11441459450426664,-0.4060170325161187 l 3.4464776721429913 -0.939352815348024" fill="#ff2703" stroke="none" /><path d="M 79.56144815229197 104.8234425847677 l -3.4541504531196408 0.8151701017721703 a24.549036157551775,24.549036157551775 0 0,0 -0.09327364021908342,-0.4109808689468865 l 3.4676349548963907 -0.7557548988862575" fill="#ff2703" stroke="none" /><path d="M 79.34024301695615 103.76489593502545 l -2.830884643418953 0.5158814837600154 a23.877506137201394,23.877506137201394 0 0,0 -0.07002383682332586,-0.40387888268644007 l 2.839323297734513 -0.46720956815298265" fill="#ff1d02" stroke="none" /><path d="M 79.2786578344484 103.40968896794605 l -6.927007656742861 1.1398364738814777 a28.020161128048613,28.020161128048613 0 0,0 -0.07402460616330742,-0.4752910732379005 l 6.945553755044436 -1.0207572187121272" fill="#ff5708" stroke="none" /><path d="M 79.17382384314188 102.69636545807758 l -3.545347102749681 0.4590161627727172 a24.574938029765292,24.574938029765292 0 0,0 -0.050575121521169754,-0.4188345576223152 l 3.552704310530512 -0.3980879282270028" fill="#ff2703" stroke="none" /><path d="M 79.06263194458094 101.62068470465958 l -3.5655739345817965 0.275997972802218 a24.576239975723112,24.576239975723112 0 0,0 -0.028948515545530584,-0.4209050627061771 l 3.569786411292393 -0.21474948594169757" fill="#ff2703" stroke="none" /><path d="M 79.03789590574601 101.26102812881392 l -3.5709492081690377 0.21481943691431715 a24.577404874738008,24.577404874738008 0 0,0 -0.02171988427416286,-0.42135995240504376 l 3.574110681899773 -0.15348769113254257" fill="#ff2703" stroke="none" /><path d="M 79.00696218219943 100.54070618675478 l -3.5701907824813164 0.09195545021814984 a24.571374809249146,24.571374809249146 0 0,0 -0.0072410301772310864,-0.4217537061368663 l 3.5712432442572135 -0.030654828112231164" fill="#ff2703" stroke="none" /><line stroke="#e1ed5e" stroke-width="0.3" x1="15.003131293944662" x2="10.003315487706104" y1="100.72959589197737" y2="100.7725132973878" /><path d="M 14.003168132696942 100.73817937305945 a86.0,86.0 0 0,1 10.791469493833604,-42.45332614584628" fill="none" id="id118" stroke="none" /><text fill="#e1ed5e" style="font-size:6.75px; font-family:Arial;" text-anchor="middle"><textPath startOffset="22.145653131862435" xlink:href="#id118">October</textPath></text><path d="M 79.00696218219943 99.45929381324524 l -3.577040857852065 -0.09213188386080884 a24.578227156395577,24.578227156395577 0 0,0 0.014483964482043105,-0.42168482250328065 l 3.5749322063731714 0.15352297092822803" fill="#ff2703" stroke="none" /><path d="M 79.03789590574601 98.7389718711861 l -3.569170812945935 -0.21471245307383893 a24.575623264479933,24.575623264479933 0 0,0 0.02894778911728278,-0.4208945005988649 l 3.564959062663589 0.2759503778270288" fill="#ff2703" stroke="none" /><path d="M 79.13060592940154 97.66154086499901 l -3.4534865424132994 -0.3869703703610109 a24.47509933184177,24.47509933184177 0 0,0 0.05036965389093272,-0.41713299089491185 l 3.4463348022626987 0.446197038179359" fill="#ff2603" stroke="none" /><path d="M 79.17382384314186 97.30363454192245 l -3.457751457363462 -0.44767515275155073 a24.486611275047775,24.486611275047775 0 0,0 0.05754993035260384,-0.41640262756569646 l 3.44955701045565 0.5069660885173142" fill="#ff2603" stroke="none" /><path d="M 79.22317932658666 96.9465228501225 l -1.5719002563661946 -0.23101520632762956 a22.588785209371835,22.588785209371835 0 0,0 0.059675814182148644,-0.3831615355900149 l 1.5677029500457784 0.2579649238490945" fill="#ff0a01" stroke="none" /><path d="M 79.2786578344484 96.59031103205396 l -3.41593723536888 -0.5620911721633794 a24.461874301849157,24.461874301849157 0 0,0 0.07173757111244779,-0.41376324665893016 l 3.405784846764198 0.6206474517429023" fill="#ff2503" stroke="none" /><path d="M 79.407916724674 95.88100663000787 l -15.677673737614189 -3.135973826383541 a36.988238979413595,36.988238979413595 0 0,0 0.12988559118654022,-0.6215495729408965 l 15.621530435603281 3.404639850609847" fill="#ffce13" stroke="none" /><path d="M 79.48165901384962 95.52812308129327 l -3.545432954965698 -0.7727106109034367 a24.62866043139332,24.62866043139332 0 0,0 0.09357617127665618,-0.41231387660727553 l 3.5316459221313803 0.8334588214497205" fill="#ff2803" stroke="none" /><path d="M 79.64726062577567 94.8264132398404 l -3.3516528320479493 -0.8519770433701406 a24.458242557861546,24.458242557861546 0 0,0 0.10692971180196306,-0.406029532592847 l 3.3365336394412606 0.9093870803357721" fill="#ff2503" stroke="none" /><path d="M 79.83685265289637 94.1308016681162 l -3.421752070860336 -0.9960221586784298 a24.563768703916605,24.563768703916605 0 0,0 0.12132592783570964,-0.40385455464559217 l 3.4041498230209966 1.0546143169147455" fill="#ff2703" stroke="none" /><path d="M 79.94057633289273 93.78553927170692 l -3.2794592867024517 -1.0159848700272942 a24.433231490777068,24.433231490777068 0 0,0 0.12755925137959115,-0.3995775381390232 l 3.261535319545603 1.0721314418577093" fill="#ff2503" stroke="none" /><path d="M 80.28708602549916 92.7611449362534 l -3.2328438767026846 -1.1871450510788326 a24.4439211523255,24.4439211523255 0 0,0 0.14802460656357516,-0.39265285529108 l 3.2119885863246735 1.2424661865640574" fill="#ff2503" stroke="none" /><path d="M 80.41425534168474 92.42381321644754 l -3.2070676145356 -1.2405626489615296 a24.438644845022747,24.438644845022747 0 0,0 0.15470980132044979,-0.38996976324979243 l 3.1852991382490186 1.2954334294249046" fill="#ff2503" stroke="none" /><path d="M 80.5471966667186 92.08871423366112 l -3.2141802332213882 -1.307179119321449 a24.469823024539018,24.469823024539018 0 0,0 0.1615872401080848,-0.3877505524901063 l 3.191267148576825 1.3621621812528193" fill="#ff2503" stroke="none" /><path d="M 80.68587082218212 91.75594674310238 l -3.794139782091562 -1.6194926594775245 a25.125318552566746,25.125318552566746 0 0,0 0.17272593821527998,-0.3952307488989006 l 3.765779961859305 1.684385478152292" fill="#ff2f04" stroke="none" /><path d="M 81.1358732173502 90.77261029715801 l -3.120791308658032 -1.5265354139114231 a24.474140003241267,24.474140003241267 0 0,0 0.1878449528471598,-0.37581573803967755 l 3.094126442599128 1.579883008114871" fill="#ff2603" stroke="none" /><line stroke="#e1ed5e" stroke-width="0.3" x1="26.387840678322718" x2="22.05771365940052" y1="57.49999999999999" y2="54.99999999999999" /><path d="M 25.521815274538284 56.99999999999999 a86.0,86.0 0 0,1 29.574782752854787,-30.34633250058573" fill="none" id="id119" stroke="none" /><text fill="#e1ed5e" style="font-size:6.75px; font-family:Arial;" text-anchor="middle"><textPath startOffset="21.40746469413373" xlink:href="#id119">November</textPath></text><line stroke="#e1ed5e" stroke-width="0.3" x1="56.869717070023135" x2="54.33264160355391" y1="26.7553504044142" y2="22.446841604673864" /><path d="M 56.362301976729285 25.89364864446614 a86.0,86.0 0 0,1 42.16139366436587,-11.88097634709845" fill="none" id="id120" stroke="none" /><text fill="#e1ed5e" style="font-size:6.75px; font-family:Arial;" text-anchor="middle"><textPath startOffset="22.145653131862474" xlink:href="#id120">December</textPath></text></svg>