<?xml version="1.0" encoding="utf-8" ?>
<svg baseProfile="full" height="200mm" version="1.1" viewBox="0,0,200,200" width="200mm" xmlns="http://www.w3.org/2000/svg" xmlns:ev="http://www.w3.org/2001/xml-events" xmlns:xlink="http://www.w3.org/1999/xlink"><defs /><rect fill="#1a1a1a" height="200" width="200" x="0" y="0" /><text alignment-baseline="middle" fill="#e1ed5e" style="dominant-baseline: central; font-size:9.0px; font-family:Arial;" text-anchor="middle" x="100.0" y="100.0">2026</text><line stroke="#e1ed5e" stroke-width="0.3" x1="100.0" x2="100.0" y1="15.0" y2="10.0" /><path d="M 100.0 14.0 a86.0,86.0 0 0,1 42.46469731375804,11.215312516191453" fill="none" id="id133" stroke="none" /><text fill="#e1ed5e" style="font-size:6.75px; font-family:Arial;" text-anchor="middle"><textPath startOffset="22.20632615414155" xlink:href="#id133">January</textPath></text><path d="M 100.0 79.0 l 0.0 -7.677278260516122 a28.677278260516122,28.677278260516122 0 0,0 0.49363220427823934,0.004248848227471602 l -0.13215172500571098 7.676140788897209" fill="#ff6609" stroke="none" /><path d="M 100.36148047927253 79.00311137660856 l 0.03254989573559589 -1.8906872560275791 a22.890967423256544,22.890967423256544 0 0,0 0.3939136153041373,0.0101736265249394 l -0.06509014623460103 1.8898468373602801" fill="#ff1502" stroke="none" /><path d="M 100.72285384407766 79.0124445844662 l 0.33139368606573255 -9.621783722457925 a30.62748896529726,30.62748896529726 0 0,0 0.5267332581291282,0.02268224210788143 l -0.4969677765841923 9.614653753825849" fill="#ff800b" stroke="none" /><path d="M 101.08401301168833 79.027996857942 l 0.1164325401292043 -2.252577756077276 a23.25558486507936,23.25558486507936 0 0,0 0.399595123607227,0.024104669102936183 l -0.1551897125760432 2.2502398175940357" fill="#ff1a02" stroke="none" /><path d="M 101.44485096284872 79.0497635885617 l 0.1543297041630759 -2.2377697566460424 a23.24308518370274,23.24308518370274 0 0,0 0.39890647284253705,0.03096281971167948 l -0.1928263663679541 2.234781674745898" fill="#ff1a02" stroke="none" /><path d="M 101.80526077348638 79.07773832637324 l 0.19297187599003443 -2.2364680739819023 a23.244777848889157,23.244777848889157 0 0,0 0.39834340353259484,0.03782750599292543 l -0.2314404066128735 2.2328150234737985" fill="#ff1a02" stroke="none" /><path d="M 102.16513564639614 79.11191278185805 l 0.22893005166788363 -2.208596442468621 a23.22042951120762,23.22042951120762 0 0,0 0.39721673520148437,0.044631928439191344 l -0.2669134903790933 2.2043285605588285" fill="#ff1a02" stroke="none" /><path d="M 102.88285421437855 79.19881850522331 l 0.3050204132202099 -2.2008691745007556 a23.221905168036805,23.221905168036805 0 0,0 0.39547017245876526,0.058282023364116226 l -0.3428595661076309 2.1952926669756705" fill="#ff1a02" stroke="none" /><path d="M 103.2404852339499 79.25152402106235 l 0.3543252764872897 -2.2687063686958377 a23.29620882955337,23.29620882955337 0 0,0 0.39567034748530217,0.06528899756943467 l -0.393324830111467 2.2622711081867783" fill="#ff1b02" stroke="none" /><path d="M 103.59715602781102 79.31037775812273 l 0.38827686656015536 -2.233236932810472 a23.26673909464113,23.26673909464113 0 0,0 0.3939888541942982,0.07199894479062893 l -0.42666084185735437 2.2262225066691044" fill="#ff1a02" stroke="none" /><path d="M 103.95276090670814 79.375362276772 l 0.4929143013220596 -2.5719184978056147 a23.61872665007299,23.61872665007299 0 0,0 0.3986319090666602,0.07996181082447616 l -0.5371126198558451 2.56305273090393" fill="#ff1f03" stroke="none" /><path d="M 104.307194497241 79.44645832069477 l 0.46304009205664265 -2.2095853431675234 a23.257581341965903,23.257581341965903 0 0,0 0.39112305092887684,0.08548434983509985 l -0.5010058671390475 2.2012874952365533" fill="#ff1a02" stroke="none" /><path d="M 104.66035177308747 79.52364482259891 l 0.5108495305544604 -2.2445379531751066 a23.30193785018432,23.30193785018432 0 0,0 0.39033665636029813,0.09238007528891733 l -0.549409873877282 2.2354119657453206" fill="#ff1b02" stroke="none" /><path d="M 105.01212808612495 79.60689891045804 l 0.6858663064084 -2.790619210075105 a23.87366806815027,23.87366806815027 0 0,0 0.39822541517891374,0.10151652518784723 l -0.7338006102723388 2.7783996887183897" fill="#ff2303" stroke="none" /><path d="M 105.71112130821622 79.79150937346287 l 0.6103322031554614 -2.159627145162707 a23.244213627160352,23.244213627160352 0 0,0 0.3840937861881458,0.112127508733428 l -0.6474162070670344 2.148801307510576" fill="#ff1a02" stroke="none" /><path d="M 106.0581310904928 79.89281104454417 l 1.7249657857125653 -5.725233158036127 a26.97944827519691,26.97944827519691 0 0,0 0.4435095324186932,0.13780057061626824 l -1.8232606908419766 5.694692452537338" fill="#ff4e07" stroke="none" /><path d="M 106.40334571778207 80.00007090966166 l 0.670187592690198 -2.0932345248526056 a23.19790404372684,23.19790404372684 0 0,0 0.3792494736277862,0.12503258874766882 l -0.7061198885604018 2.0813882118457006" fill="#ff1902" stroke="none" /><path d="M 106.74666289553966 80.11325718540242 l 0.7358337860450915 -2.1689741260149127 a23.290393005579524,23.290393005579524 0 0,0 0.378544298344912,0.13206667278039982 l -0.7730600884532771 2.155986600062305" fill="#ff1b02" stroke="none" /><path d="M 107.4271985657038 80.35727306442388 l 0.8079696981332152 -2.1368390803412827 a23.284490378262788,23.284490378262788 0 0,0 0.37367929770846814,0.1449817620546772 l -0.8446321608413503 2.1226146143960585" fill="#ff1b02" stroke="none" /><path d="M 107.76421540070413 80.48803036053334 l 0.8103243950559791 -2.0363970058091834 a23.191697604709976,23.191697604709976 0 0,0 0.3696492990440374,0.15078923042121462 l -0.845257563688404 2.0221468892043895" fill="#ff1902" stroke="none" /><path d="M 108.09893153111575 80.62456947434976 l 0.8486219894142021 -2.0301957530154326 a23.20042134067074,23.20042134067074 0 0,0 0.36713699226728935,0.15718889999108449 l -0.8834427394718067 2.015287325061557" fill="#ff1902" stroke="none" /><path d="M 108.76106565485865 80.91482961587045 l 0.9161729095127613 -1.9957978593252381 a23.196037771854638,23.196037771854638 0 0,0 0.3614404271651601,0.1697011269410493 l -0.9503915479775193 1.979731749744186" fill="#ff1902" stroke="none" /><path d="M 109.08828744355905 81.06846463323043 l 0.9683294887719875 -2.0170977290517795 a23.23748636808613,23.23748636808613 0 0,0 0.3591062861379693,0.17621189502642384 l -1.0029070419203887 2.000130673890524" fill="#ff1a02" stroke="none" /><path d="M 109.41281617654863 81.2277094730956 l 0.9891531327659713 -1.9727007981036535 a23.206801386373392,23.206801386373392 0 0,0 0.35554976012744605,0.18212639676488382 l -1.022963380482173 1.9553818760262691" fill="#ff1902" stroke="none" /><path d="M 109.73455568895987 81.39251694778311 l 1.056561870931867 -2.0196049758367502 a23.279282177689197,23.279282177689197 0 0,0 0.35346259217244785,0.18880747555376395 l -1.091169509632626 2.0011187737812324" fill="#ff1a02" stroke="none" /><path d="M 110.36928655335952 81.73862282372117 l 1.0837711304963096 -1.9086321209189774 a23.194865926725576,23.194865926725576 0 0,0 0.3454966596146848,0.2001339655151367 l -1.1164645225763228 1.8896939980137912" fill="#ff1902" stroke="none" /><line stroke="#e1ed5e" stroke-width="0.3" x1="143.23703022742887" x2="145.7803849466894" y1="26.81831364943548" y2="22.513508569990506" /><path d="M 143.74570117128098 25.957352633546492 a86.0,86.0 0 0,1 28.547481713284135,27.462654790039103" fill="none" id="id134" stroke="none" /><text fill="#e1ed5e" style="font-size:6.75px; font-family:Arial;" text-anchor="middle"><textPath startOffset="19.985693538727396" xlink:href="#id134">February</textPath></text><path d="M 110.99172775467656 82.1063720568725 l 1.1433976923022249 -1.861357318314388 a23.184492927249842,23.184492927249842 0 0,0 0.33825164737476543,0.21181315055481237 l -1.1752684920492535 1.8413998264366316" fill="#ff1902" stroke="none" /><path d="M 111.2981086023043 82.29822771554956 l 1.1808025187641797 -1.8500704884183823 a23.194779123382684,23.194779123382684 0 0,0 0.33470394781120677,0.21770075805242128 l -1.2124734923596667 1.829470806206433" fill="#ff1902" stroke="none" /><path d="M 111.60114157652 82.49532879139004 l 1.228393965355512 -1.8534928081309556 a23.223597833223224,23.223597833223224 0 0,0 0.3313181376106707,0.22370748548702257 l -1.2601167973727245 1.832073410345263" fill="#ff1a02" stroke="none" /><path d="M 112.77801427241765 83.33499621200491 l 1.4179737764254254 -1.8493122524065266 a23.330365944981835,23.330365944981835 0 0,0 0.3165902271684246,0.24710369397592846 l -1.4495965587532802 1.824630169207374" fill="#ff1b02" stroke="none" /><path d="M 113.06298171725822 83.55741782278167 l 1.3689539252443312 -1.7231240079680623 a23.200725152370868,23.200725152370868 0 0,0 0.31055452338908474,0.25111349362784025 l -1.398411847197907 1.6993044170760925" fill="#ff1902" stroke="none" /><path d="M 113.34407831869373 83.78471172551755 l 1.3991288966206006 -1.7001757521221208 a23.201853595828478,23.201853595828478 0 0,0 0.30620089774580306,0.2564344459957067 l -1.428187331325521 1.6758401487325947" fill="#ff1902" stroke="none" /><path d="M 113.6212207817346 84.01681056812373 l 1.5388231472229679 -1.8056606128286106 a23.37242216461358,23.37242216461358 0 0,0 0.3039596873238947,0.2635908455787847 l -1.5696766331936267 1.7789047738301544" fill="#ff1c02" stroke="none" /><path d="M 114.94478906791727 85.2469230424477 l 2.0586552291761606 -2.03224675082925 a23.89276480358677,23.89276480358677 0 0,0 0.28641251142854074,0.2951732693976404 l -2.0933320043078107 1.9965092858814955" fill="#ff2303" stroke="none" /><path d="M 115.9244219780498 86.31012108654704 l 2.780976168971496 -2.3907446729868993 a24.667354433894086,24.667354433894086 0 0,0 0.27403009441804715,0.32436519824983945 l -2.82171687687666 2.3425205251079535" fill="#ff2e04" stroke="none" /><path d="M 116.15771136456269 86.58626213691792 l 48.09671817098986 -39.92872227159352 a83.51077635945401,83.51077635945401 0 0,0 0.9086827774288109,1.1139376412666973 l -48.77689944049508 39.09490046071872" fill="#4cd6ff" stroke="none" /><path d="M 116.38621287248628 86.86637796730983 l 1.729781045225194 -1.3864271521484506 a23.216827172477554,23.216827172477554 0 0,0 0.24725469803237052,0.3139883573934 l -1.7533898238515286 1.3564464008020123" fill="#ff1a02" stroke="none" /><path d="M 116.60985879189232 87.15038557335679 l 1.7402763889843416 -1.3463016678477198 a23.200247733984956,23.200247733984956 0 0,0 0.24164058915159525,0.31797069053202015 l -1.7631929183600503 1.316146201434666" fill="#ff1902" stroke="none" /><path d="M 116.82858285166822 87.43820079747576 l 8.813286500179501 -6.578731929206852 a31.997896741223386,31.997896741223386 0 0,0 0.3256736597394207,0.4442185058851496 l -8.925222772432548 6.426050979650209" fill="#ff920d" stroke="none" /><path d="M 117.04232023915458 87.72973835380427 l 1.7936176261871941 -1.29138270245514 a23.210143315074777,23.210143315074777 0 0,0 0.23065066678092266,0.32623901095767893 l -1.8155809127719997 1.2603171911656679" fill="#ff1902" stroke="none" /><path d="M 117.2510076193507 88.02491185347247 l 1.8366877584087666 -1.2749688765960259 a23.23583710457116,23.23583710457116 0 0,0 0.22524990258082597,0.33052643765925394 l -1.858362126658326 1.2431644156663655" fill="#ff1a02" stroke="none" /><path d="M 117.45458315368197 88.32363383020206 l 1.8146041288006807 -1.21389219522177 a23.183190877106444,23.183190877106444 0 0,0 0.21902967015035135,0.333597214400912 l -1.835230434308957 1.182476916843184" fill="#ff1902" stroke="none" /><path d="M 117.65298651832404 88.62581576622439 l 38.99322881885313 -25.12414361133898 a67.38636099030214,67.38636099030214 0 0,0 0.6198659682254488,0.9804791005984034 l -39.41992238332454 24.449216863026372" fill="#39ff86" stroke="none" /><line stroke="#e1ed5e" stroke-width="0.3" x1="172.23445277983987" x2="176.4835382374775" y1="55.19839476539836" y2="52.563006222186495" /><path d="M 173.08426987136738 54.67131705675599 a86.0,86.0 0 0,1 12.851231095245387,41.99856678651699" fill="none" id="id135" stroke="none" /><text fill="#e1ed5e" style="font-size:6.75px; font-family:Arial;" text-anchor="middle"><textPath startOffset="22.20632615414155" xlink:href="#id135">March</textPath></text><path d="M 118.03404312379186 89.2402003453031 l 1.958110820763213 -1.1682837835355198 a23.28015021111813,23.28015021111813 0 0,0 0.20236029513891343,0.3458993404458413 l -1.9779307903724537 1.1344050307357831" fill="#ff1a02" stroke="none" /><path d="M 118.21658344932153 89.55222093294921 l 1.9645653755981634 -1.1267395482873452 a23.264742617754592,23.264742617754592 0 0,0 0.1962462562873098,0.3491001921893925 l -1.9836692731779062 1.0927558461631588" fill="#ff1a02" stroke="none" /><path d="M 118.3937258080291 89.86733742301442 l 2.0069725687157054 -1.1055930730023902 a23.29134784235135,23.29134784235135 0 0,0 0.19042551346748626,0.35282955583192716 l -2.0257061814016564 1.0708825338380041" fill="#ff1b02" stroke="none" /><path d="M 118.56541770881063 90.18545643968196 l 2.0283153419186717 -1.0722618574789669 a23.294299156009718,23.294299156009718 0 0,0 0.18434727527976563,0.3561002592812832 l -2.046472050358554 1.0371888759373389" fill="#ff1b02" stroke="none" /><path d="M 118.73160827565052 90.50648371742162 l 1.958437593801569 -0.9925714285482599 a23.19560375514017,23.19560375514017 0 0,0 0.1774353088935045,0.3576987554799951 l -1.9752329156484816 0.9587130845693149" fill="#ff1902" stroke="none" /><path d="M 119.196687751892 91.48605970444005 l 2.1101376689419586 -0.9358690603806482 a23.308361297558413,23.308361297558413 0 0,0 0.15950609794297393,0.3681620657468879 l -2.1259344767276134 0.8994078500471575" fill="#ff1b02" stroke="none" /><path d="M 119.34039704204932 91.81776055985345 l 2.1475591627711164 -0.9085564915482209 a23.33184160181102,23.33184160181102 0 0,0 0.15329943552649175,0.37122674272955236 l -2.1628802851838054 0.8714551783653653" fill="#ff1b02" stroke="none" /><path d="M 119.47837535516314 92.15188598940014 l 6.491982174881923 -2.615711800098875 a27.99912714416313,27.99912714416313 0 0,0 0.17626977172098715,0.44858734236681613 l -6.536045496484611 2.5035754528362744" fill="#ff5c08" stroke="none" /><path d="M 119.61058180528143 92.48833698450437 l 2.066670155219061 -0.7916200510688958 a23.213094628733145,23.213094628733145 0 0,0 0.1397156498928304,0.3743684794619322 l -2.0799903936135165 0.7559284345776304" fill="#ff1902" stroke="none" /><path d="M 119.7369772167798 92.82701384747503 l 2.082560247015052 -0.7568623933424791 a23.21582893403428,23.21582893403428 0 0,0 0.13326650735449122,0.37676236215202674 l -2.0952798351793525 0.7209024047638377" fill="#ff1a02" stroke="none" /><path d="M 119.85752413597 93.16781622104841 l 2.1791665430397877 -0.7497644824724855 a23.304541950471116,23.304541950471116 0 0,0 0.12724580225953955,0.3804487526046084 l -2.1917496390710975 0.7121426269455632" fill="#ff1b02" stroke="none" /><path d="M 120.18372546131832 94.20196356495316 l 2.1254442912784475 -0.6105613884370505 a23.211401963546727,23.211401963546727 0 0,0 0.1070081325606295,0.38496518741440333 l -2.13563919440544 0.5738848976036952" fill="#ff1902" stroke="none" /><path d="M 120.28053869075195 94.5502522615342 l 2.15336912412819 -0.5786492505571883 a23.229760870568636,23.229760870568636 0 0,0 0.10044511889634966,0.38705601725035305 l -2.1630105748948423 0.5414968077579848" fill="#ff1a02" stroke="none" /><path d="M 120.37134235888165 94.90015583598534 l 2.26494047468697 -0.5670143507571501 a23.334836317140837,23.334836317140837 0 0,0 0.09419184433219818,0.3904860046977964 l -2.2743651192799876 0.5279431143999476" fill="#ff1b02" stroke="none" /><path d="M 120.45610955862082 95.25157060432595 l 0.427933744838873 -0.09933527035386022 a21.4393117183824,21.4393117183824 0 0,0 0.08035210338331837,0.3602027240032661 l -0.42958023522422895 0.09195437680063027" fill="#ff0000" stroke="none" /><path d="M 120.53481517161879 95.60439243477599 l 10.18519374345263 -2.1802053876710596 a31.415923728796045,31.415923728796045 0 0,0 0.10864030955552022,0.5297687322133429 l -10.221213348923147 2.004560999294305" fill="#ff8a0c" stroke="none" /><path d="M 120.6074358757038 95.95851677861258 l 2.219893754182784 -0.43536048904415514 a23.26218191913924,23.26218191913924 0 0,0 0.07367939002993842,0.3935982477106746 l -2.227058868122582 0.3970841638709178" fill="#ff1a02" stroke="none" /><path d="M 120.67395015179393 96.31383870115 l 2.6511323738613592 -0.47269638762324595 a23.69294350824666,23.69294350824666 0 0,0 0.06813203588426343,0.40211913252233905 l -2.6588762712658456 0.42699146678506905" fill="#ff2003" stroke="none" /><path d="M 120.73433829027371 96.67025291283417 l 2.216894388792304 -0.35601317632104684 a23.245298668946518,23.245298668946518 0 0,0 0.060043831334935016,0.39561382747583984 l -2.222694113566539 0.31780023645312483" fill="#ff1a02" stroke="none" /><path d="M 120.78858239683441 97.02765380044208 l 2.2081720365482815 -0.31572387359148607 a23.23062890399757,23.23062890399757 0 0,0 0.05319150390985128,0.3963384875526085 l -2.2132795395159692 0.2776670439742132" fill="#ff1a02" stroke="none" /><path d="M 120.83666639777658 97.38593545837742 l 5.524952073192737 -0.6931330104818689 a26.5682608399119,26.5682608399119 0 0,0 0.05302221110044191,0.4542619245899512 l -5.536064637296768 0.5979273475670649" fill="#ff4906" stroke="none" /><path d="M 120.91429891909075 98.10471618934814 l 62.74289675727228 -5.6858514319555935 a84.0,84.0 0 0,0 0.118102064722021,1.441144331168925 l -62.831473305813795 4.6049931835789" fill="#4dd2ff" stroke="none" /><path d="M 120.96714384426684 98.82574320788733 l 2.261069248068429 -0.12663030986489976 a23.26461241274025,23.26461241274025 0 0,0 0.018951122582295025,0.40002824528386666 l -2.26291397888422 0.08769095795803333" fill="#ff1a02" stroke="none" /><path d="M 120.98425023603335 99.18683210126433 l 6.249403551865894 -0.24217278661191877 a27.25409405211094,27.25409405211094 0 0,0 0.014130995398760497,0.46893894218640264 l -6.2526462417203 0.13456369700051704" fill="#ff5207" stroke="none" /><line stroke="#e1ed5e" stroke-width="0.3" x1="184.98032266829074" x2="189.97916517819016" y1="98.17113171792111" y2="98.06355123074" /><path d="M 185.9800911702706 98.14961562048488 a86.0,86.0 0 0,1 -9.607161424134198,41.387399972396054" fill="none" id="id136" stroke="none" /><text fill="#e1ed5e" style="font-size:6.75px; font-family:Arial;" text-anchor="middle"><textPath startOffset="21.466115282336823" xlink:href="#id136">April</textPath></text><path d="M 120.99513854157772 99.54816195383933 l 2.196744358931642 -0.047276310041417455 a23.19725301865514,23.19725301865514 0 0,0 0.005155305463172142,0.399284089468634 l -2.1972326715125297 0.009455962512320759" fill="#ff1902" stroke="none" /><path d="M 120.9904718944345 100.63252640178507 l 4.471250457426778 0.1347365594036924 a25.473280070985844,25.473280070985844 0 0,0 -0.01697959953703586,0.4381680168964171 l -4.468268725038539 -0.21168182331411564" fill="#ff3905" stroke="none" /><path d="M 120.9764740272857 100.99374915477107 l 1.1706190353215928 0.05545744606059893 a22.171931932400863,22.171931932400863 0 0,0 -0.02134169772510169,0.3810703494232983 l -1.169490986708962 -0.07559951181932056" fill="#ff0b01" stroke="none" /><path d="M 120.92983693683757 101.71520430193887 l 2.252547427311942 0.18459670991734695 a23.260098638909806,23.260098638909806 0 0,0 -0.03613667184426109,0.39876516258112343 l -2.249036159190606 -0.22334326104704094" fill="#ff1a02" stroke="none" /><path d="M 120.8583938346157 102.4346265915055 l 2.238909410091234 0.26132924850301437 a23.254109208250174,23.254109208250174 0 0,0 -0.04982856277048711,0.39718267204101626 l -2.2340793380738986 -0.2998296748314256" fill="#ff1a02" stroke="none" /><path d="M 120.81339534386255 102.79330883721812 l 2.1901169789489843 0.2939296069078712 a23.209752700031757,23.209752700031757 0 0,0 -0.05654995345557734,0.3955102427581564 l -2.1847329744768054 -0.3315853216464369" fill="#ff1902" stroke="none" /><path d="M 120.76222939487914 103.15116336523771 l 2.610145291500869 0.3961517842854516 a23.640036870753267,23.640036870753267 0 0,0 -0.06452406858409687,0.4017914366662044 l -2.602939468555484 -0.44102245064486095" fill="#ff2003" stroke="none" /><path d="M 120.64145759157962 103.86396538481128 l 8.047292705944628 1.5064081748712776 a29.187074293327782,29.187074293327782 0 0,0 -0.09669270070624213,0.49303399774314727 l -8.02017007226272 -1.64470589968237" fill="#ff6c0a" stroke="none" /><line stroke="#e1ed5e" stroke-width="0.3" x1="174.80103733775053" x2="179.2010983576182" y1="140.37084112569926" y2="142.7455964860345" /><path d="M 175.68104954172406 140.8457921977663 a86.0,86.0 0 0,1 -30.038265399797805,32.042727171017184" fill="none" id="id137" stroke="none" /><text fill="#e1ed5e" style="font-size:6.75px; font-family:Arial;" text-anchor="middle"><textPath startOffset="22.206326154141568" xlink:href="#id137">May</textPath></text><line stroke="#e1ed5e" stroke-width="0.3" x1="143.8653032363475" x2="146.44561519142675" y1="172.8068346515853" y2="177.08958963109032" /><path d="M 144.38136562736335 173.6633856474863 a86.0,86.0 0 0,1 -40.68145358897372,12.25698825130547" fill="none" id="id138" stroke="none" /><text fill="#e1ed5e" style="font-size:6.75px; font-family:Arial;" text-anchor="middle"><textPath startOffset="21.466115282336833" xlink:href="#id138">June</textPath></text><line stroke="#e1ed5e" stroke-width="0.3" x1="102.19456741930631" x2="102.32365962044197" y1="184.97166512339345" y2="189.96999836594603" /><path d="M 102.22038585953345 185.97133177190398 a86.0,86.0 0 0,1 -42.740103519485714,-10.115201625700543" fill="none" id="id139" stroke="none" /><text fill="#e1ed5e" style="font-size:6.75px; font-family:Arial;" text-anchor="middle"><textPath startOffset="22.20632615414155" xlink:href="#id139">July</textPath></text><line stroke="#e1ed5e" stroke-width="0.3" x1="58.666819895761336" x2="56.23545636021788" y1="174.27360380694188" y2="178.64263932499728" /><path d="M 58.180547188652646 175.14741091055294 a86.0,86.0 0 0,1 -31.652253787137756,-30.449443065178592" fill="none" id="id140" stroke="none" /><text fill="#e1ed5e" style="font-size:6.75px; font-family:Arial;" text-anchor="middle"><textPath startOffset="22.20632615414155" xlink:href="#id140">August</textPath></text><line stroke="#e1ed5e" stroke-width="0.3" x1="26.63291911575756" x2="22.317208475507996" y1="142.92168965132927" y2="145.44649492493687" /><path d="M 25.769776987707644 143.4266507060508 a86.0,86.0 0 0,1 -11.730757126820373,-40.83630448921669" fill="none" id="id141" stroke="none" /><text fill="#e1ed5e" style="font-size:6.75px; font-family:Arial;" text-anchor="middle"><textPath startOffset="21.46611528233685" xlink:href="#id141">September</textPath></text><line stroke="#e1ed5e" stroke-width="0.3" x1="15.007084014347285" x2="10.007500721073583" y1="101.09737516637583" y2="101.16192664675087" /><path d="M 14.007167355692545 101.11028546245083 a86.0,86.0 0 0,1 10.666146001902534,-42.60595125391555" fill="none" id="id142" stroke="none" /><text fill="#e1ed5e" style="font-size:6.75px; font-family:Arial;" text-anchor="middle"><textPath startOffset="22.20632615414155" xlink:href="#id142">October</textPath></text><line stroke="#e1ed5e" stroke-width="0.3" x1="26.266209847984243" x2="21.928928074336255" y1="57.711370442889674" y2="55.22380399835377" /><path d="M 25.398753493254645 57.213857153982495 a86.0,86.0 0 0,1 29.58750427330803,-30.492523968695096" fill="none" id="id143" stroke="none" /><text fill="#e1ed5e" style="font-size:6.75px; font-family:Arial;" text-anchor="middle"><textPath startOffset="21.46611528233685" xlink:href="#id143">November</textPath></text><line stroke="#e1ed5e" stroke-width="0.3" x1="56.762969772571076" x2="54.21961505331055" y1="26.818313649435495" y2="22.513508569990535" /><path d="M 56.25429882871897 25.957352633546506 a86.0,86.0 0 0,1 42.265352541879196,-11.944610805530505" fill="none" id="id144" stroke="none" /><text fill="#e1ed5e" style="font-size:6.75px; font-family:Arial;" text-anchor="middle"><textPath startOffset="22.20632615414155" xlink:href="#id144">December</textPath></text></svg>