<?xml version="1.0" encoding="utf-8" ?>
<svg baseProfile="full" height="200mm" version="1.1" viewBox="0,0,200,200" width="200mm" xmlns="http://www.w3.org/2000/svg" xmlns:ev="http://www.w3.org/2001/xml-events" xmlns:xlink="http://www.w3.org/1999/xlink"><defs /><rect fill="#1a1a1a" height="200" width="200" x="0" y="0" /><text alignment-baseline="middle" fill="#e1ed5e" style="dominant-baseline: central; font-size:9.0px; font-family:Arial;" text-anchor="middle" x="100.0" y="100.0">2022</text><line stroke="#e1ed5e" stroke-width="0.3" x1="100.0" x2="100.0" y1="15.0" y2="10.0" /><path d="M 100.0 14.0 a86.0,86.0 0 0,1 42.46469731375804,11.215312516191453" fill="none" id="id85" stroke="none" /><text fill="#e1ed5e" style="font-size:6.75px; font-family:Arial;" text-anchor="middle"><textPath startOffset="22.20632615414155" xlink:href="#id85">January</textPath></text><path d="M 102.52436894288641 79.15227682838746 l 0.435955712975836 -3.6003786391109087 a24.62667667826102,24.62667667826102 0 0,0 0.4203952797598046,0.05457937273813885 l -0.4978657212434867 3.592340943208633" fill="#ff2e04" stroke="none" /><path d="M 104.307194497241 79.44645832069477 l 0.430370611516919 -2.0536895436291984 a23.09829921719219,23.09829921719219 0 0,0 0.3884444013442996,0.08489890078618842 l -0.46565773701474655 2.0459771447471393" fill="#ff1802" stroke="none" /><path d="M 107.4271985657038 80.35727306442388 l 1.35478624209388 -3.583005890324365 a24.830584416491295,24.830584416491295 0 0,0 0.39849166529783264,0.15460857519609172 l -1.4162610723913798 3.5591546112377266" fill="#ff3104" stroke="none" /><path d="M 108.09893153111575 80.62456947434976 l 0.7935753084155429 -1.8985051541679794 a23.057688895467244,23.057688895467244 0 0,0 0.36487831084674527,0.15622185048258075 l -0.8261373770526034 1.8845637757226077" fill="#ff1802" stroke="none" /><path d="M 110.05341064243156 81.56283822128135 l 0.9065350890370241 -1.662513816367719 a22.893609795409002,22.893609795409002 0 0,0 0.34435904040734283,0.1916354331570639 l -0.935018218516402 1.6466629856504753" fill="#ff1502" stroke="none" /><line stroke="#e1ed5e" stroke-width="0.3" x1="143.23703022742887" x2="145.7803849466894" y1="26.81831364943548" y2="22.513508569990506" /><path d="M 143.74570117128098 25.957352633546492 a86.0,86.0 0 0,1 28.547481713284135,27.462654790039103" fill="none" id="id86" stroke="none" /><text fill="#e1ed5e" style="font-size:6.75px; font-family:Arial;" text-anchor="middle"><textPath startOffset="19.985693538727396" xlink:href="#id86">February</textPath></text><path d="M 111.60114157652 82.49532879139004 l 4.533922896268617 -6.8411224068672905 a29.207156183176394,29.207156183176394 0 0,0 0.4166822324864092,0.2813457034042298 l -4.651009823161568 6.7620647911643905" fill="#ff6d0a" stroke="none" /><path d="M 112.19680574252982 82.90503203632743 l 1.0972796471554782 -1.5379404092585092 a22.88925470132851,22.88925470132851 0 0,0 0.318765225836885,0.2315964930197288 l -1.123590189346152 1.5188246814221056" fill="#ff1502" stroke="none" /><path d="M 113.89432698308785 84.25364557470407 l 1.5203383390563017 -1.7229899916912672 a23.297851861341968,23.297851861341968 0 0,0 0.2984221982532048,0.2679263960981026 l -1.5497715249054966 1.6965645868238672" fill="#ff1b02" stroke="none" /><path d="M 115.9244219780498 86.31012108654704 l 1.5028601891540294 -1.2919761886319516 a22.981865590835067,22.981865590835067 0 0,0 0.25530596783844967,0.30220173827313757 l -1.5248767704795962 1.2659155007297076" fill="#ff1702" stroke="none" /><path d="M 117.04232023915458 87.72973835380427 l 2.4350016082099284 -1.7531713066275176 a24.000473706328215,24.000473706328215 0 0,0 0.23850457053521085,0.33734780083769894 l -2.464818798549022 1.7109970054580255" fill="#ff2503" stroke="none" /><path d="M 117.45458315368197 88.32363383020206 l 3.1799709743524245 -2.127263950043718 a24.82589431517384,24.82589431517384 0 0,0 0.23454956963709783,0.35723508607832805 l -3.2161171793474472 2.072210799987716" fill="#ff3104" stroke="none" /><line stroke="#e1ed5e" stroke-width="0.3" x1="172.23445277983987" x2="176.4835382374775" y1="55.19839476539836" y2="52.563006222186495" /><path d="M 173.08426987136738 54.67131705675599 a86.0,86.0 0 0,1 12.851231095245387,41.99856678651699" fill="none" id="id87" stroke="none" /><text fill="#e1ed5e" style="font-size:6.75px; font-family:Arial;" text-anchor="middle"><textPath startOffset="22.20632615414155" xlink:href="#id87">March</textPath></text><path d="M 118.56541770881063 90.18545643968196 l 3.3805389387712497 -1.7871101632244017 a24.823847048725746,24.823847048725746 0 0,0 0.19645186724639546,0.3794824781465714 l -3.4108002391777617 1.7286549628174854" fill="#ff3104" stroke="none" /><path d="M 118.73160827565052 90.50648371742162 l 1.673924391192139 -0.848375015627739 a22.87663609540298,22.87663609540298 0 0,0 0.17499535838262528,0.35277996413786084 l -1.6882797625281727 0.8194354629909283" fill="#ff1502" stroke="none" /><path d="M 119.61058180528143 92.48833698450437 l 0.4361715888357402 -0.16707173835021158 a21.46707453437632,21.46707453437632 0 0,0 0.12920665330660838,0.3462095933552409 l -0.43898283064397386 0.15953900796563744" fill="#ff0100" stroke="none" /><path d="M 120.45610955862082 95.25157060432595 l 0.3907628861732723 -0.09070688491016768 a21.401152554747657,21.401152554747657 0 0,0 0.08020908717544399,0.3595616103860255 l -0.3922663603507539 0.08396710497417831" fill="#ff0000" stroke="none" /><line stroke="#e1ed5e" stroke-width="0.3" x1="184.98032266829074" x2="189.97916517819016" y1="98.17113171792111" y2="98.06355123074" /><path d="M 185.9800911702706 98.14961562048488 a86.0,86.0 0 0,1 -9.607161424134198,41.387399972396054" fill="none" id="id88" stroke="none" /><text fill="#e1ed5e" style="font-size:6.75px; font-family:Arial;" text-anchor="middle"><textPath startOffset="21.466115282336823" xlink:href="#id88">April</textPath></text><line stroke="#e1ed5e" stroke-width="0.3" x1="174.80103733775053" x2="179.2010983576182" y1="140.37084112569926" y2="142.7455964860345" /><path d="M 175.68104954172406 140.8457921977663 a86.0,86.0 0 0,1 -30.038265399797805,32.042727171017184" fill="none" id="id89" stroke="none" /><text fill="#e1ed5e" style="font-size:6.75px; font-family:Arial;" text-anchor="middle"><textPath startOffset="22.206326154141568" xlink:href="#id89">May</textPath></text><path d="M 112.92097659922987 116.55440617244103 l 0.3618864296102453 0.4636503207056005 a21.588161039024566,21.588161039024566 0 0,0 -0.2949058669881998,0.22612124337526382 l -0.35385183412855176 -0.46981090590823577" fill="#ff0300" stroke="none" /><path d="M 111.7513745106137 117.40417183066458 l 0.505472045116351 0.7486207099311466 a21.903291179925898,21.903291179925898 0 0,0 -0.3142864673036885,0.20829193301163204 l -0.49251087907269847 -0.7572106640340971" fill="#ff0701" stroke="none" /><path d="M 111.1453310114006 117.79835938074945 l 2.0066525768586394 3.204491968762874 a24.780928899368405,24.780928899368405 0 0,0 -0.3634781688573347,0.22327797859364037 l -1.9511952080689958 -3.2385584141848924" fill="#ff3004" stroke="none" /><line stroke="#e1ed5e" stroke-width="0.3" x1="143.8653032363475" x2="146.44561519142675" y1="172.8068346515853" y2="177.08958963109032" /><path d="M 144.38136562736335 173.6633856474863 a86.0,86.0 0 0,1 -40.68145358897372,12.25698825130547" fill="none" id="id90" stroke="none" /><text fill="#e1ed5e" style="font-size:6.75px; font-family:Arial;" text-anchor="middle"><textPath startOffset="21.466115282336833" xlink:href="#id90">June</textPath></text><path d="M 110.21172684928248 118.3499491758327 l 1.4739814187529872 2.6486689782678168 a24.031182703049645,24.031182703049645 0 0,0 -0.3631880568459363,0.19803908647769752 l -1.428170550038402 -2.673648716505285" fill="#ff2603" stroke="none" /><path d="M 109.2508944713604 118.85261126421891 l 0.9159447298992489 1.8666248961935437 a23.07924102771174,23.07924102771174 0 0,0 -0.3581539182428831,0.17193564573435238 l -0.8836781436561331 -1.882114818427456" fill="#ff1802" stroke="none" /><path d="M 108.92500713936063 119.00905698771935 l 1.389025797945531 2.958436910835959 a24.268293380765385,24.268293380765385 0 0,0 -0.3796624316041486,0.1742844010831152 l -1.337895370573963 -2.9819083822531485" fill="#ff2904" stroke="none" /><path d="M 108.59647513512805 119.15986991738527 l 0.9783673217750312 2.180590337547809 a23.39001607453258,23.39001607453258 0 0,0 -0.36875955912859715,0.1616533538774845 l -0.9406870879886802 -2.197108244719748" fill="#ff1d02" stroke="none" /><path d="M 108.2653958097858 119.30500536409082 l 1.5017912305079688 3.5076466303496026 a24.815620759907038,24.815620759907038 0 0,0 -0.39412941779601424,0.16474612860357618 l -1.4411903532144934 -3.5329778019731517" fill="#ff3104" stroke="none" /><path d="M 106.57524785965236 119.94407469862006 l 0.6549177059831262 1.9864996618191266 a23.091673518505626,23.091673518505626 0 0,0 -0.37857001421667946,0.12120616370515774 l -0.6206263466755063 -1.997478672183991" fill="#ff1802" stroke="none" /><path d="M 105.88484417918355 120.15858648285463 l 0.5569650498115783 1.9078887703211596 a22.987523490837077,22.987523490837077 0 0,0 -0.3807925211869252,0.10761577012111107 l -0.5240413605200475 -1.9171933337807898" fill="#ff1702" stroke="none" /><path d="M 105.18746579009965 120.34920634021253 l 0.9333756316120564 3.6614127377667107 a24.778509402657022,24.778509402657022 0 0,0 -0.4142102064172479,0.10180279105310597 l -0.8702121404515973 -3.6769367871338465" fill="#ff3004" stroke="none" /><path d="M 104.13013068566511 120.58985236759428 l 0.5657263824969502 2.8203036616962573 a23.876483805626307,23.876483805626307 0 0,0 -0.40366309529293226,0.07736299293915445 l -0.5170956726323135 -2.82962385298388" fill="#ff2303" stroke="none" /><path d="M 103.41894727170886 120.7198165907248 l 0.532591956477202 3.2276624290807754 a24.271308445898036,24.271308445898036 0 0,0 -0.4128019485795465,0.06447117466727048 l -0.4769541442891384 -3.2363519110951517" fill="#ff2904" stroke="none" /><path d="M 102.70371172650421 120.8252237178851 l 0.4214242049281631 3.2460018802034774 a24.273244043267145,24.273244043267145 0 0,0 -0.414809601938572,0.05022766600098566 l -0.3654871799382108 -3.252775074929814" fill="#ff2904" stroke="none" /><path d="M 101.62511606390274 120.93702456842531 l 0.23063195265329095 2.9713243049050746 a23.98026160303157,23.98026160303157 0 0,0 -0.41181787334839653,0.028401371666664593 l -0.17945131852596408 -2.9748540210880243" fill="#ff2503" stroke="none" /><path d="M 100.90346689309514 120.98055641714683 l 0.09234094810127783 2.144366867295564 a23.14635414418293,23.14635414418293 0 0,0 -0.3982050802487792,0.013714988110337507 l -0.05541551617784634 -2.1456386538319956" fill="#ff1902" stroke="none" /><line stroke="#e1ed5e" stroke-width="0.3" x1="102.19456741930631" x2="102.32365962044197" y1="184.97166512339345" y2="189.96999836594603" /><path d="M 102.22038585953345 185.97133177190398 a86.0,86.0 0 0,1 -42.740103519485714,-10.115201625700543" fill="none" id="id91" stroke="none" /><text fill="#e1ed5e" style="font-size:6.75px; font-family:Arial;" text-anchor="middle"><textPath startOffset="22.20632615414155" xlink:href="#id91">July</textPath></text><path d="M 100.54218724476979 120.99299961872073 l 0.05084096349138819 1.9685161122579895 a22.969172538856878,22.969172538856878 0 0,0 -0.3953326116834879,0.006806009428663758 l -0.01694866191523237 -1.9690995989658129" fill="#ff1702" stroke="none" /><path d="M 99.81925306533755 120.99922214144158 l -0.03603552975126373 4.186616473715109 a25.186771555433516,25.186771555433516 0 0,0 -0.4335006915046867,-0.007463107536585726 l 0.10809591114861834 -4.1853758888993635" fill="#ff3605" stroke="none" /><path d="M 99.09653310690486 120.98055641714683 l -0.08541481649748241 1.9835263362516664 a22.985364555309996,22.985364555309996 0 0,0 -0.39514242173012326,-0.020424349725872374 l 0.11954530664109461 -1.9817621797635923" fill="#ff1702" stroke="none" /><path d="M 98.01472825383883 120.90594882070398 l -0.1910047574409838 2.011379898642852 a23.020428646111913,23.020428646111913 0 0,0 -0.39416170253850846,-0.040856472098080375 l 0.22559905658508556 -2.007794058089011" fill="#ff1702" stroke="none" /><path d="M 94.11515582081647 120.15858648285463 l -0.5465966022132491 1.8723715601385722 a22.950523802666048,22.950523802666048 0 0,0 -0.37827383989559676,-0.11397080493291849 l 0.5787454165490917 -1.862685386099928" fill="#ff1602" stroke="none" /><path d="M 93.08242187328487 119.8279376855182 l -0.7039618657999183 2.0177743933468277 a23.13704838760068,23.13704838760068 0 0,0 -0.37490880909828733,-0.13442896032612564 l 0.7385902355279321 -2.0053578919807444" fill="#ff1902" stroke="none" /><path d="M 91.7346041902142 119.30500536409082 l -0.7847312249865688 1.8328511853962717 a22.993776959260348,22.993776959260348 0 0,0 -0.36251257917820207,-0.15891486144904682 l 0.8161644788225142 -1.8190717706527726" fill="#ff1702" stroke="none" /><line stroke="#e1ed5e" stroke-width="0.3" x1="58.666819895761336" x2="56.23545636021788" y1="174.27360380694188" y2="178.64263932499728" /><path d="M 58.180547188652646 175.14741091055294 a86.0,86.0 0 0,1 -31.652253787137756,-30.449443065178592" fill="none" id="id92" stroke="none" /><text fill="#e1ed5e" style="font-size:6.75px; font-family:Arial;" text-anchor="middle"><textPath startOffset="22.20632615414155" xlink:href="#id92">August</textPath></text><path d="M 89.7882731507175 118.34994917583269 l -0.9233086361866789 1.6591382434816497 a22.898746573042406,22.898746573042406 0 0,0 -0.34277377243784096,-0.19463589383614588 l 0.9517311755457272 -1.6429991838508706" fill="#ff1602" stroke="none" /><path d="M 87.36589467227662 116.77436683061367 l -1.143764861482287 1.5185825079651414 a22.901128846727463,22.901128846727463 0 0,0 -0.31284171196167604,-0.23987368447725949 l 1.16973530193745 -1.498669481660515" fill="#ff1602" stroke="none" /><path d="M 85.18274418774928 114.88116024355367 l -1.3567435060139168 1.36259492163867 a22.9228670941036,22.9228670941036 0 0,0 -0.2772131904358874,-0.2808154983417128 l 1.3799973215053374 -1.3390389293162925" fill="#ff1602" stroke="none" /><path d="M 84.43433777217949 114.09645910891817 l -2.794285744790633 2.530540247087798 a24.769836437522365,24.769836437522365 0 0,0 -0.2834862373055539,-0.3184997928297606 l 2.837430831744525 -2.4820662845171735" fill="#ff3004" stroke="none" /><path d="M 83.50135304334701 112.99209946851258 l -1.475431669937509 1.1618501241456025 a22.877976124350823,22.877976124350823 0 0,0 -0.240973921645438,-0.31149127733826193 l 1.4952124088010155 -1.136280852694088" fill="#ff1502" stroke="none" /><path d="M 82.85270091963577 112.12312394758628 l -3.1440483406258726 2.2228391510507675 a24.850461512550982,24.850461512550982 0 0,0 -0.24393579013331268,-0.3514076992779696 l 3.181845037921319 -2.1683901895857853" fill="#ff3104" stroke="none" /><path d="M 82.6465618267979 111.8261652097733 l -6.865622031884135 4.678841138369013 a29.30832836873863,29.30832836873863 0 0,0 -0.28051823751043137,-0.41933670386382327 l 6.945143374805296 -4.559967520299369" fill="#ff6f0a" stroke="none" /><path d="M 82.44556493220864 111.52570212397912 l -0.5251703817134268 0.3448107193760538 a21.6282502383809,21.6282502383809 0 0,0 -0.2016526766828206,-0.3129694323303687 l 0.531027921773293 -0.3357196871242368" fill="#ff0300" stroke="none" /><line stroke="#e1ed5e" stroke-width="0.3" x1="26.63291911575756" x2="22.317208475507996" y1="142.92168965132927" y2="145.44649492493687" /><path d="M 25.769776987707644 143.4266507060508 a86.0,86.0 0 0,1 -11.730757126820373,-40.83630448921669" fill="none" id="id93" stroke="none" /><text fill="#e1ed5e" style="font-size:6.75px; font-family:Arial;" text-anchor="middle"><textPath startOffset="21.46611528233685" xlink:href="#id93">September</textPath></text><path d="M 81.87401531095188 110.60418214915194 l -1.6511292160655255 0.9659544162323104 a22.912928546073758,22.912928546073758 0 0,0 -0.19623068863402757,-0.34214474596740035 l 1.6675119008519304 -0.937389824406603" fill="#ff1602" stroke="none" /><path d="M 81.02952815118164 109.00673069616217 l -2.448013611361127 1.1622588786289163 a23.709910762804025,23.709910762804025 0 0,0 -0.17186905955054094,-0.37019066408253315 l 2.4676572877514946 -1.119948147267556" fill="#ff2103" stroke="none" /><path d="M 80.87730276802145 108.67885076344099 l -1.7519207518299453 0.7951105730566587 a22.92390933884081,22.92390933884081 0 0,0 -0.15998587078185678,-0.3607259035766939 l 1.7653477073430819 -0.764836332987269" fill="#ff1602" stroke="none" /><path d="M 80.73074385275274 108.34839909993369 l -1.7094697355671014 0.7406272194794101 a22.863012467766563,22.863012467766563 0 0,0 -0.15334442252728483,-0.36246091764436705 l 1.7219651392866928 -0.7110917761688843" fill="#ff1502" stroke="none" /><path d="M 80.58989483394504 108.01547362559985 l -3.5252290522823673 1.4557561770547938 a24.81398294674856,24.81398294674856 0 0,0 -0.15963353456988055,-0.39619734135155427 l 3.549765201109636 -1.3948594678604342" fill="#ff3104" stroke="none" /><path d="M 80.45479744820244 107.68017299344265 l -9.517013940017605 3.739654948401555 a31.2253886707349,31.2253886707349 0 0,0 -0.1922676846210503,-0.501950253891191 l 9.579975904232164 -3.575281127677206" fill="#ff880c" stroke="none" /><path d="M 80.32549172779594 107.34259656027581 l -1.138726322690049 0.4249767193364678 a22.21544347872091,22.21544347872091 0 0,0 -0.13062230003008252,-0.35941646963721513 l 1.145872883725356 -0.4053124526931355" fill="#ff0c01" stroke="none" /><path d="M 80.20201598880116 107.00284435728193 l -59.3939520335965 21.008533071845783 a84.0,84.0 0 0,0 -0.4704366762270862,-1.3673091876428125 l 59.746779540766816 -19.983051181113673" fill="#4dd2ff" stroke="none" /><path d="M 79.86692584326677 105.97154293290107 l -2.3240397162865425 0.6893186224584081 a23.424112366649943,23.424112366649943 0 0,0 -0.111328518504711,-0.38754917784442233 l 2.3355608716773575 -0.6492119691093898" fill="#ff1d02" stroke="none" /><path d="M 79.76711848015287 105.62410040840567 l -2.3726435131200576 0.6595197692454243 a23.462600975874132,23.462600975874132 0 0,0 -0.10481293959867152,-0.3900479396172432 l 2.3836445290605037 -0.6185808964526422" fill="#ff1e03" stroke="none" /><path d="M 79.67330655649465 105.27499134158121 l -1.8700789872178176 0.4853052215828461 a22.932023958580533,22.932023958580533 0 0,0 -0.0958653449465721,-0.38293439945458146 l 1.8781556464594482 -0.45304298273087285" fill="#ff1602" stroke="none" /><path d="M 79.58551787078972 104.9243191809786 l -8.434621003527893 2.0345735801216778 a29.676538545185114,29.676538545185114 0 0,0 -0.11551159361064271,-0.49762092205537256 l 8.46839316306909 -1.8890840007177312" fill="#ff730a" stroke="none" /><path d="M 79.50377843672027 104.57218783832718 l -1.2829962957484666 0.2862039738363018 a22.314531174808714,22.314531174808714 0 0,0 -0.0804024024645398,-0.37561325697628933 l 1.2877327369374472 -0.2640768974438487" fill="#ff0d01" stroke="none" /><path d="M 79.4281124754447 104.21870165774334 l -1.34348647769286 0.2755103839564256 a22.37144518206576,22.37144518206576 0 0,0 -0.07411347336892947,-0.37790300399950316 l 1.3480298840374556 -0.2523436528889676" fill="#ff0e01" stroke="none" /><path d="M 79.35854240842038 103.8639653848113 l -3.0756916776605348 0.575752275443985 a24.129116485321248,24.129116485321248 0 0,0 -0.072908489724084,-0.4089095294523778 l 3.0851466097238074 -0.5227239952583935" fill="#ff2703" stroke="none" /><path d="M 79.29508885075956 103.50808413554451 l -3.1548398602456165 0.5345322944946381 a24.19980301232002,24.19980301232002 0 0,0 -0.06605191683183499,-0.41130534916332145 l 3.1635735314387423 -0.480147715638103" fill="#ff2803" stroke="none" /><path d="M 79.23777060512086 103.15116336523772 l -3.6871862974579668 0.5596184379034841 a24.729412230929068,24.729412230929068 0 0,0 -0.06025256402843853,-0.42140629248101097 l 3.6962729125030043 -0.4960666734420725" fill="#ff2f04" stroke="none" /><path d="M 79.1416061653843 102.43462659150553 l -0.4158983188062565 0.04854434691168603 a21.41872182317495,21.41872182317495 0 0,0 -0.039591689807849786,-0.3665698763702744 l 0.4166723101151582 -0.04137814865662954" fill="#ff0000" stroke="none" /><path d="M 79.07016306316243 101.71520430193888 l -1.9737971354249577 0.16175306802686726 a22.980413892808237,22.980413892808237 0 0,0 -0.028915315160281497,-0.3945265020371629 l 1.9762890092495746 -0.12775342949294374" fill="#ff1702" stroke="none" /><path d="M 79.0235259727143 100.99374915477108 l -4.698752885950052 0.22260088625081645 a25.704022729301336,25.704022729301336 0 0,0 -0.017133404540689214,-0.4421370406234776 l 4.701888423341941 -0.14168659861334212" fill="#ff3d05" stroke="none" /><path d="M 79.0095281055655 100.63252640178507 l -1.8848629269193256 0.056798416491935955 a22.885718513827257,22.885718513827257 0 0,0 -0.008476365905195845,-0.3938634163741699 l 1.885561355509529 -0.02434518432763722" fill="#ff1502" stroke="none" /><line stroke="#e1ed5e" stroke-width="0.3" x1="15.007084014347285" x2="10.007500721073583" y1="101.09737516637583" y2="101.16192664675087" /><path d="M 14.007167355692545 101.11028546245083 a86.0,86.0 0 0,1 10.666146001902534,-42.60595125391555" fill="none" id="id94" stroke="none" /><text fill="#e1ed5e" style="font-size:6.75px; font-family:Arial;" text-anchor="middle"><textPath startOffset="22.20632615414155" xlink:href="#id94">October</textPath></text><path d="M 79.00175016825051 100.2711162175752 l -1.9129179997317844 0.024698396141312955 a22.913077438179073,22.913077438179073 0 0,0 -0.0016974255560191684,-0.3944219199565212 l 1.9130597225773067 0.008233002018883662" fill="#ff1602" stroke="none" /><path d="M 79.00019446554 99.90962569577889 l -1.9655809263628221 -0.008459031123828594 a22.965599128329295,22.965599128329295 0 0,0 0.005103823222348132,-0.3952967331813843 l 1.9651440960227584 0.04229202236568485" fill="#ff1602" stroke="none" /><path d="M 79.05617556472873 98.46500227214037 l -4.471891236626148 -0.3277502114607291 a25.483885751591615,25.483885751591615 0 0,0 0.03582975624289076,-0.4372137796078787 l 4.4655869965637605 0.4046779082763862" fill="#ff3a05" stroke="none" /><path d="M 79.08570108090925 98.10471618934814 l -3.7452951540995914 -0.3394040268401403 a24.7606423500191,24.7606423500191 0 0,0 0.04212006260461992,-0.42414328232276327 l 3.738897965812743 0.40382283986733386" fill="#ff3004" stroke="none" /><path d="M 79.12142395522702 97.74499172005258 l -3.016579738585849 -0.3258082482754243 a24.034123322129634,24.034123322129634 0 0,0 0.04796483925231733,-0.4109334510801486 l 3.010524546329943 0.3776854376804347" fill="#ff2603" stroke="none" /><path d="M 79.16333360222342 97.38593545837743 l -1.233764015974968 -0.1547818977048153 a22.24343519452032,22.24343519452032 0 0,0 0.05093111232620602,-0.37949594474619264 l 1.2309169045909283 0.17599618451566734" fill="#ff0c01" stroke="none" /><path d="M 79.21141760316559 97.0276538004421 l -3.1232236466463887 -0.4465577190050432 a24.154986488619905,24.154986488619905 0 0,0 0.062393602907662535,-0.4110958862471323 l 3.1150741502994244 0.5002527176442675" fill="#ff2703" stroke="none" /><path d="M 79.26566170972629 96.67025291283419 l -1.2972033319053828 -0.2083191156334082 a22.313823937308463,22.313823937308463 0 0,0 0.06416620428283551,-0.37871256991786684 l 1.2934252661023242 0.230617473867103" fill="#ff0d01" stroke="none" /><path d="M 79.32604984820605 96.31383870115002 l -4.185822598759188 -0.7463313568093762 a25.251837405456616,25.251837405456616 0 0,0 0.07998131833189642,-0.42726340069092217 l 4.17235555651743 0.8182728349628711" fill="#ff3705" stroke="none" /><path d="M 79.3925641242962 95.95851677861259 l -0.6455451451537537 -0.1266028383406479 a21.65784254431246,21.65784254431246 0 0,0 0.07489560831095982,-0.36521758475814264 l 0.6432702409277994 0.13769607926219302" fill="#ff0400" stroke="none" /><path d="M 79.46518482838121 95.60439243477599 l -2.313268652290231 -0.4951698422129458 a23.36567221531341,23.36567221531341 0 0,0 0.0875718835626524,-0.392567582890597 l 2.304402381725541 0.534915594653502" fill="#ff1c02" stroke="none" /><path d="M 79.54389044137918 95.25157060432595 l -5.077270615669576 -1.178575083993779 a26.212265930797532,26.212265930797532 0 0,0 0.10580668484631212,-0.4386370171311191 l 5.056231130562449 1.2657973327842948" fill="#ff4406" stroke="none" /><path d="M 79.62865764111835 94.90015583598534 l -6.299093097554475 -1.5769404198414219 a27.49348249704179,27.49348249704179 0 0,0 0.11888138382813791,-0.45809846665831766 l 6.27101538185603 1.6851353120486032" fill="#ff5607" stroke="none" /><path d="M 79.71946130924805 94.55025226153421 l -1.0279262865964258 -0.2762223943411782 a22.06439243787782,22.06439243787782 0 0,0 0.10172024225724381,-0.3659418325257813 l 1.0230192737728212 0.29387553028590196" fill="#ff0a01" stroke="none" /><path d="M 79.81627453868168 94.20196356495316 l -1.186480545389118 -0.3408318967092726 a22.234464445175032,22.234464445175032 0 0,0 0.10883675361159123,-0.36694342752983716 l 1.1804378946658198 0.361204710985649" fill="#ff0c01" stroke="none" /><path d="M 79.91906864156998 93.8553929516997 l -2.1793466232842484 -0.6668629249858072 a23.279091456072152,23.279091456072152 0 0,0 0.12054635898601454,-0.3821649002488167 l 2.16754478053003 0.7042779916610384" fill="#ff1b02" stroke="none" /><path d="M 80.14247586403 93.16781622104843 l -2.262243235361257 -0.7783478660706209 a23.392398348217633,23.392398348217633 0 0,0 0.13428007396892075,-0.37962785145937106 l 2.248510080582527 0.8171733439566029" fill="#ff1d02" stroke="none" /><path d="M 80.2630227832202 92.82701384747504 l -4.111913132178056 -1.4943876984578566 a25.37504562260561,25.37504562260561 0 0,0 0.1527280634885338,-0.40923527853340047 l 4.085580480187895 1.5649461140205985" fill="#ff3905" stroke="none" /><path d="M 80.38941819471856 92.48833698450439 l -3.4950386310700754 -1.3387441883884865 a24.742663628302193,24.742663628302193 0 0,0 0.15576855832234426,-0.39641399044150827 l 3.4714765228660402 1.3987071837257583" fill="#ff3004" stroke="none" /><path d="M 80.65960295795068 91.81776055985345 l -1.303856428164086 -0.5516156399280592 a22.415740583397273,22.415740583397273 0 0,0 0.1533976270281255,-0.35406287267798847 l 1.29416809129328 0.5739776571926469" fill="#ff0f01" stroke="none" /><path d="M 81.10775173730289 90.83032412892265 l -2.148893221223329 -1.0430020845682095 a23.388638822558406,23.388638822558406 0 0,0 0.17891193511871853,-0.3606755438450704 l 2.1306212731511978 1.0798372169122414" fill="#ff1d02" stroke="none" /><path d="M 81.26839172434947 90.50648371742162 l -1.7442467464076465 -0.8840156512017535 a22.955474465167807,22.955474465167807 0 0,0 0.1816658720687984,-0.3509206417512001 l 1.728771441178734 0.913909015213289" fill="#ff1602" stroke="none" /><line stroke="#e1ed5e" stroke-width="0.3" x1="26.266209847984243" x2="21.928928074336255" y1="57.711370442889674" y2="55.22380399835377" /><path d="M 25.398753493254645 57.213857153982495 a86.0,86.0 0 0,1 29.58750427330803,-30.492523968695096" fill="none" id="id95" stroke="none" /><text fill="#e1ed5e" style="font-size:6.75px; font-family:Arial;" text-anchor="middle"><textPath startOffset="21.46611528233685" xlink:href="#id95">November</textPath></text><path d="M 81.96595687620814 89.24020034530311 l -1.7756678592040969 -1.0594313370092128 a23.067701889549745,23.067701889549745 0 0,0 0.20638365499474187,-0.33924046388309637 l 1.757168405923138 1.0898395740993836" fill="#ff1802" stroke="none" /><path d="M 82.15384107792192 88.93136811851018 l -0.5846683765086211 -0.3626258771189207 a21.68799319563895,21.68799319563895 0 0,0 0.1995010370572753,-0.31556273034693183 l 0.5783397432053832 0.3726362551800681" fill="#ff0400" stroke="none" /><path d="M 82.34701348167596 88.62581576622439 l -1.6220297358805753 -1.0451072983836165 a22.92956723884282,22.92956723884282 0 0,0 0.21663348999872467,-0.32994766763751354 l 1.6037996105239303 1.072873029998797" fill="#ff1602" stroke="none" /><path d="M 82.54541684631803 88.32363383020206 l -1.60658409227375 -1.0747357286503632 a22.93291731121243,22.93291731121243 0 0,0 0.2223133759716507,-0.3262174472086419 l 1.5878462506333588 1.102231199129421" fill="#ff1602" stroke="none" /><path d="M 82.7489923806493 88.02491185347247 l -3.1528814301110306 -2.1886276949282575 a24.838066244783427,24.838066244783427 0 0,0 0.24682814160769417,-0.34912090183160255 l 3.1147406686994583 2.2425750970916463" fill="#ff3104" stroke="none" /><path d="M 84.07557802195018 86.31012108654704 l -2.884064434517255 -2.479367410733023 a24.803299938192136,24.803299938192136 0 0,0 0.28111367597185233,-0.32136152704831344 l 2.8409588949675593 2.5286444939842796" fill="#ff3104" stroke="none" /><path d="M 85.05521093208273 85.24692304244772 l -2.767067307621048 -2.731571302247188 a24.88820566124859,24.88820566124859 0 0,0 0.30359368040405194,-0.30228995265864306 l 2.719637827049683 2.7787971055559404" fill="#ff3204" stroke="none" /><path d="M 86.10567301691215 84.25364557470407 l -2.519399523890067 -2.8552198239168227 a24.807841147404275,24.807841147404275 0 0,0 0.32262739331151663,-0.2797792962566195 l 2.4698783319317767 2.898164113593123" fill="#ff3104" stroke="none" /><path d="M 87.51073957382395 83.11751280151077 l -0.6925061235962232 -0.9361023285242085 a22.164410709623848,22.164410709623848 0 0,0 0.308670748680376,-0.22426242606754843 l 0.6762900585620656 0.9478839894084248" fill="#ff0b01" stroke="none" /><path d="M 88.09926311788651 82.69761687909137 l -0.8541104094582532 -1.241784074246194 a22.507160336061304,22.507160336061304 0 0,0 0.3210971228058714,-0.21680621066519845 l 0.8326085922458423 1.256302197210058" fill="#ff1001" stroke="none" /><line stroke="#e1ed5e" stroke-width="0.3" x1="56.762969772571076" x2="54.21961505331055" y1="26.818313649435495" y2="22.513508569990535" /><path d="M 56.25429882871897 25.957352633546506 a86.0,86.0 0 0,1 42.265352541879196,-11.944610805530505" fill="none" id="id96" stroke="none" /><text fill="#e1ed5e" style="font-size:6.75px; font-family:Arial;" text-anchor="middle"><textPath startOffset="22.20632615414155" xlink:href="#id96">December</textPath></text><path d="M 91.23893434514133 80.91482961587045 l -0.9427782452623513 -2.0537551199954915 a23.25980992843373,23.25980992843373 0 0,0 0.3653095826410238,-0.16390376121228487 l 0.9072865441545531 2.0696792117243055" fill="#ff1b02" stroke="none" /><path d="M 97.11714578562143 79.19881850522333 l -0.20510753440888813 -1.4799496373787746 a22.494095053819823,22.494095053819823 0 0,0 0.38399056058755493,-0.049852995367146345 l 0.17960224531347546 1.4832609559100576" fill="#ff1001" stroke="none" /><path d="M 98.55514903715128 79.0497635885617 l -0.03285039010053138 -0.47632832486554966 a21.477459758722112,21.477459758722112 0 0,0 0.3690420274031777,-0.022261622903019685 l 0.02464631385773067 0.47682321714887577" fill="#ff0100" stroke="none" /><path d="M 98.91598698831166 79.02799685794201 l -0.09710382501193852 -1.87863217627292 a22.88114008158879,22.88114008158879 0 0,0 0.39351111932618477,-0.016945416570815747 l 0.06475187329642966 1.8800253193679282" fill="#ff1502" stroke="none" /></svg>