<?xml version="1.0" encoding="utf-8" ?>
<svg baseProfile="full" height="200mm" version="1.1" viewBox="0,0,200,200" width="200mm" xmlns="http://www.w3.org/2000/svg" xmlns:ev="http://www.w3.org/2001/xml-events" xmlns:xlink="http://www.w3.org/1999/xlink"><defs /><rect fill="#1a1a1a" height="200" width="200" x="0" y="0" /><text alignment-baseline="middle" fill="#e1ed5e" style="dominant-baseline: central; font-size:9.0px; font-family:Arial;" text-anchor="middle" x="100.0" y="100.0">2025</text><line stroke="#e1ed5e" stroke-width="0.3" x1="100.0" x2="100.0" y1="15.0" y2="10.0" /><path d="M 100.0 14.0 a86.0,86.0 0 0,1 42.46469731375804,11.215312516191453" fill="none" id="id121" stroke="none" /><text fill="#e1ed5e" style="font-size:6.75px; font-family:Arial;" text-anchor="middle"><textPath startOffset="22.20632615414155" xlink:href="#id121">January</textPath></text><path d="M 100.0 79.0 l 0.0 -2.2972951321016026 a23.297295132101603,23.297295132101603 0 0,0 0.40102463857645854,0.0034517456722244445 l -0.039544159303930175 2.296954763037937" fill="#ff0d01" stroke="none" /><path d="M 101.08401301168833 79.027996857942 l 0.23747252691605292 -4.594294096967742 a25.600427311725785,25.600427311725785 0 0,0 0.4398859876187416,0.02653512404968768 l -0.3165205633744064 4.58952570353775" fill="#ff2e04" stroke="none" /><path d="M 102.16513564639614 79.11191278185805 l 0.23269665970598297 -2.2449346909969896 a23.256962450347828,23.256962450347828 0 0,0 0.3978416803518566,0.04470214830849187 l -0.2713050435675648 2.240596589217897" fill="#ff0c01" stroke="none" /><path d="M 103.2404852339499 79.25152402106235 l 0.3547367031922217 -2.271340689326261 a23.29887508481448,23.29887508481448 0 0,0 0.3957156320272363,0.06529646990686673 l -0.3937815413583332 2.2648979564797695" fill="#ff0d01" stroke="none" /><path d="M 103.95276090670814 79.375362276772 l 0.43114013891184694 -2.249594494295993 a23.290536445496507,23.290536445496507 0 0,0 0.3930927837054335,0.0788507143864 l -0.4697993320844058 2.2418398238323847" fill="#ff0d01" stroke="none" /><path d="M 104.307194497241 79.44645832069477 l 0.4599516482059532 -2.1948475690897564 a23.242523438055127,23.242523438055127 0 0,0 0.39086982196101555,0.0854290037908674 l -0.4976641943204967 2.1866050672030184" fill="#ff0c01" stroke="none" /><path d="M 104.66035177308747 79.52364482259891 l 0.5137832275631607 -2.2574278432215897 a23.315157375272207,23.315157375272207 0 0,0 0.3905580999696088,0.09243248383668508 l -0.552565014495293 2.248249447244036" fill="#ff0d01" stroke="none" /><path d="M 105.36241919743992 79.69619591428918 l 0.5627849395752482 -2.1308806221228767 a23.20394625931566,23.20394625931566 0 0,0 0.38529833518871187,0.10531658973600762 l -0.599381163987671 2.120877491560575" fill="#ff0c01" stroke="none" /><path d="M 105.71112130821622 79.79150937346287 l 0.6186929391147579 -2.1892111524261013 a23.274956356244505,23.274956356244505 0 0,0 0.3846017875084353,0.11227580824913393 l -0.6562849443466203 2.178237015258264" fill="#ff0d01" stroke="none" /><path d="M 106.40334571778207 80.00007090966166 l 0.6973224510629598 -2.1779863510463007 a23.286893776741813,23.286893776741813 0 0,0 0.3807043166748386,0.125512227626675 l -0.7347095899802158 2.1656603991603895" fill="#ff0d01" stroke="none" /><path d="M 106.74666289553966 80.11325718540242 l 0.7060448053707552 -2.08116689352799 a23.1976703360395,23.1976703360395 0 0,0 0.37703725473799277,0.1315408948575226 l -0.7417640641720217 2.06870514549826" fill="#ff0c01" stroke="none" /><path d="M 107.08798089147638 80.2323363322302 l 0.7475411582314752 -2.084816878034345 a23.214786490429027,23.214786490429027 0 0,0 0.37499361337950227,0.1381133125089563 l -0.7833170973835538 2.071640297719064" fill="#ff0c01" stroke="none" /><path d="M 107.4271985657038 80.35727306442388 l 0.7795142104548106 -2.0615827950351977 a23.204034034466375,23.204034034466375 0 0,0 0.3723881004540888,0.14448079757993093 l -0.8148854759085665 2.04785929356472" fill="#ff0c01" stroke="none" /><path d="M 107.76421540070413 80.48803036053334 l 0.8122081341418422 -2.0411309625524114 a23.196792584532346,23.196792584532346 0 0,0 0.36973050723121215,0.15082235727977933 l -0.8472225109614419 2.026847719089053" fill="#ff0c01" stroke="none" /><path d="M 108.09893153111575 80.62456947434976 l 0.8868289573833728 -2.1215999648720585 a23.29948951086949,23.29948951086949 0 0,0 0.36870470474552924,0.15786011265869118 l -0.9232174199192174 2.106020324250576" fill="#ff0d01" stroke="none" /><line stroke="#e1ed5e" stroke-width="0.3" x1="143.23703022742887" x2="145.7803849466894" y1="26.81831364943548" y2="22.513508569990506" /><path d="M 143.74570117128098 25.957352633546492 a86.0,86.0 0 0,1 28.547481713284135,27.462654790039103" fill="none" id="id122" stroke="none" /><text fill="#e1ed5e" style="font-size:6.75px; font-family:Arial;" text-anchor="middle"><textPath startOffset="19.985693538727396" xlink:href="#id122">February</textPath></text><path d="M 111.60114157652 82.49532879139004 l 1.4752868306406315 -2.2260232528343167 a23.670515072943935,23.670515072943935 0 0,0 0.33769405699205696,0.2280125347148254 l -1.5133855820392303 2.2002988058208213" fill="#ff1302" stroke="none" /><path d="M 111.90073688211348 82.69761687909136 l 1.2448018600316124 -1.8098071493587775 a23.19657314665556,23.19657314665556 0 0,0 0.3270372846235617,0.2291105174548301 l -1.275770284238825 1.7881117891400118" fill="#ff0c01" stroke="none" /><path d="M 112.19680574252982 82.90503203632743 l 1.28973875808024 -1.807689916221903 a23.220623537951607,23.220623537951607 0 0,0 0.3233800052790193,0.2349493265418042 l -1.320664079713048 1.785221354863424" fill="#ff0c01" stroke="none" /><path d="M 112.48926042617603 83.11751280151076 l 1.3313655357524627 -1.7996871589563512 a23.238617443848284,23.238617443848284 0 0,0 0.3195352461070822,0.24066732270747776 l -1.3621469356179279 1.7765032467430262" fill="#ff0c01" stroke="none" /><path d="M 112.77801427241765 83.33499621200491 l 1.346631577838873 -1.7562682172112332 a23.21311876256543,23.21311876256543 0 0,0 0.31499919716899794,0.2458618698248763 l -1.3766633301673015 1.7328279581631327" fill="#ff0c01" stroke="none" /><path d="M 113.06298171725822 83.55741782278167 l 1.824030454752377 -2.2959360500666626 a23.932304459952935,23.932304459952935 0 0,0 0.32034711658155435,0.25903175629360853 l -1.8632809698984225 2.264198196508924" fill="#ff1602" stroke="none" /><path d="M 113.34407831869373 83.78471172551755 l 1.4049764310396406 -1.7072814850199007 a23.211056046523616,23.211056046523616 0 0,0 0.3063223448815965,0.25653615447930106 l -1.4341563128803545 1.6828441731467803" fill="#ff0c01" stroke="none" /><path d="M 113.6212207817346 84.01681056812373 l 1.4318505038024791 -1.6801385284857056 a23.207501152919637,23.207501152919637 0 0,0 0.30181488013212965,0.2617308899173671 l -1.460559182581373 1.655242645148667" fill="#ff0c01" stroke="none" /><path d="M 113.89432698308785 84.25364557470407 l 1.4633177488022777 -1.6583689111040378 a23.211670472578625,23.211670472578625 0 0,0 0.29731830079363064,0.2669353060594366 l -1.4916470371918984 1.6329345962753037" fill="#ff0c01" stroke="none" /><path d="M 114.16331599549186 84.49514656593476 l 1.493275020424933 -1.6347167807177994 a23.2140842892233,23.2140842892233 0 0,0 0.2927098335575351,0.27204188962164727 l -1.521192737777315 1.6087703050215116" fill="#ff0c01" stroke="none" /><path d="M 114.94478906791727 85.2469230424477 l 1.6344792666084802 -1.6135121276194142 a23.296724593621953,23.296724593621953 0 0,0 0.27926752947053857,0.2878097374282737 l -1.6620110597821278 1.5851381946410261" fill="#ff0d01" stroke="none" /><path d="M 115.19652480421416 85.50635884689758 l 1.5980484695046444 -1.5241340609559562 a23.208335016851436,23.208335016851436 0 0,0 0.2732313723248982,0.2914641774896995 l -1.6240471638000056 1.4964004665882018" fill="#ff0c01" stroke="none" /><path d="M 115.4437574822437 85.77008943001954 l 1.6230143423595342 -1.4954488227444311 a23.206930614439987,23.206930614439987 0 0,0 0.2681575854941083,0.29610630353181744 l -1.6485155684696782 1.4672897319430647" fill="#ff0c01" stroke="none" /><path d="M 115.68641384162765 86.03803664274999 l 1.6888384048300529 -1.5031797683406716 a23.260912332130026,23.260912332130026 0 0,0 0.2636326855071103,0.3013777330523615 l -1.7144629539150114 1.4738864790853623" fill="#ff0d01" stroke="none" /><path d="M 115.9244219780498 86.31012108654704 l 1.702848162958484 -1.4639014961441226 a23.245595568330167,23.245595568330167 0 0,0 0.25823574901249197,0.3056696750826513 l -1.727794525458093 1.4343728714323647" fill="#ff0c01" stroke="none" /><path d="M 116.38621287248628 86.86637796730983 l 1.7231546514234863 -1.38111606823244 a23.208335016851436,23.208335016851436 0 0,0 0.24716425822509705,0.3138735080224689 l -1.7466729902425475 1.3512501662569327" fill="#ff0c01" stroke="none" /><path d="M 117.04232023915458 87.72973835380427 l 1.587996448971874 -1.143337975620696 a22.956771434900794,22.956771434900794 0 0,0 0.22813278516716679,0.3226776459772757 l -1.6074418539429238 1.115833829311627" fill="#ff0801" stroke="none" /><path d="M 117.2510076193507 88.02491185347247 l 1.8208733296380324 -1.2639910147403455 a23.216585881018695,23.216585881018695 0 0,0 0.22506327981314864,0.33025259177572747 l -1.8423610751199144 1.2324603996942116" fill="#ff0c01" stroke="none" /><path d="M 117.65298651832404 88.62581576622439 l 1.8614213613689836 -1.1993522727114332 a23.214347614675447,23.214347614675447 0 0,0 0.21354149191946767,0.33777135811639 l -1.8817904495344069 1.167133266880837" fill="#ff0c01" stroke="none" /><line stroke="#e1ed5e" stroke-width="0.3" x1="172.23445277983987" x2="176.4835382374775" y1="55.19839476539836" y2="52.563006222186495" /><path d="M 173.08426987136738 54.67131705675599 a86.0,86.0 0 0,1 12.851231095245387,41.99856678651699" fill="none" id="id123" stroke="none" /><text fill="#e1ed5e" style="font-size:6.75px; font-family:Arial;" text-anchor="middle"><textPath startOffset="22.20632615414155" xlink:href="#id123">March</textPath></text><path d="M 118.03404312379186 89.2402003453031 l 2.3627276687418304 -1.4096936654616246 a23.75131209917756,23.75131209917756 0 0,0 0.20645582106384408,0.35289992183578184 l -2.386643164276002 1.3688143312719474" fill="#ff1402" stroke="none" /><path d="M 118.21658344932153 89.55222093294921 l 1.2558715058723366 -0.7202814988036214 a22.44776333590157,22.44776333590157 0 0,0 0.18935474976337366,0.3368409710582726 l -1.2680838969281432 0.6985570178105548" fill="#ff0100" stroke="none" /><path d="M 118.3937258080291 89.86733742301442 l 1.9742407171830827 -1.087561880705543 a23.2539780952235,23.2539780952235 0 0,0 0.19011998570957644,0.35226345929814495 l -1.9926688021111238 1.0534174380749393" fill="#ff0c01" stroke="none" /><path d="M 118.56541770881063 90.18545643968196 l 1.942539745443662 -1.026916886457026 a23.197275347861282,23.197275347861282 0 0,0 0.18357944472390123,0.35461705504291047 l -1.9599286233276794 0.9933271091537706" fill="#ff0c01" stroke="none" /><path d="M 118.73160827565052 90.50648371742162 l 1.981067948550325 -1.0040408997290722 a23.22097463855447,23.22097463855447 0 0,0 0.17762938405460135,0.35808999916213946 l -1.9980573455583346 0.9697913120679829" fill="#ff0c01" stroke="none" /><path d="M 118.89224826269711 90.83032412892265 l 1.9798163762335894 -0.9609377455704242 a23.200698578739186,23.200698578739186 0 0,0 0.17128943865622492,0.36077924206309603 l -1.9960640087315706 0.9267160878667877" fill="#ff0c01" stroke="none" /><path d="M 119.34039704204932 91.81776055985345 l 2.03555116964146 -0.8611698625661705 a23.21022218259182,23.21022218259182 0 0,0 0.1525003477976467,0.369291688411084 l -2.050073204325304 0.8260036037017833" fill="#ff0c01" stroke="none" /><path d="M 119.47837535516314 92.15188598940014 l 1.302967437581546 -0.5249840818745982 a22.40475351205097,22.40475351205097 0 0,0 0.14105013940970304,0.3589572197235342 l -1.3118111268729495 0.5024778572552796" fill="#ff0000" stroke="none" /><path d="M 119.61058180528143 92.48833698450437 l 2.072717318497644 -0.7939363644347829 a23.21957023614302,23.21957023614302 0 0,0 0.13975462546727196,0.3744729146239991 l -2.0860765324665413 0.7581403127814506" fill="#ff0c01" stroke="none" /><path d="M 119.7369772167798 92.82701384747503 l 2.0885101646770754 -0.7590247648408903 a23.22215960308913,23.22215960308913 0 0,0 0.1333028474807281,0.37686510058251244 l -2.101266092967613 0.7229620378317634" fill="#ff0c01" stroke="none" /><path d="M 119.85752413597 93.16781622104841 l 2.9979551390591177 -1.0314770527712473 a24.170438443844105,24.170438443844105 0 0,0 0.13197370869971484,0.3945845910814423 l -3.0152661415306024 0.979719358767491" fill="#ff1a02" stroke="none" /><path d="M 120.08093135843002 93.85539295169968 l 4.422967937815466 -1.353393399938001 a25.625399342104348,25.625399342104348 0 0,0 0.12543523507266624,0.4229052554694368 l -4.4456090699998345 1.2770587577220343" fill="#ff2f04" stroke="none" /><path d="M 120.18372546131832 94.20196356495316 l 2.1242681870084223 -0.6102235372597696 a23.210178295016462,23.210178295016462 0 0,0 0.1070024912605261,0.3849448926564294 l -2.1344574488353114 0.5735673411843883" fill="#ff0c01" stroke="none" /><path d="M 120.28053869075195 94.5502522615342 l 2.1487408515409787 -0.5774055499607806 a23.224968407912023,23.224968407912023 0 0,0 0.10042439636355942,0.38697616487825914 l -2.1583615797748408 0.5403329595336711" fill="#ff0c01" stroke="none" /><path d="M 120.37134235888165 94.90015583598534 l 3.077316048470031 -0.7703877345999337 a24.17228172200913,24.17228172200913 0 0,0 0.09757222061339484,0.40449984674301953 l -3.090121069344245 0.717302656197508" fill="#ff1a02" stroke="none" /><path d="M 120.45610955862082 95.25157060432595 l 2.488402051455692 -0.577627012386048 a23.55456409884875,23.55456409884875 0 0,0 0.08827982887141377,0.39574116289564387 l -2.4979762673291437 0.5347076799404402" fill="#ff1101" stroke="none" /><path d="M 120.6074358757038 95.95851677861258 l 2.421020492890954 -0.4748050053228541 a23.467140048736105,23.467140048736105 0 0,0 0.0743285634403634,0.39706615802724765 l -2.4288347802411767 0.43306076983304365" fill="#ff1001" stroke="none" /><path d="M 120.67395015179393 96.31383870115 l 62.02185045538181 -11.058483896549978 a84.0,84.0 0 0,0 0.2415525539191079,1.4256568467366484 l -62.20301487082114 9.98924126149749" fill="#4dd2ff" stroke="none" /><path d="M 120.73433829027371 96.67025291283417 l 2.3964102271990253 -0.3848417953812127 a23.427114580009835,23.427114580009835 0 0,0 0.060513471413704036,0.39870816880894805 l -2.402679592052029 0.3435345141801825" fill="#ff0f01" stroke="none" /><path d="M 120.78858239683441 97.02765380044208 l 2.3537162464786854 -0.3365337475403788 a23.377653282581647,23.377653282581647 0 0,0 0.05352814773643975,0.3988468750819426 l -2.3591603932729615 0.29596853039377186" fill="#ff0e01" stroke="none" /><path d="M 120.83666639777658 97.38593545837742 l 2.3437885751463856 -0.2940400585385407 a23.36216096848036,23.36216096848036 0 0,0 0.046623805679159296,0.3994442943807427 l -2.3485027338291338 0.25365202583294527" fill="#ff0e01" stroke="none" /><path d="M 120.87857604477298 97.74499172005257 l 2.2135433492587193 -0.2390756232559561 a23.22641669789883,23.22641669789883 0 0,0 0.03951020783577263,0.3978624009661575 l -2.2173306827767205 0.20093769158536365" fill="#ff0c01" stroke="none" /><path d="M 120.96714384426684 98.82574320788733 l 62.70065328816195 -3.5115258683007413 a83.79890712971078,83.79890712971078 0 0,0 0.06826175880788944,1.4408978400794896 l -62.75180865520334 2.431716921598252" fill="#4dd4ff" stroke="none" /><line stroke="#e1ed5e" stroke-width="0.3" x1="184.98032266829074" x2="189.97916517819016" y1="98.17113171792111" y2="98.06355123074" /><path d="M 185.9800911702706 98.14961562048488 a86.0,86.0 0 0,1 -9.607161424134198,41.387399972396054" fill="none" id="id124" stroke="none" /><text fill="#e1ed5e" style="font-size:6.75px; font-family:Arial;" text-anchor="middle"><textPath startOffset="21.466115282336823" xlink:href="#id124">April</textPath></text><line stroke="#e1ed5e" stroke-width="0.3" x1="174.80103733775053" x2="179.2010983576182" y1="140.37084112569926" y2="142.7455964860345" /><path d="M 175.68104954172406 140.8457921977663 a86.0,86.0 0 0,1 -30.038265399797805,32.042727171017184" fill="none" id="id125" stroke="none" /><text fill="#e1ed5e" style="font-size:6.75px; font-family:Arial;" text-anchor="middle"><textPath startOffset="22.206326154141568" xlink:href="#id125">May</textPath></text><line stroke="#e1ed5e" stroke-width="0.3" x1="143.8653032363475" x2="146.44561519142675" y1="172.8068346515853" y2="177.08958963109032" /><path d="M 144.38136562736335 173.6633856474863 a86.0,86.0 0 0,1 -40.68145358897372,12.25698825130547" fill="none" id="id126" stroke="none" /><text fill="#e1ed5e" style="font-size:6.75px; font-family:Arial;" text-anchor="middle"><textPath startOffset="21.466115282336833" xlink:href="#id126">June</textPath></text><line stroke="#e1ed5e" stroke-width="0.3" x1="102.19456741930631" x2="102.32365962044197" y1="184.97166512339345" y2="189.96999836594603" /><path d="M 102.22038585953345 185.97133177190398 a86.0,86.0 0 0,1 -42.740103519485714,-10.115201625700543" fill="none" id="id127" stroke="none" /><text fill="#e1ed5e" style="font-size:6.75px; font-family:Arial;" text-anchor="middle"><textPath startOffset="22.20632615414155" xlink:href="#id127">July</textPath></text><line stroke="#e1ed5e" stroke-width="0.3" x1="58.666819895761336" x2="56.23545636021788" y1="174.27360380694188" y2="178.64263932499728" /><path d="M 58.180547188652646 175.14741091055294 a86.0,86.0 0 0,1 -31.652253787137756,-30.449443065178592" fill="none" id="id128" stroke="none" /><text fill="#e1ed5e" style="font-size:6.75px; font-family:Arial;" text-anchor="middle"><textPath startOffset="22.20632615414155" xlink:href="#id128">August</textPath></text><line stroke="#e1ed5e" stroke-width="0.3" x1="26.63291911575756" x2="22.317208475507996" y1="142.92168965132927" y2="145.44649492493687" /><path d="M 25.769776987707644 143.4266507060508 a86.0,86.0 0 0,1 -11.730757126820373,-40.83630448921669" fill="none" id="id129" stroke="none" /><text fill="#e1ed5e" style="font-size:6.75px; font-family:Arial;" text-anchor="middle"><textPath startOffset="21.46611528233685" xlink:href="#id129">September</textPath></text><line stroke="#e1ed5e" stroke-width="0.3" x1="15.007084014347285" x2="10.007500721073583" y1="101.09737516637583" y2="101.16192664675087" /><path d="M 14.007167355692545 101.11028546245083 a86.0,86.0 0 0,1 10.666146001902534,-42.60595125391555" fill="none" id="id130" stroke="none" /><text fill="#e1ed5e" style="font-size:6.75px; font-family:Arial;" text-anchor="middle"><textPath startOffset="22.20632615414155" xlink:href="#id130">October</textPath></text><line stroke="#e1ed5e" stroke-width="0.3" x1="26.266209847984243" x2="21.928928074336255" y1="57.711370442889674" y2="55.22380399835377" /><path d="M 25.398753493254645 57.213857153982495 a86.0,86.0 0 0,1 29.58750427330803,-30.492523968695096" fill="none" id="id131" stroke="none" /><text fill="#e1ed5e" style="font-size:6.75px; font-family:Arial;" text-anchor="middle"><textPath startOffset="21.46611528233685" xlink:href="#id131">November</textPath></text><line stroke="#e1ed5e" stroke-width="0.3" x1="56.762969772571076" x2="54.21961505331055" y1="26.818313649435495" y2="22.513508569990535" /><path d="M 56.25429882871897 25.957352633546506 a86.0,86.0 0 0,1 42.265352541879196,-11.944610805530505" fill="none" id="id132" stroke="none" /><text fill="#e1ed5e" style="font-size:6.75px; font-family:Arial;" text-anchor="middle"><textPath startOffset="22.20632615414155" xlink:href="#id132">December</textPath></text></svg>