<?xml version="1.0" encoding="utf-8" ?>
<svg baseProfile="full" height="200mm" version="1.1" viewBox="0,0,200,200" width="200mm" xmlns="http://www.w3.org/2000/svg" xmlns:ev="http://www.w3.org/2001/xml-events" xmlns:xlink="http://www.w3.org/1999/xlink"><defs /><rect fill="#1a1a1a" height="200" width="200" x="0" y="0" /><text alignment-baseline="middle" fill="#e1ed5e" style="dominant-baseline: central; font-size:9.0px; font-family:Arial;" text-anchor="middle" x="100.0" y="100.0">2017</text><line stroke="#e1ed5e" stroke-width="0.3" x1="100.0" x2="100.0" y1="15.0" y2="10.0" /><path d="M 100.0 14.0 a86.0,86.0 0 0,1 42.46469731375804,11.215312516191453" fill="none" id="id25" stroke="none" /><text fill="#e1ed5e" style="font-size:6.75px; font-family:Arial;" text-anchor="middle"><textPath startOffset="22.20632615414155" xlink:href="#id25">January</textPath></text><line stroke="#e1ed5e" stroke-width="0.3" x1="143.23703022742887" x2="145.7803849466894" y1="26.81831364943548" y2="22.513508569990506" /><path d="M 143.74570117128098 25.957352633546492 a86.0,86.0 0 0,1 28.547481713284135,27.462654790039103" fill="none" id="id26" stroke="none" /><text fill="#e1ed5e" style="font-size:6.75px; font-family:Arial;" text-anchor="middle"><textPath startOffset="19.985693538727396" xlink:href="#id26">February</textPath></text><line stroke="#e1ed5e" stroke-width="0.3" x1="172.23445277983987" x2="176.4835382374775" y1="55.19839476539836" y2="52.563006222186495" /><path d="M 173.08426987136738 54.67131705675599 a86.0,86.0 0 0,1 12.851231095245387,41.99856678651699" fill="none" id="id27" stroke="none" /><text fill="#e1ed5e" style="font-size:6.75px; font-family:Arial;" text-anchor="middle"><textPath startOffset="22.20632615414155" xlink:href="#id27">March</textPath></text><line stroke="#e1ed5e" stroke-width="0.3" x1="184.98032266829074" x2="189.97916517819016" y1="98.17113171792111" y2="98.06355123074" /><path d="M 185.9800911702706 98.14961562048488 a86.0,86.0 0 0,1 -9.607161424134198,41.387399972396054" fill="none" id="id28" stroke="none" /><text fill="#e1ed5e" style="font-size:6.75px; font-family:Arial;" text-anchor="middle"><textPath startOffset="21.466115282336823" xlink:href="#id28">April</textPath></text><path d="M 120.9904718944345 100.63252640178507 l 4.861172365097182 0.14648645728480314 a25.863378974062414,25.863378974062414 0 0,0 -0.01723962585228144,0.4448781406919473 l -4.857930606393697 -0.23014184499075663" fill="#ff3f05" stroke="none" /><path d="M 120.64145759157962 103.86396538481128 l 1.6143568455831625 0.30219857015383905 a22.642398246675953,22.642398246675953 0 0,0 -0.07501110302918815,0.3824799982985298 l -1.60891580957831 -0.3299422955203138" fill="#ff1101" stroke="none" /><path d="M 120.49622156327973 104.57218783832717 l 61.488664689839204 13.716563514981502 a84.0,84.0 0 0,0 -0.3269577362777887,1.4085253706057403 l -61.24344638763086 -14.772957542935806" fill="#4dd2ff" stroke="none" /><line stroke="#e1ed5e" stroke-width="0.3" x1="174.80103733775053" x2="179.2010983576182" y1="140.37084112569926" y2="142.7455964860345" /><path d="M 175.68104954172406 140.8457921977663 a86.0,86.0 0 0,1 -30.038265399797805,32.042727171017184" fill="none" id="id29" stroke="none" /><text fill="#e1ed5e" style="font-size:6.75px; font-family:Arial;" text-anchor="middle"><textPath startOffset="22.206326154141568" xlink:href="#id29">May</textPath></text><path d="M 116.0416608686014 113.55231037782055 l 1.04402504994869 0.8820128810239484 a22.366724195736847,22.366724195736847 0 0,0 -0.2509945758614232,0.29196339613282973 l -1.0286879645164881 -0.8998533763183061" fill="#ff0d01" stroke="none" /><path d="M 115.80600337817218 113.82643327865902 l 1.3956694853714584 1.2208735223477087 a22.854299185667386,22.854299185667386 0 0,0 -0.261563264607826,0.29386910060002264 l -1.3744473711152942 -1.2447167926885978" fill="#ff1402" stroke="none" /><path d="M 115.07121518719521 114.62390073753431 l 0.8005170282016524 0.7767576412201418 a22.115428144541227,22.115428144541227 0 0,0 -0.267448586105567,0.27092400570813246 l -0.7870278170405498 -0.7904221409089389" fill="#ff0a01" stroke="none" /><path d="M 113.75828350139079 115.86535959552629 l 1.283808641012717 1.480423465576335 a22.959545422838666,22.959545422838666 0 0,0 -0.3008077899009692,0.2563549244392403 l -1.2581353745347006 -1.5023027802385223" fill="#ff1602" stroke="none" /><path d="M 113.48314897796784 116.09983520530334 l 0.8737698729908289 1.0433431378306566 a22.36089628341205,22.36089628341205 0 0,0 -0.2972187669149666,0.24459081062038698 l -0.8556809775311711 -1.058229067308222" fill="#ff0d01" stroke="none" /><path d="M 113.20401910651253 116.32954008644616 l 2.8287331521413894 3.498322066117664 a25.498887476288946,25.498887476288946 0 0,0 -0.3436794782955695,0.2730397630484193 l -2.7680961811284686 -3.546495743171209" fill="#ff3a05" stroke="none" /><path d="M 112.92097659922987 116.55440617244103 l 0.6900289699484986 0.8840678374078468 a22.121479344663634,22.121479344663634 0 0,0 -0.30219128129564626,0.23170738840021052 l -0.6747089601593586 -0.8958145676354287" fill="#ff0a01" stroke="none" /><path d="M 112.63410532772338 116.77436683061366 l 2.424531017634761 3.2190623417364788 a25.02997680085866,25.02997680085866 0 0,0 -0.34638511659067567,0.2562474283551902 l -2.368760930625521 -3.260319718831438" fill="#ff3304" stroke="none" /><path d="M 112.34349029814194 116.9893568818739 l 1.655459084467251 2.278543953940485 a23.81643521679159,23.81643521679159 0 0,0 -0.3337393348742472,0.2381141541038481 l -1.6159924217441193 -2.3067023698885523" fill="#ff2203" stroke="none" /><path d="M 111.1453310114006 117.79835938074945 l 1.7545424525764715 2.801888709074175 a24.305903742689797,24.305903742689797 0 0,0 -0.35651066272340964,0.21899796725124757 l -1.706052589920753 -2.8316751431538005" fill="#ff2904" stroke="none" /><line stroke="#e1ed5e" stroke-width="0.3" x1="143.8653032363475" x2="146.44561519142675" y1="172.8068346515853" y2="177.08958963109032" /><path d="M 144.38136562736335 173.6633856474863 a86.0,86.0 0 0,1 -40.68145358897372,12.25698825130547" fill="none" id="id30" stroke="none" /><text fill="#e1ed5e" style="font-size:6.75px; font-family:Arial;" text-anchor="middle"><textPath startOffset="21.466115282336833" xlink:href="#id30">June</textPath></text><path d="M 110.8373102113329 117.98757091392108 l 1.7390054379129982 2.886369682529108 a24.369758130387723,24.369758130387723 0 0,0 -0.36117389073542694,0.21338790085103335 l -1.6890636761491893 -2.9158761556738906" fill="#ff2a04" stroke="none" /><path d="M 110.5260780823613 118.17145234162733 l 1.958456757784012 3.3809366944413513 a24.907209465069652,24.907209465069652 0 0,0 -0.3728386670426965,0.21170752563833325 l -1.8999693238201163 -3.414147385874313" fill="#ff3204" stroke="none" /><path d="M 109.57404056367764 118.69057910512821 l 0.47394853976123047 0.9252491270795862 a22.03957354982865,22.03957354982865 0 0,0 -0.3391429556650247,0.17005331846271302 l -0.45795167641344525 -0.9332702864516013" fill="#ff0901" stroke="none" /><path d="M 109.2508944713604 118.85261126421891 l 0.5897862499264072 1.2019390052785783 a22.33884472326417,22.33884472326417 0 0,0 -0.34666411937245906,0.16641984404262136 l -0.5690094625537154 -1.2119131258207596" fill="#ff0d01" stroke="none" /><path d="M 108.92500713936063 119.00905698771935 l 0.46651096309928863 0.9936051976744412 a22.09767197629232,22.09767197629232 0 0,0 -0.34570440301168787,0.15869593569244142 l -0.4493385643201813 -1.001488203700957" fill="#ff0a01" stroke="none" /><path d="M 108.59647513512805 119.15986991738527 l 0.8873168051103127 1.9776564573486966 a23.16759225315191,23.16759225315191 0 0,0 -0.36525289585608495,0.16011613575014938 l -0.853143234596474 -1.9926371463933006" fill="#ff1902" stroke="none" /><path d="M 108.2653958097858 119.30500536409082 l 0.645523656476024 1.5077121456377192 a22.64009045639979,22.64009045639979 0 0,0 -0.35957696794135624,0.15030320176204248 l -0.6194752290372066 -1.5186003904197347" fill="#ff1101" stroke="none" /><path d="M 107.59598834532513 119.57807347666477 l 0.6933063467856811 1.7869435789171302 a22.916726648410375,22.916726648410375 0 0,0 -0.36899179631067275,0.13952112399177477 l -0.6624443297147335 -1.798612953015536" fill="#ff1502" stroke="none" /><path d="M 107.2578585660854 119.70592522655815 l 0.16882363065996175 0.45837567816585756 a21.488476898740586,21.488476898740586 0 0,0 -0.3481956362143448,0.12485056693911194 l -0.16090843381588216 -0.46121378614492964" fill="#ff0100" stroke="none" /><path d="M 106.2309692047433 120.05430185196036 l 0.17041950039165235 0.5484931781901283 a21.57435840085686,21.57435840085686 0 0,0 -0.35559168347294656,0.10713685726734029 l -0.16095284247845998 -0.5513454045631943" fill="#ff0200" stroke="none" /><path d="M 105.88484417918355 120.15858648285463 l 0.1772598018929172 0.6072050402000283 a21.632549601384298,21.632549601384298 0 0,0 -0.3583471314644158,0.10127247878459188 l -0.16678150232389566 -0.6101663123231391" fill="#ff0300" stroke="none" /><path d="M 104.83641907484287 120.43548508189849 l 0.13154712797583445 0.5558305286859571 a21.57118492933375,21.57118492933375 0 0,0 -0.36206704958621455,0.08240528169671335 l -0.12195992899675782 -0.5580125439603548" fill="#ff0200" stroke="none" /><line stroke="#e1ed5e" stroke-width="0.3" x1="102.19456741930631" x2="102.32365962044197" y1="184.97166512339345" y2="189.96999836594603" /><path d="M 102.22038585953345 185.97133177190398 a86.0,86.0 0 0,1 -42.740103519485714,-10.115201625700543" fill="none" id="id31" stroke="none" /><text fill="#e1ed5e" style="font-size:6.75px; font-family:Arial;" text-anchor="middle"><textPath startOffset="22.20632615414155" xlink:href="#id31">July</textPath></text><path d="M 99.45781275523022 120.99299961872073 l -0.02697063761245804 1.0442786889156723 a22.044626916854366,22.044626916854366 0 0,0 -0.3792511933326116,-0.013062177921332265 l 0.04494218261971267 -1.0436597125682463" fill="#ff0901" stroke="none" /><path d="M 99.09653310690486 120.98055641714683 l -0.025898328492966558 0.6014180997767551 a21.60197545976378,21.60197545976378 0 0,0 -0.3713605184197015,-0.01919509697130308 l 0.03624691532615702 -0.6008831960432501" fill="#ff0200" stroke="none" /><path d="M 98.73552117531835 120.96189622390904 l -0.031219177052887844 0.5175358707515214 a21.518476628721483,21.518476628721483 0 0,0 -0.369541143029773,-0.025485720821139538 l 0.04012308086159087 -0.5169218054140967" fill="#ff0100" stroke="none" /><path d="M 98.37488393609728 120.93702456842531 l -0.04682101556534818 0.6032139949783923 a21.605028372257337,21.605028372257337 0 0,0 -0.37053208255350906,-0.031971067200408966 l 0.05719741586039893 -0.60231867549932" fill="#ff0200" stroke="none" /><path d="M 97.2962882734958 120.8252237178851 l -0.08586836219044658 0.6613973802660361 a21.666948176583492,21.666948176583492 0 0,0 -0.36944355515577015,-0.05120151036724608 l 0.09724050853304778 -0.6598213044061851" fill="#ff0300" stroke="none" /><path d="M 96.93821686468263 120.77559828337769 l -0.19704133420228553 1.3370155310438518 a22.35145692407738,22.35145692407738 0 0,0 -0.3801494671133108,-0.059371528594442335 l 0.22002666492411346 -1.3334256951023038" fill="#ff0d01" stroke="none" /><path d="M 96.58105272829116 120.7198165907248 l -0.1940302601569458 1.1758799080551885 a22.1917807264864,22.1917807264864 0 0,0 -0.3763631205049938,-0.06543555274924648 l 0.21424235213398954 -1.1723657767849358" fill="#ff0b01" stroke="none" /><path d="M 96.22490169976321 120.6578951692458 l -0.09604869379158003 0.525592630889901 a21.53429670149163,21.53429670149163 0 0,0 -0.36406536792625965,-0.06977399424594438 l 0.10508167628953473 -0.5238614382954885" fill="#ff0100" stroke="none" /><path d="M 94.81253420990036 120.34920634021253 l -0.5109684093707076 2.004408706744454 a23.068512262242553,23.068512262242553 0 0,0 -0.3839364526559107,-0.10140110669054245 l 0.5453953048381076 -1.9953162507503297" fill="#ff1802" stroke="none" /><path d="M 93.76903079525671 120.05430185196036 l -0.5928988217860479 1.908237956098022 a22.998224489382622,22.998224489382622 0 0,0 -0.3770379901191068,-0.12071565796884141 l 0.6256581569960952 -1.897749451469474" fill="#ff1702" stroke="none" /><path d="M 93.42475214034765 119.94407469862007 l -0.41521424318518496 1.2594299194151086 a22.326109569252026,22.326109569252026 0 0,0 -0.36394776434832404,-0.12347084188372205 l 0.43683174047073475 -1.2520960906332637" fill="#ff0d01" stroke="none" /><path d="M 93.08242187328487 119.8279376855182 l -2.5071076909906993 7.1861530375592 a28.61093847389703,28.61093847389703 0 0,0 -0.4636067959377876,-0.16623290268355495 l 2.6304340475582135 -7.141932593835688" fill="#ff6509" stroke="none" /><path d="M 91.07499286063937 119.00905698771935 l -0.24618247951218244 0.5243353545104693 a21.579252429609394,21.579252429609394 0 0,0 -0.33487642861117617,-0.1607610361404199 l 0.2551715761236007 -0.520020041870487" fill="#ff0200" stroke="none" /><path d="M 90.7491055286396 118.85261126421891 l -0.8917335653718185 1.8172844054439439 a23.024280455342215,23.024280455342215 0 0,0 -0.3542955360742871,-0.17765113684232647 l 0.922883009128866 -1.8016654276923152" fill="#ff1702" stroke="none" /><path d="M 90.10565033884886 118.52300852407294 l -1.2977877317720643 2.429561723741878 a23.75445514870177,23.75445514870177 0 0,0 -0.3590058181279744,-0.1957585964683906 l 1.3394163617686792 -2.4068624755137216" fill="#ff2103" stroke="none" /><line stroke="#e1ed5e" stroke-width="0.3" x1="58.666819895761336" x2="56.23545636021788" y1="174.27360380694188" y2="178.64263932499728" /><path d="M 58.180547188652646 175.14741091055294 a86.0,86.0 0 0,1 -31.652253787137756,-30.449443065178592" fill="none" id="id32" stroke="none" /><text fill="#e1ed5e" style="font-size:6.75px; font-family:Arial;" text-anchor="middle"><textPath startOffset="22.20632615414155" xlink:href="#id32">August</textPath></text><path d="M 87.95078237400918 117.19931262002967 l -0.9469382616169599 1.351680059150585 a22.65037300439006,22.65037300439006 0 0,0 -0.3173993232962523,-0.2264559896971659 l 0.9700649127620992 -1.3351798076091999" fill="#ff1201" stroke="none" /><path d="M 87.36589467227662 116.77436683061367 l -1.1227707856669213 1.490708565183938 a22.86623317499713,22.86623317499713 0 0,0 -0.3123650183559925,-0.2395081761476795 l 1.1482645325164007 -1.4711610472088918" fill="#ff1502" stroke="none" /><path d="M 87.07902340077011 116.55440617244103 l -1.7220515516955923 2.2062992388942395 a23.79878864479662,23.79878864479662 0 0,0 -0.32076518134823345,-0.25483525971307414 l 1.759774225761184 -2.176330065176035" fill="#ff2203" stroke="none" /><path d="M 85.97065885151581 115.62618273729859 l -4.12751557130784 4.597315860073039 a27.178324846482887,27.178324846482887 0 0,0 -0.34542414982202196,-0.31553677093487215 l 4.206039270596717 -4.52558632255159" fill="#ff5107" stroke="none" /><path d="M 85.70375840098266 115.38237550388516 l -0.3901271659799174 0.4197664483917305 a21.573064635822984,21.573064635822984 0 0,0 -0.2698319534381628,-0.2551429540371281 l 0.3972949538088971 -0.4129888576086716" fill="#ff0200" stroke="none" /><path d="M 85.44109423537348 115.13401014063109 l -2.164805162182515 2.250319069758823 a24.122549808398944,24.122549808398944 0 0,0 -0.2967648519912925,-0.2904468683951838 l 2.2032199665496015 -2.2127220984410694" fill="#ff2603" stroke="none" /><path d="M 85.18274418774928 114.88116024355367 l -0.3787630350062963 0.38039657880532013 a21.536808153676873,21.536808153676873 0 0,0 -0.2604511589050797,-0.26383564889752886 l 0.3852548189669093 -0.3738204359271266" fill="#ff0100" stroke="none" /><path d="M 84.9287848128048 114.62390073753433 l -0.8786708850963432 0.8525918875823382 a22.22432652960197,22.22432652960197 0 0,0 -0.26403923186431055,-0.2768440789947913 l 0.8932166683396111 -0.8373406920050467" fill="#ff0b01" stroke="none" /><path d="M 84.19399662182784 113.82643327865904 l -0.899037027353719 0.78644013773377 a22.194468780166197,22.194468780166197 0 0,0 -0.24906156257826978,-0.2897148649803814 l 0.9124410995027675 -0.7708481735918582" fill="#ff0b01" stroke="none" /><path d="M 83.95833913139862 113.55231037782056 l -2.4408121228179365 2.0620460520469637 a24.195246115662684,24.195246115662684 0 0,0 -0.2660371005555662,-0.3204588256396939 l 2.475945223267039 -2.019725969293509" fill="#ff2803" stroke="none" /><path d="M 83.72743513129214 113.27417163493432 l -0.9659905048345414 0.7879964751929587 a22.246625886281453,22.246625886281453 0 0,0 -0.23950303000499482,-0.2988168552055895 l 0.9794114468943972 -0.7712517864091095" fill="#ff0c01" stroke="none" /><path d="M 83.50135304334701 112.99209946851258 l -2.6040085826594424 2.050564425777325 a24.314464536365946,24.314464536365946 0 0,0 -0.25610446659224695,-0.33104954629999683 l 2.6389198664697577 -2.0054368853640754" fill="#ff2904" stroke="none" /><path d="M 83.28015986056508 112.70617746262583 l -1.0047278562818371 0.7635390253194198 a22.261931023619923,22.261931023619923 0 0,0 -0.22923294121280766,-0.30709498546642183 l 1.01772206418973 -0.7461311603436899" fill="#ff0c01" stroke="none" /><path d="M 83.06392112726016 112.41649034213515 l -2.7746844803911155 2.034227834679132 a24.440487879517477,24.440487879517477 0 0,0 -0.24582499639776811,-0.3414294195347238 l 2.809289269164491 -1.9861648096932703" fill="#ff2b04" stroke="none" /><path d="M 82.85270091963577 112.12312394758628 l -5.943986479140904 4.202392720374218 a28.279497224428628,28.279497224428628 0 0,0 -0.27759570970260333,-0.39989732389296223 l 6.015443096005641 -4.099454134294243" fill="#ff6008" stroke="none" /><path d="M 82.6465618267979 111.8261652097733 l -0.997746206437989 0.6799523735291563 a22.20740743857628,22.20740743857628 0 0,0 -0.21255333009678468,-0.3177383888801541 l 1.009302641945504 -0.6626770704431812" fill="#ff0b01" stroke="none" /><path d="M 82.44556493220864 111.52570212397912 l -2.5692279317239155 1.6868760353324488 a24.073513124053527,24.073513124053527 0 0,0 -0.22445127576754975,-0.3483533644003525 l 2.5978840708685107 -1.642401071010648" fill="#ff2603" stroke="none" /><path d="M 82.24976979558568 111.22182372390057 l -3.31135891943218 2.0934650228475657 a24.91761326513851,24.91761326513851 0 0,0 -0.22608030581369942,-0.3645134385081956 l 3.3469038649138354 -2.036155252974106" fill="#ff3204" stroke="none" /><path d="M 82.05923443525364 110.91462005526583 l -0.997661310068851 0.606947017056917 a22.167781131515056,22.167781131515056 0 0,0 -0.19551890518535606,-0.32770093131707184 l 1.0079610909524388 -0.5896839918537341" fill="#ff0b01" stroke="none" /><line stroke="#e1ed5e" stroke-width="0.3" x1="26.63291911575756" x2="22.317208475507996" y1="142.92168965132927" y2="145.44649492493687" /><path d="M 25.769776987707644 143.4266507060508 a86.0,86.0 0 0,1 -11.730757126820373,-40.83630448921669" fill="none" id="id33" stroke="none" /><text fill="#e1ed5e" style="font-size:6.75px; font-family:Arial;" text-anchor="middle"><textPath startOffset="21.46611528233685" xlink:href="#id33">September</textPath></text><path d="M 81.87401531095188 110.60418214915194 l -3.2022841052933484 1.8734211977119333 a24.71003106119758,24.71003106119758 0 0,0 -0.21162141720805433,-0.3689797785245886 l 3.23405751865378 -1.818021573329038" fill="#ff2f04" stroke="none" /><path d="M 81.69416730710424 110.29060199501025 l -1.7505559479686847 0.9840729363562193 a23.008194629770056,23.008194629770056 0 0,0 -0.19110342473156322,-0.3469082256298141 l 1.7672357821517646 -0.9537941923285826" fill="#ff1702" stroke="none" /><path d="M 80.73074385275274 108.34839909993369 l -1.1792484602945306 0.5109090205294431 a22.28516728808563,22.28516728808563 0 0,0 -0.14946875935676984,-0.35329999476166235 l 1.187868200843607 -0.49053450010162186" fill="#ff0c01" stroke="none" /><path d="M 80.45479744820244 107.68017299344265 l -1.766219670475635 0.6940256862381095 a22.897683740124613,22.897683740124613 0 0,0 -0.14099054722175267,-0.36808182879874596 l 1.7779044972908968 -0.6635202906062057" fill="#ff1502" stroke="none" /><path d="M 80.32549172779594 107.34259656027581 l -1.017149967371837 0.37960399052313565 a22.085676400105307,22.085676400105307 0 0,0 -0.12985929593821324,-0.3573170100736089 l 1.0235335243152746 -0.36203918344340963" fill="#ff0901" stroke="none" /><path d="M 80.20201598880116 107.00284435728193 l -1.1683145359563467 0.41325040221390397 a22.239247654771575,22.239247654771575 0 0,0 -0.12454949700597334,-0.36199913862658384 l 1.1752548639055487 -0.3930785604980232" fill="#ff0c01" stroke="none" /><path d="M 80.0844068197444 106.66101706037122 l -2.191932855847223 0.7331191200702757 a23.311283904836266,23.311283904836266 0 0,0 -0.12400243099668558,-0.3816402404482112 l 2.2042275378601577 -0.6952799796442611" fill="#ff1b02" stroke="none" /><path d="M 79.67330655649465 105.27499134158121 l -7.066181346521122 1.8337485889940033 a28.300243332215754,28.300243332215754 0 0,0 -0.1183067222507264,-0.47257654642322156 l 7.096699383066907 -1.7118442031733898" fill="#ff6008" stroke="none" /><path d="M 79.50377843672027 104.57218783832718 l -1.2264310561745837 0.27358570174877145 a22.256575613224637,22.256575613224637 0 0,0 -0.0801935804036577,-0.37463770982829186 l 1.2309586753026822 -0.25243417250431577" fill="#ff0c01" stroke="none" /><path d="M 79.35854240842038 103.8639653848113 l -2.793430349695776 0.5229145339285016 a23.841952274123393,23.841952274123393 0 0,0 -0.07204079492249521,-0.40404303620353005 l 2.80201758695746 -0.47475274699175796" fill="#ff2303" stroke="none" /><path d="M 79.29508885075956 103.50808413554451 l -1.205595868173291 0.20426707985037096 a22.22277816355507,22.22277816355507 0 0,0 -0.060655745597771114,-0.3777033857377574 l 1.2089333681323529 -0.18348446441939986" fill="#ff0b01" stroke="none" /><path d="M 79.23777060512086 103.15116336523772 l -2.39689793402511 0.3637864131188537 a23.424347388577743,23.424347388577743 0 0,0 -0.057072807783496715,-0.39916708470983925 l 2.402804792825206 -0.32247385642861387" fill="#ff1d02" stroke="none" /><path d="M 79.1416061653843 102.43462659150553 l -0.6265514885722214 0.07313213697661537 a21.630805102461,21.630805102461 0 0,0 -0.039983717655087604,-0.3701995673532336 l 0.6277175077283609 -0.062336247738599644" fill="#ff0300" stroke="none" /><path d="M 79.10278846688536 102.07522291339032 l -3.2652912811260877 0.3242637073730432 a24.28135248068801,24.28135248068801 0 0,0 -0.037723282267670695,-0.41627327639333933 l 3.2703891596708337 -0.26800904243113777" fill="#ff2904" stroke="none" /><path d="M 79.07016306316243 101.71520430193888 l -1.1093614670385477 0.09091239298289767 a22.11308037793674,22.11308037793674 0 0,0 -0.027823984862726126,-0.37963616719297905 l 1.110762010565609 -0.071803089293158" fill="#ff0a01" stroke="none" /><path d="M 79.04373962182676 101.35467743843564 l -2.343548510527281 0.15149421871076713 a23.34843993312527,23.34843993312527 0 0,0 -0.022474151053892315,-0.4012910643480016 l 2.345809012468705 -0.11113143802732792" fill="#ff1b02" stroke="none" /><path d="M 79.0235259727143 100.99374915477108 l -0.6058229693326785 0.028700536750463405 a21.606502424546537,21.606502424546537 0 0,0 -0.014402140499476614,-0.3716552518187359 l 0.6062272426833559 -0.01826803791773074" fill="#ff0200" stroke="none" /><path d="M 79.0095281055655 100.63252640178507 l -0.6843717026686379 0.020622841294353916 a21.684682356276706,21.684682356276706 0 0,0 -0.008031528574411669,-0.3731935735673575 l 0.684625293928057 -0.008839451936867576" fill="#ff0400" stroke="none" /><line stroke="#e1ed5e" stroke-width="0.3" x1="15.007084014347285" x2="10.007500721073583" y1="101.09737516637583" y2="101.16192664675087" /><path d="M 14.007167355692545 101.11028546245083 a86.0,86.0 0 0,1 10.666146001902534,-42.60595125391555" fill="none" id="id34" stroke="none" /><text fill="#e1ed5e" style="font-size:6.75px; font-family:Arial;" text-anchor="middle"><textPath startOffset="22.20632615414155" xlink:href="#id34">October</textPath></text><path d="M 79.12142395522702 97.74499172005258 l -0.43184467641603613 -0.04664174984352798 a21.43435616419862,21.43435616419862 0 0,0 0.04277649049699581,-0.3664828474157434 l 0.4309778329154514 0.05406833558413315" fill="#ff0000" stroke="none" /><path d="M 79.16333360222342 97.38593545837743 l -0.8875782644691251 -0.11135115496743825 a21.89453577640618,21.89453577640618 0 0,0 0.05013223232861928,-0.3735433608426398 l 0.885530033082672 0.12661285787473744" fill="#ff0701" stroke="none" /><path d="M 79.21141760316559 97.0276538004421 l -1.0188687342673448 -0.14567759130170743 a22.029230517559117,22.029230517559117 0 0,0 0.05690266322117392,-0.37491745429975437 l 1.0162101776068686 0.16319415799355388" fill="#ff0901" stroke="none" /><path d="M 79.32604984820605 96.31383870115002 l -0.6220681580083043 -0.11091463181738073 a21.631878824426828,21.631878824426828 0 0,0 0.06851565526077828,-0.3660133700948573 l 0.6200667788376644 0.12160607937481073" fill="#ff0300" stroke="none" /><path d="M 79.3925641242962 95.95851677861259 l -1.2381377923847328 -0.242820753822564 a22.261723864963447,22.261723864963447 0 0,0 0.07698390767712447,-0.3754008741119859 l 1.2337745887926137 0.2640972840979524" fill="#ff0c01" stroke="none" /><path d="M 79.46518482838121 95.60439243477599 l -2.6809345366756996 -0.5738710591157001 a23.741667007940812,23.741667007940812 0 0,0 0.08898106930730866,-0.3988846862703343 l 2.6706590803663537 0.6199339149359937" fill="#ff2103" stroke="none" /><path d="M 79.62865764111835 94.90015583598534 l -1.399610242479823 -0.35038408374173086 a22.442802078247034,22.442802078247034 0 0,0 0.09704232151492953,-0.3739436508513345 l 1.393371589094586 0.3744241601419292" fill="#ff0f01" stroke="none" /><path d="M 79.71946130924805 94.55025226153421 l -0.657104001840055 -0.1765757361069329 a21.680415064365803,21.680415064365803 0 0,0 0.09995004751633214,-0.35957350019544226 l 0.6539671837573622 0.18786053972131772" fill="#ff0400" stroke="none" /><path d="M 79.81627453868168 94.20196356495316 l -0.4845691260991891 -0.13919875465044104 a21.504166174256827,21.504166174256827 0 0,0 0.10526197477350036,-0.3548910504055484 l 0.48210125421398187 0.14751919180252865" fill="#ff0100" stroke="none" /><path d="M 80.02781315780177 93.51064311812611 l -1.8999615933892944 -0.6173349437782377 a22.99773784295239,22.99773784295239 0 0,0 0.12557061229524966,-0.3754401478335836 l 1.8890536873222723 0.6499481945341435" fill="#ff1602" stroke="none" /><path d="M 80.14247586403 93.16781622104843 l -3.211619882454404 -1.1049905876894701 a24.396396100024077,24.396396100024077 0 0,0 0.14004335186673714,-0.39592141416784643 l 3.1921234497778577 1.1601096282839276" fill="#ff2a04" stroke="none" /><path d="M 80.38941819471856 92.48833698450439 l -1.055093130933846 -0.40414425886154914 a22.12984693517066,22.12984693517066 0 0,0 0.13931945261716433,-0.3545528106115528 l 1.0479801284349908 0.4222460743688654" fill="#ff0a01" stroke="none" /><path d="M 80.52162464483688 92.15188598940014 l -1.1119381298766395 -0.4480156613108851 a22.19880125018845,22.19880125018845 0 0,0 0.1458549118880725,-0.3531992382447993 l 1.1040615311023674 0.46708947000899576" fill="#ff0b01" stroke="none" /><path d="M 80.65960295795068 91.81776055985345 l -0.6184967407228352 -0.26166414342692507 a21.671570057581572,21.671570057581572 0 0,0 0.14830504521760296,-0.34230849172625 l 0.6139009856625515 0.2722717797397743" fill="#ff0300" stroke="none" /><path d="M 80.803312248108 91.48605970444005 l -1.1425833233200666 -0.5067481600564523 a22.24991613656666,22.24991613656666 0 0,0 0.1582898056458473,-0.3487706046317811 l 1.1336912007108675 0.5263407735303044" fill="#ff0c01" stroke="none" /><path d="M 80.95270993114464 91.15688171328213 l -1.5957562260209266 -0.7408645015882608 a22.759351625627513,22.759351625627513 0 0,0 0.16803099919180753,-0.35391613754536416 l 1.5827670329873675 0.7682230547741571" fill="#ff1302" stroke="none" /><path d="M 81.10775173730289 90.83032412892265 l -10.590725377707114 -5.14038973036993 a32.772300990295065,32.772300990295065 0 0,0 0.2506924765032313,-0.5053807351682402 l 10.50067288825047 5.321930054037132" fill="#ff9c0e" stroke="none" /><path d="M 81.43458229118936 90.18545643968196 l -1.1058017462480523 -0.5845782506943952 a22.250811429908666,22.250811429908666 0 0,0 0.1819182908729701,-0.33706696438748196 l 1.0955753561566104 0.6035261984143498" fill="#ff0c01" stroke="none" /><path d="M 81.6062741919709 89.86733742301443 l -1.0411451235289604 -0.5735418881686213 a22.1886687788161,22.1886687788161 0 0,0 0.18716919638383267,-0.3329531154666743 l 1.031118285852697 0.5913785135700801" fill="#ff0b01" stroke="none" /><line stroke="#e1ed5e" stroke-width="0.3" x1="26.266209847984243" x2="21.928928074336255" y1="57.711370442889674" y2="55.22380399835377" /><path d="M 25.398753493254645 57.213857153982495 a86.0,86.0 0 0,1 29.58750427330803,-30.492523968695096" fill="none" id="id35" stroke="none" /><text fill="#e1ed5e" style="font-size:6.75px; font-family:Arial;" text-anchor="middle"><textPath startOffset="21.46611528233685" xlink:href="#id35">November</textPath></text><path d="M 81.78341655067845 89.55222093294921 l -1.0361960714362302 -0.5942907820574285 a22.194522428461813,22.194522428461813 0 0,0 0.19292358805081394,-0.3297689490787325 l 1.025812808915091 0.6120391434900527" fill="#ff0b01" stroke="none" /><path d="M 81.96595687620814 89.24020034530311 l -1.185987814577117 -0.7076056761185365 a22.381040509616057,22.381040509616057 0 0,0 0.20024018712728825,-0.3291422180251143 l 1.1736318291636119 0.7279156673507253" fill="#ff0e01" stroke="none" /><path d="M 82.15384107792192 88.93136811851018 l -1.0008116403686678 -0.6207282854713497 a22.177678879780743,22.177678879780743 0 0,0 0.20400550185201866,-0.3226877119026556 l 0.9899785422706864 0.6378636450882209" fill="#ff0b01" stroke="none" /><path d="M 82.54541684631803 88.32363383020206 l -11.434070512705633 -7.648901892536872 a34.75658637348592,34.75658637348592 0 0,0 0.33693288773871305,-0.4944074374219165 l 11.300713159298178 7.844587353229205" fill="#ffb610" stroke="none" /><path d="M 82.7489923806493 88.02491185347247 l -0.9819049963583764 -0.6816064975658451 a22.195292783964465,22.195292783964465 0 0,0 0.22056559541768717,-0.31197439272397354 l 0.9700267811368111 0.6984073906216048" fill="#ff0b01" stroke="none" /><path d="M 82.95767976084542 87.72973835380427 l -0.9882251509665547 -0.7115099938007284 a22.217717298998902,22.217717298998902 0 0,0 0.22613127863803234,-0.3084428099308365 l 0.9758312598148889 0.7284152474030656" fill="#ff0b01" stroke="none" /><path d="M 83.17141714833178 87.43820079747576 l -1.9961589094081276 -1.490045098707105 a23.490960615463543,23.490960615463543 0 0,0 0.24466848923094062,-0.32195505210998177 l 1.9702144799530783 1.5241849266981133" fill="#ff1e03" stroke="none" /><path d="M 83.39014120810768 87.1503855733568 l -1.0502224352063148 -0.8124664708888818 a22.32780605877866,22.32780605877866 0 0,0 0.237786795920717,-0.30196508319211257 l 1.0360815586916268 0.8304239480340421" fill="#ff0d01" stroke="none" /><path d="M 83.6137871275137 86.86637796730984 l -0.5089197195184729 -0.4079014042568183 a21.65221379662611,21.65221379662611 0 0,0 0.2355982620196859,-0.28881561178406007 l 0.5018229654223946 0.41660118564896065" fill="#ff0300" stroke="none" /><path d="M 83.84228863543731 86.58626213691792 l -1.7237749815636836 -1.431035944134171 a23.240371411277348,23.240371411277348 0 0,0 0.25817771375563187,-0.3056009796437901 l 1.6988866543209273 1.460495873407077" fill="#ff1a02" stroke="none" /><path d="M 84.07557802195018 86.31012108654704 l -2.4257285143298635 -2.085345997729758 a24.19887898418813,24.19887898418813 0 0,0 0.2742633376443764,-0.31353040613929123 l 2.3894733131076435 2.1267919600719924" fill="#ff2803" stroke="none" /><path d="M 84.31358615837235 86.03803664274999 l -0.41057490654102996 -0.365439281304681 a21.549652273898378,21.549652273898378 0 0,0 0.2490076269892547,-0.274960441052445 l 0.4042236389357303 0.372452509626682" fill="#ff0200" stroke="none" /><path d="M 84.5562425177563 85.77008943001954 l -0.4044525547830497 -0.3726634331690357 a21.54996354742098,21.54996354742098 0 0,0 0.2537073904413306,-0.2706373548865761 l 0.39797784237126316 0.37957020493366195" fill="#ff0200" stroke="none" /><path d="M 84.80347519578584 85.50635884689758 l -0.8701314546973061 -0.829885333843727 a22.20243021243753,22.20243021243753 0 0,0 0.2661497674813377,-0.27429073061457 l 0.8557174235128501 0.8447402600084206" fill="#ff0b01" stroke="none" /><path d="M 85.31137513191541 84.99185889309783 l -0.4237257204389122 -0.4329428697432752 a21.60579123022954,21.60579123022954 0 0,0 0.2680319357374504,-0.2578465098180001 l 0.41621054108903427 0.4401724663235889" fill="#ff0200" stroke="none" /><path d="M 86.10567301691215 84.25364557470407 l -0.42157583602104715 -0.47776927512991163 a21.637173183502732,21.637173183502732 0 0,0 0.28139267505563476,-0.24402095491878 l 0.4132893623186389 0.4849552234683722" fill="#ff0300" stroke="none" /><path d="M 86.37877921826538 84.01681056812374 l -0.7445286359061133 -0.8736325778597664 a22.147848757799615,22.147848757799615 0 0,0 0.2922909217044616,-0.24478524109058006 l 0.7293801772425413 0.8863189763441589" fill="#ff0a01" stroke="none" /><path d="M 86.93701828274178 83.55741782278169 l -0.6564080927662181 -0.8262312725157072 a22.055239167171077,22.055239167171077 0 0,0 0.2992869119436428,-0.23359818198234666 l 0.6420886256631497 0.8374078437212755" fill="#ff0901" stroke="none" /><path d="M 87.51073957382395 83.11751280151077 l -1.0411115777376199 -1.4073333635125325 a22.750571481932347,22.750571481932347 0 0,0 0.3168338659771048,-0.23019327794471808 l 1.0167323954067333 1.4250458762739184" fill="#ff1302" stroke="none" /><path d="M 87.80319425747018 82.90503203632743 l -4.010217850423883 -5.6206966912080025 a27.904641808407945,27.904641808407945 0 0,0 0.39341407145435664,-0.2756116984907998 l 3.912872639385866 5.688893232462744" fill="#ff5b08" stroke="none" /><path d="M 88.39885842347998 82.49532879139004 l -0.6468991574376164 -0.9760898943765027 a22.170995303917753,22.170995303917753 0 0,0 0.3199306022985142,-0.20809176318362316 l 0.630001529354815 0.9870805817196608" fill="#ff0b01" stroke="none" /><path d="M 88.70189139769569 82.29822771554957 l -0.3775818795314541 -0.5915918040332327 a21.701818308645336,21.701818308645336 0 0,0 0.31662007087935,-0.19826745933786874 l 0.3673426562798619 0.5980036046940317" fill="#ff0400" stroke="none" /><path d="M 89.00827224532344 82.1063720568725 l -0.3270546015720327 -0.5324179681513556 a21.624846865415726,21.624846865415726 0 0,0 0.3188510905603367,-0.19210421441340256 l 0.3178414447940468 0.5379687920233774" fill="#ff0300" stroke="none" /><line stroke="#e1ed5e" stroke-width="0.3" x1="56.762969772571076" x2="54.21961505331055" y1="26.818313649435495" y2="22.513508569990535" /><path d="M 56.25429882871897 25.957352633546506 a86.0,86.0 0 0,1 42.265352541879196,-11.944610805530505" fill="none" id="id36" stroke="none" /><text fill="#e1ed5e" style="font-size:6.75px; font-family:Arial;" text-anchor="middle"><textPath startOffset="22.20632615414155" xlink:href="#id36">December</textPath></text><path d="M 89.3179101791058 81.91981866633112 l -0.3028565424458102 -0.5126058006737354 a21.595387934196346,21.595387934196346 0 0,0 0.321671805214077,-0.18633307205835786 l 0.293988004766413 0.5177430301221404" fill="#ff0200" stroke="none" /><path d="M 90.26544431104013 81.39251694778311 l -0.5543347055510949 -1.0596039478715809 a22.19584593159966,22.19584593159966 0 0,0 0.3400609832184665,-0.174192443644745 l 0.5360132347438646 1.068988916828831" fill="#ff0b01" stroke="none" /><path d="M 90.58718382345135 81.22770947309562 l -0.5276666578068153 -1.052343062471469 a22.177224712148384,22.177224712148384 0 0,0 0.3427212684313612,-0.16817183799714133 l 0.5094741223650281 1.06127006060344" fill="#ff0b01" stroke="none" /><path d="M 90.91171255644093 81.06846463323043 l -0.2506173148447037 -0.522053311910798 a21.579092996829527,21.579092996829527 0 0,0 0.33624520995022145,-0.1578716346276569 l 0.24159389359487374 0.5262899291784624" fill="#ff0200" stroke="none" /><path d="M 91.23893434514133 80.91482961587045 l -0.5095359411005261 -1.1099768722025642 a22.22134169342481,22.22134169342481 0 0,0 0.3489998020072053,-0.15658603806058471 l 0.4903540206265464 1.1185832407796779" fill="#ff0b01" stroke="none" /><path d="M 91.56875222667455 80.76684994638697 l -0.5165387674762892 -1.178315225749957 a22.28656094668698,22.28656094668698 0 0,0 0.35267553264668033,-0.15099725769432185 l 0.49617947703930065 1.187032011407065" fill="#ff0c01" stroke="none" /><path d="M 91.90106846888425 80.62456947434976 l -0.7969912497927125 -1.9066772611402072 a23.066546208144224,23.066546208144224 0 0,0 0.36765452803575477,-0.14997551324121836 l 0.7640528521685773 1.9201136605650027" fill="#ff1702" stroke="none" /><path d="M 92.57280143429618 80.3572730644239 l -0.22541536700302706 -0.596156472989564 a21.637349690490602,21.637349690490602 0 0,0 0.3495129256406589,-0.12872856017437037 l 0.21512011558979874 0.5999483009702568" fill="#ff0300" stroke="none" /><path d="M 93.25333710446033 80.11325718540243 l -0.18422323270724536 -0.5430240262552345 a21.5734224381375,21.5734224381375 0 0,0 0.35269173838255463,-0.11627692098833628 l 0.17484867208228141 0.5461146715028046" fill="#ff0200" stroke="none" /><path d="M 94.63758080256005 79.69619591428918 l -0.6586149402743419 -2.493723116916415 a23.579230238539377,23.579230238539377 0 0,0 0.39331403639096313,-0.10026450537838609 l 0.6155920151983794 2.5046906184636644" fill="#ff1f03" stroke="none" /><path d="M 94.98787191387505 79.60689891045804 l -0.27864189182785 -1.1337244719577388 a22.167464124586814,22.167464124586814 0 0,0 0.3713327999589261,-0.08788247646868767 l 0.25908540490638987 1.1383528605672975" fill="#ff0b01" stroke="none" /><path d="M 95.33964822691252 79.52364482259891 l -0.12330222584358994 -0.5417574237888064 a21.555611865539486,21.555611865539486 0 0,0 0.36250100788752215,-0.07922867982400901 l 0.11395849380254684 0.5437996017086837" fill="#ff0200" stroke="none" /><path d="M 96.04723909329186 79.375362276772 l -0.7360606909396996 -3.840602923181338 a24.91050075492841,24.91050075492841 0 0,0 0.4218236002010763,-0.07708556670814977 l 0.6698419696357301 3.8527039712402242" fill="#ff3204" stroke="none" /><path d="M 96.40284397218896 79.31037775812273 l -0.29929015148078175 -1.721415509079188 a22.74723952269623,22.74723952269623 0 0,0 0.3863464751766181,-0.0637504787484804 l 0.269614470165278 1.7263122507672954" fill="#ff1302" stroke="none" /><path d="M 96.75951476605007 79.25152402106235 l -0.39611507906845134 -2.536281948407041 a23.567028102238233,23.567028102238233 0 0,0 0.40134763278429264,-0.05914820823435271 l 0.3523984658555099 2.542724640802363" fill="#ff1f03" stroke="none" /><path d="M 97.47563105711357 79.15227682838746 l -0.2345358930774427 -1.9369353225739747 a22.951083168134147,22.951083168134147 0 0,0 0.39260920307197406,-0.04411421851898717 l 0.20115998649575065 1.9406854945635603" fill="#ff1602" stroke="none" /><path d="M 97.83486435360386 79.11191278185805 l -0.062222726412020084 -0.6002920594874624 a21.603508263709656,21.603508263709656 0 0,0 0.3702171328955972,-0.03515657768924166 l 0.051880466426186524 0.6012741816918847" fill="#ff0200" stroke="none" /></svg>