<?xml version="1.0" encoding="utf-8" ?>
<svg baseProfile="full" height="200mm" version="1.1" viewBox="0,0,200,200" width="200mm" xmlns="http://www.w3.org/2000/svg" xmlns:ev="http://www.w3.org/2001/xml-events" xmlns:xlink="http://www.w3.org/1999/xlink"><defs /><rect fill="#1a1a1a" height="200" width="200" x="0" y="0" /><text alignment-baseline="middle" fill="#e1ed5e" style="dominant-baseline: central; font-size:9.0px; font-family:Arial;" text-anchor="middle" x="100.0" y="100.0">2023</text><line stroke="#e1ed5e" stroke-width="0.3" x1="100.0" x2="100.0" y1="15.0" y2="10.0" /><path d="M 100.0 14.0 a86.0,86.0 0 0,1 42.46469731375804,11.215312516191453" fill="none" id="id97" stroke="none" /><text fill="#e1ed5e" style="font-size:6.75px; font-family:Arial;" text-anchor="middle"><textPath startOffset="22.20632615414155" xlink:href="#id97">January</textPath></text><path d="M 101.08401301168833 79.027996857942 l 0.017239119751260863 -0.33351894275389476 a21.333964178356712,21.333964178356712 0 0,0 0.36657637734511184,0.022112888158120615 l -0.022977545935984604 0.33317278521547006" fill="#ff0000" stroke="none" /><path d="M 102.88285421437855 79.19881850522331 l 0.2353331956689914 -1.6980423395817519 a22.71427229458918,22.71427229458918 0 0,0 0.3868251599778602,0.05700797324735876 l -0.26452733607550744 1.6937398821734242" fill="#ff1402" stroke="none" /><path d="M 103.2404852339499 79.25152402106235 l 0.14198634135680052 -0.909123165294559 a21.920144038076153,21.920144038076153 0 0,0 0.3722988178862297,0.06143249493059466 l -0.1576143653819054 0.9065444074243397" fill="#ff0901" stroke="none" /><path d="M 106.40334571778207 80.00007090966166 l 0.4039786119798128 -1.2617690734974216 a22.324862224448896,22.324862224448896 0 0,0 0.36497660441546004,0.120327048171954 l -0.42563803863769034 1.2546283010662314" fill="#ff0e01" stroke="none" /><path d="M 108.76106565485865 80.91482961587045 l 0.34564730343486105 -0.7529606487095414 a21.828505761523047,21.828505761523047 0 0,0 0.34013155714012394,0.15969632674354237 l -0.35855707187458297 0.7468993393259961" fill="#ff0701" stroke="none" /><path d="M 109.73455568895987 81.39251694778311 l 0.7420891751663987 -1.4184942992110823 a22.600881763527052,22.600881763527052 0 0,0 0.34316205252993137,0.18330528400700993 l -0.7663962742246413 1.405510288702318" fill="#ff1202" stroke="none" /><path d="M 110.36928655335952 81.73862282372117 l 0.6525091755101897 -1.1491355845609021 a22.321469188376753,22.321469188376753 0 0,0 0.3324870713475593,0.19259797227999872 l -0.6721929793230773 1.137733454890854" fill="#ff0e01" stroke="none" /><line stroke="#e1ed5e" stroke-width="0.3" x1="143.23703022742887" x2="145.7803849466894" y1="26.81831364943548" y2="22.513508569990506" /><path d="M 143.74570117128098 25.957352633546492 a86.0,86.0 0 0,1 28.547481713284135,27.462654790039103" fill="none" id="id98" stroke="none" /><text fill="#e1ed5e" style="font-size:6.75px; font-family:Arial;" text-anchor="middle"><textPath startOffset="19.985693538727396" xlink:href="#id98">February</textPath></text><path d="M 111.60114157652 82.49532879139004 l 0.45182552269775683 -0.6817481854104782 a21.817879509018034,21.817879509018034 0 0,0 0.3112635370907384,0.21016652969415658 l -0.4634937541950371 0.6738697434176516" fill="#ff0701" stroke="none" /><path d="M 111.90073688211348 82.69761687909136 l 1.5239173805318575 -2.2156109007168543 a23.689099448897796,23.689099448897796 0 0,0 0.3339811751487968,0.2339751565225668 l -1.5618296952643052 2.189050901430352" fill="#ff2203" stroke="none" /><path d="M 112.19680574252982 82.90503203632743 l 0.18779475575265409 -0.26321197542262886 a21.323337925851703,21.323337925851703 0 0,0 0.2969576213041057,0.21575234089274226 l -0.19229769341054845 0.25994039971321176" fill="#ff0000" stroke="none" /><path d="M 112.77801427241765 83.33499621200491 l 1.0356049217501602 -1.350629258654556 a22.7019626753507,22.7019626753507 0 0,0 0.308062871260032,0.2404479574307499 l -1.0587003481696227 1.3326029120005822" fill="#ff1402" stroke="none" /><path d="M 113.34407831869373 83.78471172551755 l 0.8779948925821872 -1.066910725995881 a22.381728456913827,22.381728456913827 0 0,0 0.29537749293625293,0.24737015573216745 l -0.8962299224775575 1.0516394128698943" fill="#ff0f01" stroke="none" /><path d="M 113.6212207817346 84.01681056812373 l 1.734180673874948 -2.034893836887973 a23.673607214428856,23.673607214428856 0 0,0 0.3078766161267249,0.2669875676385417 l -1.768951088648437 2.00474127582976" fill="#ff2203" stroke="none" /><path d="M 113.89432698308785 84.25364557470407 l 1.767471857945079 -2.003064872866147 a23.671371492985973,23.671371492985973 0 0,0 0.30320661143555866,0.27222188949268133 l -1.8016894569766277 1.9723439746041684" fill="#ff2203" stroke="none" /><path d="M 114.68862486808459 84.99185889309783 l 0.7777023427150199 -0.7946194149185485 a22.11186372745491,22.11186372745491 0 0,0 0.26972704183584245,0.2685687481992277 l -0.791265184718185 0.7811148160692021" fill="#ff0b01" stroke="none" /><path d="M 114.94478906791727 85.2469230424477 l 0.2803271055625363 -0.27673106277092085 a21.393907815631263,21.393907815631263 0 0,0 0.25645767315408313,0.26430217545119017 l -0.2850490424197285 0.2718646917696164" fill="#ff0100" stroke="none" /><path d="M 115.4437574822437 85.77008943001954 l 1.943371722155032 -1.7906267851130109 a23.64254383767535,23.64254383767535 0 0,0 0.27319112448695626,0.30166446300774336 l -1.9739064872580239 1.7569095348357184" fill="#ff2103" stroke="none" /><path d="M 115.68641384162765 86.03803664274999 l 0.9859217597529022 -0.8775366773924883 a22.319891032064128,22.319891032064128 0 0,0 0.25296741284224195,0.2891854827176182 l -1.0008810361729923 0.8604356384719224" fill="#ff0e01" stroke="none" /><path d="M 116.60985879189232 87.15038557335679 l 1.0458552369564258 -0.8090879464631853 a22.322284569138276,22.322284569138276 0 0,0 0.2324962240206928,0.3059377779101847 l -1.059627401201232 0.790965392671967" fill="#ff0e01" stroke="none" /><path d="M 116.82858285166822 87.43820079747576 l 1.0605759059962299 -0.7916734099115893 a22.323468186372747,22.323468186372747 0 0,0 0.22720760808526122,0.30991092208725063 l -1.0740461265951176 0.773300044152845" fill="#ff0e01" stroke="none" /><path d="M 117.04232023915458 87.72973835380427 l 0.6050834817376178 -0.4356526889838551 a21.7455999498998,21.7455999498998 0 0,0 0.2160967754446383,0.3056535637903194 l -0.612492876986139 0.4251726248617426" fill="#ff0601" stroke="none" /><path d="M 117.2510076193507 88.02491185347247 l 0.8076470613773905 -0.5606423094051249 a21.98316508016032,21.98316508016032 0 0,0 0.21310640845171802,0.3127073584532602 l -0.8171779354978419 0.5466569276814583" fill="#ff0a01" stroke="none" /><path d="M 117.45458315368197 88.32363383020206 l 0.7057038379269202 -0.472085546043433 a21.849048096192384,21.849048096192384 0 0,0 0.20642498364338543,0.3143994120929681 l -0.7137254569282305 0.4598680699727909" fill="#ff0801" stroke="none" /><path d="M 117.65298651832404 88.62581576622439 l 0.7898075293349859 -0.5088893224131994 a21.939555360721442,21.939555360721442 0 0,0 0.2018150783964519,0.31922298802727783 l -0.7984502039773934 0.49521868667171537" fill="#ff0901" stroke="none" /><line stroke="#e1ed5e" stroke-width="0.3" x1="172.23445277983987" x2="176.4835382374775" y1="55.19839476539836" y2="52.563006222186495" /><path d="M 173.08426987136738 54.67131705675599 a86.0,86.0 0 0,1 12.851231095245387,41.99856678651699" fill="none" id="id99" stroke="none" /><text fill="#e1ed5e" style="font-size:6.75px; font-family:Arial;" text-anchor="middle"><textPath startOffset="22.20632615414155" xlink:href="#id99">March</textPath></text><path d="M 117.84615892207809 88.93136811851018 l 1.8972943580472321 -1.1767491767694607 a23.232591432865732,23.232591432865732 0 0,0 0.20785889976696623,0.3416653783991432 l -1.9172690561004224 1.143916025163236" fill="#ff1b02" stroke="none" /><path d="M 118.03404312379186 89.2402003453031 l 15.446234733807561 -9.215814225038004 a38.98658942885771,38.98658942885771 0 0,0 0.338886891696923,0.5792675497099807 l -15.602581299974812 8.948567262974128" fill="#ffec16" stroke="none" /><path d="M 118.21658344932153 89.55222093294921 l 0.37396017376550483 -0.2144778292947921 a21.431099699398796,21.431099699398796 0 0,0 0.18077883573564443,0.32158537692914485 l -0.37759665079358223 0.20800894243085333" fill="#ff0200" stroke="none" /><path d="M 118.3937258080291 89.86733742301442 l 6.5482262870660515 -3.60726087455454 a28.476068386773548,28.476068386773548 0 0,0 0.23281477657667307,0.4313704225599076 l -6.60934916286119 3.494009468662174" fill="#ff6409" stroke="none" /><path d="M 118.73160827565052 90.50648371742162 l 9.00212846162178 -4.562440761659627 a31.092283316633267,31.092283316633267 0 0,0 0.23784114234442538,0.4794732297031311 l -9.079329616919614 4.4068079434575465" fill="#ff870c" stroke="none" /><path d="M 119.04729006885535 91.15688171328212 l 11.902122896758263 -5.525819172102927 a34.122317134268535,34.122317134268535 0 0,0 0.24275214855721927,0.5348721813291704 l -11.995477362278828 5.320124981931694" fill="#ffaf10" stroke="none" /><path d="M 119.196687751892 91.48605970444005 l 11.829429860256578 -5.246481104575561 a33.94067134268537,33.94067134268537 0 0,0 0.23226618029143725,0.5361023675082721 l -11.917986750390696 5.042079592480686" fill="#ffac10" stroke="none" /><path d="M 120.08093135843002 93.85539295169968 l 9.68935119804807 -2.9648652546182532 a31.132815631262524,31.132815631262524 0 0,0 0.15239380253344778,0.5137961431254225 l -9.73895089769322 2.797639724746301" fill="#ff880c" stroke="none" /><path d="M 120.28053869075195 94.5502522615342 l 1.7003240216452347 -0.4569078333134066 a22.76064378757515,22.76064378757515 0 0,0 0.09841666404310624,0.3792395532419951 l -1.7079370175586435 0.4275718545225611" fill="#ff1502" stroke="none" /><path d="M 120.73433829027371 96.67025291283417 l 2.6142821872854367 -0.41983006046672755 a23.647778056112223,23.647778056112223 0 0,0 0.06108345679997796,0.40246366034331194 l -2.6211215375247146 0.3747672877313335" fill="#ff2103" stroke="none" /><path d="M 120.78858239683441 97.02765380044208 l 3.093837861941712 -0.4423561470161208 a24.125301853707416,24.125301853707416 0 0,0 0.055240049383983504,0.411602530777939 l -3.100993910383532 0.38903527417351746" fill="#ff2803" stroke="none" /><path d="M 120.87857604477298 97.74499172005257 l 9.788846111111894 -1.0572526107313143 a30.8457753006012,30.8457753006012 0 0,0 0.05247141687131389,0.5283800071437627 l -9.805594653665437 0.8885970728831166" fill="#ff840c" stroke="none" /><path d="M 120.91429891909075 98.10471618934814 l 10.103146659454454 -0.9155616630699834 a31.14454659318637,31.14454659318637 0 0,0 0.043788514970077325,0.5343307948761546 l -10.117409658244027 0.74151695098606" fill="#ff880c" stroke="none" /><line stroke="#e1ed5e" stroke-width="0.3" x1="184.98032266829074" x2="189.97916517819016" y1="98.17113171792111" y2="98.06355123074" /><path d="M 185.9800911702706 98.14961562048488 a86.0,86.0 0 0,1 -9.607161424134198,41.387399972396054" fill="none" id="id100" stroke="none" /><text fill="#e1ed5e" style="font-size:6.75px; font-family:Arial;" text-anchor="middle"><textPath startOffset="21.466115282336823" xlink:href="#id100">April</textPath></text><path d="M 120.99513854157772 99.54816195383933 l 1.318402136674024 -0.02837343722734373 a22.31870741482966,22.31870741482966 0 0,0 0.004960059459371389,0.38416207130562025 l -1.3186952032511108 0.005675107861260746" fill="#ff0e01" stroke="none" /><path d="M 120.99980553446 99.90962569577887 l 11.893927934221956 -0.05118644835770919 a32.894038076152306,32.894038076152306 0 0,0 -0.0024368259140124396,0.5662325232445791 l -11.89304681101844 -0.15355555309055458" fill="#ff9f0e" stroke="none" /><path d="M 120.9764740272857 100.99374915477107 l 7.119258696953451 0.3372710448615607 a28.127243236472946,28.127243236472946 0 0,0 -0.027074010727770423,0.48342464883601205 l -7.112398335338152 -0.45976741003299604" fill="#ff5f08" stroke="none" /><path d="M 120.95626037817324 101.35467743843564 l 10.128430468372185 0.6547330484860092 a31.149570390781562,31.149570390781562 0 0,0 -0.03919423075485241,0.5347741386886453 l -10.115659678952996 -0.8289803236714247" fill="#ff880c" stroke="none" /><path d="M 120.92983693683757 101.71520430193887 l 10.042913815351136 0.8230187856730776 a31.076580661322645,31.076580661322645 0 0,0 -0.048280285257318305,0.5327689246832249 l -10.027258933816743 -0.9957690989048731" fill="#ff870c" stroke="none" /><path d="M 120.89721153311464 102.0752229133903 l 2.4230191138108155 0.24062084917859922 a23.4349373747495,23.4349373747495 0 0,0 -0.043318587302607466,0.40107631851831144 l -2.418518225007156 -0.2822934895817021" fill="#ff1e03" stroke="none" /><path d="M 120.8583938346157 102.4346265915055 l 13.611355988740131 1.5887402212935073 a34.7037625250501,34.7037625250501 0 0,0 -0.07436271128966884,0.5927439751029484 l -13.581991768203613 -1.8228019506838506" fill="#ffb610" stroke="none" /><path d="M 120.81339534386255 102.79330883721812 l 10.04374062862892 1.3479429469900839 a31.13378882765531,31.13378882765531 0 0,0 -0.07585665956265326,0.5305413003039141 l -10.019049918049665 -1.5206297192744074" fill="#ff880c" stroke="none" /><path d="M 120.76222939487914 103.15116336523771 l 1.3800745415659277 0.20945921817781188 a22.395879258517034,22.395879258517034 0 0,0 -0.06112821469688595,0.3806454512689464 l -1.3762645725077534 -0.2331838991399632" fill="#ff0f01" stroke="none" /><path d="M 120.70491114924044 103.5080841355445 l 9.992609197983374 1.6930724091239344 a31.135025050100204,31.135025050100204 0 0,0 -0.09407752891844462,0.5276367433705811 l -9.96198522672574 -1.8648279032277337" fill="#ff880c" stroke="none" /><path d="M 120.5718875245553 104.21870165774334 l 1.3469896845205125 0.2762287907838783 a22.37502129258517,22.37502129258517 0 0,0 -0.08062035688878623,0.3766314674856107 l -1.342035288907283 -0.299374077685658" fill="#ff0f01" stroke="none" /><path d="M 120.49622156327973 104.57218783832717 l 21.05491303357239 4.696817753063532 a42.57242359719439,42.57242359719439 0 0,0 -0.1657069434190213,0.7138611752955094 l -20.970945524222813 -5.058547585707607" fill="#e7ff1a" stroke="none" /><path d="M 120.41448212921028 104.9243191809786 l 1.341464667368347 0.32358401992843355 a22.37993987975952,22.37993987975952 0 0,0 -0.0935574051523639,0.37371532722817397 l -1.3356959479209223 -0.3466271865540035" fill="#ff0f01" stroke="none" /><path d="M 120.32669344350535 105.2749913415812 l 9.801544817286677 2.543604260526062 a31.126213677354713,31.126213677354713 0 0,0 -0.13904809434616808,0.5174496862228471 l -9.756308646598733 -2.711944879924457" fill="#ff880c" stroke="none" /><path d="M 120.23288151984713 105.62410040840565 l 9.735857825723832 2.70626019927618 a31.104987474949898,31.104987474949898 0 0,0 -0.14783365616979308,0.5146283510807119 l -9.68783153266794 -2.873446025861474" fill="#ff870c" stroke="none" /><path d="M 120.02730092923936 106.31721596034902 l 9.669544109224756 3.050066436406889 a31.139180861723446,31.139180861723446 0 0,0 -0.16564227615528995,0.5097945063833765 l -9.615609582053219 -3.216059842768061" fill="#ff880c" stroke="none" /><path d="M 119.9155931802556 106.66101706037122 l 10.85656755440359 3.631113622498031 a32.44770916833667,32.44770916833667 0 0,0 -0.18172133871827562,0.528167272188431 l -10.792455384742084 -3.817453597775762" fill="#ff990e" stroke="none" /><path d="M 119.79798401119884 107.00284435728193 l 5.958340168019666 2.107554425782978 a27.320095190380762,27.320095190380762 0 0,0 -0.1606366163352293,0.44200297747305073 l -5.92117929067921 -2.20980520026216" fill="#ff5407" stroke="none" /><path d="M 119.41010516605496 108.01547362559984 l 9.412247840267002 3.886822027796505 a31.18321142284569,31.18321142284569 0 0,0 -0.20914879677050474,0.4943659740096767 l -9.343948062304188 -4.048262527472345" fill="#ff880c" stroke="none" /><path d="M 119.12269723197855 108.67885076344098 l 10.387907084771312 4.714559574914817 a32.407702905811625,32.407702905811625 0 0,0 -0.23491785677038501,0.5059921642097696 l -10.305214611161094 -4.892671806403417" fill="#ff980e" stroke="none" /><path d="M 118.97047184881838 109.00673069616215 l 0.49749967381081905 0.23620106126783894 a21.55072394789579,21.55072394789579 0 0,0 -0.16198626632241134,0.3337396873713967 l -0.49336015087369345 -0.24472970460451107" fill="#ff0300" stroke="none" /><path d="M 118.64920377521936 109.65438752849418 l 0.35668003713376817 0.18464741678370072 a21.401640781563128,21.401640781563128 0 0,0 -0.1721787395198538,0.3256972879194202 l -0.3534487893890213 -0.19075971978925527" fill="#ff0100" stroke="none" /><line stroke="#e1ed5e" stroke-width="0.3" x1="174.80103733775053" x2="179.2010983576182" y1="140.37084112569926" y2="142.7455964860345" /><path d="M 175.68104954172406 140.8457921977663 a86.0,86.0 0 0,1 -30.038265399797805,32.042727171017184" fill="none" id="id101" stroke="none" /><text fill="#e1ed5e" style="font-size:6.75px; font-family:Arial;" text-anchor="middle"><textPath startOffset="22.206326154141568" xlink:href="#id101">May</textPath></text><path d="M 118.30583269289576 110.29060199501025 l 1.0406627433180768 0.5850073188245551 a22.19382264529058,22.19382264529058 0 0,0 -0.19007212859541078,0.331406777433497 l -1.0304386185702865 -0.6028339421163673" fill="#ff0d01" stroke="none" /><path d="M 117.14729908036423 112.12312394758627 l 1.1322930295790132 0.8005300822153014 a22.3866996492986,22.3866996492986 0 0,0 -0.22516777847380334,0.3127383505696741 l -1.1183454587296071 -0.8199020382361067" fill="#ff0f01" stroke="none" /><path d="M 116.93607887273984 112.41649034213515 l 8.225962116610768 6.030768983962803 a31.199834669338678,31.199834669338678 0 0,0 -0.32126727277239747,0.43039001262600785 l -8.120933577143278 -6.171471876098126" fill="#ff890c" stroke="none" /><path d="M 116.498646956653 112.99209946851258 l 7.953695167502505 6.2632529218858695 a31.12371492985972,31.12371492985972 0 0,0 -0.3350721169501048,0.4180539855884994 l -7.844705138497546 -6.399234741052619" fill="#ff880c" stroke="none" /><path d="M 116.0416608686014 113.55231037782055 l 23.860965929014228 20.15821297017579 a52.236184869739475,52.236184869739475 0 0,0 -0.5861832493333172,0.681863548820366 l -23.510440170110133 -20.565953618157685" fill="#7cff26" stroke="none" /><path d="M 114.29624159901734 115.38237550388516 l 0.8987078730644804 0.9669857546843651 a22.320127755511024,22.320127755511024 0 0,0 -0.2836786739953832,0.25913374273834117 l -0.8819296496022333 -0.9823122640092892" fill="#ff0e01" stroke="none" /><path d="M 114.0293411484842 115.62618273729858 l 0.9175653007158668 1.0220040207618448 a22.373469438877756,22.373469438877756 0 0,0 -0.2887857134961225,0.25481981562116635 l -0.8998372343131567 -1.0376469781553002" fill="#ff0f01" stroke="none" /><path d="M 113.48314897796784 116.09983520530334 l 6.717391285907206 8.021041144718312 a31.46233466933868,31.46233466933868 0 0,0 -0.4181941634255435,0.3441453259855294 l -6.578326993936971 -8.13548158956102" fill="#ff8c0c" stroke="none" /><path d="M 112.92097659922987 116.55440617244103 l 6.230066374740397 7.981985607408874 a31.125503507014027,31.125503507014027 0 0,0 -0.42519108415892065,0.3260183922551078 l -6.091746562087982 -8.088043341491353" fill="#ff880c" stroke="none" /><path d="M 112.34349029814194 116.9893568818739 l 1.9682486846899427 2.709061904598404 a24.348584669338678,24.348584669338678 0 0,0 -0.3411963368449512,0.24343452701426324 l -1.921325019996107 -2.7425406934568866" fill="#ff2b04" stroke="none" /><path d="M 112.04921762599082 117.19931262002967 l 0.758660032638475 1.0829276620852848 a22.322231963927855,22.322231963927855 0 0,0 -0.31659633858604413,0.217757848559025 l -0.7399068094295476 -1.095826300009404" fill="#ff0e01" stroke="none" /><path d="M 111.45004920935366 117.60387380957326 l 5.52450533107315 8.493648623717677 a31.132236973947897,31.132236973947897 0 0,0 -0.4517409118547298,0.2883224233271806 l -5.37748261717149 -8.587485475868668" fill="#ff880c" stroke="none" /><path d="M 111.1453310114006 117.79835938074945 l 0.3682398381133976 0.5880547621552983 a21.693836422845692,21.693836422845692 0 0,0 -0.31819775483345486,0.19546304999719077 l -0.3580628833476341 -0.5943062789808673" fill="#ff0500" stroke="none" /><line stroke="#e1ed5e" stroke-width="0.3" x1="143.8653032363475" x2="146.44561519142675" y1="172.8068346515853" y2="177.08958963109032" /><path d="M 144.38136562736335 173.6633856474863 a86.0,86.0 0 0,1 -40.68145358897372,12.25698825130547" fill="none" id="id102" stroke="none" /><text fill="#e1ed5e" style="font-size:6.75px; font-family:Arial;" text-anchor="middle"><textPath startOffset="21.466115282336833" xlink:href="#id102">June</textPath></text><path d="M 110.8373102113329 117.98757091392108 l 10.367806550386275 17.208297253673564 a41.09021918837676,41.09021918837676 0 0,0 -0.6089807808528058,0.3597965794819756 l -10.070057898505087 -17.38421240544929" fill="#f9ff18" stroke="none" /><path d="M 110.21172684928248 118.3499491758327 l 22.564143216397596 40.54660757462374 a67.40224073146292,67.40224073146292 0 0,0 -1.0186635065287684,0.5554565643294297 l -21.86285689800018 -40.92900479071294" fill="#39ff86" stroke="none" /><path d="M 109.89434966115114 118.52300852407294 l 1.2690271789222662 2.37571968421041 a23.693413076152304,23.693413076152304 0 0,0 -0.3613912265947272,0.18906280935017555 l -1.2279450498010436 -2.397211912505302" fill="#ff2203" stroke="none" /><path d="M 109.2508944713604 118.85261126421891 l 1.2366930355858075 2.5202852681160772 a23.807355961923847,23.807355961923847 0 0,0 -0.36945312935238644,0.1773599537188423 l -1.1931272382331883 -2.5411994983344792" fill="#ff2403" stroke="none" /><path d="M 108.92500713936063 119.00905698771935 l 8.562238687849442 18.23640929562833 a41.14642785571142,41.14642785571142 0 0,0 -0.6437104004975313,0.29549587286702333 l -8.247060291584491 -18.381092238829428" fill="#f8ff18" stroke="none" /><path d="M 108.59647513512805 119.15986991738527 l 8.29878557533844 18.49637782886339 a41.27278557114228,41.27278557114228 0 0,0 -0.6506936191375705,0.2852449605071393 l -7.979171281543117 -18.636487342664985" fill="#f7ff19" stroke="none" /><path d="M 107.2578585660854 119.70592522655815 l 3.630211044137164 9.856442742859416 a31.50370866733467,31.50370866733467 0 0,0 -0.5104807536720701,0.18304023623153448 l -3.460010729835359 -9.91747052013091" fill="#ff8d0d" stroke="none" /><path d="M 106.91757812671514 119.82793768551818 l 3.3096764386572093 9.4865655266672 a31.047332164328658,31.047332164328658 0 0,0 -0.5061162624476787,0.1717021153498554 l -3.145890443272304 -9.542130628915178" fill="#ff870c" stroke="none" /><path d="M 106.2309692047433 120.05430185196036 l 3.101647542752401 9.982616510670148 a31.45336548096192,31.45336548096192 0 0,0 -0.5184189014780112,0.15619536236022982 l -2.929353666834144 -10.034527242136104" fill="#ff8c0c" stroke="none" /><path d="M 105.88484417918355 120.15858648285463 l 2.871094888787719 9.834961275752736 a31.24546968937876,31.24546968937876 0 0,0 -0.517586906803197,0.14627522989845498 l -2.701376813879916 -9.882925298989711" fill="#ff890c" stroke="none" /><path d="M 105.53697534728816 120.25689768951611 l 0.3554372000240636 1.3003588682152791 a22.348061122244488,22.348061122244488 0 0,0 -0.37194575937415525,0.09823425561311531 l -0.3330009978384109 -1.3062844731319785" fill="#ff0f01" stroke="none" /><path d="M 104.13013068566511 120.58985236759428 l 3.29199453358326 16.41151009498657 a37.73842560120241,37.73842560120241 0 0,0 -0.6380172982620549,0.12227753370589085 l -3.009009620749501 -16.46574482704093" fill="#ffdc14" stroke="none" /><path d="M 103.41894727170886 120.7198165907248 l 0.7357631054398812 4.45893878653377 a25.519234719438877,25.519234719438877 0 0,0 -0.4340264490447587,0.06778600513603843 l -0.6589007927866054 -4.470943099016915" fill="#ff3c05" stroke="none" /><path d="M 102.34483914955558 120.86867818915974 l 0.6031323364617168 5.3677774176881545 a26.401555611222445,26.401555611222445 0 0,0 -0.4520542284142874,0.04685726911336552 l -0.5106455114418268 -5.377364055257279" fill="#ff4806" stroke="none" /><path d="M 100.90346689309514 120.98055641714683 l 0.06362629383524614 1.4775472766369158 a22.47891658316633,22.47891658316633 0 0,0 -0.38672262275719804,0.01331950905749342 l -0.03818331940339581 -1.478423584120503" fill="#ff1101" stroke="none" /><line stroke="#e1ed5e" stroke-width="0.3" x1="102.19456741930631" x2="102.32365962044197" y1="184.97166512339345" y2="189.96999836594603" /><path d="M 102.22038585953345 185.97133177190398 a86.0,86.0 0 0,1 -42.740103519485714,-10.115201625700543" fill="none" id="id103" stroke="none" /><text fill="#e1ed5e" style="font-size:6.75px; font-family:Arial;" text-anchor="middle"><textPath startOffset="22.20632615414155" xlink:href="#id103">July</textPath></text><path d="M 100.54218724476979 120.99299961872073 l 0.2902107480456119 11.236697620315537 a32.24044463927856,32.24044463927856 0 0,0 -0.5549045861151959,0.009553185680852665 l -0.0967464720377481 -11.24002828327555" fill="#ff960d" stroke="none" /><path d="M 96.93821686468263 120.77559828337769 l -0.25006991040945636 1.696838662901774 a22.715166583166333,22.715166583166333 0 0,0 -0.38633537407929874,-0.06033764004292753 l 0.27924114809727224 -1.6922827155117406" fill="#ff1402" stroke="none" /><path d="M 96.58105272829116 120.7198165907248 l -0.446017601559162 2.702996614487653 a23.739547845691384,23.739547845691384 0 0,0 -0.4026125896205461,-0.0699993594225617 l 0.49247916265175795 -2.694918676544085" fill="#ff2303" stroke="none" /><path d="M 94.81253420990036 120.34920634021253 l -0.6769889754501904 2.6556682798327214 a23.7405999498998,23.7405999498998 0 0,0 -0.3951222178990028,-0.10435536895708132 l 0.7226016361606824 -2.643621561572058" fill="#ff2303" stroke="none" /><path d="M 93.42475214034765 119.94407469862007 l -0.4292276342650565 1.3019354073363978 a22.370865480961925,22.370865480961925 0 0,0 -0.36467735021538533,-0.12371835702203819 l 0.45157471741766764 -1.2943540634162365" fill="#ff0f01" stroke="none" /><path d="M 93.08242187328487 119.8279376855182 l -3.6693575769015983 10.517523914867247 a32.13923221442886,32.13923221442886 0 0,0 -0.5207786694737665,-0.186732702455727 l 3.8498558070050914 -10.452803671371564" fill="#ff950d" stroke="none" /><path d="M 92.7421414339146 119.70592522655815 l -0.5518117869219886 1.4982328069921498 a22.596620741482965,22.596620741482965 0 0,0 -0.36383763728005936,-0.1375722620702545 l 0.577519644962331 -1.488512294815262" fill="#ff1202" stroke="none" /><path d="M 91.7346041902142 119.30500536409082 l -0.5297037918328021 1.2371984086478378 a22.3458254008016,22.3458254008016 0 0,0 -0.35229718085301226,-0.15443673102616748 l 0.5509216473435576 -1.227897124327218" fill="#ff0f01" stroke="none" /><path d="M 90.42595943632237 118.69057910512821 l -4.016552245444962 7.8411708174894645 a29.81003131262525,29.81003131262525 0 0,0 -0.45468686787637613,-0.23787067944441906 l 4.150930015847834 -7.770870719100329" fill="#ff760a" stroke="none" /><line stroke="#e1ed5e" stroke-width="0.3" x1="58.666819895761336" x2="56.23545636021788" y1="174.27360380694188" y2="178.64263932499728" /><path d="M 58.180547188652646 175.14741091055294 a86.0,86.0 0 0,1 -31.652253787137756,-30.449443065178592" fill="none" id="id104" stroke="none" /><text fill="#e1ed5e" style="font-size:6.75px; font-family:Arial;" text-anchor="middle"><textPath startOffset="22.20632615414155" xlink:href="#id104">August</textPath></text><path d="M 85.44109423537348 115.13401014063109 l -0.966916305322295 1.0051113322982999 a22.394695641282564,22.394695641282564 0 0,0 -0.27550812787880685,-0.26964268990374635 l 0.9840743855768961 -0.9883185394719839" fill="#ff0f01" stroke="none" /><path d="M 84.67929136418377 114.36230785411682 l -1.0391946094346531 0.9741868510016228 a22.42441758517034,22.42441758517034 0 0,0 -0.26156864933767693,-0.2838811084203908 l 1.0558096667680592 -0.9561544877798879" fill="#ff1001" stroke="none" /><path d="M 84.43433777217949 114.09645910891817 l -8.341179060481585 7.5538764638031575 a32.25328031062124,32.25328031062124 0 0,0 -0.3691328805937767,-0.41472470449791143 l 8.4699707907237 -7.409177589564382" fill="#ff960d" stroke="none" /><path d="M 82.05923443525364 110.91462005526583 l -1.1744415233485344 0.7144947610076018 a22.374705661322647,22.374705661322647 0 0,0 -0.19734397090952355,-0.3307598464483609 l 1.1865663699562898 -0.6941728206731298" fill="#ff0f01" stroke="none" /><line stroke="#e1ed5e" stroke-width="0.3" x1="26.63291911575756" x2="22.317208475507996" y1="142.92168965132927" y2="145.44649492493687" /><path d="M 25.769776987707644 143.4266507060508 a86.0,86.0 0 0,1 -11.730757126820373,-40.83630448921669" fill="none" id="id105" stroke="none" /><text fill="#e1ed5e" style="font-size:6.75px; font-family:Arial;" text-anchor="middle"><textPath startOffset="21.46611528233685" xlink:href="#id105">September</textPath></text><path d="M 81.87401531095188 110.60418214915194 l -1.4877428640506194 0.8703690636473905 a22.72363602204409,22.72363602204409 0 0,0 -0.19460955136783645,-0.33931815649772923 l 1.502504411570833 -0.8446310612913542" fill="#ff1402" stroke="none" /><path d="M 81.69416730710424 110.29060199501025 l -9.799054461576251 5.508526767571985 a32.241233717434866,32.241233717434866 0 0,0 -0.26779198803370563,-0.4861202437221927 l 9.892422859061472 -5.3390360054519705" fill="#ff960d" stroke="none" /><path d="M 81.18737489456691 109.33194174019688 l -1.6577212099731151 0.8223072360321539 a22.85046718436874,22.85046718436874 0 0,0 -0.17175580142308752,-0.35386782331950273 l 1.6716302680109214 -0.7936504567473665" fill="#ff1602" stroke="none" /><path d="M 80.73074385275274 108.34839909993369 l -1.2139341754687407 0.5259365956017844 a22.322968436873747,22.322968436873747 0 0,0 -0.14972229529565603,-0.3538992788278837 l 1.2228074519567034 -0.5049627911077419" fill="#ff0e01" stroke="none" /><path d="M 80.58989483394504 108.01547362559985 l -1.5177029625582157 0.626740966306297 a22.642019038076153,22.642019038076153 0 0,0 -0.1456608371418354,-0.3615182522277224 l 1.528266413957439 -0.6005233462357693" fill="#ff1302" stroke="none" /><path d="M 80.20201598880116 107.00284435728193 l -1.3358431821985117 0.4725078010660503 a22.41694764529058,22.41694764529058 0 0,0 -0.1255446945405608,-0.3648916485037348 l 1.3437787076823011 -0.4494434494730186" fill="#ff1001" stroke="none" /><path d="M 79.97269907076064 106.31721596034903 l -10.193228930742455 3.2152524554502393 a31.688300350701404,31.688300350701404 0 0,0 -0.15960827628041946,-0.5216090817574742 l 10.247063979529004 -3.039316401140717" fill="#ff8f0d" stroke="none" /><path d="M 79.67330655649465 105.27499134158121 l -1.295419358457463 0.33617498677647173 a22.338329158316633,22.338329158316633 0 0,0 -0.0933834551263328,-0.37302048334281596 l 1.3010141278788543 -0.31382666403626397" fill="#ff0f01" stroke="none" /><path d="M 79.58551787078972 104.9243191809786 l -9.956099978090736 2.401580102769397 a31.241655811623247,31.241655811623247 0 0,0 -0.12160358406830793,-0.5238650575047911 l 9.995964128089598 -2.2298463879160315" fill="#ff890c" stroke="none" /><path d="M 79.4281124754447 104.21870165774334 l -1.3757449782046367 0.2821256733615863 a22.404375,22.404375 0 0,0 -0.07422256525658585,-0.37845926118437573 l 1.3803974764368891 -0.25840268510925574" fill="#ff1001" stroke="none" /><path d="M 79.0095281055655 100.63252640178507 l -1.0990289286110306 0.033118112692662266 a22.099527805611224,22.099527805611224 0 0,0 -0.008185178188713279,-0.38033306738938677 l 1.0994361694847514 -0.014195229513146649" fill="#ff0b01" stroke="none" /><line stroke="#e1ed5e" stroke-width="0.3" x1="15.007084014347285" x2="10.007500721073583" y1="101.09737516637583" y2="101.16192664675087" /><path d="M 14.007167355692545 101.11028546245083 a86.0,86.0 0 0,1 10.666146001902534,-42.60595125391555" fill="none" id="id106" stroke="none" /><text fill="#e1ed5e" style="font-size:6.75px; font-family:Arial;" text-anchor="middle"><textPath startOffset="22.20632615414155" xlink:href="#id106">October</textPath></text><path d="M 79.05617556472873 98.46500227214037 l -1.3660966246438133 -0.100122841525233 a22.369760771543085,22.369760771543085 0 0,0 0.031451368267341656,-0.3837863562561125 l 1.3641707725569747 0.12362311498912391" fill="#ff0f01" stroke="none" /><path d="M 79.12142395522702 97.74499172005258 l -1.3589641299082147 -0.1467760712475299 a22.36686748496994,22.36686748496994 0 0,0 0.044637500986218825,-0.38242684878745276 l 1.356236275918407 0.1701466583598444" fill="#ff0f01" stroke="none" /><path d="M 79.16333360222342 97.38593545837743 l -1.3766710326687293 -0.17271030131586926 a22.387462424849698,22.387462424849698 0 0,0 0.051260893539484854,-0.3819531978352519 l 1.3734941400714105 0.1963818412157806" fill="#ff0f01" stroke="none" /><path d="M 79.26566170972629 96.67025291283419 l -1.3062581183147262 -0.2097732323864643 a22.322994739478958,22.322994739478958 0 0,0 0.06419257607671372,-0.3788682177381577 l 1.3024536807177896 0.23222723844044998" fill="#ff0e01" stroke="none" /><path d="M 79.32604984820605 96.31383870115002 l -1.3741547929050615 -0.24501153282486343 a22.395826653306614,22.395826653306614 0 0,0 0.07093534272785314,-0.37893943729846963 l 1.3697337262673468 0.2686290475859058" fill="#ff0f01" stroke="none" /><path d="M 79.46518482838121 95.60439243477599 l -3.0928250555951387 -0.6620388398273881 a24.162888276553105,24.162888276553105 0 0,0 0.09055975874320912,-0.4059616414615856 l 3.080970909849892 0.715178650838933" fill="#ff2903" stroke="none" /><path d="M 79.54389044137918 95.25157060432595 l -2.6184025206072343 -0.6078037205915648 a23.68802104208417,23.68802104208417 0 0,0 0.09561748624287483,-0.3963962108072068 l 2.6075522341035446 0.6527851630581685" fill="#ff2203" stroke="none" /><path d="M 79.62865764111835 94.90015583598534 l -2.104647477222834 -0.5268859540492389 a23.169596693386772,23.169596693386772 0 0,0 0.10018496994500556,-0.3860535572193932 l 2.095266175407521 0.5630359368174959" fill="#ff1a02" stroke="none" /><path d="M 79.71946130924805 94.55025226153421 l -11.19425280215876 -3.008098296728086 a32.591373997995994,32.591373997995994 0 0,0 0.15025124611550145,-0.5405336747403711 l 11.140814785476897 3.2003432748873997" fill="#ff9b0e" stroke="none" /><path d="M 79.81627453868168 94.20196356495316 l -1.473710265239918 -0.42334235218068095 a22.533310370741482,22.533310370741482 0 0,0 0.11029959165065908,-0.37187539018183063 l 1.466204776477552 0.4486471291090508" fill="#ff1101" stroke="none" /><path d="M 79.91906864156998 93.8553929516997 l -9.844812416392832 -3.0124351646452334 a31.295392034068136,31.295392034068136 0 0,0 0.16205725081091174,-0.513765771207862 l 9.791499681813718 3.18145110227951" fill="#ff8a0c" stroke="none" /><path d="M 80.14247586403 93.16781622104843 l -1.301782080757352 -0.44789140655100845 a22.376678356713427,22.376678356713427 0 0,0 0.12844950655293413,-0.3631440522217246 l 1.2938794933946083 0.4702330851993441" fill="#ff0f01" stroke="none" /><path d="M 80.2630227832202 92.82701384747504 l -5.318922538751954 -1.933049691336952 a26.659294839679358,26.659294839679358 0 0,0 0.16045774007227184,-0.4299469688244034 l 5.284860210178055 2.0243197971906968" fill="#ff4b07" stroke="none" /><path d="M 80.38941819471856 92.48833698450439 l -1.2784458571932518 -0.4896975805279696 a22.369024298597193,22.369024298597193 0 0,0 0.14082520452989186,-0.3583847849892321 l 1.2698271027816688 0.511631370412965" fill="#ff0f01" stroke="none" /><path d="M 80.52162464483688 92.15188598940014 l -2.006853304534524 -0.8085896923821811 a23.16362600200401,23.16362600200401 0 0,0 0.15219419244549878,-0.36855030894183033 l 1.9926374252028254 0.8430145717773229" fill="#ff1a02" stroke="none" /><path d="M 80.65960295795068 91.81776055985345 l -1.2651439332604075 -0.535237749549766 a22.37370616232465,22.37370616232465 0 0,0 0.1531099728941007,-0.35339892727672195 l 1.2557432505236261 0.5569358214130872" fill="#ff0f01" stroke="none" /><path d="M 80.803312248108 91.48605970444005 l -1.9025975724038249 -0.8438227650146016 a23.0813251503006,23.0813251503006 0 0,0 0.16420459518430613,-0.36180305934471124 l 1.887790660256167 0.8764478332013839" fill="#ff1902" stroke="none" /><path d="M 80.95270993114464 91.15688171328213 l -2.4525771646275114 -1.1386622399145085 a23.704013026052102,23.704013026052102 0 0,0 0.17500538060751272,-0.36860596349585395 l 2.432613590178247 1.1807106190508947" fill="#ff2203" stroke="none" /><path d="M 81.10775173730289 90.83032412892265 l -56.676744788091334 -27.50902761323202 a84.0,84.0 0 0,0 0.6425599481863489,-1.295361646004154 l 56.19482482695157 28.480548847735136" fill="#4dd2ff" stroke="none" /><path d="M 81.43458229118936 90.18545643968196 l -1.7541575847940223 -0.9273293118232865 a22.984189629258516,22.984189629258516 0 0,0 0.18791424787478486,-0.3481765620837951 l 1.7379352377007657 0.9573868572395543" fill="#ff1802" stroke="none" /><path d="M 81.6062741919709 89.86733742301443 l -1.737773970064674 -0.957298018765057 a22.984005511022044,22.984005511022044 0 0,0 0.1938781404176294,-0.3448875782987064 l 1.721038188354614 0.987069106998548" fill="#ff1802" stroke="none" /><line stroke="#e1ed5e" stroke-width="0.3" x1="26.266209847984243" x2="21.928928074336255" y1="57.711370442889674" y2="55.22380399835377" /><path d="M 25.398753493254645 57.213857153982495 a86.0,86.0 0 0,1 29.58750427330803,-30.492523968695096" fill="none" id="id107" stroke="none" /><text fill="#e1ed5e" style="font-size:6.75px; font-family:Arial;" text-anchor="middle"><textPath startOffset="21.46611528233685" xlink:href="#id107">November</textPath></text><path d="M 81.78341655067845 89.55222093294921 l -1.1491004412051355 -0.6590449613650783 a22.324678106212424,22.324678106212424 0 0,0 0.1940549528025345,-0.33170281817669556 l 1.137585813932276 0.6787271918956655" fill="#ff0e01" stroke="none" /><path d="M 81.96595687620814 89.24020034530311 l -1.5045008897124317 -0.8976427550105165 a22.751937625250502,22.751937625250502 0 0,0 0.20355855419818933,-0.3345967409838028 l 1.4888265372280254 0.9234072692013937" fill="#ff1502" stroke="none" /><path d="M 82.15384107792192 88.93136811851018 l -1.8434474181132563 -1.1433519645919696 a23.169228456913828,23.169228456913828 0 0,0 0.21312645495945187,-0.3371148693169884 l 1.8234933669078417 1.1749144816231736" fill="#ff1a02" stroke="none" /><path d="M 82.34701348167596 88.62581576622439 l -3.1324985783862216 -2.0183336063629245 a24.726421593186373,24.726421593186373 0 0,0 0.23360977331651192,-0.3558037118063561 l 3.0972921697117894 2.0719553821469474" fill="#ff3004" stroke="none" /><path d="M 82.54541684631803 88.32363383020206 l -1.3216206355079356 -0.8841074199183301 a22.59007139278557,22.59007139278557 0 0,0 0.21898980258893452,-0.3213405133769208 l 1.3062063672502608 0.9067259565656667" fill="#ff1202" stroke="none" /><path d="M 82.7489923806493 88.02491185347247 l -1.4151055135447586 -0.9823202003764111 a22.72263652304609,22.72263652304609 0 0,0 0.22580607081634296,-0.3193866735331566 l 1.3979868229245374 1.0065333742413538" fill="#ff1402" stroke="none" /><path d="M 82.95767976084542 87.72973835380427 l -1.6605589437434751 -1.1955820822947771 a23.046184869739477,23.046184869739477 0 0,0 0.23456339740885457,-0.31994421045803245 l 1.6397329338209872 1.2239887364243103" fill="#ff1902" stroke="none" /><path d="M 83.17141714833178 87.43820079747576 l -1.2945193442109924 -0.9663019286350565 a22.615400801603208,22.615400801603208 0 0,0 0.23554915603740936,-0.3099550785835161 l 1.277694247949474 0.9884417830995992" fill="#ff1302" stroke="none" /><path d="M 83.39014120810768 87.1503855733568 l -1.048102061542505 -0.8108261207593753 a22.325125250501003,22.325125250501003 0 0,0 0.23775824583347854,-0.3019288274806265 l 1.0339897351150553 0.8287473421930495" fill="#ff0e01" stroke="none" /><path d="M 83.6137871275137 86.86637796730984 l -0.333922449192574 -0.26764031872728977 a21.427943386773546,21.427943386773546 0 0,0 0.23315797026568796,-0.2858241026370036 l 0.3292659868504935 0.27334859097237557" fill="#ff0200" stroke="none" /><path d="M 83.84228863543731 86.58626213691792 l -1.340640768218256 -1.112967265455752 a22.74241608216433,22.74241608216433 0 0,0 0.2526459188394608,-0.2990530792809783 l 1.321284235891671 1.1358792943658462" fill="#ff1402" stroke="none" /><path d="M 84.07557802195018 86.31012108654704 l -1.0402134010786976 -0.8942488163493394 a22.37175976953908,22.37175976953908 0 0,0 0.25355527863010324,-0.2898575149360197 l 1.024666258870751 0.9120218874883023" fill="#ff0f01" stroke="none" /><path d="M 84.31358615837235 86.03803664274999 l -3.822305945933484 -3.4021093728701923 a26.117066633266532,26.117066633266532 0 0,0 0.3017843955722202,-0.33323786709900227 l 3.763177909745219 3.467400027238751" fill="#ff4406" stroke="none" /><path d="M 84.80347519578584 85.50635884689758 l -1.5228501459613804 -1.4524138794807335 a23.10441883767535,23.10441883767535 0 0,0 0.27696228037208315,-0.2854339755951991 l 1.4976236018861788 1.4784120506260563" fill="#ff1a02" stroke="none" /><path d="M 85.05521093208273 85.24692304244772 l -0.5874964299669985 -0.5799600117606916 a21.82553356713427,21.82553356713427 0 0,0 0.26623430200697124,-0.26509100730517077 l 0.5774263277927141 0.5899868697159717" fill="#ff0701" stroke="none" /><path d="M 85.57189188830299 84.74124197986013 l -1.853534810621919 -1.9602458574770871 a23.697805611222446,23.697805611222446 0 0,0 0.29880914748636783,-0.27771053719125377 l 1.8195177793406951 1.9918609807429883" fill="#ff2203" stroke="none" /><path d="M 86.10567301691215 84.25364557470407 l -0.35473692537983725 -0.40202115306266506 a21.536152304609217,21.536152304609217 0 0,0 0.2800788927464932,-0.24288165584651833 l 0.3477642339865705 0.408067802328864" fill="#ff0300" stroke="none" /><path d="M 86.37877921826538 84.01681056812374 l -0.8313312202559685 -0.9754870423803448 a22.28167334669339,22.28167334669339 0 0,0 0.29405703961786417,-0.2462643140522226 l 0.8144166436789939 0.9896525138263798" fill="#ff0e01" stroke="none" /><path d="M 86.65592168130627 83.78471172551755 l -1.0714372303333926 -1.30197553873243 a22.68615480961924,22.68615480961924 0 0,0 0.30366671507731335,-0.2455440316546851 l 1.0488671166915788 1.3202256676512496" fill="#ff1402" stroke="none" /><path d="M 87.22198572758235 83.33499621200491 l -0.8094449522066571 -1.0556728852475443 a22.330280561122244,22.330280561122244 0 0,0 0.30704544760372887,-0.2312602654154281 l 0.7911533508445383 1.0694497401688268" fill="#ff0e01" stroke="none" /><path d="M 87.51073957382395 83.11751280151077 l -1.582072058770249 -2.138582299340689 a23.660166583166333,23.660166583166333 0 0,0 0.32950126348079695,-0.23939668095029942 l 1.5450254789356705 2.1654982151076565" fill="#ff2103" stroke="none" /><path d="M 87.80319425747018 82.90503203632743 l -6.507829963831975 -9.121334478322243 a32.20493612224449,32.20493612224449 0 0,0 0.45404184464256864,-0.3180853280748822 l 6.349856979605747 9.232004649161068" fill="#ff960d" stroke="none" /><path d="M 88.70189139769569 82.29822771554957 l -0.2756036612455906 -0.43181327281056814 a21.512269539078158,21.512269539078158 0 0,0 0.31385463694188376,-0.19653574485992878 l 0.26812987193146454 0.4364933589934271" fill="#ff0300" stroke="none" /><line stroke="#e1ed5e" stroke-width="0.3" x1="56.762969772571076" x2="54.21961505331055" y1="26.818313649435495" y2="22.513508569990535" /><path d="M 56.25429882871897 25.957352633546506 a86.0,86.0 0 0,1 42.265352541879196,-11.944610805530505" fill="none" id="id108" stroke="none" /><text fill="#e1ed5e" style="font-size:6.75px; font-family:Arial;" text-anchor="middle"><textPath startOffset="22.20632615414155" xlink:href="#id108">December</textPath></text><path d="M 91.23893434514133 80.91482961587045 l -8.285889770524573 -18.050043714360058 a40.86101828657314,40.86101828657314 0 0,0 0.6417473565984736,-0.28793333241929336 l 7.9739602954593245 18.189997377295878" fill="#fcff18" stroke="none" /><path d="M 91.56875222667455 80.76684994638697 l -0.815298702830149 -1.8598388650916746 a23.03069263527054,23.03069263527054 0 0,0 0.3644511062875966,-0.15603894378525127 l 0.7831638387522442 1.8735973368397119" fill="#ff1902" stroke="none" /></svg>