<?xml version="1.0" encoding="utf-8" ?>
<svg baseProfile="full" height="200mm" version="1.1" viewBox="0,0,200,200" width="200mm" xmlns="http://www.w3.org/2000/svg" xmlns:ev="http://www.w3.org/2001/xml-events" xmlns:xlink="http://www.w3.org/1999/xlink"><defs /><rect fill="#1a1a1a" height="200" width="200" x="0" y="0" /><text alignment-baseline="middle" fill="#e1ed5e" style="dominant-baseline: central; font-size:9.0px; font-family:Arial;" text-anchor="middle" x="100.0" y="100.0">2023</text><line stroke="#e1ed5e" stroke-width="0.3" x1="100.0" x2="100.0" y1="15.0" y2="10.0" /><path d="M 100.0 14.0 a86.0,86.0 0 0,1 42.46469731375804,11.215312516191453" fill="none" id="id97" stroke="none" /><text fill="#e1ed5e" style="font-size:6.75px; font-family:Arial;" text-anchor="middle"><textPath startOffset="22.20632615414155" xlink:href="#id97">January</textPath></text><path d="M 101.08401301168833 79.027996857942 l 0.023405433168942554 -0.45281635244930196 a21.4534208457353,21.4534208457353 0 0,0 0.3686289725407946,0.022236706305718536 l -0.031196454549349065 0.4523463767632794" fill="#ff0000" stroke="none" /><path d="M 102.88285421437855 79.19881850522331 l 0.3195102454846263 -2.305420292367799 a23.3274555895722,23.3274555895722 0 0,0 0.39726770126209326,0.0585469323838329 l -0.35914692717537533 2.2995788758229976" fill="#ff1b02" stroke="none" /><path d="M 103.2404852339499 79.25152402106235 l 0.1927738696336963 -1.234310208099976 a22.249273170540917,22.249273170540917 0 0,0 0.3778888535509455,0.0623548987125466 l -0.21399192932351693 1.2308090464478045" fill="#ff0c01" stroke="none" /><path d="M 106.40334571778207 80.00007090966166 l 0.5484789560490234 -1.7130951087118242 a22.79875624160724,22.79875624160724 0 0,0 0.37272403091674605,0.12288125288138174 l -0.5778858092081869 1.7034001315712062" fill="#ff1402" stroke="none" /><path d="M 108.76106565485865 80.91482961587045 l 0.46928294352025124 -1.0222894438056054 a22.12485651884825,22.12485651884825 0 0,0 0.3447492916589178,0.16186441501717597 l -0.48681044647876703 1.0140600461484266" fill="#ff0a01" stroke="none" /><path d="M 109.73455568895987 81.39251694778311 l 1.0075293196732054 -1.9258798592824073 a23.17350605299152,23.17350605299152 0 0,0 0.35185653306202436,0.18794957439832502 l -1.0405308992635407 1.9082515583823283" fill="#ff1902" stroke="none" /><path d="M 110.36928655335952 81.73862282372117 l 0.8859071762297185 -1.560173402967784 a22.79414954009508,22.79414954009508 0 0,0 0.3395278312769369,0.19667643488070205 l -0.9126317399719838 1.5446928106970326" fill="#ff1402" stroke="none" /><line stroke="#e1ed5e" stroke-width="0.3" x1="143.23703022742887" x2="145.7803849466894" y1="26.81831364943548" y2="22.513508569990506" /><path d="M 143.74570117128098 25.957352633546492 a86.0,86.0 0 0,1 28.547481713284135,27.462654790039103" fill="none" id="id98" stroke="none" /><text fill="#e1ed5e" style="font-size:6.75px; font-family:Arial;" text-anchor="middle"><textPath startOffset="19.985693538727396" xlink:href="#id98">February</textPath></text><path d="M 111.60114157652 82.49532879139004 l 0.613440374457135 -0.9256047769205676 a22.11042932961638,22.11042932961638 0 0,0 0.31543718246709423,0.21298459368302358 l -0.6292822513307711 0.914908270938874" fill="#ff0a01" stroke="none" /><path d="M 111.90073688211348 82.69761687909136 l 2.0690120446793383 -3.00811953355773 a24.650971647274154,24.650971647274154 0 0,0 0.3475421468459138,0.2434754838210064 l -2.120485331108903 2.972059206972788" fill="#ff2e04" stroke="none" /><path d="M 112.19680574252982 82.90503203632743 l 0.25496763574167675 -0.35736107115150656 a21.43899365650343,21.43899365650343 0 0,0 0.2985682908336115,0.21692256080449063 l -0.261081242929077 0.3529192755303411" fill="#ff0000" stroke="none" /><path d="M 112.77801427241765 83.33499621200491 l 1.4060336104851547 -1.8337399650086779 a23.31074290501647,23.31074290501647 0 0,0 0.3163239449037134,0.24689585644462209 l -1.4373901105482985 1.8092657193408317" fill="#ff1b02" stroke="none" /><path d="M 113.34407831869373 83.78471172551755 l 1.1920475684091807 -1.4485372835059087 a22.875963130516407,22.875963130516407 0 0,0 0.30190003649636843,0.2528325983854533 l -1.2168051418646666 1.427803527726636" fill="#ff1502" stroke="none" /><path d="M 113.6212207817346 84.01681056812373 l 2.354485057874432 -2.762761230989818 a24.62993794812175,24.62993794812175 0 0,0 0.3203137520274973,0.2777729293341192 l -2.401692608548693 2.7218233082360275" fill="#ff2e04" stroke="none" /><path d="M 113.89432698308785 84.25364557470407 l 2.3996842672952834 -2.7195472675741357 a24.62690252464475,24.62690252464475 0 0,0 0.31544600898447667,0.283210541459219 l -2.44614126387575 2.677837717345619" fill="#ff2e04" stroke="none" /><path d="M 114.68862486808459 84.99185889309783 l 1.0558810699377534 -1.0788492613876042 a22.50956966140999,22.50956966140999 0 0,0 0.27457837623300013,0.273399249424735 l -1.0742952463380762 1.0605141613127504" fill="#ff0f01" stroke="none" /><path d="M 114.94478906791727 85.2469230424477 l 0.38059816448616246 -0.3757158421607632 a21.534805905783404,21.534805905783404 0 0,0 0.2581466771763343,0.2660428425637651 l -0.38700910536560584 0.3691088040468838" fill="#ff0100" stroke="none" /><path d="M 115.4437574822437 85.77008943001954 l 2.6385022913937 -2.4311215511114206 a24.587763417223634,24.587763417223634 0 0,0 0.284113197915129,0.31372488928194386 l -2.679959129924865 2.385343874559928" fill="#ff2d04" stroke="none" /><path d="M 115.68641384162765 86.03803664274999 l 1.3385791264669946 -1.1914254528282087 a22.79200688822896,22.79200688822896 0 0,0 0.2583182421327725,0.29530240558106474 l -1.3588892321776154 1.1682074910441962" fill="#ff1302" stroke="none" /><path d="M 116.60985879189232 87.15038557335679 l 1.4199503922572227 -1.0984930861888076 a22.795256576892577,22.795256576892577 0 0,0 0.2374224315300439,0.3124200895489372 l -1.43864876401138 1.0738882207588367" fill="#ff1402" stroke="none" /><path d="M 116.82858285166822 87.43820079747576 l 1.439936542384639 -1.074849490848233 a22.796863565792165,22.796863565792165 0 0,0 0.23202581244931966,0.31648294742501937 l -1.458224967347585 1.0499040997517197" fill="#ff1402" stroke="none" /><path d="M 117.04232023915458 87.72973835380427 l 0.8215176411431928 -0.5914826304362746 a22.012295874148112,22.012295874148112 0 0,0 0.21874706467036986,0.30940220994782514 l -0.8315773256174456 0.5772539201566562" fill="#ff0801" stroke="none" /><path d="M 117.2510076193507 88.02491185347247 l 1.0965368065140744 -0.7611801700898025 a22.33483640172795,22.33483640172795 0 0,0 0.21651553593729486,0.31770983237410744 l -1.1094768081201025 0.7421923144452887" fill="#ff0d01" stroke="none" /><path d="M 117.45458315368197 88.32363383020206 l 0.9581291999817251 -0.6409472674575005 a22.152746703972237,22.152746703972237 0 0,0 0.20929426105389196,0.3187695184389777 l -0.9690200963935419 0.6243596850408488" fill="#ff0a01" stroke="none" /><path d="M 117.65298651832404 88.62581576622439 l 1.072316197747019 -0.690915499050316 a22.275627788494187,22.275627788494187 0 0,0 0.20490650309684802,0.3241128794960568 l -1.0840502970898227 0.6723549718400529" fill="#ff0c01" stroke="none" /><line stroke="#e1ed5e" stroke-width="0.3" x1="172.23445277983987" x2="176.4835382374775" y1="55.19839476539836" y2="52.563006222186495" /><path d="M 173.08426987136738 54.67131705675599 a86.0,86.0 0 0,1 12.851231095245387,41.99856678651699" fill="none" id="id99" stroke="none" /><text fill="#e1ed5e" style="font-size:6.75px; font-family:Arial;" text-anchor="middle"><textPath startOffset="22.20632615414155" xlink:href="#id99">March</textPath></text><path d="M 117.84615892207809 88.93136811851018 l 2.5759433741295372 -1.597664185346309 a24.031173884134684,24.031173884134684 0 0,0 0.21500371054598041,0.35340956871834023 l -2.6030628829617415 1.5530868434208873" fill="#ff2503" stroke="none" /><path d="M 118.03404312379186 89.2402003453031 l 20.971245631464942 -12.512246973963963 a45.420267559400486,45.420267559400486 0 0,0 0.39481097266370463,0.6748599321394021 l -21.183516278598972 12.149407629470666" fill="#c7ff1e" stroke="none" /><path d="M 118.21658344932153 89.55222093294921 l 0.5077231309489845 -0.291195059388804 a21.58530106809495,21.58530106809495 0 0,0 0.1820795783150145,0.32389925283708687 l -0.512660350556432 0.28241229661692324" fill="#ff0200" stroke="none" /><path d="M 118.3937258080291 89.86733742301442 l 8.890481355686786 -4.897553038701526 a31.150206131045266,31.150206131045266 0 0,0 0.2546780047797996,0.4718796639713969 l -8.97346745968505 4.74379239139767" fill="#ff870c" stroke="none" /><path d="M 118.73160827565052 90.50648371742162 l 12.222127296917977 -6.194394138162013 a34.702222972969146,34.702222972969146 0 0,0 0.26545545946979554,0.5351420079794059 l -12.32694276934118 5.983092541683658" fill="#ffb510" stroke="none" /><path d="M 119.04729006885535 91.15688171328212 l 16.15942960244478 -7.502366315824015 a38.816078845053966,38.816078845053966 0 0,0 0.2761443925723383,0.608447564706808 l -16.286176311980466 7.223096742275144" fill="#ffe815" stroke="none" /><path d="M 119.196687751892 91.48605970444005 l 16.06073477160439 -7.123110961409808 a38.56945961526361,38.56945961526361 0 0,0 0.2639423649076631,0.6092153689150199 l -16.180967846354736 6.845596447908186" fill="#ffe515" stroke="none" /><path d="M 120.08093135843002 93.85539295169968 l 13.155164833734604 -4.025376966640748 a34.75725341506398,34.75725341506398 0 0,0 0.17013527065060588,0.5736115538602377 l -13.222506001496912 3.7983360260339802" fill="#ffb610" stroke="none" /><path d="M 120.28053869075195 94.5502522615342 l 2.3085181162602115 -0.620340592285813 a23.390413843571675,23.390413843571675 0 0,0 0.10113977981276001,0.38973282913130386 l -2.3188542279432744 0.5805113376056587" fill="#ff1c02" stroke="none" /><path d="M 120.73433829027371 96.67025291283417 l 3.5493927707527364 -0.5700003575790681 a24.594869879246264,24.594869879246264 0 0,0 0.0635298448845899,0.4185823012116123 l -3.5586785090766258 0.5088189439753736" fill="#ff2d04" stroke="none" /><path d="M 120.78858239683441 97.02765380044208 l 4.200482179951459 -0.6005838688544081 a25.24320062306956,25.24320062306956 0 0,0 0.057799718216328885,0.430675036706079 l -4.210197897225624 0.5281904900836647" fill="#ff3605" stroke="none" /><path d="M 120.87857604477298 97.74499172005257 l 13.290248386257336 -1.4354245274821429 a34.36754075148129,34.36754075148129 0 0,0 0.05846225423219288,0.5887069218009673 l -13.312987766171757 1.2064420749767406" fill="#ffb110" stroke="none" /><path d="M 120.91429891909075 98.10471618934814 l 13.716972058076818 -1.2430517118174198 a34.773180460602134,34.773180460602134 0 0,0 0.04889029058748273,0.5965853797322713 l -13.736336832483795 1.0067524148773797" fill="#ffb610" stroke="none" /><line stroke="#e1ed5e" stroke-width="0.3" x1="184.98032266829074" x2="189.97916517819016" y1="98.17113171792111" y2="98.06355123074" /><path d="M 185.9800911702706 98.14961562048488 a86.0,86.0 0 0,1 -9.607161424134198,41.387399972396054" fill="none" id="id100" stroke="none" /><text fill="#e1ed5e" style="font-size:6.75px; font-family:Arial;" text-anchor="middle"><textPath startOffset="21.466115282336823" xlink:href="#id100">April</textPath></text><path d="M 120.99513854157772 99.54816195383933 l 1.7899854252974743 -0.0385224186837733 a22.790399899329373,22.790399899329373 0 0,0 0.005064887338789828,0.3922811060909547 l -1.7903833197539796 0.007705054532355874" fill="#ff1302" stroke="none" /><path d="M 120.99980553446 99.90962569577887 l 16.148303358719275 -0.06949548547014772 a37.14845289765323,37.14845289765323 0 0,0 -0.0027519975649356555,0.6394673153285003 l -16.147107063864837 -0.2084813080620373" fill="#ffd413" stroke="none" /><path d="M 120.9764740272857 100.99374915477107 l 9.665768093047152 0.4579105554243442 a30.676608646904008,30.676608646904008 0 0,0 -0.029527914435671532,0.527240747979856 l -9.65645382772395 -0.6242230197396236" fill="#ff800b" stroke="none" /><path d="M 120.95626037817324 101.35467743843564 l 13.751299709860598 0.8889265131252672 a34.78000123570928,34.78000123570928 0 0,0 -0.043762253443144154,0.5971011789594629 l -13.733960897753118 -1.1255008285815002" fill="#ffb610" stroke="none" /><path d="M 120.92983693683757 101.71520430193887 l 13.635194343925688 1.1174068898411407 a34.68090358690125,34.68090358690125 0 0,0 -0.05387992766659425,0.5945605120589089 l -13.613939819982019 -1.35194879044862" fill="#ffb510" stroke="none" /><path d="M 120.89721153311464 102.0752229133903 l 3.2897162241257303 0.3266892559344262 a24.305897564235625,24.305897564235625 0 0,0 -0.04492852397118171,0.41598233259417966 l -3.2836053986534965 -0.3832679104133973" fill="#ff2904" stroke="none" /><path d="M 120.8583938346157 102.4346265915055 l 18.480043501631847 2.1570215654181704 a39.60550321426122,39.60550321426122 0 0,0 -0.08486608905527906,0.6764662302604292 l -18.44017590332972 -2.4748055499659944" fill="#fff216" stroke="none" /><path d="M 120.81339534386255 102.79330883721812 l 13.636316902571116 1.8300927783169574 a34.75857471704808,34.75857471704808 0 0,0 -0.08468835527181583,0.5923101595239484 l -13.602794496282698 -2.064548409821315" fill="#ffb610" stroke="none" /><path d="M 120.76222939487914 103.15116336523771 l 1.8737176211342064 0.2843813259271052 a22.895175575582613,22.895175575582613 0 0,0 -0.062491014170603515,0.38913160489267934 l -1.8685448526023145 -0.3165921605129895" fill="#ff1502" stroke="none" /><path d="M 120.70491114924044 103.5080841355445 l 13.566896114266704 2.298672652298985 a34.76025312767655,34.76025312767655 0 0,0 -0.10503151076863904,0.5890724908527183 l -13.525318161158877 -2.5318638938849216" fill="#ffb610" stroke="none" /><path d="M 120.5718875245553 104.21870165774334 l 1.8287985404819656 0.37503391097199007 a22.8668568600854,22.8668568600854 0 0,0 -0.08239250979375833,0.38491037587756005 l -1.8220719919637642 -0.40645810626571915" fill="#ff1502" stroke="none" /><path d="M 120.49622156327973 104.57218783832717 l 28.586109209498975 6.376836846207917 a50.28872970786813,50.28872970786813 0 0,0 -0.1957415383996446,0.8432494243936531 l -28.472107105168778 -6.8679549279501355" fill="#91ff24" stroke="none" /><path d="M 120.41448212921028 104.9243191809786 l 1.8212972630630426 0.4393277767224025 a22.873534791734805,22.873534791734805 0 0,0 -0.09562083603774273,0.381957707906499 l -1.813465112730239 -0.4706133240262974" fill="#ff1502" stroke="none" /><path d="M 120.32669344350535 105.2749913415812 l 13.307489331444462 3.453433840415528 a34.74828998809071,34.74828998809071 0 0,0 -0.15522875845793108,0.5776639567375137 l -13.246072496644752 -3.68198873032859" fill="#ffb610" stroke="none" /><path d="M 120.23288151984713 105.62410040840565 l 13.218306559163958 3.674270678889781 a34.7194713204914,34.7194713204914 0 0,0 -0.1650123276765211,0.5744295602256094 l -13.153101594601337 -3.9012577146199723" fill="#ffb510" stroke="none" /><path d="M 120.02730092923936 106.31721596034902 l 13.128272886789835 4.141054019474201 a34.765895444257325,34.765895444257325 0 0,0 -0.18493428197535713,0.569169195094887 l -13.055046353798232 -4.366422114546883" fill="#ffb610" stroke="none" /><path d="M 119.9155931802556 106.66101706037122 l 14.739886375005728 4.929937748938613 a36.542475239050226,36.542475239050226 0 0,0 -0.20465381657820292,0.5948197873043196 l -14.652841727484294 -5.182930239332233" fill="#ffcc13" stroke="none" /><path d="M 119.79798401119884 107.00284435728193 l 8.089597068331155 2.8614120079399363 a29.580749349977243,29.580749349977243 0 0,0 -0.17392880409559994,0.4785773694221059 l -8.039144003230328 -3.0002371743681735" fill="#ff720a" stroke="none" /><path d="M 119.41010516605496 108.01547362559984 l 12.77894352922397 5.277111275041216 a34.825675431322054,34.825675431322054 0 0,0 -0.23357915303889643,0.5521121196175777 l -12.686213394992764 -5.496297920324958" fill="#ffb610" stroke="none" /><path d="M 119.12269723197855 108.67885076344098 l 14.103589310006155 6.400924794527038 a36.488159014244104,36.488159014244104 0 0,0 -0.2644963803215462,0.5697016725099852 l -13.991318312844777 -6.642746534315854" fill="#ffcc13" stroke="none" /><path d="M 118.97047184881838 109.00673069616215 l 0.675451852238462 0.3206885405812757 a21.7477140795468,21.7477140795468 0 0,0 -0.16346694493003755,0.3367903238656235 l -0.6698316506937102 -0.3322678204121746" fill="#ff0400" stroke="none" /><path d="M 118.64920377521936 109.65438752849418 l 0.48426200944625947 0.2506945154802733 a21.545304899927388,21.545304899927388 0 0,0 -0.17333453439869778,0.3278836162575205 l -0.4798749668226686 -0.2589931468239281" fill="#ff0200" stroke="none" /><line stroke="#e1ed5e" stroke-width="0.3" x1="174.80103733775053" x2="179.2010983576182" y1="140.37084112569926" y2="142.7455964860345" /><path d="M 175.68104954172406 140.8457921977663 a86.0,86.0 0 0,1 -30.038265399797805,32.042727171017184" fill="none" id="id101" stroke="none" /><text fill="#e1ed5e" style="font-size:6.75px; font-family:Arial;" text-anchor="middle"><textPath startOffset="22.206326154141568" xlink:href="#id101">May</textPath></text><path d="M 118.30583269289576 110.29060199501025 l 1.4129005797037921 0.7942603741753627 a22.620844714990458,22.620844714990458 0 0,0 -0.1937292270160966,0.337783236787706 l -1.399019356535316 -0.8184634568213838" fill="#ff1101" stroke="none" /><path d="M 117.14729908036423 112.12312394758627 l 1.5373063830322644 1.0868741333296787 a22.882712483894682,22.882712483894682 0 0,0 -0.23015672770750573,0.31966756470945584 l -1.518369862949156 -1.1131753034902658" fill="#ff1502" stroke="none" /><path d="M 116.93607887273984 112.41649034213515 l 11.168331640396197 8.187933168754077 a34.848244697645185,34.848244697645185 0 0,0 -0.3588352519675367,0.48071846002931506 l -11.025735121733568 -8.378964508292707" fill="#ffb711" stroke="none" /><path d="M 116.498646956653 112.99209946851258 l 10.798676694354116 8.503574996783778 a34.74489745596936,34.74489745596936 0 0,0 -0.37405709344216886,0.4666937379765151 l -10.650701688857092 -8.688196568338542" fill="#ffb510" stroke="none" /><path d="M 116.0416608686014 113.55231037782055 l 32.39586773896089 27.368665760573425 a63.40915127745698,63.40915127745698 0 0,0 -0.711563879061541,0.8277095470420005 l -31.919961350328567 -27.922252406776952" fill="#34ff59" stroke="none" /><path d="M 114.29624159901734 115.38237550388516 l 1.220169438168363 1.3128698438868331 a22.792328286008882,22.792328286008882 0 0,0 -0.28968012801118626,0.26461592868867595 l -1.1973897606903128 -1.333678539162092" fill="#ff1302" stroke="none" /><path d="M 114.0293411484842 115.62618273729858 l 1.245772036734942 1.387567761664995 a22.864749919083717,22.864749919083717 0 0,0 -0.29512691973552957,0.26041519284803605 l -1.2217027640928249 -1.40880609628532" fill="#ff1502" stroke="none" /><path d="M 113.48314897796784 116.09983520530334 l 9.120155499844365 10.89011185993479 a35.20463912470971,35.20463912470971 0 0,0 -0.46793649492908373,0.38507987837225577 l -8.93134887637059 -11.045486857164223" fill="#ffbb11" stroke="none" /><path d="M 112.92097659922987 116.55440617244103 l 8.458517852188878 10.837086428151576 a34.74732579475096,34.74732579475096 0 0,0 -0.47466712058052524,0.3639545072167702 l -8.270722003114859 -10.981080277195717" fill="#ffb510" stroke="none" /><path d="M 112.34349029814194 116.9893568818739 l 2.6722775706688826 3.678074534749278 a25.54635015126102,25.54635015126102 0 0,0 -0.357980605843792,0.2554096572949547 l -2.608569636976206 -3.7235284538884517" fill="#ff3a05" stroke="none" /><path d="M 112.04921762599082 117.19931262002967 l 1.0300274577864579 1.4702833664046233 a22.795185155163708,22.795185155163708 0 0,0 -0.3233042362958173,0.22237160176968387 l -1.0045663368677573 -1.4877957575394012" fill="#ff1402" stroke="none" /><path d="M 111.45004920935366 117.60387380957326 l 7.500582522981873 11.531767752141988 a34.7564677760464,34.7564677760464 0 0,0 -0.5043299156157519,0.3218872136900603 l -7.3009708053191895 -11.659169394655857" fill="#ffb610" stroke="none" /><path d="M 111.1453310114006 117.79835938074945 l 0.4999566709590804 0.7983978668224929 a21.942016892939396,21.942016892939396 0 0,0 -0.3218379808791424,0.1976991741519376 l -0.4861394901476293 -0.8068855078028087" fill="#ff0701" stroke="none" /><line stroke="#e1ed5e" stroke-width="0.3" x1="143.8653032363475" x2="146.44561519142675" y1="172.8068346515853" y2="177.08958963109032" /><path d="M 144.38136562736335 173.6633856474863 a86.0,86.0 0 0,1 -40.68145358897372,12.25698825130547" fill="none" id="id102" stroke="none" /><text fill="#e1ed5e" style="font-size:6.75px; font-family:Arial;" text-anchor="middle"><textPath startOffset="21.466115282336833" xlink:href="#id102">June</textPath></text><path d="M 110.8373102113329 117.98757091392108 l 14.076298954060075 23.363585678015497 a48.27635107520879,48.27635107520879 0 0,0 -0.715483405910404,0.42272020762655105 l -13.672047677121288 -23.602424457935797" fill="#a7ff21" stroke="none" /><path d="M 110.21172684928248 118.3499491758327 l 30.635180547847472 55.049847527498095 a84.0,84.0 0 0,0 -1.2695087525254052,0.692237392960918 l -29.683048983453418 -55.56902557221878" fill="#4dd2ff" stroke="none" /><path d="M 109.89434966115114 118.52300852407294 l 1.7229493880431044 3.2254981170289123 a24.65682822904155,24.65682822904155 0 0,0 -0.3760860188858821,0.19675043015813345 l -1.6671724666307266 -3.254677966131762" fill="#ff2e04" stroke="none" /><path d="M 109.2508944713604 118.85261126421891 l 1.6790495461801709 3.42177380635961 a24.811527693775368,24.811527693775368 0 0,0 -0.3850363125220378,0.18484082862875664 l -1.6199005656579004 -3.450168911487927" fill="#ff3004" stroke="none" /><path d="M 108.92500713936063 119.00905698771935 l 11.624892005888885 24.759446257636878 a48.352665192507075,48.352665192507075 0 0,0 -0.7564475240800612,0.34724795689702953 l -11.196976486041406 -24.95588128486798" fill="#a6ff21" stroke="none" /><path d="M 108.59647513512805 119.15986991738527 l 11.267203544587078 25.112403729854456 a48.524220185254364,48.524220185254364 0 0,0 -0.7650174324615534,0.33536116060119703 l -10.833265437467771 -25.30262944375011" fill="#a5ff21" stroke="none" /><path d="M 107.2578585660854 119.70592522655815 l 4.9287123245660345 13.382023863755048 a35.26081231446648,35.26081231446648 0 0,0 -0.5713602241390052,0.20486944835316712 l -4.6976325397972944 -13.464880853148175" fill="#ffbc11" stroke="none" /><path d="M 106.91757812671514 119.82793768551818 l 4.493524716663624 12.879844135949154 a34.64119310564918,34.64119310564918 0 0,0 -0.5647013755823798,0.19157736655121088 l -4.271153608144018 -12.955284489398487" fill="#ffb410" stroke="none" /><path d="M 106.2309692047433 120.05430185196036 l 4.211085329353679 13.553329112095913 a35.192461719937256,35.192461719937256 0 0,0 -0.5800472243963787,0.17476347051069233 l -3.977163130517054 -13.623807951712331" fill="#ffbb11" stroke="none" /><path d="M 105.88484417918355 120.15858648285463 l 3.8980655921424447 13.352858625042701 a34.91020304744047,34.91020304744047 0 0,0 -0.5782938835878166,0.16343162792338964 l -3.6676405404500225 -13.417979046304609" fill="#ffb811" stroke="none" /><path d="M 105.53697534728816 120.25689768951611 l 0.4825746181333182 1.7654882050128071 a22.830253224039193,22.830253224039193 0 0,0 -0.37997103308739627,0.10035380334135999 l -0.4521131422344245 -1.773533357657751" fill="#ff1402" stroke="none" /><path d="M 104.13013068566511 120.58985236759428 l 4.469518116936997 22.281793285967403 a43.725644198486656,43.725644198486656 0 0,0 -0.7392390363894111,0.14167692072776583 l -4.085311465975881 -22.35542740504364" fill="#dbff1b" stroke="none" /><path d="M 103.41894727170886 120.7198165907248 l 0.9989404587370051 6.053870225304768 a27.135733594683956,27.135733594683956 0 0,0 -0.4615195645092688,0.07207986434711797 l -0.8945850306192192 -6.070168396998992" fill="#ff5007" stroke="none" /><line stroke="#e1ed5e" stroke-width="0.3" x1="102.19456741930631" x2="102.32365962044197" y1="184.97166512339345" y2="189.96999836594603" /><path d="M 102.22038585953345 185.97133177190398 a86.0,86.0 0 0,1 -42.740103519485714,-10.115201625700543" fill="none" id="id103" stroke="none" /><text fill="#e1ed5e" style="font-size:6.75px; font-family:Arial;" text-anchor="middle"><textPath startOffset="22.20632615414155" xlink:href="#id103">July</textPath></text><line stroke="#e1ed5e" stroke-width="0.3" x1="58.666819895761336" x2="56.23545636021788" y1="174.27360380694188" y2="178.64263932499728" /><path d="M 58.180547188652646 175.14741091055294 a86.0,86.0 0 0,1 -31.652253787137756,-30.449443065178592" fill="none" id="id104" stroke="none" /><text fill="#e1ed5e" style="font-size:6.75px; font-family:Arial;" text-anchor="middle"><textPath startOffset="22.20632615414155" xlink:href="#id104">August</textPath></text><line stroke="#e1ed5e" stroke-width="0.3" x1="26.63291911575756" x2="22.317208475507996" y1="142.92168965132927" y2="145.44649492493687" /><path d="M 25.769776987707644 143.4266507060508 a86.0,86.0 0 0,1 -11.730757126820373,-40.83630448921669" fill="none" id="id105" stroke="none" /><text fill="#e1ed5e" style="font-size:6.75px; font-family:Arial;" text-anchor="middle"><textPath startOffset="21.46611528233685" xlink:href="#id105">September</textPath></text><line stroke="#e1ed5e" stroke-width="0.3" x1="15.007084014347285" x2="10.007500721073583" y1="101.09737516637583" y2="101.16192664675087" /><path d="M 14.007167355692545 101.11028546245083 a86.0,86.0 0 0,1 10.666146001902534,-42.60595125391555" fill="none" id="id106" stroke="none" /><text fill="#e1ed5e" style="font-size:6.75px; font-family:Arial;" text-anchor="middle"><textPath startOffset="22.20632615414155" xlink:href="#id106">October</textPath></text><line stroke="#e1ed5e" stroke-width="0.3" x1="26.266209847984243" x2="21.928928074336255" y1="57.711370442889674" y2="55.22380399835377" /><path d="M 25.398753493254645 57.213857153982495 a86.0,86.0 0 0,1 29.58750427330803,-30.492523968695096" fill="none" id="id107" stroke="none" /><text fill="#e1ed5e" style="font-size:6.75px; font-family:Arial;" text-anchor="middle"><textPath startOffset="21.46611528233685" xlink:href="#id107">November</textPath></text><line stroke="#e1ed5e" stroke-width="0.3" x1="56.762969772571076" x2="54.21961505331055" y1="26.818313649435495" y2="22.513508569990535" /><path d="M 56.25429882871897 25.957352633546506 a86.0,86.0 0 0,1 42.265352541879196,-11.944610805530505" fill="none" id="id108" stroke="none" /><text fill="#e1ed5e" style="font-size:6.75px; font-family:Arial;" text-anchor="middle"><textPath startOffset="22.20632615414155" xlink:href="#id108">December</textPath></text></svg>