<?xml version="1.0" encoding="utf-8" ?>
<svg baseProfile="full" height="200mm" version="1.1" viewBox="0,0,200,200" width="200mm" xmlns="http://www.w3.org/2000/svg" xmlns:ev="http://www.w3.org/2001/xml-events" xmlns:xlink="http://www.w3.org/1999/xlink"><defs /><rect fill="#1a1a1a" height="200" width="200" x="0" y="0" /><text alignment-baseline="middle" fill="#e1ed5e" style="dominant-baseline: central; font-size:9.0px; font-family:Arial;" text-anchor="middle" x="100.0" y="100.0">2024</text><line stroke="#e1ed5e" stroke-width="0.3" x1="100.0" x2="100.0" y1="15.0" y2="10.0" /><path d="M 100.0 14.0 a86.0,86.0 0 0,1 42.35913384403234,11.155469271406648" fill="none" id="id109" stroke="none" /><text fill="#e1ed5e" style="font-size:6.75px; font-family:Arial;" text-anchor="middle"><textPath startOffset="22.145653131862478" xlink:href="#id109">January</textPath></text><path d="M 100.36049292484886 79.00309439819443 l 0.05723173349090528 -3.333461554176324 a24.33395281977565,24.33395281977565 0 0,0 0.4176015529656136,0.010755934669705933 l -0.1144466005272602 3.3319879021565733" fill="#ff0100" stroke="none" /><path d="M 102.15924093988457 79.11130261209362 l 0.8679087719656154 -8.396230065398985 a29.44096824704161,29.44096824704161 0 0,0 0.5022686640488541,0.05628025143885261 l -1.0119133376152663 8.380094053453162" fill="#ff4c07" stroke="none" /><path d="M 102.51750503828377 79.15144685158666 l 0.42641263431772114 -3.531308313006787 a24.55696023821136,24.55696023821136 0 0,0 0.4180789481955499,0.05412869007605342 l -0.4869694044040627 3.523468026730336" fill="#ff0400" stroke="none" /><path d="M 103.23170211078529 79.25015418208739 l 1.29525246855198 -8.31644999953087 a29.41671073234592,29.41671073234592 0 0,0 0.49829456160360136,0.08199418048855354 l -1.437824533208652 8.292989820546646" fill="#ff4c07" stroke="none" /><path d="M 104.64783097203109 79.52079915486377 l 1.8640836167134343 -8.213496361749161 a29.42237081910825,29.42237081910825 0 0,0 0.4915887562460461,0.11601360794727941 l -2.004804526699365 8.180286610155655" fill="#ff4c07" stroke="none" /><path d="M 104.9986988182912 79.60360301121754 l 1.8283096676352806 -7.460127356155852 a28.68089945324332,28.68089945324332 0 0,0 0.47718830735704265,0.12129940169980018 l -1.9561032682177177 7.427642722620785" fill="#ff4106" stroke="none" /><path d="M 105.3480935250658 79.69241777938227 l 0.8709717011173217 -3.3072214143924628 a24.419986138563033,24.419986138563033 0 0,0 0.4044631127575817,0.11023821994965124 l -0.9276162148095961 3.2917827002986697" fill="#ff0200" stroke="none" /><path d="M 105.69591212413111 79.78721728523813 l 3.134805922073585 -11.124320315157235 a32.557573735143876,32.557573735143876 0 0,0 0.536641817598462,0.15620861200126354 l -3.325307752053652 11.068868008853455" fill="#ff790b" stroke="none" /><path d="M 107.06938296918511 80.22567764915836 l 2.836971676131437 -7.935514693228891 a29.427384038812022,29.427384038812022 0 0,0 0.47421647605591655,0.17413885859035516 l -2.9727773038414784 7.885644985629813" fill="#ff4c07" stroke="none" /><path d="M 107.40779381753099 80.34994680014964 l 1.2881540585286393 -3.4169816821558734 a24.65172626228919,24.65172626228919 0 0,0 0.3946949593713535,0.15267648929827585 l -1.3466212803935187 3.3943653047195594" fill="#ff0600" stroke="none" /><path d="M 108.4095320186766 80.7573450057729 l 1.5217330649808458 -3.4820230540417527 a24.800020535462178,24.800020535462178 0 0,0 0.38863592224408117,0.17383190477041244 l -1.5812823900805586 3.455387398361488" fill="#ff0801" stroke="none" /><line stroke="#e1ed5e" stroke-width="0.3" x1="143.13028292997686" x2="145.6673583964461" y1="26.7553504044142" y2="22.446841604673864" /><path d="M 143.63769802327073 25.89364864446614 a86.0,86.0 0 0,1 29.32050498858742,28.57503671076993" fill="none" id="id110" stroke="none" /><text fill="#e1ed5e" style="font-size:6.75px; font-family:Arial;" text-anchor="middle"><textPath startOffset="20.669276256404974" xlink:href="#id110">February</textPath></text><path d="M 113.59037401385872 83.9905735841838 l 23.84540783541054 -28.089830471688472 a57.84619452216547,57.84619452216547 0 0,0 0.7515061372988556,0.6491331025588317 l -24.32409345247226 27.676353236664923" fill="#50ff2b" stroke="none" /><path d="M 114.13192950727249 84.46653392183569 l 5.673485235023 -6.236154121618243 a29.43078009086942,29.43078009086942 0 0,0 0.3707861056690348,0.3431940838921205 l -5.779701112005999 6.137842291593747" fill="#ff4c07" stroke="none" /><path d="M 114.39649973595853 84.71141617570332 l 7.131139865873095 -7.573023415536891 a31.40210745180584,31.40210745180584 0 0,0 0.3892777415009035,0.3729192705391012 l -7.26009009323931 7.4494920146922095" fill="#ff6909" stroke="none" /><path d="M 114.65682725009322 84.96080404539774 l 11.620342886049462 -11.923495497421161 a37.649387786533865,37.649387786533865 0 0,0 0.4589784512149036,0.45505558204167906 l -11.823313257394327 11.722259905150821" fill="#ffbe11" stroke="none" /><path d="M 115.41159269507618 85.73525988315684 l 9.462481342853073 -8.758331464300934 a33.89367764458249,33.89367764458249 0 0,0 0.3915563868333319,0.4303890597129099 l -9.611435430528282 8.594604829030352" fill="#ff8b0c" stroke="none" /><line stroke="#e1ed5e" stroke-width="0.3" x1="172.87174338648825" x2="177.1583165268699" y1="56.24261187166439" y2="53.66864786411523" /><path d="M 173.72905801456457 55.72781907015455 a86.0,86.0 0 0,1 12.242430191666344,42.057860355516425" fill="none" id="id111" stroke="none" /><text fill="#e1ed5e" style="font-size:6.75px; font-family:Arial;" text-anchor="middle"><textPath startOffset="22.145653131862474" xlink:href="#id111">March</textPath></text><path d="M 118.18653347947321 89.5 l 5.473606447967642 -3.1601881561721905 a27.32037631234438,27.32037631234438 0 0,0 0.23100891848250954,0.40817062411154625 l -5.5270487314715275 3.065760761961526" fill="#ff2e04" stroke="none" /><path d="M 118.36410011445183 89.81374322990088 l 7.3441315846475295 -4.073665990077169 a29.398275021177195,29.398275021177195 0 0,0 0.24100236943727643,0.4434172151020086 l -7.412979303700147 3.9469939415005566" fill="#ff4c07" stroke="none" /><path d="M 118.70294669586156 90.45014215332178 l 3.058570547269933 -1.5617279146140008 a24.43421721385117,24.43421721385117 0 0,0 0.18753853576818102,0.37520269862106304 l -3.084928996249851 1.5089933598291874" fill="#ff0200" stroke="none" /><path d="M 118.8641267826498 90.77261029715802 l 7.325616849825178 -3.583326292591178 a29.155053007161744,29.155053007161744 0 0,0 0.21605385634250526,0.45146946378848607 l -7.386049964127595 3.4570443267375883" fill="#ff4806" stroke="none" /><path d="M 119.16976305983485 91.42560881287824 l 7.585728710573249 -3.392999965665519 a29.309977667684883,29.309977667684883 0 0,0 0.20149369971680767,0.46105701703138585 l -7.642856292307027 3.262280878858284" fill="#ff4b06" stroke="none" /><path d="M 119.31412917781788 91.75594674310238 l 7.651185408260188 -3.265836083178839 a29.319033806504606,29.319033806504606 0 0,0 0.19360915486301544,0.4645914907331847 l -7.706120407659687 3.1340120830043765" fill="#ff4b06" stroke="none" /><path d="M 119.4528033332814 92.08871423366111 l 8.223536913395401 -3.344440871439841 a29.877603511564033,29.877603511564033 0 0,0 0.18914134284114745,0.476759740229596 l -8.279736931202674 3.2027801139966794" fill="#ff5307" stroke="none" /><path d="M 119.58574465831526 92.42381321644754 l 7.5605991855021815 -2.9246021851214223 a29.106537977770365,29.106537977770365 0 0,0 0.17625993005533674,0.4675504054112066 l -7.609689799371958 2.794383499516058" fill="#ff4806" stroke="none" /><path d="M 119.71291397450082 92.76114493625339 l 3.078153528205097 -1.130340612425931 a24.27913083656339,24.27913083656339 0 0,0 0.14031005665743748,0.3924722004032104 l -3.097103754906478 1.0773334556418037" fill="#ff0000" stroke="none" /><path d="M 119.83427380445688 93.10060997987247 l 3.4424483122790464 -1.1974622194237305 a24.64477244140976,24.64477244140976 0 0,0 0.13556335709592598,0.40076897722413146 l -3.4624970909473376 1.1381915677254373" fill="#ff0600" stroke="none" /><path d="M 119.94978838288452 93.4421083053983 l 59.84936514865356 -19.673675083805065 a84.0,84.0 0 0,0 0.4385411368909713,1.373723865234452 l -60.17827100132179 18.643382184879226" fill="#4dd2ff" stroke="none" /><path d="M 120.16314734710363 94.1308016681162 l 7.8497927006660495 -2.2849602510592613 a29.17559103627076,29.17559103627076 0 0,0 0.13584920410199344,0.48208090023963 l -7.887860396842625 2.149871426916618" fill="#ff4906" stroke="none" /><path d="M 120.35273937422433 94.82641323984039 l 9.689350059198002 -2.4629948951394662 a30.997492106681726,30.997492106681726 0 0,0 0.12666530806981421,0.516837681567198 l -9.730202893784108 2.2963013889641735" fill="#ff6309" stroke="none" /><path d="M 120.43855184770803 95.1765574152323 l 60.312746291588354 -14.233643901720994 a82.9695407757271,82.9695407757271 0 0,0 0.31524134168815865,1.3890115174091247 l -60.548198494834175 13.196198050372843" fill="#4cdcff" stroke="none" /><line stroke="#e1ed5e" stroke-width="0.3" x1="184.99686870605535" x2="189.99668451229388" y1="99.2704041080226" y2="99.22748670261217" /><path d="M 185.99683186730306 99.26182062694052 a86.0,86.0 0 0,1 -10.086455211305974,41.156179273409016" fill="none" id="id112" stroke="none" /><text fill="#e1ed5e" style="font-size:6.75px; font-family:Arial;" text-anchor="middle"><textPath startOffset="21.40746469413373" xlink:href="#id112">April</textPath></text><line stroke="#e1ed5e" stroke-width="0.3" x1="174.33088141563837" x2="178.70328620479359" y1="141.23008692659167" y2="143.65538615756765" /><path d="M 175.20536237346943 141.71514677278685 a86.0,86.0 0 0,1 -30.301960400862466,31.631185727798858" fill="none" id="id113" stroke="none" /><text fill="#e1ed5e" style="font-size:6.75px; font-family:Arial;" text-anchor="middle"><textPath startOffset="22.145653131862474" xlink:href="#id113">May</textPath></text><line stroke="#e1ed5e" stroke-width="0.3" x1="143.1302829299769" x2="145.66735839644613" y1="173.24464959558577" y2="177.55315839532614" /><path d="M 143.63769802327073 174.10635135553383 a86.0,86.0 0 0,1 -40.68552437913181,11.842963189579606" fill="none" id="id114" stroke="none" /><text fill="#e1ed5e" style="font-size:6.75px; font-family:Arial;" text-anchor="middle"><textPath startOffset="21.407464694133747" xlink:href="#id114">June</textPath></text><line stroke="#e1ed5e" stroke-width="0.3" x1="101.45913802915013" x2="101.54496967792366" y1="184.9874750549273" y2="189.98673829345242" /><path d="M 101.47630435890484 185.9873277026323 a86.0,86.0 0 0,1 -42.54439059252881,-10.42667462771756" fill="none" id="id115" stroke="none" /><text fill="#e1ed5e" style="font-size:6.75px; font-family:Arial;" text-anchor="middle"><textPath startOffset="22.145653131862474" xlink:href="#id115">July</textPath></text><line stroke="#e1ed5e" stroke-width="0.3" x1="58.13341422392154" x2="55.67067388415222" y1="173.97424548756322" y2="178.32567169271397" /><path d="M 57.64086615596768 174.84453072859336 a86.0,86.0 0 0,1 -31.369924170532247,-30.572349798747897" fill="none" id="id116" stroke="none" /><text fill="#e1ed5e" style="font-size:6.75px; font-family:Arial;" text-anchor="middle"><textPath startOffset="22.145653131862474" xlink:href="#id116">August</textPath></text><line stroke="#e1ed5e" stroke-width="0.3" x1="26.387840678322732" x2="22.057713659400548" y1="142.50000000000003" y2="145.00000000000006" /><path d="M 25.521815274538298 143.00000000000003 a86.0,86.0 0 0,1 -11.493303480769221,-40.785679425670985" fill="none" id="id117" stroke="none" /><text fill="#e1ed5e" style="font-size:6.75px; font-family:Arial;" text-anchor="middle"><textPath startOffset="21.40746469413373" xlink:href="#id117">September</textPath></text><line stroke="#e1ed5e" stroke-width="0.3" x1="15.003131293944662" x2="10.003315487706104" y1="100.72959589197737" y2="100.7725132973878" /><path d="M 14.003168132696942 100.73817937305945 a86.0,86.0 0 0,1 10.791469493833604,-42.45332614584628" fill="none" id="id118" stroke="none" /><text fill="#e1ed5e" style="font-size:6.75px; font-family:Arial;" text-anchor="middle"><textPath startOffset="22.145653131862435" xlink:href="#id118">October</textPath></text><line stroke="#e1ed5e" stroke-width="0.3" x1="26.387840678322718" x2="22.05771365940052" y1="57.49999999999999" y2="54.99999999999999" /><path d="M 25.521815274538284 56.99999999999999 a86.0,86.0 0 0,1 29.574782752854787,-30.34633250058573" fill="none" id="id119" stroke="none" /><text fill="#e1ed5e" style="font-size:6.75px; font-family:Arial;" text-anchor="middle"><textPath startOffset="21.40746469413373" xlink:href="#id119">November</textPath></text><line stroke="#e1ed5e" stroke-width="0.3" x1="56.869717070023135" x2="54.33264160355391" y1="26.7553504044142" y2="22.446841604673864" /><path d="M 56.362301976729285 25.89364864446614 a86.0,86.0 0 0,1 42.16139366436587,-11.88097634709845" fill="none" id="id120" stroke="none" /><text fill="#e1ed5e" style="font-size:6.75px; font-family:Arial;" text-anchor="middle"><textPath startOffset="22.145653131862474" xlink:href="#id120">December</textPath></text></svg>