<?xml version="1.0" encoding="utf-8" ?>
<svg baseProfile="full" height="200mm" version="1.1" viewBox="0,0,200,200" width="200mm" xmlns="http://www.w3.org/2000/svg" xmlns:ev="http://www.w3.org/2001/xml-events" xmlns:xlink="http://www.w3.org/1999/xlink"><defs /><rect fill="#1a1a1a" height="200" width="200" x="0" y="0" /><text alignment-baseline="middle" fill="#e1ed5e" style="dominant-baseline: central; font-size:9.0px; font-family:Arial;" text-anchor="middle" x="100.0" y="100.0">2015</text><line stroke="#e1ed5e" stroke-width="0.3" x1="100.0" x2="100.0" y1="15.0" y2="10.0" /><path d="M 100.0 14.0 a86.0,86.0 0 0,1 42.46469731375804,11.215312516191453" fill="none" id="id1" stroke="none" /><text fill="#e1ed5e" style="font-size:6.75px; font-family:Arial;" text-anchor="middle"><textPath startOffset="22.20632615414155" xlink:href="#id1">January</textPath></text><line stroke="#e1ed5e" stroke-width="0.3" x1="143.23703022742887" x2="145.7803849466894" y1="26.81831364943548" y2="22.513508569990506" /><path d="M 143.74570117128098 25.957352633546492 a86.0,86.0 0 0,1 28.547481713284135,27.462654790039103" fill="none" id="id2" stroke="none" /><text fill="#e1ed5e" style="font-size:6.75px; font-family:Arial;" text-anchor="middle"><textPath startOffset="19.985693538727396" xlink:href="#id2">February</textPath></text><line stroke="#e1ed5e" stroke-width="0.3" x1="172.23445277983987" x2="176.4835382374775" y1="55.19839476539836" y2="52.563006222186495" /><path d="M 173.08426987136738 54.67131705675599 a86.0,86.0 0 0,1 12.851231095245387,41.99856678651699" fill="none" id="id3" stroke="none" /><text fill="#e1ed5e" style="font-size:6.75px; font-family:Arial;" text-anchor="middle"><textPath startOffset="22.20632615414155" xlink:href="#id3">March</textPath></text><line stroke="#e1ed5e" stroke-width="0.3" x1="184.98032266829074" x2="189.97916517819016" y1="98.17113171792111" y2="98.06355123074" /><path d="M 185.9800911702706 98.14961562048488 a86.0,86.0 0 0,1 -9.607161424134198,41.387399972396054" fill="none" id="id4" stroke="none" /><text fill="#e1ed5e" style="font-size:6.75px; font-family:Arial;" text-anchor="middle"><textPath startOffset="21.466115282336823" xlink:href="#id4">April</textPath></text><line stroke="#e1ed5e" stroke-width="0.3" x1="174.80103733775053" x2="179.2010983576182" y1="140.37084112569926" y2="142.7455964860345" /><path d="M 175.68104954172406 140.8457921977663 a86.0,86.0 0 0,1 -30.038265399797805,32.042727171017184" fill="none" id="id5" stroke="none" /><text fill="#e1ed5e" style="font-size:6.75px; font-family:Arial;" text-anchor="middle"><textPath startOffset="22.206326154141568" xlink:href="#id5">May</textPath></text><line stroke="#e1ed5e" stroke-width="0.3" x1="143.8653032363475" x2="146.44561519142675" y1="172.8068346515853" y2="177.08958963109032" /><path d="M 144.38136562736335 173.6633856474863 a86.0,86.0 0 0,1 -40.68145358897372,12.25698825130547" fill="none" id="id6" stroke="none" /><text fill="#e1ed5e" style="font-size:6.75px; font-family:Arial;" text-anchor="middle"><textPath startOffset="21.466115282336833" xlink:href="#id6">June</textPath></text><line stroke="#e1ed5e" stroke-width="0.3" x1="102.19456741930631" x2="102.32365962044197" y1="184.97166512339345" y2="189.96999836594603" /><path d="M 102.22038585953345 185.97133177190398 a86.0,86.0 0 0,1 -42.740103519485714,-10.115201625700543" fill="none" id="id7" stroke="none" /><text fill="#e1ed5e" style="font-size:6.75px; font-family:Arial;" text-anchor="middle"><textPath startOffset="22.20632615414155" xlink:href="#id7">July</textPath></text><path d="M 93.76903079525671 120.05430185196036 l -0.22294440583382938 0.7175439749235234 a21.751381104394866,21.751381104394866 0 0,0 -0.35659696328740004,-0.11417108668368066 l 0.23526271421216977 -0.7136000415801361" fill="#ff0600" stroke="none" /><path d="M 93.42475214034765 119.94407469862007 l -0.2595616721623462 0.7873037623829242 a21.828987017942996,21.828987017942996 0 0,0 -0.35584395026486937,-0.12072158815731181 l 0.2730753553644414 -0.7827191873274894" fill="#ff0701" stroke="none" /><path d="M 93.08242187328487 119.8279376855182 l -0.49373906790531064 1.4152102501777053 a22.498865677565554,22.498865677565554 0 0,0 -0.3645678046711795,-0.1307210440538795 l 0.5180264332062168 -1.406501665083868" fill="#ff1001" stroke="none" /><path d="M 91.7346041902142 119.30500536409082 l -0.38711548957022074 0.9041631852436879 a21.983549423168558,21.983549423168558 0 0,0 -0.3465856529357525,-0.1519329650335741 l 0.40262181716371653 -0.8973656669156616" fill="#ff0901" stroke="none" /><path d="M 91.40352486487194 119.15986991738527 l -0.5399306111980908 1.2034002439786788 a22.31897581938286,22.31897581938286 0 0,0 -0.34916656468382634,-0.16028524430781343 l 0.5605651716493366 -1.193927929336791" fill="#ff0e01" stroke="none" /><path d="M 90.7491055286396 118.85261126421891 l -0.3545992996652394 0.7226460935047233 a21.804958408727256,21.804958408727256 0 0,0 -0.3355327191866736,-0.1682430709451879 l 0.3669859265346735 -0.7164351816502333" fill="#ff0601" stroke="none" /><line stroke="#e1ed5e" stroke-width="0.3" x1="58.666819895761336" x2="56.23545636021788" y1="174.27360380694188" y2="178.64263932499728" /><path d="M 58.180547188652646 175.14741091055294 a86.0,86.0 0 0,1 -31.652253787137756,-30.449443065178592" fill="none" id="id8" stroke="none" /><text fill="#e1ed5e" style="font-size:6.75px; font-family:Arial;" text-anchor="middle"><textPath startOffset="22.20632615414155" xlink:href="#id8">August</textPath></text><path d="M 89.4739219176387 118.17145234162733 l -0.8842680066654742 1.526535696830293 a22.764154511744728,22.764154511744728 0 0,0 -0.33737791775853204,-0.1993288205783478 l 0.9104137954523883 -1.5110883039581957" fill="#ff1402" stroke="none" /><path d="M 88.8546689885994 117.79835938074946 l -0.5240672389321612 0.8369008554928095 a21.987445954392733,21.987445954392733 0 0,0 -0.31904642422920076,-0.20363052310218124 l 0.5383954652082855 -0.8277559035668239" fill="#ff0901" stroke="none" /><path d="M 88.54995079064634 117.60387380957326 l -0.7451846475046613 1.1456838533747993 a22.366708326878992,22.366708326878992 0 0,0 -0.3209359583234389,-0.21269885307385814 l 0.764795304568062 -1.1326869792096226" fill="#ff0e01" stroke="none" /><path d="M 88.24862548938628 117.40417183066458 l -0.8054971691970105 1.1929677782932417 a22.439443576396904,22.439443576396904 0 0,0 -0.3182587515296632,-0.21890127134033438 l 0.8259128053495639 -1.1789257175878063" fill="#ff0f01" stroke="none" /><path d="M 87.65650970185807 116.9893568818739 l -0.5473873376913055 0.7534140350931622 a21.93127096257756,21.93127096257756 0 0,0 -0.30350271235942666,-0.22452405087841026 l 0.5602750204692964 -0.7438800354749852" fill="#ff0801" stroke="none" /><path d="M 87.07902340077011 116.55440617244103 l -0.9326180299935636 1.1948738977807172 a22.515750646203642,22.515750646203642 0 0,0 -0.30347211982153544,-0.24109660576420303 l 0.9530476425324571 -1.1786433780113834" fill="#ff1101" stroke="none" /><path d="M 86.79598089348748 116.32954008644616 l -0.9971475334465545 1.2331821461455852 a22.58588820823877,22.58588820823877 0 0,0 -0.3002093367747484,-0.24705184601802335 l 1.0182269987659918 -1.2158351812703811" fill="#ff1201" stroke="none" /><path d="M 86.51685102203217 116.09983520530335 l -2.131730356753128 2.5454370860953444 a24.3201693139315,24.3201693139315 0 0,0 -0.3186341997025636,-0.2715469776078644 l 2.175230033032748 -2.5083657182645287" fill="#ff2a04" stroke="none" /><path d="M 86.24171649860922 115.8653595955263 l -2.690436632177027 3.1024760199301307 a25.106556553367014,25.106556553367014 0 0,0 -0.3240630545701597,-0.2859479674928893 l 2.7434420396537744 -3.0557049106649528" fill="#ff3505" stroke="none" /><path d="M 85.70375840098266 115.38237550388516 l -3.875780705851247 4.170236895843653 a26.69320224893728,26.69320224893728 0 0,0 -0.33387369981687043,-0.3156984225224593 l 3.946990240058934 -4.102903836575263" fill="#ff4b07" stroke="none" /><path d="M 85.44109423537348 115.13401014063109 l -1.142238561885262 1.1873591503416727 a22.64758328595486,22.64758328595486 0 0,0 -0.27861924859521925,-0.2726875763288675 l 1.1625077628562754 -1.1675214710902357" fill="#ff1202" stroke="none" /><path d="M 85.18274418774928 114.88116024355367 l -1.5190040338464914 1.5255552529223992 a23.15283350135607,23.15283350135607 0 0,0 -0.27999424400941414,-0.2836326909288943 l 1.5450389029114386 -1.4991820680128403" fill="#ff1a02" stroke="none" /><path d="M 84.9287848128048 114.62390073753433 l -4.1410483864775 4.018141855251671 a26.770073284462967,26.770073284462967 0 0,0 -0.3180456144561287,-0.33346955522764044 l 4.209600552312587 -3.9462651834415303" fill="#ff4c07" stroke="none" /><path d="M 84.67929136418377 114.36230785411682 l -4.2768055761600765 4.0092661362554525 a26.862190792493763,26.862190792493763 0 0,0 -0.313332863034543,-0.34006093883196925 l 4.345184847190349 -3.9350539426221394" fill="#ff4e07" stroke="none" /><path d="M 84.43433777217949 114.09645910891817 l -4.53977977585735 4.1112815527686895 a27.124723374930458,27.124723374930458 0 0,0 -0.3104374866143521,-0.3487798071364279 l 4.60987611212004 -4.032527575891398" fill="#ff5107" stroke="none" /><path d="M 84.19399662182784 113.82643327865904 l -3.209950562256875 2.807931025633575 a25.264769543228432,25.264769543228432 0 0,0 -0.2835158184204683,-0.32979294839072365 l 3.257808890248122 -2.7522609780813214" fill="#ff3705" stroke="none" /><path d="M 83.95833913139862 113.55231037782056 l -4.092725191932551 3.45761467883662 a26.357751278660274,26.357751278660274 0 0,0 -0.2898147716216149,-0.34910056218832014 l 4.151635963447703 -3.386652859534539" fill="#ff4706" stroke="none" /><path d="M 83.72743513129214 113.27417163493432 l -1.3511635383795733 1.1021972786727523 a22.743697722817814,22.743697722817814 0 0,0 -0.24485441279846457,-0.30549352805316304 l 1.3699358632328986 -1.0787759170413296" fill="#ff1402" stroke="none" /><path d="M 83.50135304334701 112.99209946851258 l -0.8579319009408268 0.6755909513985089 a22.09200287557473,22.09200287557473 0 0,0 -0.2326952585750457,-0.30078998934476747 l 0.869433976733941 -0.6607229679404887" fill="#ff0a01" stroke="none" /><path d="M 83.28015986056508 112.70617746262583 l -6.0340436772974515 4.585548016104895 a28.578715834990575,28.578715834990575 0 0,0 -0.294277395792356,-0.3942326617885792 l 6.112082339784893 -4.481002474807008" fill="#ff6509" stroke="none" /><path d="M 83.06392112726016 112.41649034213515 l -5.410581267710736 3.966705077407304 a27.708885065763997,27.708885065763997 0 0,0 -0.2786988788871953,-0.3870883670815231 l 5.478059938973539 -3.8729831048746424" fill="#ff5908" stroke="none" /><path d="M 82.85270091963577 112.12312394758628 l -4.648753997321647 3.286664602234862 a26.693248451911934,26.693248451911934 0 0,0 -0.2620248581320429,-0.37746635087658326 l 4.704639762615824 -3.2061569891712662" fill="#ff4b07" stroke="none" /><path d="M 82.6465618267979 111.8261652097733 l -3.5277980370470954 2.40415311343081 a25.269111287260195,25.269111287260195 0 0,0 -0.2418577570366648,-0.3615445310784152 l 3.5686588994944906 -2.3430716681465737" fill="#ff3705" stroke="none" /><path d="M 82.44556493220864 111.52570212397912 l -5.069764528351463 3.3286514528573896 a27.064852254386775,27.064852254386775 0 0,0 -0.25234125927751105,-0.391639238163116 l 5.12631065100602 -3.2408906147728254" fill="#ff5007" stroke="none" /><path d="M 82.24976979558568 111.22182372390057 l -1.3791696003752707 0.8719209814487215 a22.631672450122814,22.631672450122814 0 0,0 -0.2053397078667117,-0.3310729906674956 l 1.3939739479099384 -0.8480516594159617" fill="#ff1202" stroke="none" /><path d="M 82.05923443525364 110.91462005526583 l -3.238405504293928 1.9701481264380736 a24.790613914704142,24.790613914704142 0 0,0 -0.21865218096117758,-0.36647363214088535 l 3.2718385609533374 -1.9141124004110772" fill="#ff3104" stroke="none" /><line stroke="#e1ed5e" stroke-width="0.3" x1="26.63291911575756" x2="22.317208475507996" y1="142.92168965132927" y2="145.44649492493687" /><path d="M 25.769776987707644 143.4266507060508 a86.0,86.0 0 0,1 -11.730757126820373,-40.83630448921669" fill="none" id="id9" stroke="none" /><text fill="#e1ed5e" style="font-size:6.75px; font-family:Arial;" text-anchor="middle"><textPath startOffset="21.46611528233685" xlink:href="#id9">September</textPath></text><path d="M 81.87401531095188 110.60418214915194 l -4.948654747623828 2.8950943762396144 a26.733302299592626,26.733302299592626 0 0,0 -0.2289490978493713,-0.399192050277273 l 4.997755841625577 -2.8094824801040343" fill="#ff4c07" stroke="none" /><path d="M 81.69416730710424 110.29060199501025 l -3.840226031397862 2.158778479130841 a25.405412636085778,25.405412636085778 0 0,0 -0.21101444244532824,-0.3830525063263452 l 3.876816883294707 -2.092355454406673" fill="#ff3905" stroke="none" /><path d="M 81.18737489456691 109.33194174019688 l -1.4870236172490925 0.737633248134931 a22.659922301498074,22.659922301498074 0 0,0 -0.1703235686026178,-0.3509169994959865 l 1.4995004424664293 -0.7119272926736598" fill="#ff1302" stroke="none" /><path d="M 81.02952815118164 109.00673069616217 l -3.113743138990927 1.478331489770549 a24.44686238908087,24.44686238908087 0 0,0 -0.17721109496389836,-0.3816969331131242 l 3.138728850794652 -1.424514489378598" fill="#ff2c04" stroke="none" /><path d="M 80.87730276802145 108.67885076344099 l -4.636678672843468 2.104360161721524 a26.091868105660446,26.091868105660446 0 0,0 -0.18209504223333858,-0.4105762485489841 l 4.672214799808086 -2.024235576679844" fill="#ff4306" stroke="none" /><path d="M 80.73074385275274 108.34839909993369 l -3.4291847782787164 1.4856932150221103 a24.73719046514105,24.73719046514105 0 0,0 -0.16591471452734027,-0.3921733747282694 l 3.4542504739983633 -1.4264453146276819" fill="#ff3004" stroke="none" /><path d="M 80.58989483394504 108.01547362559985 l -5.011262760437398 2.069419209406613 a26.421738680387293,26.421738680387293 0 0,0 -0.16997656297594188,-0.4218678896298124 l 5.046141937670728 -1.9828519519339949" fill="#ff4806" stroke="none" /><path d="M 80.45479744820244 107.68017299344265 l -4.096578829677622 1.6097266840708893 a25.40149725720382,25.40149725720382 0 0,0 -0.1564075667736306,-0.40833080196115185 l 4.123680676044762 -1.5389723152765795" fill="#ff3905" stroke="none" /><path d="M 80.32549172779594 107.34259656027581 l -8.372883639650931 3.1247899953335563 a29.93697336675403,29.93697336675403 0 0,0 -0.17602332903461282,-0.48434060249161337 l 8.425431229690767 -2.980201595835826" fill="#ff770b" stroke="none" /><path d="M 80.20201598880116 107.00284435728193 l -3.581286031179979 1.2667546686104572 a24.79872044609382,24.79872044609382 0 0,0 -0.13888366215886977,-0.4036609322348779 l 3.6025605242820773 -1.2049210332862823" fill="#ff3104" stroke="none" /><path d="M 80.0844068197444 106.66101706037122 l -2.493725456367523 0.8340573970557928 a23.62950915444668,23.62950915444668 0 0,0 -0.12569520367781756,-0.3868500590611111 l 2.50771291106159 -0.7910084380168784" fill="#ff2003" stroke="none" /><path d="M 79.97269907076064 106.31721596034903 l -4.498431207605916 1.418941150463831 a25.71691396127197,25.71691396127197 0 0,0 -0.12953147575551868,-0.42331635741006624 l 4.522189455867564 -1.341297820501717" fill="#ff3e05" stroke="none" /><path d="M 79.86692584326677 105.97154293290107 l -4.725185436437312 1.401507165768207 a25.928650905107695,25.928650905107695 0 0,0 -0.12323191790188238,-0.4289864727252695 l 4.748609991225298 -1.3199632175383416" fill="#ff4106" stroke="none" /><path d="M 79.76711848015287 105.62410040840567 l -3.657396639628032 1.016640457982031 a24.796064804553307,24.796064804553307 0 0,0 -0.11076983516519796,-0.4122157640398318 l 3.674354551135005 -0.9535337607666603" fill="#ff3104" stroke="none" /><path d="M 79.67330655649465 105.27499134158121 l -6.6146826096967715 1.7165799046675185 a27.833789036554556,27.833789036554556 0 0,0 -0.11635675036703494,-0.46478737805741777 l 6.643250674358866 -1.6024646872127088" fill="#ff5b08" stroke="none" /><path d="M 79.58551787078972 104.9243191809786 l -7.2850206697503515 1.7572704901755438 a28.493965954975486,28.493965954975486 0 0,0 -0.11090860245493926,-0.477791356628073 l 7.314189838135846 -1.6316104761988965" fill="#ff6409" stroke="none" /><path d="M 79.50377843672027 104.57218783832718 l -4.028905455555499 0.8987467504090163 a25.12793227792991,25.12793227792991 0 0,0 -0.09053948336555809,-0.42297032413784474 l 4.0437789776454975 -0.8292626068550077" fill="#ff3605" stroke="none" /><path d="M 79.4281124754447 104.21870165774334 l -1.641669086241802 0.33665904926456186 a22.67583313733012,22.67583313733012 0 0,0 -0.07512186815222191,-0.3830447872745453 l 1.6472208873696903 -0.30835053492206177" fill="#ff1302" stroke="none" /><path d="M 79.35854240842038 103.8639653848113 l -2.9874031206704696 0.5592251514959303 a24.03929435485563,24.03929435485563 0 0,0 -0.07263708335576415,-0.4073873384046679 l 2.9965866463654227 -0.5077190623580488" fill="#ff2603" stroke="none" /><path d="M 79.29508885075956 103.50808413554451 l -2.0982764610248172 0.35551615323776337 a23.1281813461507,23.1281813461507 0 0,0 -0.06312698950358471,-0.39309182389824543 l 2.1040852048896928 -0.31934509964630425" fill="#ff1902" stroke="none" /><path d="M 79.23777060512086 103.15116336523772 l -2.5496554039994614 0.3869710015363336 a23.578854248532416,23.578854248532416 0 0,0 -0.05744925969368844,-0.4017999884929283 l 2.555938714709749 -0.34302554106300476" fill="#ff2003" stroke="none" /><path d="M 79.18660465613746 102.79330883721812 l -4.660005253929356 0.6254065539153928 a25.701785014686394,25.701785014686394 0 0,0 -0.055073406443945865,-0.4389892365661878 l 4.67008016962015 -0.5450995630617963" fill="#ff3e05" stroke="none" /><path d="M 79.1416061653843 102.43462659150553 l -3.7517026217723193 0.43790500068272387 a24.77717266640489,24.77717266640489 0 0,0 -0.04579965801051826,-0.424047951885798 l 3.7586845812838896 -0.37326072691214374" fill="#ff3104" stroke="none" /><path d="M 79.10278846688536 102.07522291339032 l -62.69163459934394 6.225668740170943 a84.0,84.0 0 0,0 -0.13050161489169865,-1.4400744458057353 l 62.78951081051271 -5.145612905816642" fill="#4dd2ff" stroke="none" /><path d="M 79.04373962182676 101.35467743843564 l -2.4591224829649687 0.15896527748300815 a23.464255129987365,23.464255129987365 0 0,0 -0.022585629518238115,-0.4032815872158925 l 2.4614944633707383 -0.11661197393167802" fill="#ff1e03" stroke="none" /><path d="M 79.0235259727143 100.99374915477108 l -2.048127315905195 0.09702892804562116 a23.050424374375876,23.050424374375876 0 0,0 -0.01536460848171214,-0.39649227380989166 l 2.049494057238108 -0.06175940722173273" fill="#ff1802" stroke="none" /><line stroke="#e1ed5e" stroke-width="0.3" x1="15.007084014347285" x2="10.007500721073583" y1="101.09737516637583" y2="101.16192664675087" /><path d="M 14.007167355692545 101.11028546245083 a86.0,86.0 0 0,1 10.666146001902534,-42.60595125391555" fill="none" id="id10" stroke="none" /><text fill="#e1ed5e" style="font-size:6.75px; font-family:Arial;" text-anchor="middle"><textPath startOffset="22.20632615414155" xlink:href="#id10">October</textPath></text><path d="M 79.05617556472873 98.46500227214037 l -2.5305039264848936 -0.18546363342086913 a23.537291248807897,23.537291248807897 0 0,0 0.03309288921961368,-0.403817069693935 l 2.526936553445783 0.22899462032258253" fill="#ff1f03" stroke="none" /><path d="M 79.08570108090925 98.10471618934814 l -1.6460336648373493 -0.14916593517301588 a22.652778660920426,22.652778660920426 0 0,0 0.038534398335826316,-0.38803613246998125 l 1.6432221408192942 0.17747759834742743" fill="#ff1202" stroke="none" /><path d="M 79.12142395522702 97.74499172005258 l -2.3156841681919036 -0.250107428869567 a23.329151539249942,23.329151539249942 0 0,0 0.0465579288445593,-0.3988799018921848 l 2.3110358863437557 0.2899310690866136" fill="#ff1c02" stroke="none" /><path d="M 79.16333360222342 97.38593545837743 l -2.6026136748759026 -0.3265109683649329 a23.62301493573972,23.62301493573972 0 0,0 0.05408995582985303,-0.403032997933721 l 2.596607719988216 0.3712623083633133" fill="#ff2003" stroke="none" /><path d="M 79.21141760316559 97.0276538004421 l -6.880464006727871 -0.983766985703976 a27.95043757112017,27.95043757112017 0 0,0 0.07219745304885587,-0.4756910093784651 l 6.862510660239712 1.1020571074745331" fill="#ff5c08" stroke="none" /><path d="M 79.32604984820605 96.31383870115002 l -2.5611913438704685 -0.456659919435168 a23.601584014006765,23.601584014006765 0 0,0 0.07475439406058297,-0.3993409622278807 l 2.5529512259000238 0.5006789591256213" fill="#ff2003" stroke="none" /><path d="M 79.3925641242962 95.95851677861259 l -1.6002148098439735 -0.31383047088478155 a22.63069831731677,22.63069831731677 0 0,0 0.07825986884470912,-0.38162291391351394 l 1.5945756450842699 0.34132904096169797" fill="#ff1202" stroke="none" /><path d="M 79.46518482838121 95.60439243477599 l -1.5942581270346736 -0.34126107420722585 a22.630373606381426,22.630373606381426 0 0,0 0.08481606795538855,-0.3802138018843707 l 1.5881476720772476 0.3686530456415558" fill="#ff1202" stroke="none" /><path d="M 79.62865764111835 94.90015583598534 l -3.2100667935274245 -0.8036210925457538 a24.309129142129674,24.309129142129674 0 0,0 0.10511229024494205,-0.40504053231549786 l 3.1957581714121748 0.8587580504101154" fill="#ff2a04" stroke="none" /><path d="M 79.81627453868168 94.20196356495316 l -7.183360594540914 -2.063513325775668 a28.473871598900864,28.473871598900864 0 0,0 0.13937838508406955,-0.469914625796732 l 7.146776312345137 2.1868573383189394" fill="#ff6409" stroke="none" /><path d="M 80.2630227832202 92.82701384747504 l -2.8699271990250024 -1.0430142281290928 a24.053581636010936,24.053581636010936 0 0,0 0.14477439756634744,-0.3879234081758488 l 2.8515482129570273 1.092260773334283" fill="#ff2603" stroke="none" /><path d="M 80.38941819471856 92.48833698450439 l -1.5291745680500082 -0.5857370352961278 a22.637517246959074,22.637517246959074 0 0,0 0.1425155140339263,-0.3626864383061285 l 1.5188655041343908 0.6119724784980196" fill="#ff1202" stroke="none" /><path d="M 80.52162464483688 92.15188598940014 l -2.308567140430323 -0.9301544810008577 a23.48890931944107,23.48890931944107 0 0,0 0.15433143260854768,-0.37372580552102225 l 2.2922140209355755 0.9697548569751913" fill="#ff1e03" stroke="none" /><path d="M 80.65960295795068 91.81776055985345 l -1.548777092553861 -0.6552329294552532 a22.68167793416638,22.68167793416638 0 0,0 0.15521751597599914,-0.3582634272844878 l 1.5372688667351813 0.6817955013263404" fill="#ff1302" stroke="none" /><path d="M 80.803312248108 91.48605970444005 l -1.499571792768128 -0.6650764380576696 a22.640439645377207,22.640439645377207 0 0,0 0.16106805837859195,-0.35489211625702877 l 1.4879014174261844 0.6907905631567693" fill="#ff1202" stroke="none" /><path d="M 80.95270993114464 91.15688171328213 l -1.4749426560709282 -0.684774176620962 a22.626152364221902,22.626152364221902 0 0,0 0.1670475966171756,-0.35184484092426505 l 1.4629368656120012 0.7100614331857592" fill="#ff1202" stroke="none" /><path d="M 81.10775173730289 90.83032412892265 l -1.533629901050919 -0.7443735072334733 a22.704732410576074,22.704732410576074 0 0,0 0.17368037715862714,-0.3501290422315201 l 1.5205895109388792 0.7706621379639549" fill="#ff1302" stroke="none" /><path d="M 81.43458229118936 90.18545643968196 l -1.4938934834867796 -0.7897415990375555 a22.689795707550076,22.689795707550076 0 0,0 0.18550734063684912,-0.3437169285177577 l 1.480078043631459 0.8153395108877859" fill="#ff1302" stroke="none" /><line stroke="#e1ed5e" stroke-width="0.3" x1="26.266209847984243" x2="21.928928074336255" y1="57.711370442889674" y2="55.22380399835377" /><path d="M 25.398753493254645 57.213857153982495 a86.0,86.0 0 0,1 29.58750427330803,-30.492523968695096" fill="none" id="id11" stroke="none" /><text fill="#e1ed5e" style="font-size:6.75px; font-family:Arial;" text-anchor="middle"><textPath startOffset="21.46611528233685" xlink:href="#id11">November</textPath></text><path d="M 81.78341655067845 89.55222093294921 l -1.4277982285262238 -0.8188868393169554 a22.64595973127812,22.64595973127812 0 0,0 0.19684766006092475,-0.33647646015064286 l 1.4134908939949742 0.84334271182149" fill="#ff1202" stroke="none" /><path d="M 81.96595687620814 89.24020034530311 l -1.3987118414438344 -0.8345249639961724 a22.628750051704685,22.628750051704685 0 0,0 0.2024564113926315,-0.3327851080004041 l 1.384139631764986 0.8584778452036509" fill="#ff1202" stroke="none" /><path d="M 82.15384107792192 88.93136811851018 l -1.383311797056993 -0.8579644015163285 a22.627775918898642,22.627775918898642 0 0,0 0.20814580313625577,-0.3292366742388147 l 1.3683383976747745 0.8816487234693587" fill="#ff1202" stroke="none" /><path d="M 82.7489923806493 88.02491185347247 l -1.3451820240051993 -0.9337815892282854 a22.637517246959074,22.637517246959074 0 0,0 0.22496019849582916,-0.3181902471230695 l 1.3289092057054919 0.956798336683141" fill="#ff1202" stroke="none" /><path d="M 82.95767976084542 87.72973835380427 l -1.9826914264779163 -1.427513520762237 a23.443125077557028,23.443125077557028 0 0,0 0.23860344326634117,-0.32545482846734936 l 1.9578253706979418 1.461430792901087" fill="#ff1e03" stroke="none" /><path d="M 83.17141714833178 87.43820079747576 l -2.6442612197012867 -1.9738250554838974 a24.299712525004587,24.299712525004587 0 0,0 0.2530919892788607,-0.33303939078146766 l 2.6098932901983174 2.019049222146392" fill="#ff2a04" stroke="none" /><path d="M 83.39014120810768 87.1503855733568 l -2.0692688682471805 -1.6008147591845583 a23.616196006097418,23.616196006097418 0 0,0 0.25150789850745936,-0.3193894900774916 l 2.04140688914575 1.6361966432150976" fill="#ff2003" stroke="none" /><path d="M 83.6137871275137 86.86637796730984 l -1.2701467959895305 -1.0180282701299848 a22.627775918898642,22.627775918898642 0 0,0 0.24621337706789678,-0.30182848768783493 l 1.2524349268452413 1.039740927425902" fill="#ff1202" stroke="none" /><path d="M 84.31358615837235 86.03803664274999 l -1.277268327776387 -1.136854718346479 a22.70992778554164,22.70992778554164 0 0,0 0.2624146856339075,-0.28976485006883557 l 1.2575100015264344 1.1586723556848706" fill="#ff1302" stroke="none" /><path d="M 84.80347519578584 85.50635884689758 l -0.9483596349069898 -0.9044952322663562 a22.310533335063816,22.310533335063816 0 0,0 0.2674456445846863,-0.275626245880384 l 0.9326497266191852 0.9206856736968638" fill="#ff0e01" stroke="none" /><path d="M 85.57189188830299 84.74124197986013 l -2.2358435248120063 -2.364564712981644 a24.254252994055893,24.254252994055893 0 0,0 0.3058254751081432,-0.28423144904868597 l 2.194810165909007 2.402700748104978" fill="#ff2904" stroke="none" /><path d="M 85.83668400450813 84.49514656593479 l -1.1002520727925418 -1.2044670283854928 a22.63134773918747,22.63134773918747 0 0,0 0.2898849465588659,-0.2602615672333769 l 1.0793561386377044 1.2232276043881485" fill="#ff1202" stroke="none" /><path d="M 86.65592168130627 83.78471172551755 l -1.0683861472468106 -1.298267962186734 a22.68135322323103,22.68135322323103 0 0,0 0.3036024431908741,-0.245492061592328 l 1.045880305491436 1.3164661210431963" fill="#ff1302" stroke="none" /><path d="M 87.51073957382395 83.11751280151077 l -0.31767295572491766 -0.42941770972216287 a21.53414948864717,21.53414948864717 0 0,0 0.2998934702996515,-0.21788536004381007 l 0.3102341690714845 0.43482230458264076" fill="#ff0200" stroke="none" /><path d="M 88.09926311788651 82.69761687909137 l -0.9804279631530408 -1.4254361229027825 a22.730059863533207,22.730059863533207 0 0,0 0.3242771062368039,-0.21895334967290428 l 0.9557461625096974 1.4421013848743522" fill="#ff1402" stroke="none" /><line stroke="#e1ed5e" stroke-width="0.3" x1="56.762969772571076" x2="54.21961505331055" y1="26.818313649435495" y2="22.513508569990535" /><path d="M 56.25429882871897 25.957352633546506 a86.0,86.0 0 0,1 42.265352541879196,-11.944610805530505" fill="none" id="id12" stroke="none" /><text fill="#e1ed5e" style="font-size:6.75px; font-family:Arial;" text-anchor="middle"><textPath startOffset="22.20632615414155" xlink:href="#id12">December</textPath></text><path d="M 90.91171255644093 81.06846463323043 l -0.18971140606122447 -0.3951820643473368 a21.43835976271956,21.43835976271956 0 0,0 0.3340523061123617,-0.15684203687215154 l 0.18288088864925428 0.39838908385949595" fill="#ff0100" stroke="none" /><path d="M 96.04723909329186 79.375362276772 l -0.06930925332606964 -0.3616404519412462 a21.368222200684432,21.368222200684432 0 0,0 0.3618401937105169,-0.06612398257628525 l 0.06307393851265947 0.3627799158682677" fill="#ff0000" stroke="none" /></svg>