<?xml version="1.0" encoding="utf-8" ?>
<svg baseProfile="full" height="200mm" version="1.1" viewBox="0,0,200,200" width="200mm" xmlns="http://www.w3.org/2000/svg" xmlns:ev="http://www.w3.org/2001/xml-events" xmlns:xlink="http://www.w3.org/1999/xlink"><defs /><rect fill="#1a1a1a" height="200" width="200" x="0" y="0" /><text alignment-baseline="middle" fill="#e1ed5e" style="dominant-baseline: central; font-size:9.0px; font-family:Arial;" text-anchor="middle" x="100.0" y="100.0">2020</text><line stroke="#e1ed5e" stroke-width="0.3" x1="100.0" x2="100.0" y1="15.0" y2="10.0" /><path d="M 100.0 14.0 a86.0,86.0 0 0,1 42.35913384403234,11.155469271406648" fill="none" id="id61" stroke="none" /><text fill="#e1ed5e" style="font-size:6.75px; font-family:Arial;" text-anchor="middle"><textPath startOffset="22.145653131862478" xlink:href="#id61">January</textPath></text><path d="M 100.0 79.0 l 0.0 -5.561455211730152 a26.561455211730152,26.561455211730152 0 0,0 0.45596269892945046,0.003913891383273406 l -0.09546977408059569 5.560635718541314" fill="#ff4906" stroke="none" /><path d="M 101.08105385017728 79.02784411241856 l 0.27648090162467415 -5.363655629052042 a26.370776796332617,26.370776796332617 0 0,0 0.45188918899116676,0.027184531469862522 l -0.3685144427483033 5.358119119757488" fill="#ff4706" stroke="none" /><path d="M 101.44090949804482 79.04949213459386 l 0.36826223386361007 -5.35445205792629 a26.367101071670003,26.367101071670003 0 0,0 0.45129303062158893,0.034932934746713024 l -0.4601242592604325 5.347341356184523" fill="#ff4706" stroke="none" /><path d="M 101.80034050326958 79.07731436759882 l 0.24039787897425768 -2.7937877525611983 a23.804111471852764,23.804111471852764 0 0,0 0.4068240952609419,0.03852666479462825 l -0.28832153762021245 2.7892493322613863" fill="#ff2303" stroke="none" /><path d="M 102.51750503828377 79.15144685158666 l 0.4876356694584571 -4.038322870129169 a25.0676578210976,25.0676578210976 0 0,0 0.4267735059188164,0.055254374644440066 l -0.5568869972680652 4.029356899284331" fill="#ff3505" stroke="none" /><path d="M 103.94208987418118 79.37332000966035 l 1.001478246641038 -5.240157370851906 a26.33499840204182,26.33499840204182 0 0,0 0.4433102137456389,0.08867445837576272 l -1.0912849459176337 5.222193515813284" fill="#ff4606" stroke="none" /><path d="M 104.9986988182912 79.60360301121754 l 1.5814718775176153 -6.45294493887336 a27.64391087263446,27.64391087263446 0 0,0 0.459935053973688,0.11691369215807396 l -1.6920122247166975 6.424846014880019" fill="#ff5808" stroke="none" /><path d="M 105.69591212413111 79.78721728523813 l 1.828333153709732 -6.488109359967975 a27.740798557133882,27.740798557133882 0 0,0 0.4572476032900346,0.13309811331975743 l -1.939440769381371 6.455767552345702" fill="#ff5a08" stroke="none" /><path d="M 106.38641147887787 79.99465700312896 l 0.5342794478043077 -1.673622760583858 a22.756834560535058,22.756834560535058 0 0,0 0.37112849524263275,0.12199730793484136 l -0.5629306806946829 1.664204531246995" fill="#ff1402" stroke="none" /><path d="M 106.72888874123014 80.10723608172694 l 1.3256835655415578 -3.9191479029911256 a25.137288629219228,25.137288629219228 0 0,0 0.4075762706994067,0.14177618410573684 l -1.3927656082859827 3.8958132863167982" fill="#ff3605" stroke="none" /><path d="M 107.06938296918511 80.22567764915836 l 1.3757803774077397 -3.8483025725736213 a25.086833044906157,25.086833044906157 0 0,0 0.4042693549065729,0.14845330683573468 l -1.4416388839684375 3.8241184167291644" fill="#ff3505" stroke="none" /><path d="M 107.74402155503746 80.48000691201159 l 0.7450551642341409 -1.8780257199258448 a23.02041772969229,23.02041772969229 0 0,0 0.3660745620172975,0.14887933745524662 l -0.777184187441878 1.8649591258913045" fill="#ff1802" stroke="none" /><path d="M 108.07796709384702 80.6158196554323 l 0.9565882920271987 -2.2954636671250053 a23.48680811634804,23.48680811634804 0 0,0 0.37082865559921296,0.15828470224040797 l -0.9958520227968418 2.2787043152251956" fill="#ff1e03" stroke="none" /><path d="M 108.4095320186766 80.7573450057729 l 0.49610210659476345 -1.1351787064858112 a22.238849464554335,22.238849464554335 0 0,0 0.34850034736647834,0.15587977263156336 l -0.5155158568168734 1.1264951829443952" fill="#ff0c01" stroke="none" /><path d="M 109.3889696526874 81.21577127319529 l 1.5641089614221226 -3.1292656778998693 a24.498391133947592,24.498391133947592 0 0,0 0.3745603097582848,0.19125316301045014 l -1.6175964928939863 3.1019545632165855" fill="#ff2d04" stroke="none" /><path d="M 110.02825361518725 81.54914285379988 l 1.161811559152309 -2.1376024112771708 a23.432930366384927,23.432930366384927 0 0,0 0.35177940412077385,0.1951261055251349 l -1.1983351514291831 2.1173433903188896" fill="#ff1e03" stroke="none" /><line stroke="#e1ed5e" stroke-width="0.3" x1="143.13028292997686" x2="145.6673583964461" y1="26.7553504044142" y2="22.446841604673864" /><path d="M 143.63769802327073 25.89364864446614 a86.0,86.0 0 0,1 29.32050498858742,28.57503671076993" fill="none" id="id62" stroke="none" /><text fill="#e1ed5e" style="font-size:6.75px; font-family:Arial;" text-anchor="middle"><textPath startOffset="20.669276256404974" xlink:href="#id62">February</textPath></text><path d="M 110.96478420261332 82.08984904055464 l 0.9152520828951911 -1.4949954935449403 a22.752911264429454,22.752911264429454 0 0,0 0.33136459233938786,0.2067960132390645 l -0.9407808040242915 1.4790636834643303" fill="#ff1402" stroke="none" /><path d="M 111.5731344415666 82.4767994020092 l 0.8483948766244284 -1.2845779753497002 a22.539452643453547,22.539452643453547 0 0,0 0.32103018809137235,0.21600343766996005 l -0.8703213528128017 1.2698248636226213" fill="#ff1101" stroke="none" /><path d="M 111.8722381534696 82.67804972795209 l 0.4224577611976942 -0.6163784988905873 a21.747256993202996,21.747256993202996 0 0,0 0.306123615271265,0.21369805821741195 l -0.4329764676427199 0.6090356248680486" fill="#ff0500" stroke="none" /><path d="M 112.7482090630111 83.31218511350987 l 2.4460153579010684 -3.2019126216403317 a25.029297155548043,25.029297155548043 0 0,0 0.3391947172970856,0.26375986377111965 l -2.50062001983338 3.1594517062484213" fill="#ff3404" stroke="none" /><path d="M 113.03279911837588 83.53348406188908 l 1.3360756174558475 -1.6880878965085866 a23.152844351526326,23.152844351526326 0 0,0 0.30953062932264747,0.24933596445872996 l -1.3648570171337544 1.6649036382564484" fill="#ff1a02" stroke="none" /><path d="M 114.65682725009322 84.96080404539774 l 1.117830864198908 -1.1469929421923732 a22.60160502321727,22.60160502321727 0 0,0 0.27553302399880225,0.27317805503851844 l -1.137355808327673 1.1276348769251954" fill="#ff1202" stroke="none" /><line stroke="#e1ed5e" stroke-width="0.3" x1="172.87174338648825" x2="177.1583165268699" y1="56.24261187166439" y2="53.66864786411523" /><path d="M 173.72905801456457 55.72781907015455 a86.0,86.0 0 0,1 12.242430191666344,42.057860355516425" fill="none" id="id63" stroke="none" /><text fill="#e1ed5e" style="font-size:6.75px; font-family:Arial;" text-anchor="middle"><textPath startOffset="22.145653131862474" xlink:href="#id63">March</textPath></text><path d="M 119.16976305983485 91.42560881287824 l 1.845993016776188 -0.8256891963207407 a23.022239567140165,23.022239567140165 0 0,0 0.15826815969444433,0.3621485222730299 l -1.8598950584876026 0.7938786042718614" fill="#ff1802" stroke="none" /><path d="M 119.58574465831526 92.42381321644754 l 2.4016899103527694 -0.9290252514999898 a23.575112103077245,23.575112103077245 0 0,0 0.14276337548315418,0.3786968147784083 l -2.4172839696503643 0.8876601565274238" fill="#ff2003" stroke="none" /><path d="M 120.05942366710727 93.78553927170692 l 1.3689876469529396 -0.42411587245438764 a22.433178792327563,22.433178792327563 0 0,0 0.11080246944556181,0.36882538423413214 l -1.3760664364021287 0.40055288462953204" fill="#ff0f01" stroke="none" /><path d="M 120.16314734710363 94.1308016681162 l 2.2281514992347176 -0.6485824279993332 a23.320628852154396,23.320628852154396 0 0,0 0.10858696452060312,0.3853368295855403 l -2.2389569558299027 0.6102376745107798" fill="#ff1c02" stroke="none" /><path d="M 120.35273937422433 94.82641323984039 l 1.9643419741689527 -0.4993280483342111 a23.0268122486642,23.0268122486642 0 0,0 0.09409465311918275,0.3839382946053688 l -1.9726241538044267 0.46553392912074737" fill="#ff1802" stroke="none" /><path d="M 120.77682067341334 96.94652285012252 l 1.6024013479657548 -0.23549781642998982 a22.61961393594454,22.61961393594454 0 0,0 0.05316199910204736,0.384653742882194 l -1.6062078636230148 0.20795576534771018" fill="#ff1202" stroke="none" /><path d="M 120.82617615685814 97.30363454192243 l 2.2964638096947048 -0.2973232169721634 a23.31563104241332,23.31563104241332 0 0,0 0.04798347291392987,0.39737198936192775 l -2.3012293688682983 0.25785755068682265" fill="#ff1c02" stroke="none" /><line stroke="#e1ed5e" stroke-width="0.3" x1="184.99686870605535" x2="189.99668451229388" y1="99.2704041080226" y2="99.22748670261217" /><path d="M 185.99683186730306 99.26182062694052 a86.0,86.0 0 0,1 -10.086455211305974,41.156179273409016" fill="none" id="id64" stroke="none" /><text fill="#e1ed5e" style="font-size:6.75px; font-family:Arial;" text-anchor="middle"><textPath startOffset="21.40746469413373" xlink:href="#id64">April</textPath></text><path d="M 120.99922638620191 99.81974689727618 l 1.879802225639244 -0.016135841266098985 a22.87987147775895,22.87987147775895 0 0,0 0.0,0.39277788797985147 l -1.879802225639244 -0.016135841266098756" fill="#ff1602" stroke="none" /><path d="M 120.99922638620191 100.18025310272382 l 1.644630744332729 0.014117176940182866 a22.64469133270933,22.64469133270933 0 0,0 -0.006673248630453019,0.38868327751445353 l -1.6441460641036076 -0.042347370423707446" fill="#ff1202" stroke="none" /><path d="M 120.9064616781168 101.97986365728391 l 1.6152399829745454 0.15296490574636784 a22.622466783940308,22.622466783940308 0 0,0 -0.039931462849697404,0.38630068016788527 l -1.6123761276431818 -0.18067010819718454" fill="#ff1202" stroke="none" /><path d="M 120.82617615685814 102.69636545807757 l 1.5072925952865175 0.19514920350888826 a22.51987308004179,22.51987308004179 0 0,0 -0.05292758204670333,0.3829576178444326 l -1.503720496684604 -0.22099512955340594" fill="#ff1101" stroke="none" /><path d="M 120.77682067341334 103.0534771498775 l 1.6246449367868152 0.2387668579866364 a22.642096459742802,22.642096459742802 0 0,0 -0.05981665364037839,0.38406582594325955 l -1.6203067910081692 -0.26662086586134653" fill="#ff1202" stroke="none" /><path d="M 120.65975698304385 103.76489593502545 l 1.3024191631713613 0.23734415739485948 a22.323868545455124,22.323868545455124 0 0,0 -0.07193995024174424,0.37642021859424435 l -1.298152920647458 -0.25966694102241833" fill="#ff0e01" stroke="none" /><path d="M 120.592083275326 104.11899336999214 l 3.0548871447881067 0.6110629860619192 a24.115402612877915,24.115402612877915 0 0,0 -0.08468214252693904,0.40523470727207034 l -3.0439472914368033 -0.6634141446193986" fill="#ff2703" stroke="none" /><path d="M 120.35273937422433 105.17358676015961 l 1.4756019677510421 0.37509224990570617 a22.522529265127627,22.522529265127627 0 0,0 -0.09846690978200115,0.3738948948884558 l -1.4689455771643107 -0.4003676491669652" fill="#ff1101" stroke="none" /><path d="M 120.05942366710727 106.21446072829308 l 1.2993781055824536 0.4025506586007752 a22.360305294412605,22.360305294412605 0 0,0 -0.11673706791715616,0.36567720258170444 l -1.2922763218880424 -0.42479689487386324" fill="#ff0e01" stroke="none" /><path d="M 119.71291397450082 107.23885506374661 l 2.932340160683664 1.07679592414647 a24.12379709331716,24.12379709331716 0 0,0 -0.14608603715030136,0.387510569606468 l -2.9134234397189225 -1.126974773947097" fill="#ff2703" stroke="none" /><path d="M 119.58574465831526 107.57618678355244 l 1.5659842432672537 0.6057563464688448 a22.67906146446418,22.67906146446418 0 0,0 -0.14357068960050356,0.3618919251091906 l -1.5553548787006257 -0.6325492887915996" fill="#ff1302" stroke="none" /><path d="M 119.4528033332814 107.91128576633889 l 2.8840385662514563 1.1729133774627414 a24.11342323538847,24.11342323538847 0 0,0 -0.15923374297627538,0.3821030161343145 l -2.8634789787386956 -1.2222489030383337" fill="#ff2703" stroke="none" /><path d="M 119.31412917781788 108.2440532568976 l 1.8228998497739963 0.778087549543114 a22.982015160653436,22.982015160653436 0 0,0 -0.15799163391289417,0.36151577716906735 l -1.8092743338441364 -0.809265396488026" fill="#ff1702" stroke="none" /><path d="M 119.0197475246899 108.90220220490707 l 1.9648407747644092 0.9196446932165165 a23.16941135609135,23.16941135609135 0 0,0 -0.17169718989842753,0.35878109083389154 l -1.9487643269060697 -0.9532382861155116" fill="#ff1a02" stroke="none" /><path d="M 118.5362547648365 109.86951160357373 l 2.3183402586455744 1.2343856066943968 a23.62648232068505,23.62648232068505 0 0,0 -0.19368613351128142,0.3563606703368918 l -2.296808775518954 -1.2740011105058917" fill="#ff2003" stroke="none" /><line stroke="#e1ed5e" stroke-width="0.3" x1="174.33088141563837" x2="178.70328620479359" y1="141.23008692659167" y2="143.65538615756765" /><path d="M 175.20536237346943 141.71514677278685 a86.0,86.0 0 0,1 -30.301960400862466,31.631185727798858" fill="none" id="id65" stroke="none" /><text fill="#e1ed5e" style="font-size:6.75px; font-family:Arial;" text-anchor="middle"><textPath startOffset="22.145653131862474" xlink:href="#id65">May</textPath></text><path d="M 118.18653347947321 110.5 l 1.3605318367080392 0.785503422164442 a22.571006844328885,22.571006844328885 0 0,0 -0.19661097812708359,0.33388842412519365 l -1.3468471484511904 -0.8087430145831851" fill="#ff1101" stroke="none" /><path d="M 118.00360718960297 110.81064883170644 l 1.349251372858397 0.8101866822607348 a22.573811210810536,22.573811210810536 0 0,0 -0.20233878258144158,0.3305051949969339 l -1.3351446258215507 -0.8332289933822258" fill="#ff1101" stroke="none" /><path d="M 117.62189284568427 111.42229804090321 l 4.142023183399999 2.684809384975486 a25.936046746686614,25.936046746686614 0 0,0 -0.24537422093220115,0.37152784465438415 l -4.095324523547071 -2.7555171079689313" fill="#ff4106" stroke="none" /><path d="M 117.423217284605 111.72311816256416 l 1.314800218410794 0.8846562646161902 a22.584713324503124,22.584713324503124 0 0,0 -0.219190303172263,0.3198052029099037 l -1.299420178423211 -0.907096202596138" fill="#ff1101" stroke="none" /><path d="M 117.21940702142032 112.02048342749411 l 1.2853250801967648 0.897256729353585 a22.567523588388102,22.567523588388102 0 0,0 -0.22447690196110656,0.31575487462089896 l -1.2697330797056976 -0.9191888306839879" fill="#ff1101" stroke="none" /><path d="M 117.01052211995028 112.31430620078461 l 1.2918700449026463 0.9352142863325025 a22.5948523361983,22.5948523361983 0 0,0 -0.2301425372625924,0.3122325519507673 l -1.2756254880562259 -0.9572531475521472" fill="#ff1202" stroke="none" /><path d="M 116.1254893667686 113.45245675266167 l 1.2439330860706228 1.0377332224134144 a22.619956716558104,22.619956716558104 0 0,0 -0.25130280358127455,0.29603407072682975 l -1.2259357189822337 -1.0589340755898007" fill="#ff1202" stroke="none" /><path d="M 115.89218393027572 113.72728997021213 l 1.2489814789917983 1.0788404541985037 a22.650409482667794,22.650409482667794 0 0,0 -0.25669270731821303,0.29206918049776653 l -1.230277707715 -1.1001219125075634" fill="#ff1202" stroke="none" /><path d="M 115.6541949942343 113.99807769240083 l 1.1770065284422373 1.0524864955154667 a22.578946544769035,22.578946544769035 0 0,0 -0.2608430640156791,0.2867122203324686 l -1.1587657635846782 -1.072536291405607" fill="#ff1101" stroke="none" /><path d="M 115.16444852881244 114.52719865689866 l 2.222245730184752 2.128861140284859 a24.07740569960142,24.07740569960142 0 0,0 -0.28848538419364295,0.29601141835790534 l -2.185373544840302 -2.1666952507105015" fill="#ff2703" stroke="none" /><path d="M 114.91283532996324 114.78537596483092 l 2.370382812628305 2.350123252207146 a24.337932590536898,24.337932590536898 0 0,0 -0.29670035192903343,0.2941644667231236 l -2.3296905405693065 -2.390467729158931" fill="#ff2a04" stroke="none" /><path d="M 114.39649973595853 115.28858382429668 l 1.0776739588729722 1.144452398685374 a22.571989966408708,22.571989966408708 0 0,0 -0.2843750736815042,0.26321332272626086 l -1.0578691138775007 -1.1627834675440145" fill="#ff1101" stroke="none" /><path d="M 113.86319453409587 115.77377054828091 l 1.045285275240287 1.1893427628520448 a22.583400617084223,22.583400617084223 0 0,0 -0.293391195479846,0.2534243268721816 l -1.0247145999975855 -1.207111222188944" fill="#ff1101" stroke="none" /><path d="M 113.03279911837588 116.46651593811092 l 2.343314728198854 2.960701609026645 a24.775828112227387,24.775828112227387 0 0,0 -0.3357597282936572,0.26108879554571 l -2.292145055269966 -3.000491456193148" fill="#ff3104" stroke="none" /><path d="M 112.45986205192187 116.90419585922612 l 0.9429896748572193 1.279346600354668 a22.589326036635143,22.589326036635143 0 0,0 -0.31411962693101025,0.2273983856831779 l -0.9208890375522412 -1.295345757410923" fill="#ff1201" stroke="none" /><path d="M 111.8722381534696 117.32195027204791 l 0.8984786209851862 1.3109071593762849 a22.58925813286308,22.58925813286308 0 0,0 -0.321739569365443,0.21648074104983436 l -0.8758427635227398 -1.3261375744832404" fill="#ff1201" stroke="none" /><path d="M 110.96478420261333 117.91015095944535 l 0.843899741763273 1.3784468066425635 a22.616255664457576,22.616255664457576 0 0,0 -0.33285446643838873,0.19986954341064017 l -0.8201125187674476 -1.392730350589127" fill="#ff1202" stroke="none" /><line stroke="#e1ed5e" stroke-width="0.3" x1="143.1302829299769" x2="145.66735839644613" y1="173.24464959558577" y2="177.55315839532614" /><path d="M 143.63769802327073 174.10635135553383 a86.0,86.0 0 0,1 -40.68552437913181,11.842963189579606" fill="none" id="id66" stroke="none" /><text fill="#e1ed5e" style="font-size:6.75px; font-family:Arial;" text-anchor="middle"><textPath startOffset="21.407464694133747" xlink:href="#id66">June</textPath></text><path d="M 110.34350942703117 118.27599006163325 l 0.7782230711849554 1.3750455988893746 a22.579994160606166,22.579994160606166 0 0,0 -0.33897497097774015,0.1880237023048495 l -0.7545039120511208 -1.3882022166273678" fill="#ff1101" stroke="none" /><path d="M 109.71004243097381 118.62028667847754 l 0.7306120309716547 1.4010449041953954 a22.58010150413586,22.58010150413586 0 0,0 -0.34523123447248666,0.1762775281915859 l -0.7064535747855857 -1.4133803840598176" fill="#ff1101" stroke="none" /><path d="M 108.07796709384702 119.3841803445677 l 0.6116689063637928 1.467782705026303 a22.590133617085876,22.590133617085876 0 0,0 -0.3592321115494132,0.14609657241794335 l -0.5863823336239387 -1.4780665340235377" fill="#ff1201" stroke="none" /><path d="M 107.06938296918513 119.77432235084164 l 0.5481813709099255 1.533360857991352 a22.628403615886633,22.628403615886633 0 0,0 -0.3668971818592836,0.12762588536838992 l -0.52177841700562 -1.5425451759283324" fill="#ff1202" stroke="none" /><path d="M 105.3480935250658 120.30758222061773 l 0.4100248249329528 1.5569310457632424 a22.610016968333788,22.610016968333788 0 0,0 -0.37618191661046546,0.09562397215443699 l -0.38323761509709003 -1.5637402497529496" fill="#ff1202" stroke="none" /><path d="M 102.15924093988457 120.88869738790638 l 0.16646728429225163 1.6104199685808673 a22.619000874596317,22.619000874596317 0 0,0 -0.3865699661755876,0.03660857771210683 l -0.13879775473164876 -1.6130403017981578" fill="#ff1202" stroke="none" /><path d="M 101.44090949804482 120.95050786540614 l 0.08269156270192345 1.202317173382591 a22.205157450274772,22.205157450274772 0 0,0 -0.380507205727107,0.022890368613798076 l -0.06204000484235132 -1.2035595198210807" fill="#ff0c01" stroke="none" /><path d="M 101.08105385017728 120.97215588758144 l 0.08122389869668156 1.5757219355766436 a22.577813975086066,22.577813975086066 0 0,0 -0.387235570274885,0.01662956155971248 l -0.05416256782096701 -1.576884065562187" fill="#ff1101" stroke="none" /><path d="M 100.72087961077811 120.9876233191556 l 0.05571295024874418 1.622021758331307 a22.622978286153455,22.622978286153455 0 0,0 -0.3882390557331603,0.009999660896946124 l -0.02786058044484002 -1.6227391365782984" fill="#ff1202" stroke="none" /><line stroke="#e1ed5e" stroke-width="0.3" x1="101.45913802915013" x2="101.54496967792366" y1="184.9874750549273" y2="189.98673829345242" /><path d="M 101.47630435890484 185.9873277026323 a86.0,86.0 0 0,1 -42.54439059252881,-10.42667462771756" fill="none" id="id67" stroke="none" /><text fill="#e1ed5e" style="font-size:6.75px; font-family:Arial;" text-anchor="middle"><textPath startOffset="22.145653131862474" xlink:href="#id67">July</textPath></text><path d="M 100.36049292484886 120.99690560180557 l 0.031241462887930883 1.819658589402911 a22.81992675978765,22.81992675978765 0 0,0 -0.3917343877367829,0.003362568579172562 l -2.228767481056558e-16 -1.8199267597876485" fill="#ff1502" stroke="none" /><path d="M 99.63950707515114 120.99690560180557 l -0.18954831848253634 11.040239282997105 a32.041866327341225,32.041866327341225 0 0,0 -0.5498791436523204,-0.014162936184875182 l 0.37904077620560067 -11.035358629462182" fill="#ff930d" stroke="none" /><path d="M 98.91894614982273 120.97215588758144 l -0.16006130894598802 3.105146632829766 a24.109269244371664,24.109269244371664 0 0,0 -0.4131360335022215,-0.02485323786822072 l 0.21334169458065583 -3.1019414171368536" fill="#ff2703" stroke="none" /><path d="M 97.84075906011543 120.88869738790638 l -0.20976616499187892 2.0292973617716052 a23.040110199589375,23.040110199589375 0 0,0 -0.39306877655591027,-0.04404417627609997 l 0.24457084314858848 -2.0253974249885345" fill="#ff1802" stroke="none" /><path d="M 97.12497278360702 120.80226474461374 l -0.21008187460663602 1.520047792484844 a22.53449655766192,22.53449655766192 0 0,0 -0.38273757999466923,-0.056249243966793656 l 0.23614456020899013 -1.5162174752191677" fill="#ff1101" stroke="none" /><path d="M 96.76829788921471 120.74984581791261 l -1.0550751606095206 6.774339390964819 a27.856008881157667,27.856008881157667 0 0,0 -0.4718575730562592,-0.07764398408354087 l 1.1712102367188433 -6.75522940838561" fill="#ff5b08" stroke="none" /><path d="M 95.70440661134978 120.55596938700252 l -0.31691318831167525 1.5165443299369572 a22.549303286509716,22.549303286509716 0 0,0 -0.3782243855505879,-0.08243224444789972 l 0.34289999048139963 -1.5108806273553388" fill="#ff1101" stroke="none" /><path d="M 95.00130118170881 120.39639698878247 l -0.37679101175441 1.5374359082060347 a22.582934186370434,22.582934186370434 0 0,0 -0.37573131753130806,-0.09550943163057159 l 0.4031276225110967 -1.5307412447402" fill="#ff1101" stroke="none" /><path d="M 94.6519064749342 120.30758222061772 l -0.5431178106678433 2.0623067909949087 a23.13262426518324,23.13262426518324 0 0,0 -0.38314080783905297,-0.10442673092802601 l 0.5784400194415913 -2.0526795659227384" fill="#ff1902" stroke="none" /><path d="M 93.61358852112213 120.00534299687104 l -0.4711630431817036 1.4759115220611652 a22.549293204726965,22.549293204726965 0 0,0 -0.367743819273011,-0.12088469771541992 l 0.4964296001024581 -1.4676059029437236" fill="#ff1101" stroke="none" /><path d="M 92.93061703081489 119.77432235084164 l -0.5228038545465503 1.4623754281143002 a22.553018275192283,22.553018275192283 0 0,0 -0.36343743082228486,-0.13345925873090367 l 0.547830437022954 -1.453185320374677" fill="#ff1101" stroke="none" /><path d="M 92.59220618246901 119.65005319985036 l -0.5577770806429101 1.4795699743089616 a22.581215538934256,22.581215538934256 0 0,0 -0.36154433384770707,-0.13985311518918123 l 0.5830936769841454 -1.4697769709817399" fill="#ff1101" stroke="none" /><path d="M 92.25597844496254 119.51999308798841 l -0.5990449547118502 1.509984611001393 a22.624471724354336,22.624471724354336 0 0,0 -0.35977816191767353,-0.14631864634899117 l 0.6248775778199646 -1.4994787080731105" fill="#ff1202" stroke="none" /><path d="M 91.59046798132341 119.24265499422711 l -1.2454244216895654 2.849774804915784 a24.110031901584545,24.110031901584545 0 0,0 -0.3778232550254542,-0.1689955362550944 l 1.2941610795706546 -2.827975517750834" fill="#ff2703" stroke="none" /><path d="M 91.26138138417905 119.09545874513695 l -0.5082236602539685 1.110560417422501 a22.221325398731878,22.221325398731878 0 0,0 -0.345500644543813,-0.16171174699675128 l 0.5272130186692714 -1.101672438855223" fill="#ff0c01" stroke="none" /><path d="M 90.93487009805054 118.94263497670748 l -0.6843305229955692 1.4299875943020612 a22.585298957471803,22.585298957471803 0 0,0 -0.34828655165377675,-0.17036440527553567 l 0.7087773239114155 -1.4180294389293044" fill="#ff1101" stroke="none" /><path d="M 90.6110303473126 118.78422872680471 l -0.5581753684542752 1.1167246437645602 a22.248452510887038,22.248452510887038 0 0,0 -0.34016059334494886,-0.17368842270211668 l 0.5772631835128064 -1.106978269389607" fill="#ff0d01" stroke="none" /><path d="M 89.97174638481275 118.45085714620012 l -1.1673023081274576 2.147704770955499 a23.44442845298133,23.44442845298133 0 0,0 -0.35195201548384747,-0.19522185013852328 l 1.2039985117674077 -2.1273500053838275" fill="#ff1e03" stroke="none" /><line stroke="#e1ed5e" stroke-width="0.3" x1="58.13341422392154" x2="55.67067388415222" y1="173.97424548756322" y2="178.32567169271397" /><path d="M 57.64086615596768 174.84453072859336 a86.0,86.0 0 0,1 -31.369924170532247,-30.572349798747897" fill="none" id="id68" stroke="none" /><text fill="#e1ed5e" style="font-size:6.75px; font-family:Arial;" text-anchor="middle"><textPath startOffset="22.145653131862474" xlink:href="#id68">August</textPath></text><path d="M 89.65649057296885 118.27599006163327 l -0.670015744590341 1.1838536210224702 a22.360305294412605,22.360305294412605 0 0,0 -0.33243122542174275,-0.1919292574842818 l 0.6902394378724834 -1.1721774662620168" fill="#ff0e01" stroke="none" /><path d="M 89.34428304082925 118.09573695890944 l -1.5726316698705378 2.6706723855625394 a24.09930014036816,24.09930014036816 0 0,0 -0.3546811553942283,-0.2129758429969095 l 1.6182455818221932 -2.6432825420297115" fill="#ff2703" stroke="none" /><path d="M 89.03521579738668 117.91015095944536 l -0.8259131025348084 1.3490669832112832 a22.581807250624887,22.581807250624887 0 0,0 -0.3288726997141737,-0.20524088794134668 l 0.8489499310386946 -1.3346902984283888" fill="#ff1101" stroke="none" /><path d="M 88.4268655584334 117.5232005979908 l -0.8501962744229208 1.2873055212137137 a22.542721364987834,22.542721364987834 0 0,0 -0.3210767446029903,-0.2160347629687286 l 0.8721693071229167 -1.272521084187864" fill="#ff1101" stroke="none" /><path d="M 88.1277618465304 117.32195027204791 l -0.8938616269604205 1.3041708271136143 a22.581091444049502,22.581091444049502 0 0,0 -0.31786102273881517,-0.22189168020276476 l 0.9161177408730011 -1.2886343311057207" fill="#ff1101" stroke="none" /><path d="M 87.54013794807813 116.9041958592261 l -2.2137265047894017 3.003345162232197 a24.73104103455197,24.73104103455197 0 0,0 -0.3395772268303929,-0.2548250817061866 l 2.2649567205305607 -2.9649010532619955" fill="#ff3004" stroke="none" /><path d="M 85.60350026404147 115.28858382429668 l -1.4302167012489921 1.5188405740972604 a23.086239799748736,23.086239799748736 0 0,0 -0.28618968656123,-0.2741632458530387 l 1.4560788736755366 -1.4940651979386392" fill="#ff1902" stroke="none" /><path d="M 85.34317274990678 115.03919595460226 l -1.0851796682141128 1.1134899386986037 a22.554823062566385,22.554823062566385 0 0,0 -0.2749627116217171,-0.2726126170969046 l 1.1041342999657924 -1.0946973113730396" fill="#ff1101" stroke="none" /><path d="M 84.83555147118756 114.52719865689866 l -1.1067843060545282 1.0602743287263476 a22.53269473551804,22.53269473551804 0 0,0 -0.2651820978135775,-0.28161419827621603 l 1.1248222376043586 -1.0411186705056414" fill="#ff1101" stroke="none" /><path d="M 84.58840730492382 114.26474011684316 l -1.7047002998414844 1.5778451478355244 a23.322842746039377,23.322842746039377 0 0,0 -0.26943691776630657,-0.2961583710259988 l 1.731534918449671 -1.5483492012518516" fill="#ff1c02" stroke="none" /><path d="M 84.3458050057657 113.99807769240083 l -1.1524293690203216 1.0305094480101038 a22.545976446463097,22.545976446463097 0 0,0 -0.2555091879289707,-0.2907225526884676 l 1.1699496209078848 -1.010574617510336" fill="#ff1101" stroke="none" /><path d="M 84.1078160697243 113.72728997021213 l -2.3112126287130517 1.9963704218599396 a24.054046279348093,24.054046279348093 0 0,0 -0.26723522698206814,-0.31480242543145537 l 2.345142419202232 -1.95640121397893" fill="#ff2603" stroke="none" /><path d="M 83.64595745247003 113.17365903436017 l -3.1116162170419908 2.5064977646941475 a24.995583377502648,24.995583377502648 0 0,0 -0.266302432725958,-0.33646442433512985 l 3.15418508040951 -2.452713396444337" fill="#ff3404" stroke="none" /><path d="M 83.20337586046588 112.60449989151573 l -1.2328255359156854 0.925135265552122 a22.541341643365932,22.541341643365932 0 0,0 -0.22959749778032734,-0.31149310121521223 l 1.2485250532798433 -0.9038358550680301" fill="#ff1101" stroke="none" /><path d="M 82.78059297857968 112.02048342749411 l -2.437251868679544 1.7013910908573777 a23.97236073104036,23.97236073104036 0 0,0 -0.23265776903577637,-0.339454638084863 l 2.466099374530646 -1.6593017177024638" fill="#ff2503" stroke="none" /><path d="M 82.37810715431573 111.42229804090323 l -5.135371514639541 3.328685771990899 a27.119819405997685,27.119819405997685 0 0,0 -0.2498669172076866,-0.3928322956423085 l 5.191756123473118 -3.2400398016699183" fill="#ff5107" stroke="none" /><path d="M 82.18462484594161 111.11811171558189 l -1.3215027623260582 0.824715461613177 a22.557730767321246,22.557730767321246 0 0,0 -0.2021946466476107,-0.3302697597812571 l 1.3354653734290736 -0.8019085857073629" fill="#ff1101" stroke="none" /><path d="M 81.99639281039703 110.81064883170644 l -0.9323109807351952 0.559825956461245 a22.08747821418508,22.08747821418508 0 0,0 -0.19239906868144804,-0.32673568107514606 l 0.9417837595464134 -0.5437391070925401" fill="#ff0a01" stroke="none" /><line stroke="#e1ed5e" stroke-width="0.3" x1="26.387840678322732" x2="22.057713659400548" y1="142.50000000000003" y2="145.00000000000006" /><path d="M 25.521815274538298 143.00000000000003 a86.0,86.0 0 0,1 -11.493303480769221,-40.785679425670985" fill="none" id="id69" stroke="none" /><text fill="#e1ed5e" style="font-size:6.75px; font-family:Arial;" text-anchor="middle"><textPath startOffset="21.40746469413373" xlink:href="#id69">September</textPath></text><path d="M 81.81346652052679 110.50000000000001 l -2.0773280740770343 1.1993459227635441 a23.398691845527086,23.398691845527086 0 0,0 -0.19784890351961715,-0.34958005500338163 l 2.09761034261803 -1.163509097661041" fill="#ff1d02" stroke="none" /><path d="M 81.63589988554817 110.18625677009913 l -0.6974042319812664 0.3868383713463008 a21.797506481686035,21.797506481686035 0 0,0 -0.17869248131486884,-0.32877403906573394 l 0.7039420629114649 -0.3748094988059798" fill="#ff0601" stroke="none" /><path d="M 81.4637452351635 109.86951160357371 l -1.3598742288706755 0.7240564316530842 a22.540621833729748,22.540621833729748 0 0,0 -0.17892094190332533,-0.34310449771011353 l 1.37210323974895 -0.7006056908384678" fill="#ff1101" stroke="none" /><path d="M 81.29705330413844 109.54985784667822 l -0.33132020766134057 0.16917445878182558 a21.372012200752714,21.372012200752714 0 0,0 -0.1640353705408161,-0.3281806240201122 l 0.33417549141389363 -0.16346197859796058" fill="#ff0000" stroke="none" /><path d="M 80.9802524753101 108.90220220490708 l -9.65754956563445 4.520220834981464 a31.66305115854213,31.66305115854213 0 0,0 -0.2261880744700207,-0.49426176316524145 l 9.733722104959527 -4.353770089601533" fill="#ff8e0d" stroke="none" /><path d="M 80.68587082218212 108.24405325689762 l -1.4141022525393776 0.6035961638913836 a22.53753488080802,22.53753488080802 0 0,0 -0.14882731503931199,-0.3571313774126703 l 1.4242554121151751 -0.579232277037432" fill="#ff1101" stroke="none" /><path d="M 80.28708602549918 107.23885506374661 l -1.7443809230082867 0.6405608371220657 a22.858274196831502,22.858274196831502 0 0,0 -0.1320988699817329,-0.3695040498706792 l 1.755119963033963 -0.610521830870465" fill="#ff1502" stroke="none" /><path d="M 79.56144815229197 104.8234425847677 l -3.030093296332451 0.7150937674181677 a24.11333012715953,24.11333012715953 0 0,0 -0.09161818265817263,-0.40368661748109447 l 3.04192234054829 -0.6629728159980469" fill="#ff2703" stroke="none" /><path d="M 79.407916724674 104.11899336999214 l -1.676284620010364 0.3353038710908755 a22.709490805255125,22.709490805255125 0 0,0 -0.07318264015123241,-0.3829224973114461 l 1.6817935524437533 -0.30647880874611483" fill="#ff1302" stroke="none" /><path d="M 79.2786578344484 103.40968896794605 l -1.5336313008894824 0.2523584469462096 a22.554255369240547,22.554255369240547 0 0,0 -0.059584592086568265,-0.3825758242980729 l 1.5377373851143181 -0.22599444071668676" fill="#ff1101" stroke="none" /><path d="M 79.17382384314188 102.69636545807758 l -3.0933284287310885 0.400493295691887 a24.11914662173648,24.11914662173648 0 0,0 -0.04963710467565658,-0.4110664325300533 l 3.0997476196664064 -0.3473331862384344" fill="#ff2703" stroke="none" /><path d="M 79.01933749520258 100.90099992219065 l -1.9422717088820023 0.08340950426020306 a22.94406186540561,22.94406186540561 0 0,0 -0.013520949864194045,-0.3936477026456626 l 1.9434173457430446 -0.05005553705042054" fill="#ff1702" stroke="none" /><line stroke="#e1ed5e" stroke-width="0.3" x1="15.003131293944662" x2="10.003315487706104" y1="100.72959589197737" y2="100.7725132973878" /><path d="M 14.003168132696942 100.73817937305945 a86.0,86.0 0 0,1 10.791469493833604,-42.45332614584628" fill="none" id="id70" stroke="none" /><text fill="#e1ed5e" style="font-size:6.75px; font-family:Arial;" text-anchor="middle"><textPath startOffset="22.145653131862435" xlink:href="#id70">October</textPath></text><path d="M 79.00077361379809 100.18025310272382 l -0.7817740883362371 0.006710590307473752 a21.781802888979204,21.781802888979204 0 0,0 0.0,-0.3739273860625823 l 0.7817740883362371 0.006710590307473464" fill="#ff0601" stroke="none" /><path d="M 79.0935383218832 98.0201363427161 l -1.5324150883797756 -0.1451213021155244 a22.539271319625524,22.539271319625524 0 0,0 0.039784612525008194,-0.3848800364883885 l 1.5296980833731038 0.17140586088682563" fill="#ff1101" stroke="none" /><path d="M 79.13060592940154 97.66154086499901 l -3.0901240982581557 -0.3462548505918968 a24.109462873905105,24.109462873905105 0 0,0 0.04961717556238857,-0.4109013908833476 l 3.0837248364360987 0.3992499183986806" fill="#ff2703" stroke="none" /><path d="M 79.2786578344484 96.59031103205396 l -3.936881357573062 -0.6478123292295895 a24.98982401084411,24.98982401084411 0 0,0 0.07328585107356092,-0.42269331403524224 l 3.9251806890072665 0.7152986761854244" fill="#ff3404" stroke="none" /><path d="M 79.34024301695615 96.23510406497455 l -1.5281693579596745 -0.27848336301994414 a22.553336592656525,22.553336592656525 0 0,0 0.07267942422064382,-0.38028945892380767 l 1.5231636414568714 0.30467538697706636" fill="#ff1101" stroke="none" /><path d="M 79.407916724674 95.88100663000787 l -0.4341910155483198 -0.0868503633382556 a21.442792077159098,21.442792077159098 0 0,0 0.07529717019461155,-0.3603242172636674 l 0.4326361345293414 0.09429103188733214" fill="#ff0100" stroke="none" /><path d="M 79.48165901384962 95.52812308129327 l -3.047422229729481 -0.6641714912467617 a24.118959123815884,24.118959123815884 0 0,0 0.0916395699340592,-0.40378085376486506 l 3.03557179823776 0.716386678950635" fill="#ff2703" stroke="none" /><path d="M 79.73907114497095 94.47779374421319 l -39.219382068326595 -10.68941698356779 a61.650013102949494,61.650013102949494 0 0,0 0.28705863070610366,-1.0186698113332804 l 39.030104945545915 11.361094718804083" fill="#32ff44" stroke="none" /><path d="M 79.83685265289637 94.1308016681162 l -1.6326211957313403 -0.47523223600114 a22.700381618015754,22.700381618015754 0 0,0 0.1121222437496454,-0.3732184836591052 l 1.6242226319780653 0.5031883232509687" fill="#ff1302" stroke="none" /><path d="M 80.05021161711548 93.44210830539832 l -1.5922690394691934 -0.5234104597552947 a22.6760904520441,22.6760904520441 0 0,0 0.1247342394740378,-0.3687546151831196 l 1.5830493784227906 0.5506667494125759" fill="#ff1302" stroke="none" /><path d="M 80.41425534168474 92.42381321644754 l -2.321541079058448 -0.8980219617623488 a23.48917585267963,23.48917585267963 0 0,0 0.14869915056232283,-0.3748189968916294 l 2.305783253529994 0.937741975867561" fill="#ff1e03" stroke="none" /><path d="M 80.68587082218212 91.75594674310238 l -4.209322163025526 -1.7967093296277992 a25.576740924206817,25.576740924206817 0 0,0 0.1758292760897736,-0.402331793275303 l 4.1778590049187745 1.868703192678969" fill="#ff3c05" stroke="none" /><path d="M 80.9802524753101 91.09779779509293 l -1.3897553779199041 -0.6504756897293116 a22.53445059659349,22.53445059659349 0 0,0 0.16699180587179718,-0.34894864794495906 l 1.378384314088202 0.6742368397393579" fill="#ff1101" stroke="none" /><path d="M 81.29705330413844 90.45014215332179 l -2.79470465174694 -1.4269961082410167 a24.137943910179242,24.137943910179242 0 0,0 0.1916000229220175,-0.36741830736295117 l 2.7697965598499823 1.4747606587084545" fill="#ff2803" stroke="none" /><path d="M 81.46374523516351 90.13048839642627 l -2.7899988055151534 -1.4855172166291457 a24.160831336164204,24.160831336164204 0 0,0 0.19806664150856332,-0.36442031166499805 l 2.764086814391239 1.5331923617687633" fill="#ff2803" stroke="none" /><path d="M 81.63589988554816 89.8137432299009 l -55.092300343355525 -30.558770310297323 a84.0,84.0 0 0,0 0.710266539914524,-1.254972919603579 l 54.55960043841963 31.500000000000007" fill="#4dd2ff" stroke="none" /><line stroke="#e1ed5e" stroke-width="0.3" x1="26.387840678322718" x2="22.05771365940052" y1="57.49999999999999" y2="54.99999999999999" /><path d="M 25.521815274538284 56.99999999999999 a86.0,86.0 0 0,1 29.574782752854787,-30.34633250058573" fill="none" id="id71" stroke="none" /><text fill="#e1ed5e" style="font-size:6.75px; font-family:Arial;" text-anchor="middle"><textPath startOffset="21.40746469413373" xlink:href="#id71">November</textPath></text><path d="M 81.99639281039701 89.18935116829357 l -1.823384699488198 -1.0948901219449538 a23.126855928703282,23.126855928703282 0 0,0 0.2072959603431753,-0.3386023723243486 l 1.8043207746896297 1.1260296103938454" fill="#ff1902" stroke="none" /><path d="M 82.18462484594161 88.88188828441811 l -2.625627347370219 -1.638585655318014 a24.094976884739584,24.094976884739584 0 0,0 0.22199770228001134,-0.34901726082244167 l 2.5971119534643177 1.6834165908191276" fill="#ff2703" stroke="none" /><path d="M 82.576782715395 88.27688183743585 l -3.241346862015192 -2.1809228254781585 a24.90675745991319,24.90675745991319 0 0,0 0.24172632347533643,-0.3526859300292131 l 3.2034308017245428 2.2362434905774062" fill="#ff3204" stroke="none" /><path d="M 82.98947788004972 87.6856937992154 l -5.506348396429312 -3.98617160153506 a27.797752327037536,27.797752327037536 0 0,0 0.28313728966012053,-0.38413011151490783 l 5.437109087185372 4.080108022318831" fill="#ff5a08" stroke="none" /><path d="M 83.2033758604659 87.39550010848427 l -1.9550874317456053 -1.4671340572144749 a23.444350467426517,23.444350467426517 0 0,0 0.2443214162861394,-0.31982457674138076 l 1.9296140381051592 1.5004795471967398" fill="#ff1e03" stroke="none" /><path d="M 83.64595745247003 86.82634096563983 l -2.3345887676789925 -1.8805794543744299 a23.997813169359983,23.997813169359983 0 0,0 0.26117983481782475,-0.31859693123063915 l 2.3019621136225377 1.9203786673035619" fill="#ff2603" stroke="none" /><path d="M 84.10781606972428 86.27271002978789 l -1.8535025326382915 -1.6010113422848453 a23.449226195479152,23.449226195479152 0 0,0 0.26574554253601834,-0.3023696451695901 l 1.8257459261436806 1.6325932652657356" fill="#ff1e03" stroke="none" /><path d="M 84.58840730492382 85.73525988315684 l -5.155471044107054 -4.771827031711838 a28.024899636806357,28.024899636806357 0 0,0 0.329818593112532,-0.35025591637513315 l 5.07279661725825 4.859624408031482" fill="#ff5d08" stroke="none" /><path d="M 84.83555147118756 85.47280134310135 l -2.875801432008662 -2.7549527186040765 a24.982461344204996,24.982461344204996 0 0,0 0.2993293816162782,-0.30713831501756367 l 2.8280852492415813 2.8039137256893705" fill="#ff3304" stroke="none" /><path d="M 85.34317274990677 84.96080404539775 l -1.0718875759221114 -1.0998510810375886 a22.535778426686523,22.535778426686523 0 0,0 0.2793658655671283,-0.26762617970176567 l 1.0528492244896825 1.1180893910449228" fill="#ff1101" stroke="none" /><path d="M 85.60350026404147 84.71141617570332 l -1.0521619326185405 -1.1173595108951342 a22.534775882348754,22.534775882348754 0 0,0 0.28390622898008666,-0.2627793670700749 l 1.0328259323245006 1.1352566240975748" fill="#ff1101" stroke="none" /><path d="M 86.40962598614128 83.9905735841838 l -2.015343119298171 -2.374069127025054 a24.11413103584226,24.11413103584226 0 0,0 0.31787668476685754,-0.2651840361085772 l 1.9742921003694043 2.408315347045513" fill="#ff2703" stroke="none" /><path d="M 88.4268655584334 82.4767994020092 l -2.541364002982669 -3.847949009978839 a25.6114252221036,25.6114252221036 0 0,0 0.36894400514576803,-0.23914504668047484 l 2.474934365579875 3.8910078983632204" fill="#ff3c05" stroke="none" /><path d="M 88.72937992617638 82.28071324371311 l -1.3345248615850709 -2.0980947410995126 a23.486555478733198,23.486555478733198 0 0,0 0.3420491026936879,-0.21346393792311755 l 1.2983116301016844 2.120694475864166" fill="#ff1e03" stroke="none" /><line stroke="#e1ed5e" stroke-width="0.3" x1="56.869717070023135" x2="54.33264160355391" y1="26.7553504044142" y2="22.446841604673864" /><path d="M 56.362301976729285 25.89364864446614 a86.0,86.0 0 0,1 42.16139366436587,-11.88097634709845" fill="none" id="id72" stroke="none" /><text fill="#e1ed5e" style="font-size:6.75px; font-family:Arial;" text-anchor="middle"><textPath startOffset="22.145653131862474" xlink:href="#id72">December</textPath></text><path d="M 90.61103034731259 81.2157712731953 l -1.3907407086686625 -2.7824130376045213 a24.110624058059706,24.110624058059706 0 0,0 0.37180849929040005,-0.18187016856443458 l 1.3427719601162094 2.8058769562661703" fill="#ff2703" stroke="none" /><path d="M 91.5904679813234 80.7573450057729 l -0.6146439850803492 -1.406425722966603 a22.53486824927014,22.53486824927014 0 0,0 0.3557986617673091,-0.15186929161224438 l 0.5904102481426089 1.4167696642382515" fill="#ff1101" stroke="none" /><path d="M 93.27111125876988 80.10723608172694 l -0.49550745262102536 -1.4648797377697373 a22.546415300535827,22.546415300535827 0 0,0 0.3676968851421021,-0.12086926953435852 l 0.47028782983116224 1.4731699287061244" fill="#ff1101" stroke="none" /><path d="M 93.95794788825049 79.88797359093562 l -0.7055394903201574 -2.3485114989926985 a23.452201507483053,23.452201507483053 0 0,0 0.38655927330589696,-0.1125217706841357 l 0.6651202046326361 2.360276963979355" fill="#ff1e03" stroke="none" /><path d="M 94.6519064749342 79.69241777938228 l -0.3939474249054103 -1.4958825391462849 a22.546886920402503,22.546886920402503 0 0,0 0.37513156877307574,-0.09535697784152805 l 0.3682105629069565 1.502424748823076" fill="#ff1101" stroke="none" /><path d="M 95.35216902796891 79.52079915486377 l -0.6908812977578325 -3.044150474075452 a24.121565164529702,24.121565164529702 0 0,0 0.4045962771865905,-0.08817987548635914 l 0.6385226039521236 3.0555618076955255" fill="#ff2703" stroke="none" /><path d="M 95.70440661134978 79.44403061299748 l -0.6443375409759853 -3.083388386385602 a24.14999282665986,24.14999282665986 0 0,0 0.4065289208869506,-0.08131716968383684 l 0.5913121345580579 3.093994952732305" fill="#ff2803" stroke="none" /><path d="M 96.41257539226777 79.30868818359171 l -0.5342763662455962 -3.0815641020853333 a24.1275371381951,24.1275371381951 0 0,0 0.4087003693323084,-0.06725149024490139 l 0.48129849386021484 3.090281590825903" fill="#ff2703" stroke="none" /><path d="M 97.84075906011542 79.11130261209362 l -0.31986530363699667 -3.0944066542760056 a24.1108947835789,24.1108947835789 0 0,0 0.4120671745240199,-0.03902318985205098 l 0.26669856572796125 3.09944159963324" fill="#ff2703" stroke="none" /><path d="M 98.5590905019552 79.04949213459386 l -0.10847551396574752 -1.5772101659591478 a22.580936065985913,22.580936065985913 0 0,0 0.38694654178477733,-0.02327774308074421 l 0.08138462004848641 1.5788398868645859" fill="#ff1101" stroke="none" /></svg>