<?xml version="1.0" encoding="utf-8" ?>
<svg baseProfile="full" height="200mm" version="1.1" viewBox="0,0,200,200" width="200mm" xmlns="http://www.w3.org/2000/svg" xmlns:ev="http://www.w3.org/2001/xml-events" xmlns:xlink="http://www.w3.org/1999/xlink"><defs /><rect fill="#1a1a1a" height="200" width="200" x="0" y="0" /><text alignment-baseline="middle" fill="#e1ed5e" style="dominant-baseline: central; font-size:9.0px; font-family:Arial;" text-anchor="middle" x="100.0" y="100.0">2025</text><line stroke="#e1ed5e" stroke-width="0.3" x1="100.0" x2="100.0" y1="15.0" y2="10.0" /><path d="M 100.0 14.0 a86.0,86.0 0 0,1 42.46469731375804,11.215312516191453" fill="none" id="id121" stroke="none" /><text fill="#e1ed5e" style="font-size:6.75px; font-family:Arial;" text-anchor="middle"><textPath startOffset="22.20632615414155" xlink:href="#id121">January</textPath></text><path d="M 100.0 79.0 l 0.0 -2.2972951321016026 a23.297295132101603,23.297295132101603 0 0,0 0.40102463857645854,0.0034517456722244445 l -0.039544159303930175 2.296954763037937" fill="#ff1702" stroke="none" /><path d="M 101.08401301168833 79.027996857942 l 0.23747252691605292 -4.594294096967742 a25.600427311725785,25.600427311725785 0 0,0 0.4398859876187416,0.02653512404968768 l -0.3165205633744064 4.58952570353775" fill="#ff3805" stroke="none" /><path d="M 102.16513564639614 79.11191278185805 l 0.23269665970598297 -2.2449346909969896 a23.256962450347828,23.256962450347828 0 0,0 0.3978416803518566,0.04470214830849187 l -0.2713050435675648 2.240596589217897" fill="#ff1702" stroke="none" /><path d="M 103.2404852339499 79.25152402106235 l 0.3547367031922217 -2.271340689326261 a23.29887508481448,23.29887508481448 0 0,0 0.3957156320272363,0.06529646990686673 l -0.3937815413583332 2.2648979564797695" fill="#ff1702" stroke="none" /><path d="M 103.95276090670814 79.375362276772 l 0.43114013891184694 -2.249594494295993 a23.290536445496507,23.290536445496507 0 0,0 0.3930927837054335,0.0788507143864 l -0.4697993320844058 2.2418398238323847" fill="#ff1702" stroke="none" /><path d="M 104.307194497241 79.44645832069477 l 0.4599516482059532 -2.1948475690897564 a23.242523438055127,23.242523438055127 0 0,0 0.39086982196101555,0.0854290037908674 l -0.4976641943204967 2.1866050672030184" fill="#ff1702" stroke="none" /><path d="M 104.66035177308747 79.52364482259891 l 0.5137832275631607 -2.2574278432215897 a23.315157375272207,23.315157375272207 0 0,0 0.3905580999696088,0.09243248383668508 l -0.552565014495293 2.248249447244036" fill="#ff1802" stroke="none" /><path d="M 105.36241919743992 79.69619591428918 l 0.5627849395752482 -2.1308806221228767 a23.20394625931566,23.20394625931566 0 0,0 0.38529833518871187,0.10531658973600762 l -0.599381163987671 2.120877491560575" fill="#ff1602" stroke="none" /><path d="M 105.71112130821622 79.79150937346287 l 0.6186929391147579 -2.1892111524261013 a23.274956356244505,23.274956356244505 0 0,0 0.3846017875084353,0.11227580824913393 l -0.6562849443466203 2.178237015258264" fill="#ff1702" stroke="none" /><path d="M 106.40334571778207 80.00007090966166 l 0.6973224510629598 -2.1779863510463007 a23.286893776741813,23.286893776741813 0 0,0 0.3807043166748386,0.125512227626675 l -0.7347095899802158 2.1656603991603895" fill="#ff1702" stroke="none" /><path d="M 106.74666289553966 80.11325718540242 l 0.7060448053707552 -2.08116689352799 a23.1976703360395,23.1976703360395 0 0,0 0.37703725473799277,0.1315408948575226 l -0.7417640641720217 2.06870514549826" fill="#ff1602" stroke="none" /><path d="M 107.08798089147638 80.2323363322302 l 0.7475411582314752 -2.084816878034345 a23.214786490429027,23.214786490429027 0 0,0 0.37499361337950227,0.1381133125089563 l -0.7833170973835538 2.071640297719064" fill="#ff1602" stroke="none" /><path d="M 107.4271985657038 80.35727306442388 l 0.7795142104548106 -2.0615827950351977 a23.204034034466375,23.204034034466375 0 0,0 0.3723881004540888,0.14448079757993093 l -0.8148854759085665 2.04785929356472" fill="#ff1602" stroke="none" /><path d="M 107.76421540070413 80.48803036053334 l 0.8122081341418422 -2.0411309625524114 a23.196792584532346,23.196792584532346 0 0,0 0.36973050723121215,0.15082235727977933 l -0.8472225109614419 2.026847719089053" fill="#ff1602" stroke="none" /><path d="M 108.09893153111575 80.62456947434976 l 0.8868289573833728 -2.1215999648720585 a23.29948951086949,23.29948951086949 0 0,0 0.36870470474552924,0.15786011265869118 l -0.9232174199192174 2.106020324250576" fill="#ff1702" stroke="none" /><line stroke="#e1ed5e" stroke-width="0.3" x1="143.23703022742887" x2="145.7803849466894" y1="26.81831364943548" y2="22.513508569990506" /><path d="M 143.74570117128098 25.957352633546492 a86.0,86.0 0 0,1 28.547481713284135,27.462654790039103" fill="none" id="id122" stroke="none" /><text fill="#e1ed5e" style="font-size:6.75px; font-family:Arial;" text-anchor="middle"><textPath startOffset="19.985693538727396" xlink:href="#id122">February</textPath></text><path d="M 111.60114157652 82.49532879139004 l 1.4752868306406315 -2.2260232528343167 a23.670515072943935,23.670515072943935 0 0,0 0.33769405699205696,0.2280125347148254 l -1.5133855820392303 2.2002988058208213" fill="#ff1d02" stroke="none" /><path d="M 111.90073688211348 82.69761687909136 l 1.2448018600316124 -1.8098071493587775 a23.19657314665556,23.19657314665556 0 0,0 0.3270372846235617,0.2291105174548301 l -1.275770284238825 1.7881117891400118" fill="#ff1602" stroke="none" /><path d="M 112.19680574252982 82.90503203632743 l 1.28973875808024 -1.807689916221903 a23.220623537951607,23.220623537951607 0 0,0 0.3233800052790193,0.2349493265418042 l -1.320664079713048 1.785221354863424" fill="#ff1602" stroke="none" /><path d="M 112.48926042617603 83.11751280151076 l 1.3313655357524627 -1.7996871589563512 a23.238617443848284,23.238617443848284 0 0,0 0.3195352461070822,0.24066732270747776 l -1.3621469356179279 1.7765032467430262" fill="#ff1602" stroke="none" /><path d="M 112.77801427241765 83.33499621200491 l 1.346631577838873 -1.7562682172112332 a23.21311876256543,23.21311876256543 0 0,0 0.31499919716899794,0.2458618698248763 l -1.3766633301673015 1.7328279581631327" fill="#ff1602" stroke="none" /><path d="M 113.06298171725822 83.55741782278167 l 1.824030454752377 -2.2959360500666626 a23.932304459952935,23.932304459952935 0 0,0 0.32034711658155435,0.25903175629360853 l -1.8632809698984225 2.264198196508924" fill="#ff2003" stroke="none" /><path d="M 113.34407831869373 83.78471172551755 l 1.4049764310396406 -1.7072814850199007 a23.211056046523616,23.211056046523616 0 0,0 0.3063223448815965,0.25653615447930106 l -1.4341563128803545 1.6828441731467803" fill="#ff1602" stroke="none" /><path d="M 113.6212207817346 84.01681056812373 l 1.4318505038024791 -1.6801385284857056 a23.207501152919637,23.207501152919637 0 0,0 0.30181488013212965,0.2617308899173671 l -1.460559182581373 1.655242645148667" fill="#ff1602" stroke="none" /><path d="M 113.89432698308785 84.25364557470407 l 1.4633177488022777 -1.6583689111040378 a23.211670472578625,23.211670472578625 0 0,0 0.29731830079363064,0.2669353060594366 l -1.4916470371918984 1.6329345962753037" fill="#ff1602" stroke="none" /><path d="M 114.16331599549186 84.49514656593476 l 1.493275020424933 -1.6347167807177994 a23.2140842892233,23.2140842892233 0 0,0 0.2927098335575351,0.27204188962164727 l -1.521192737777315 1.6087703050215116" fill="#ff1602" stroke="none" /><path d="M 114.94478906791727 85.2469230424477 l 1.6344792666084802 -1.6135121276194142 a23.296724593621953,23.296724593621953 0 0,0 0.27926752947053857,0.2878097374282737 l -1.6620110597821278 1.5851381946410261" fill="#ff1702" stroke="none" /><path d="M 115.19652480421416 85.50635884689758 l 1.5980484695046444 -1.5241340609559562 a23.208335016851436,23.208335016851436 0 0,0 0.2732313723248982,0.2914641774896995 l -1.6240471638000056 1.4964004665882018" fill="#ff1602" stroke="none" /><path d="M 115.4437574822437 85.77008943001954 l 1.6230143423595342 -1.4954488227444311 a23.206930614439987,23.206930614439987 0 0,0 0.2681575854941083,0.29610630353181744 l -1.6485155684696782 1.4672897319430647" fill="#ff1602" stroke="none" /><path d="M 115.68641384162765 86.03803664274999 l 1.6888384048300529 -1.5031797683406716 a23.260912332130026,23.260912332130026 0 0,0 0.2636326855071103,0.3013777330523615 l -1.7144629539150114 1.4738864790853623" fill="#ff1702" stroke="none" /><path d="M 115.9244219780498 86.31012108654704 l 1.702848162958484 -1.4639014961441226 a23.245595568330167,23.245595568330167 0 0,0 0.25823574901249197,0.3056696750826513 l -1.727794525458093 1.4343728714323647" fill="#ff1702" stroke="none" /><path d="M 116.38621287248628 86.86637796730983 l 1.7231546514234863 -1.38111606823244 a23.208335016851436,23.208335016851436 0 0,0 0.24716425822509705,0.3138735080224689 l -1.7466729902425475 1.3512501662569327" fill="#ff1602" stroke="none" /><path d="M 117.04232023915458 87.72973835380427 l 1.587996448971874 -1.143337975620696 a22.956771434900794,22.956771434900794 0 0,0 0.22813278516716679,0.3226776459772757 l -1.6074418539429238 1.115833829311627" fill="#ff1202" stroke="none" /><path d="M 117.2510076193507 88.02491185347247 l 1.8208733296380324 -1.2639910147403455 a23.216585881018695,23.216585881018695 0 0,0 0.22506327981314864,0.33025259177572747 l -1.8423610751199144 1.2324603996942116" fill="#ff1602" stroke="none" /><path d="M 117.65298651832404 88.62581576622439 l 1.8614213613689836 -1.1993522727114332 a23.214347614675447,23.214347614675447 0 0,0 0.21354149191946767,0.33777135811639 l -1.8817904495344069 1.167133266880837" fill="#ff1602" stroke="none" /><line stroke="#e1ed5e" stroke-width="0.3" x1="172.23445277983987" x2="176.4835382374775" y1="55.19839476539836" y2="52.563006222186495" /><path d="M 173.08426987136738 54.67131705675599 a86.0,86.0 0 0,1 12.851231095245387,41.99856678651699" fill="none" id="id123" stroke="none" /><text fill="#e1ed5e" style="font-size:6.75px; font-family:Arial;" text-anchor="middle"><textPath startOffset="22.20632615414155" xlink:href="#id123">March</textPath></text><path d="M 118.03404312379186 89.2402003453031 l 2.3627276687418304 -1.4096936654616246 a23.75131209917756,23.75131209917756 0 0,0 0.20645582106384408,0.35289992183578184 l -2.386643164276002 1.3688143312719474" fill="#ff1e03" stroke="none" /><path d="M 118.21658344932153 89.55222093294921 l 1.2558715058723366 -0.7202814988036214 a22.44776333590157,22.44776333590157 0 0,0 0.18935474976337366,0.3368409710582726 l -1.2680838969281432 0.6985570178105548" fill="#ff0b01" stroke="none" /><path d="M 118.3937258080291 89.86733742301442 l 1.9742407171830827 -1.087561880705543 a23.2539780952235,23.2539780952235 0 0,0 0.19011998570957644,0.35226345929814495 l -1.9926688021111238 1.0534174380749393" fill="#ff1702" stroke="none" /><path d="M 118.56541770881063 90.18545643968196 l 1.942539745443662 -1.026916886457026 a23.197275347861282,23.197275347861282 0 0,0 0.18357944472390123,0.35461705504291047 l -1.9599286233276794 0.9933271091537706" fill="#ff1602" stroke="none" /><path d="M 118.73160827565052 90.50648371742162 l 1.981067948550325 -1.0040408997290722 a23.22097463855447,23.22097463855447 0 0,0 0.17762938405460135,0.35808999916213946 l -1.9980573455583346 0.9697913120679829" fill="#ff1602" stroke="none" /><path d="M 118.89224826269711 90.83032412892265 l 1.9798163762335894 -0.9609377455704242 a23.200698578739186,23.200698578739186 0 0,0 0.17128943865622492,0.36077924206309603 l -1.9960640087315706 0.9267160878667877" fill="#ff1602" stroke="none" /><path d="M 119.34039704204932 91.81776055985345 l 2.03555116964146 -0.8611698625661705 a23.21022218259182,23.21022218259182 0 0,0 0.1525003477976467,0.369291688411084 l -2.050073204325304 0.8260036037017833" fill="#ff1602" stroke="none" /><path d="M 119.47837535516314 92.15188598940014 l 1.302967437581546 -0.5249840818745982 a22.40475351205097,22.40475351205097 0 0,0 0.14105013940970304,0.3589572197235342 l -1.3118111268729495 0.5024778572552796" fill="#ff0a01" stroke="none" /><path d="M 119.61058180528143 92.48833698450437 l 2.072717318497644 -0.7939363644347829 a23.21957023614302,23.21957023614302 0 0,0 0.13975462546727196,0.3744729146239991 l -2.0860765324665413 0.7581403127814506" fill="#ff1602" stroke="none" /><path d="M 119.7369772167798 92.82701384747503 l 2.0885101646770754 -0.7590247648408903 a23.22215960308913,23.22215960308913 0 0,0 0.1333028474807281,0.37686510058251244 l -2.101266092967613 0.7229620378317634" fill="#ff1602" stroke="none" /><path d="M 119.85752413597 93.16781622104841 l 2.9979551390591177 -1.0314770527712473 a24.170438443844105,24.170438443844105 0 0,0 0.13197370869971484,0.3945845910814423 l -3.0152661415306024 0.979719358767491" fill="#ff2403" stroke="none" /><path d="M 120.08093135843002 93.85539295169968 l 4.422967937815466 -1.353393399938001 a25.625399342104348,25.625399342104348 0 0,0 0.12543523507266624,0.4229052554694368 l -4.4456090699998345 1.2770587577220343" fill="#ff3805" stroke="none" /><path d="M 120.18372546131832 94.20196356495316 l 2.1242681870084223 -0.6102235372597696 a23.210178295016462,23.210178295016462 0 0,0 0.1070024912605261,0.3849448926564294 l -2.1344574488353114 0.5735673411843883" fill="#ff1602" stroke="none" /><path d="M 120.28053869075195 94.5502522615342 l 2.1487408515409787 -0.5774055499607806 a23.224968407912023,23.224968407912023 0 0,0 0.10042439636355942,0.38697616487825914 l -2.1583615797748408 0.5403329595336711" fill="#ff1602" stroke="none" /><path d="M 120.37134235888165 94.90015583598534 l 3.077316048470031 -0.7703877345999337 a24.17228172200913,24.17228172200913 0 0,0 0.09757222061339484,0.40449984674301953 l -3.090121069344245 0.717302656197508" fill="#ff2403" stroke="none" /><path d="M 120.45610955862082 95.25157060432595 l 2.488402051455692 -0.577627012386048 a23.55456409884875,23.55456409884875 0 0,0 0.08827982887141377,0.39574116289564387 l -2.4979762673291437 0.5347076799404402" fill="#ff1b02" stroke="none" /><path d="M 120.6074358757038 95.95851677861258 l 2.421020492890954 -0.4748050053228541 a23.467140048736105,23.467140048736105 0 0,0 0.0743285634403634,0.39706615802724765 l -2.4288347802411767 0.43306076983304365" fill="#ff1a02" stroke="none" /><path d="M 120.67395015179393 96.31383870115 l 62.02185045538181 -11.058483896549978 a84.0,84.0 0 0,0 0.2415525539191079,1.4256568467366484 l -62.20301487082114 9.98924126149749" fill="#4dd2ff" stroke="none" /><path d="M 120.73433829027371 96.67025291283417 l 2.3964102271990253 -0.3848417953812127 a23.427114580009835,23.427114580009835 0 0,0 0.060513471413704036,0.39870816880894805 l -2.402679592052029 0.3435345141801825" fill="#ff1902" stroke="none" /><path d="M 120.78858239683441 97.02765380044208 l 2.3537162464786854 -0.3365337475403788 a23.377653282581647,23.377653282581647 0 0,0 0.05352814773643975,0.3988468750819426 l -2.3591603932729615 0.29596853039377186" fill="#ff1802" stroke="none" /><path d="M 120.83666639777658 97.38593545837742 l 2.3437885751463856 -0.2940400585385407 a23.36216096848036,23.36216096848036 0 0,0 0.046623805679159296,0.3994442943807427 l -2.3485027338291338 0.25365202583294527" fill="#ff1802" stroke="none" /><path d="M 120.87857604477298 97.74499172005257 l 2.2135433492587193 -0.2390756232559561 a23.22641669789883,23.22641669789883 0 0,0 0.03951020783577263,0.3978624009661575 l -2.2173306827767205 0.20093769158536365" fill="#ff1602" stroke="none" /><path d="M 120.96714384426684 98.82574320788733 l 62.70065328816195 -3.5115258683007413 a83.79890712971078,83.79890712971078 0 0,0 0.06826175880788944,1.4408978400794896 l -62.75180865520334 2.431716921598252" fill="#4dd4ff" stroke="none" /><path d="M 120.98425023603335 99.18683210126433 l 2.2111958204072435 -0.08568680980967655 a23.212855437113284,23.212855437113284 0 0,0 0.012035650597915724,0.39940464918747387 l -2.2123431654608043 0.047612013197203595" fill="#ff1602" stroke="none" /><line stroke="#e1ed5e" stroke-width="0.3" x1="184.98032266829074" x2="189.97916517819016" y1="98.17113171792111" y2="98.06355123074" /><path d="M 185.9800911702706 98.14961562048488 a86.0,86.0 0 0,1 -9.607161424134198,41.387399972396054" fill="none" id="id124" stroke="none" /><text fill="#e1ed5e" style="font-size:6.75px; font-family:Arial;" text-anchor="middle"><textPath startOffset="21.466115282336823" xlink:href="#id124">April</textPath></text><path d="M 120.99513854157772 99.54816195383933 l 2.508954494044431 -0.053995409187229504 a23.509535446531697,23.509535446531697 0 0,0 0.005224706409275113,0.4046592692268351 l -2.5095122075714213 0.010799881899931668" fill="#ff1a02" stroke="none" /><path d="M 120.99980553446 99.90962569577887 l 2.274715853703753 -0.00978941744207618 a23.274736918367715,23.274736918367715 0 0,0 -0.001724217681428997,0.40064746634727183 l -2.274547338732821 -0.02936752710888037" fill="#ff1702" stroke="none" /><path d="M 120.9904718944345 100.63252640178507 l 2.2862948454965184 0.0688951567794482 a23.287332652495394,23.287332652495394 0 0,0 -0.01552252327235564,0.4005673528778577 l -2.2847701893729595 -0.1082397566713121" fill="#ff1702" stroke="none" /><path d="M 120.9764740272857 100.99374915477107 l 2.9864477604828137 0.1414813535338358 a23.98979718367159,23.98979718367159 0 0,0 -0.023091492502384542,0.41231411061732776 l -2.9835699170928995 -0.19286718048658688" fill="#ff2103" stroke="none" /><path d="M 120.92983693683757 101.71520430193887 l 2.4866288490914132 0.20377972901356647 a23.494964771512922,23.494964771512922 0 0,0 -0.036501557672690546,0.40279164729239686 l -2.4827526951416474 -0.24655276485453387" fill="#ff1a02" stroke="none" /><path d="M 120.89721153311464 102.0752229133903 l 2.4330530950242975 0.24161728584163195 a23.4450207107558,23.4450207107558 0 0,0 -0.04333722596436728,0.401248889377756 l -2.4285335675588784 -0.28346249710417937" fill="#ff1902" stroke="none" /><path d="M 120.8583938346157 102.4346265915055 l 2.291612242583518 0.26748081120006323 a23.307169836557097,23.307169836557097 0 0,0 -0.04994226030345023,0.3980889532467329 l -2.2866684730332194 -0.306887518734191" fill="#ff1702" stroke="none" /><path d="M 120.81339534386255 102.79330883721812 l 2.380536279097623 0.319485260134769 a23.40187922417913,23.40187922417913 0 0,0 -0.05701806469047649,0.3987842116447661 l -2.3746841633905453 -0.36041494375994443" fill="#ff1902" stroke="none" /><path d="M 120.64145759157962 103.86396538481128 l 2.2477623381910687 0.4207685348536523 a23.2868060015911,23.2868060015911 0 0,0 -0.0771459359196857,0.3933654652141066 l -2.240186469295719 -0.4593977271357038" fill="#ff1702" stroke="none" /><path d="M 120.5718875245553 104.21870165774334 l 2.536837270319412 0.5202322628367051 a23.5896302715596,23.5896302715596 0 0,0 -0.08499676431583494,0.39707658600372964 l -2.527506467279134 -0.5638226682566038" fill="#ff1b02" stroke="none" /><path d="M 120.49622156327973 104.57218783832717 l 2.389150268090719 0.5329589049364527 a23.447873403154055,23.447873403154055 0 0,0 -0.09126742390980261,0.3931776735130244 l -2.3796222782503635 -0.574005235798042" fill="#ff1902" stroke="none" /><path d="M 120.41448212921028 104.9243191809786 l 2.2218938007207516 0.5359584530107254 a23.28562103705644,23.28562103705644 0 0,0 -0.09734352698411747,0.38883900190657295 l -2.2123389594415737 -0.5741252943146944" fill="#ff1702" stroke="none" /><path d="M 120.23288151984713 105.62410040840565 l 2.2146447327288312 0.6156011111712263 a23.298611759362334,23.298611759362334 0 0,0 -0.11073204780554623,0.38547278509102295 l -2.2037200480371855 -0.6536313717668312" fill="#ff1702" stroke="none" /><path d="M 119.9155931802556 106.66101706037122 l 2.1722567625265308 0.7265382067073473 a23.290536445496507,23.290536445496507 0 0,0 -0.130437173249583,0.37911148175067644 l -2.159428758333717 -0.7638223915473241" fill="#ff1702" stroke="none" /><path d="M 119.79798401119884 107.00284435728193 l 2.08578036704338 0.737771849174995 a23.212416561359706,23.212416561359706 0 0,0 -0.13648429946516208,0.37554617445396793 l -2.072771806572991 -0.7735658206350942" fill="#ff1602" stroke="none" /><path d="M 119.67450827220406 107.3425965602758 l 2.234404505222857 0.8338877194452059 a23.384938620091035,23.384938620091035 0 0,0 -0.14399077785392844,0.37591448424743784 l -2.219719447775422 -0.8722257705257876" fill="#ff1902" stroke="none" /><path d="M 119.54520255179757 107.68017299344265 l 2.0887224239445787 0.820751256410073 a23.24419116591872,23.24419116591872 0 0,0 -0.14953473620081106,0.37113295199595414 l -2.074285073486375 -0.8565835762488406" fill="#ff1702" stroke="none" /><path d="M 119.41010516605496 108.01547362559984 l 3.295287923040298 1.3608011502214639 a24.5652071841871,24.5652071841871 0 0,0 -0.1647612061285903,0.389446821614498 l -3.271375735719399 -1.4173224975021252" fill="#ff2904" stroke="none" /><path d="M 119.12269723197855 108.67885076344098 l 2.079099066371495 0.9436007013316465 a23.28320722041176,23.28320722041176 0 0,0 -0.168775959063085,0.36352840080769777 l -2.062548490468579 -0.9792491694181749" fill="#ff1702" stroke="none" /><path d="M 118.64920377521936 109.65438752849418 l 2.1865966217736674 1.1319652790297694 a23.46222464029604,23.46222464029604 0 0,0 -0.18875638116391077,0.3570559384626065 l -2.1667877323848637 -1.1694362325785104" fill="#ff1a02" stroke="none" /><line stroke="#e1ed5e" stroke-width="0.3" x1="174.80103733775053" x2="179.2010983576182" y1="140.37084112569926" y2="142.7455964860345" /><path d="M 175.68104954172406 140.8457921977663 a86.0,86.0 0 0,1 -30.038265399797805,32.042727171017184" fill="none" id="id125" stroke="none" /><text fill="#e1ed5e" style="font-size:6.75px; font-family:Arial;" text-anchor="middle"><textPath startOffset="22.206326154141568" xlink:href="#id125">May</textPath></text><path d="M 117.94076556474637 110.91462005526583 l 1.9554312891206536 1.1896253528260359 a23.288868717632912,23.288868717632912 0 0,0 -0.21130252346855685,0.3406869480194928 l -1.9346641259841337 -1.2231086322108022" fill="#ff1702" stroke="none" /><path d="M 117.55443506779139 111.5257021239791 l 1.894099827058574 1.243607687484762 a23.26587162814545,23.26587162814545 0 0,0 -0.22268418796047842,0.33288264681353097 l -1.8724125336873745 -1.2760272485040998" fill="#ff1702" stroke="none" /><path d="M 117.35343817320211 111.8261652097733 l 1.854605592742547 1.2638920264580498 a23.244322828644794,23.244322828644794 0 0,0 -0.2281696962632041,0.3286954651672288 l -1.8325749893172067 -1.2956287538122984" fill="#ff1702" stroke="none" /><path d="M 117.14729908036423 112.12312394758627 l 2.9679630253478884 2.0983470026103546 a24.634812878704494,24.634812878704494 0 0,0 -0.24777953766800653,0.3441441064100751 l -2.931403695304279 -2.149124714471561" fill="#ff2a04" stroke="none" /><path d="M 116.71984013943494 112.70617746262583 l 1.822392992962849 1.3849204646770237 a23.28891260520827,23.28891260520827 0 0,0 -0.24530231917506015,0.3170863146191573 l -1.7982838565697206 -1.4160847734094335" fill="#ff1702" stroke="none" /><path d="M 116.27256486870786 113.27417163493432 l 3.5140240891591756 2.866527757925393 a25.53490316171666,25.53490316171666 0 0,0 -0.2807672039224468,0.3382021840534038 l -3.4641608853431856 -2.9265911990925675" fill="#ff3705" stroke="none" /><path d="M 116.0416608686014 113.55231037782055 l 1.937154207654116 1.6365459466366654 a23.535911879321706,23.535911879321706 0 0,0 -0.26411494897353566,0.30722535420182473 l -1.9086967491098017 -1.669648400000018" fill="#ff1b02" stroke="none" /><path d="M 115.80600337817218 113.82643327865902 l 1.6577141264983277 1.4500992576511886 a23.202454081753498,23.202454081753498 0 0,0 -0.265547833570964,0.2983458060702338 l -1.6325074432790254 -1.478419233462289" fill="#ff1602" stroke="none" /><path d="M 115.56566222782051 114.09645910891815 l 1.6782777679381513 1.5198694140274378 a23.264203900281856,23.264203900281856 0 0,0 -0.2713643004997131,0.2945123530921821 l -1.6518670594427163 -1.5485330219209548" fill="#ff1702" stroke="none" /><path d="M 115.32070863581623 114.36230785411682 l 0.4995848448079074 0.4683328631162936 a21.684777838307028,21.684777838307028 0 0,0 -0.25762904787905827,0.27012302671383254 l -0.4914492455498846 -0.47686300641263324" fill="#ff0000" stroke="none" /><path d="M 115.07121518719521 114.62390073753431 l 1.6641492590289109 1.6147572225733142 a23.3188000440269,23.3188000440269 0 0,0 -0.28200132779219145,0.2856658562042865 l -1.636107306181184 -1.6431635727582654" fill="#ff1802" stroke="none" /><path d="M 114.81725581225074 114.88116024355365 l 1.5877378614522168 1.5945855184259405 a23.25024765131809,23.25024765131809 0 0,0 -0.28603345657107654,0.27994393931716627 l -1.5600544525053461 -1.6216795606656789" fill="#ff1702" stroke="none" /><path d="M 114.29624159901734 115.38237550388516 l 1.5323868056644232 1.6488074224731533 a23.250949852523814,23.250949852523814 0 0,0 -0.29550899956961707,0.2699404646560918 l -1.5037782566279423 -1.674940653715828" fill="#ff1702" stroke="none" /><path d="M 114.0293411484842 115.62618273729858 l 1.4773612040587418 1.645516770836499 a23.21140714712648,23.21140714712648 0 0,0 -0.2996014003346341,0.26436340173780726 l -1.4488174508175198 -1.6707033143465952" fill="#ff1602" stroke="none" /><path d="M 113.75828350139079 115.86535959552629 l 1.548619891315011 1.7857904621614917 a23.36374092119324,23.36374092119324 0 0,0 -0.30610341541570674,0.26086797138904166 l -1.517650999322257 -1.81218282377348" fill="#ff1802" stroke="none" /><path d="M 113.48314897796784 116.09983520530334 l 1.4229158081801738 1.699062293248842 a23.216190892840473,23.216190892840473 0 0,0 -0.3085872561714511,0.25394630331566564 l -1.3934584234640315 -1.7233037154216861" fill="#ff1602" stroke="none" /><path d="M 113.20401910651253 116.32954008644616 l 2.589696272389035 3.202702809695212 a25.118717284599086,25.118717284599086 0 0,0 -0.3385554628550922,0.2689689352856946 l -2.5341833168165917 -3.2468056589860326" fill="#ff3104" stroke="none" /><path d="M 112.63410532772338 116.77436683061366 l 1.3407860512922993 1.7801685582274462 a23.228611076666716,23.228611076666716 0 0,0 -0.3214563569133887,0.23780572790840696 l -1.3099447239603463 -1.8029842348756222" fill="#ff1602" stroke="none" /><path d="M 112.34349029814194 116.9893568818739 l 1.3491811541522285 1.8569885480155583 a23.295364078785862,23.295364078785862 0 0,0 -0.32643757315225824,0.2329045409890069 l -1.3170162531510858 -1.8799373508487844" fill="#ff1702" stroke="none" /><path d="M 112.04921762599082 117.19931262002967 l 0.5082628640676377 0.7255053534259741 a21.885826821020895,21.885826821020895 0 0,0 -0.3104068020465201,0.21350062888793295 l -0.4956991773982343 -0.7341467716790012" fill="#ff0300" stroke="none" /><path d="M 111.7513745106137 117.40417183066458 l 2.5299715843666504 3.746971057832141 a25.521122463054326,25.521122463054326 0 0,0 -0.3661980911749578,0.24269612665917878 l -2.4650987944517286 -3.789965205582638" fill="#ff3705" stroke="none" /><path d="M 111.45004920935366 117.60387380957326 l 0.7649473204379743 1.1760679673726424 a22.402954121461303,22.402954121461303 0 0,0 -0.32507560993890383,0.20747863468316224 l -0.74458990845214 -1.1890610308796135" fill="#ff0a01" stroke="none" /><path d="M 111.1453310114006 117.79835938074945 l 2.388291871715839 3.8139447805937756 a25.500012539307246,25.500012539307246 0 0,0 -0.37402544114731323,0.22975697468847175 l -2.3222872306362166 -3.8544902221106256" fill="#ff3705" stroke="none" /><line stroke="#e1ed5e" stroke-width="0.3" x1="143.8653032363475" x2="146.44561519142675" y1="172.8068346515853" y2="177.08958963109032" /><path d="M 144.38136562736335 173.6633856474863 a86.0,86.0 0 0,1 -40.68145358897372,12.25698825130547" fill="none" id="id126" stroke="none" /><text fill="#e1ed5e" style="font-size:6.75px; font-family:Arial;" text-anchor="middle"><textPath startOffset="21.466115282336833" xlink:href="#id126">June</textPath></text><path d="M 110.8373102113329 117.98757091392108 l 0.9524016222312729 1.580778937240688 a22.84551643136889,22.84551643136889 0 0,0 -0.3385837483995723,0.2000412465755579 l -0.9250500028033185 -1.5969387561099955" fill="#ff1101" stroke="none" /><path d="M 110.5260780823613 118.17145234162733 l 1.1504444602174777 1.9860432838287898 a23.29518852848443,23.29518852848443 0 0,0 -0.34870815422534374,0.19800559069294088 l -1.1160875390709348 -2.0055520403163594" fill="#ff1702" stroke="none" /><path d="M 110.21172684928248 118.3499491758327 l 1.1198222718345232 2.0122631634602355 a23.302868854172036,23.302868854172036 0 0,0 -0.3521809043967031,0.1920371093347884 l -1.0850185555691714 -2.0312409245547944" fill="#ff1702" stroke="none" /><path d="M 109.89434966115114 118.52300852407294 l 1.0818961702609897 2.02539557123097 a23.296241830293017,23.296241830293017 0 0,0 -0.35533324738979316,0.1858935609479331 l -1.0468720203447008 -2.0437185511236198" fill="#ff1702" stroke="none" /><path d="M 109.57404056367764 118.69057910512821 l 1.0314653680317598 2.013641463828554 a23.262448397267548,23.262448397267548 0 0,0 -0.3579604427289733,0.17948879712120028 l -0.996651017620026 -2.0310981018590564" fill="#ff1702" stroke="none" /><path d="M 109.2508944713604 118.85261126421891 l 0.9683470644514017 1.9734168227156506 a23.198196986943795,23.198196986943795 0 0,0 -0.3599999296800073,0.1728218434061023 l -0.9342344667711617 -1.9897929426213128" fill="#ff1602" stroke="none" /><path d="M 108.92500713936063 119.00905698771935 l 1.0364487115433771 2.20749544677538 a23.438700899904283,23.438700899904283 0 0,0 -0.3666839706311211,0.16832662620371108 l -0.9982967451448365 -2.2250091433131653" fill="#ff1902" stroke="none" /><path d="M 108.2653958097858 119.30500536409082 l 0.9050739864746925 2.113928790089703 a23.299533398444847,23.299533398444847 0 0,0 -0.37005044613207,0.15468111649518507 l -0.8685520808451614 -2.1291949496048614" fill="#ff1702" stroke="none" /><path d="M 107.93186726928326 119.44442032107085 l 0.8954560434990229 2.1951481407493905 a23.370762933250482,23.370762933250482 0 0,0 -0.37379746219527665,0.14874172450793352 l -0.85753750526188 -2.210236709663393" fill="#ff1802" stroke="none" /><path d="M 107.59598834532513 119.57807347666477 l 0.799467711406978 2.0605662995493836 a23.21022218259182,23.21022218259182 0 0,0 -0.3737174906049879,0.14130797721229796 l -0.7638800000417154 -2.074022526868313" fill="#ff1602" stroke="none" /><path d="M 107.2578585660854 119.70592522655815 l 0.7866624658399047 2.1358795558263575 a23.276141320779164,23.276141320779164 0 0,0 -0.37716264740376754,0.13523710655474552 l -0.7497802578064025 -2.149104203421063" fill="#ff1702" stroke="none" /><path d="M 106.91757812671514 119.82793768551818 l 1.5079021697545685 4.322118190799358 a25.57760577253975,25.57760577253975 0 0,0 -0.4169518388066599,0.14145270174857585 l -1.4332805980106815 -4.347433879446057" fill="#ff3805" stroke="none" /><path d="M 106.57524785965236 119.94407469862006 l 0.9216292573365913 2.795490473529696 a23.943495791669164,23.943495791669164 0 0,0 -0.3925349773798376,0.1256773039109994 l -0.8733729348658134 -2.810940624100402" fill="#ff2103" stroke="none" /><path d="M 106.2309692047433 120.05430185196036 l 0.6944766134775932 2.235164896209852 a23.340568281404348,23.340568281404348 0 0,0 -0.3847026091895365,0.11590774038518388 l -0.6558990298478108 -2.246788005700761" fill="#ff1802" stroke="none" /><path d="M 105.88484417918355 120.15858648285463 l 0.6216596025148091 2.1295005404765774 a23.218385271608362,23.218385271608362 0 0,0 -0.38461678871102983,0.10869654632299884 l -0.5849116456991735 -2.1398858801380953" fill="#ff1602" stroke="none" /><path d="M 105.53697534728816 120.25689768951611 l 0.5872028302570781 2.1482681264488006 a23.227075011529195,23.227075011529195 0 0,0 -0.38657546200303344,0.10209809304470008 l -0.5501369254425472 -2.1580575687970844" fill="#ff1602" stroke="none" /><path d="M 105.18746579009965 120.34920634021253 l 0.5529556386283797 2.169114716651795 a23.23848578112221,23.23848578112221 0 0,0 -0.3884663857621212,0.09547558628012054 l -0.5155359681230474 -2.178311561245945" fill="#ff1602" stroke="none" /><path d="M 104.83641907484287 120.43548508189849 l 0.5109875672671434 2.1590930492851435 a23.21873637221122,23.21873637221122 0 0,0 -0.38972079656016817,0.08869918447511477 l -0.47374662131411327 -2.167568967337943" fill="#ff1602" stroke="none" /><path d="M 104.48393922423573 120.51570834832081 l 0.9767211273454406 4.468866499785711 a25.57435809196328,25.57435809196328 0 0,0 -0.4308774410190137,0.09029455710842205 l -0.8996522248970489 -4.485017037620674" fill="#ff3805" stroke="none" /><path d="M 104.13013068566511 120.58985236759428 l 0.437884437356707 2.182975940818146 a23.22646058547419,23.22646058547419 0 0,0 -0.3926736050817709,0.07525683098497823 l -0.40024321770323174 -2.1901899701515926" fill="#ff1602" stroke="none" /><line stroke="#e1ed5e" stroke-width="0.3" x1="102.19456741930631" x2="102.32365962044197" y1="184.97166512339345" y2="189.96999836594603" /><path d="M 102.22038585953345 185.97133177190398 a86.0,86.0 0 0,1 -42.740103519485714,-10.115201625700543" fill="none" id="id127" stroke="none" /><text fill="#e1ed5e" style="font-size:6.75px; font-family:Arial;" text-anchor="middle"><textPath startOffset="22.20632615414155" xlink:href="#id127">July</textPath></text><line stroke="#e1ed5e" stroke-width="0.3" x1="58.666819895761336" x2="56.23545636021788" y1="174.27360380694188" y2="178.64263932499728" /><path d="M 58.180547188652646 175.14741091055294 a86.0,86.0 0 0,1 -31.652253787137756,-30.449443065178592" fill="none" id="id128" stroke="none" /><text fill="#e1ed5e" style="font-size:6.75px; font-family:Arial;" text-anchor="middle"><textPath startOffset="22.20632615414155" xlink:href="#id128">August</textPath></text><line stroke="#e1ed5e" stroke-width="0.3" x1="26.63291911575756" x2="22.317208475507996" y1="142.92168965132927" y2="145.44649492493687" /><path d="M 25.769776987707644 143.4266507060508 a86.0,86.0 0 0,1 -11.730757126820373,-40.83630448921669" fill="none" id="id129" stroke="none" /><text fill="#e1ed5e" style="font-size:6.75px; font-family:Arial;" text-anchor="middle"><textPath startOffset="21.46611528233685" xlink:href="#id129">September</textPath></text><line stroke="#e1ed5e" stroke-width="0.3" x1="15.007084014347285" x2="10.007500721073583" y1="101.09737516637583" y2="101.16192664675087" /><path d="M 14.007167355692545 101.11028546245083 a86.0,86.0 0 0,1 10.666146001902534,-42.60595125391555" fill="none" id="id130" stroke="none" /><text fill="#e1ed5e" style="font-size:6.75px; font-family:Arial;" text-anchor="middle"><textPath startOffset="22.20632615414155" xlink:href="#id130">October</textPath></text><line stroke="#e1ed5e" stroke-width="0.3" x1="26.266209847984243" x2="21.928928074336255" y1="57.711370442889674" y2="55.22380399835377" /><path d="M 25.398753493254645 57.213857153982495 a86.0,86.0 0 0,1 29.58750427330803,-30.492523968695096" fill="none" id="id131" stroke="none" /><text fill="#e1ed5e" style="font-size:6.75px; font-family:Arial;" text-anchor="middle"><textPath startOffset="21.46611528233685" xlink:href="#id131">November</textPath></text><line stroke="#e1ed5e" stroke-width="0.3" x1="56.762969772571076" x2="54.21961505331055" y1="26.818313649435495" y2="22.513508569990535" /><path d="M 56.25429882871897 25.957352633546506 a86.0,86.0 0 0,1 42.265352541879196,-11.944610805530505" fill="none" id="id132" stroke="none" /><text fill="#e1ed5e" style="font-size:6.75px; font-family:Arial;" text-anchor="middle"><textPath startOffset="22.20632615414155" xlink:href="#id132">December</textPath></text></svg>